<?xml version="1.0" encoding="utf-8" standalone="yes"?>
<!DOCTYPE svg PUBLIC "-//W3C//DTD SVG 1.1//EN" "http://www.w3.org/Graphics/SVG/1.1/DTD/svg11.dtd">
<svg xmlns="http://www.w3.org/2000/svg" xmlns:xlink="http://www.w3.org/1999/xlink"
	width="16" height="16" version="1.1">
	<title>Anchor Add</title>
	<desc>Anchor Link Add</desc>
	<g id="icon" transform="translate(8,8)">
		<defs>
			<linearGradient id="backing" x1="0%" y1="0%" x2="100%" y2="100%">
				<stop offset="0%" stop-color="#cdcdcd" />
				<stop offset="100%" stop-color="#6e6e6e" />
			</linearGradient>
		</defs>
		<path fill="url(#backing)"
			d="M0,-4 a1,1 0 0,0 0,-2  m0,-1 a2,2 0 0,1 2,2 v2 h2 v1  a1,1 0 0,1 -1,1 h-2 v5 a5,5 0 0,0 3,-1 h-1 v-1 l1.5,0 a5,5 0 0,0 1,-1 a1,1 0 0,1 2,2 a8,8 0 0,1 -6.5,3.5 h-2 a8,8 0 0,1 -6.5,-3.5 a1,1 0 0,1 2,-2 a5,5 0 0,0 1,1 l1.5,0 v1 h-1 a5,5 0 0,0 3,1 v-5 h-2  a1,1 0 0,1 -1,-1 v-1 h2 v-2 a2,2 0 0,1 2,-2 m0,1 a1,1 0 0,0 0,2  z" />
		<path fill="#c7c6c7"
			d="M0,-2 l0.75,0 a0.5,0.5 0 0,0 0,-1 l-1.5,0 a0.5,0.5 0 0,0 0,1 z" />
		<path fill="#b8b8b8"
			d="M0,4.75 a7,7 0 0,0 6.25,-3 a0.5,0.5 0 0,1 0.75,0.75 a7.5,7.5 0 0,1 -7,3.25 a7.5,7.5 0 0,1 -7,-3.25 a0.5,0.5 0 0,1 0.75,-0.75 a7,7 0 0,0 6.25,3 z" />
		<path fill="#b8b8b8"
			d="M0,4.5 h1 a0.75,0.75 0 0,1 0,1.5 h-2 a0.75,0.75 0 0,1 0,-1.5 z" />
	</g>
	<g id="add" transform="translate(12.5,12.5)">
		<defs>
			<linearGradient id="backing_add" x1="0%" y1="0%" x2="100%"
				y2="100%">
				<stop offset="0%" stop-color="#6e9458" />
				<stop offset="100%" stop-color="#376b19" />
			</linearGradient>
			<linearGradient id="center_add" x1="0%" y1="0%" x2="100%" y2="100%">
				<stop offset="0%" stop-color="#b1d390" />
				<stop offset="100%" stop-color="#8fbc67" />
			</linearGradient>
		</defs>
		<circle id="back" r="3.5" fill="url(#backing_add)" />
		<circle id="center-dot" r="2.5" fill="url(#center_add)" />
		<path fill="#fff"
			d="M-0.5,-0.5 v-1 h1 v1 h1 v1 h-1 v1 h-1 v-1 h-1 v-1 h1 z " />
	</g>
</svg>
