<?xml version="1.0" encoding="utf-8" standalone="yes"?>
<!DOCTYPE svg PUBLIC "-//W3C//DTD SVG 1.1//EN" "http://www.w3.org/Graphics/SVG/1.1/DTD/svg11.dtd">
<svg xmlns="http://www.w3.org/2000/svg" xmlns:xlink="http://www.w3.org/1999/xlink"
	width="16" height="16" version="1.1">
	<title>Anchor Key</title>
	<desc>Anchor Link Key Security</desc>
	<g id="icon" transform="translate(8,8)">
		<defs>
			<linearGradient id="backing" x1="0%" y1="0%" x2="100%" y2="100%">
				<stop offset="0%" stop-color="#cdcdcd" />
				<stop offset="100%" stop-color="#6e6e6e" />
			</linearGradient>
		</defs>
		<path fill="url(#backing)"
			d="M0,-4 a1,1 0 0,0 0,-2  m0,-1 a2,2 0 0,1 2,2 v2 h2 v1  a1,1 0 0,1 -1,1 h-2 v5 a5,5 0 0,0 3,-1 h-1 v-1 l1.5,0 a5,5 0 0,0 1,-1 a1,1 0 0,1 2,2 a8,8 0 0,1 -6.5,3.5 h-2 a8,8 0 0,1 -6.5,-3.5 a1,1 0 0,1 2,-2 a5,5 0 0,0 1,1 l1.5,0 v1 h-1 a5,5 0 0,0 3,1 v-5 h-2  a1,1 0 0,1 -1,-1 v-1 h2 v-2 a2,2 0 0,1 2,-2 m0,1 a1,1 0 0,0 0,2  z" />
		<path fill="#c7c6c7"
			d="M0,-2 l0.75,0 a0.5,0.5 0 0,0 0,-1 l-1.5,0 a0.5,0.5 0 0,0 0,1 z" />
		<path fill="#b8b8b8"
			d="M0,4.75 a7,7 0 0,0 6.25,-3 a0.5,0.5 0 0,1 0.75,0.75 a7.5,7.5 0 0,1 -7,3.25 a7.5,7.5 0 0,1 -7,-3.25 a0.5,0.5 0 0,1 0.75,-0.75 a7,7 0 0,0 6.25,3 z" />
		<path fill="#b8b8b8"
			d="M0,4.5 h1 a0.75,0.75 0 0,1 0,1.5 h-2 a0.75,0.75 0 0,1 0,-1.5 z" />
		<g id="key-icon" transform="translate(2,3)">
			<defs>
				<linearGradient id="key-backing" x1="0%" y1="0%" x2="100%"
					y2="0%">
					<stop offset="0%" stop-color="#e3b044" />
					<stop offset="100%" stop-color="#d67d29" />
				</linearGradient>
				<linearGradient id="key-center" x1="0%" y1="0%" x2="100%" y2="0%">
					<stop offset="0%" stop-color="#f9eea9" />
					<stop offset="100%" stop-color="#f5d855" />
				</linearGradient>
				<linearGradient id="key-line" x1="0%" y1="0%" x2="0%" y2="100%">
					<stop offset="0%" stop-color="#eec528" stop-opacity="0" />
					<stop offset="100%" stop-color="#eec528" />
				</linearGradient>
				<linearGradient id="key-top" x1="0%" y1="0%" x2="100%" y2="100%">
					<stop offset="0%" stop-color="#eec528" stop-opacity="0" />
					<stop offset="100%" stop-color="#eec528" />
				</linearGradient>
			</defs>
			<g id="key-tick" transform="scale(0.625)">
				<path fill="url(#key-backing)"
					d="M-8,8 v-6 h2 v-2 h3 l1,-1 a3,3 0 0,1 -1,-3.5 l3,-3 a3,3 0 0,1 3.5,0 l3,3 a3,3 0 0,1 1,3.5 l-3,3 a3,3 0 0,1 -3,0 l-6,6 Z" />
				<path fill="url(#key-center)" d="M-7,7 v-4 h2 v-2 l2.5,0 l3,-3 l1.8,1.8 l-7.2,7.2 Z" />
				<path transform="scale(0.8)"
					d="M-1.5,-2 a3,3 0 0,1 -1,-3.5 l3,-3 a3,3 0 0,1 3.5,0 l3.3,3.3 a3,3 0 0,1 1,3.5 l-3,3 a3,3 0 0,1 -3,0 Z"
					fill="url(#key-center)" />
				<path transform="scale(0.6)"
					d="M-0.4,-3.2 a3,3 0 0,1 -1,-3.5 l3,-3 a3,3 0 0,1 3.5,0 l3.3,3.3 a3,3 0 0,1 1,3.5 l-3,3 a3,3 0 0,1 -3,0 Z"
					fill="url(#key-top)" />
				<path fill="url(#key-line)" d="M-6,6 v-1 l6,-6 l1,1 l-6,6 Z" />
				<rect width="2" height="1" transform="translate(3,-5) rotate(45)" fill="url(#key-backing)" />
			</g>
		</g>
	</g>
</svg>