<?xml version="1.0" encoding="utf-8" standalone="yes"?>
<!DOCTYPE svg PUBLIC "-//W3C//DTD SVG 1.1//EN" "http://www.w3.org/Graphics/SVG/1.1/DTD/svg11.dtd">
<svg xmlns="http://www.w3.org/2000/svg" xmlns:xlink="http://www.w3.org/1999/xlink"
	width="16" height="16" version="1.1">
	<title>Application Form</title>
	<desc>Application Window Form</desc>
	<g id="icon" transform="translate(8,8)">
		<defs>
			<linearGradient id="backing" x1="0%" y1="0%" x2="100%" y2="100%">
				<stop offset="0%" stop-color="#85acdd" />
				<stop offset="100%" stop-color="#5171a9" />
			</linearGradient>
			<linearGradient id="center" x1="0%" y1="0%" x2="100%" y2="100%">
				<stop offset="0%" stop-color="#ffffff" />
				<stop offset="100%" stop-color="#e6e5e6" />
			</linearGradient>
		</defs>
		<path fill="url(#backing)"
			d="M0,-7 h5 a2,2 0 0,1 2,2 v10 a1,1 0 0,1 -1,1 h-13 a1,1 0 0,1 -1,-1 v-10  a2,2 0 0,1 2,-2 z" />
		<rect width="13" height="9" x="-7" y="-4" fill="url(#center)" />
		<path fill="#92b9e8" d="M0,-6 h5 a1,1 0 0,1 1,1 h-13 a1,1 0 0,1 1,-1 h4 z" />
		<rect width="3" height="1" fill="#5883d2" x="-6" y="-2" />
		<rect width="3" height="1" fill="#5883d2" x="-6" y="2" />
		<rect width="7" height="3" fill="#fff" x="-2" y="-3" />
		<rect width="7" height="3" fill="#fff" x="-2" y="1" />
		<path fill="#000" opacity="0.25" d="M-2,-3 h7 v1 h-6 v2 h-1 z" />
		<path fill="#000" opacity="0.25" d="M-2,1 h7 v1 h-6 v2 h-1 z" />
	</g>
</svg>