<?xml version="1.0" encoding="utf-8" standalone="yes"?>
<!DOCTYPE svg PUBLIC "-//W3C//DTD SVG 1.1//EN" "http://www.w3.org/Graphics/SVG/1.1/DTD/svg11.dtd">
<svg xmlns="http://www.w3.org/2000/svg" xmlns:xlink="http://www.w3.org/1999/xlink"
	width="16" height="16" version="1.1">
	<title>Application XP Terminal</title>
	<desc>Application Window Terminal</desc>
	<g id="icon" transform="translate(8,8)">
		<defs>
			<linearGradient id="backing" x1="0%" y1="0%" x2="100%" y2="100%">
				<stop offset="0%" stop-color="#85acdd" />
				<stop offset="100%" stop-color="#5171a9" />
			</linearGradient>
			<linearGradient id="center" x1="0%" y1="0%" x2="100%" y2="100%">
				<stop offset="0%" stop-color="#313131" />
				<stop offset="100%" stop-color="#5d5d5d" />
			</linearGradient>
			<linearGradient id="center-inner" x1="0%" y1="0%" x2="100%"
				y2="100%">
				<stop offset="0%" stop-color="#202020" />
				<stop offset="100%" stop-color="#484848" />
			</linearGradient>
		</defs>
		<path fill="url(#backing)"
			d="M0,-7 h6 a2,2 0 0,1 2,2 v11 a1,1 0 0,1 -1,1 h-14 a1,1 0 0,1 -1,-1 v-11  a2,2 0 0,1 2,-2 z" />
		<rect width="14" height="10" x="-7" y="-4" fill="url(#center)" />
		<rect width="12" height="8" x="-6" y="-3" fill="url(#center-inner)" />
		<path fill="#92b9e8" d="M0,-6 h6 a1,1 0 0,1 1,1 h-14 a1,1 0 0,1 1,-1 h4 z" />
		<rect width="1" height="1" x="5" y="-6" fill="#ff6444" />
		<rect width="1" height="1" x="3" y="-6" fill="#c5c8cd" />
		<rect width="1" height="1" x="1" y="-6" fill="#c5c8cd" />
		<rect width="1" height="1" x="-6" y="-6" fill="#cedcf1" />
		<path fill="#ddd" d="M-5,-2 h1 l1.5,1.5 l-1.5,1.5 h-1 v-0.5 l1,-1 l-1,-1 z" />
	</g>
</svg>