<?xml version="1.0" encoding="utf-8" standalone="yes"?>
<!DOCTYPE svg PUBLIC "-//W3C//DTD SVG 1.1//EN" "http://www.w3.org/Graphics/SVG/1.1/DTD/svg11.dtd">
<svg xmlns="http://www.w3.org/2000/svg" xmlns:xlink="http://www.w3.org/1999/xlink"
	width="16" height="16" version="1.1">
	<title>Application OSX</title>
	<desc>Application Window OSX</desc>
	<g id="icon" transform="translate(8,8)">
		<defs>
			<linearGradient id="backing" x1="0%" y1="0%" x2="100%" y2="100%">
				<stop offset="0%" stop-color="#bfc4c8" />
				<stop offset="60%" stop-color="#8b95a1" />
				<stop offset="100%" stop-color="#4a535e" />
			</linearGradient>
			<linearGradient id="center" x1="100%" y1="0%" x2="0%" y2="100%">
				<stop offset="0%" stop-color="#f1f3f5" />
				<stop offset="100%" stop-color="#f6f7f8" />
			</linearGradient>
			<linearGradient id="red" x1="0%" y1="0%" x2="100%" y2="100%">
				<stop offset="0%" stop-color="#d34f4a" />
				<stop offset="100%" stop-color="#e88e89" />
			</linearGradient>
			<linearGradient id="yellow" x1="0%" y1="0%" x2="100%" y2="100%">
				<stop offset="0%" stop-color="#e88e89" />
				<stop offset="100%" stop-color="#f0d24d" />
			</linearGradient>
			<linearGradient id="green" x1="00%" y1="0%" x2="100%" y2="100%">
				<stop offset="0%" stop-color="#42b03e" />
				<stop offset="100%" stop-color="#82d47e" />
			</linearGradient>
		</defs>
		<path fill="url(#backing)"
			d="M0,-7 h6 a2,2 0 0,1 2,2 v11 a1,1 0 0,1 -1,1 h-14 a1,1 0 0,1 -1,-1 v-11  a2,2 0 0,1 2,-2 z" />
		<rect width="14" height="9" x="-7" y="-3" fill="#fff" />
		<rect width="12" height="8" x="-6" y="-2" fill="url(#center)" />
		<path fill="#eaedef"
			d="M0,-6 h6 a1,1 0 0,1 1,1 v1 h-14 v-1 a1,1 0 0,1 1,-1 h4 z" />
		<rect width="13" height="1" x="-7" y="5" fill="#000" opacity="0.06" />
		<rect x="-7" y="-6" height="2" width="1" rx="0.25" ry="0.25" fill="url(#red)" />
		<rect x="-6" y="-6" height="2" width="1" rx="0.25" ry="0.25" fill="url(#yellow)" />
		<rect x="-5" y="-6" height="2" width="1" rx="0.25" ry="0.25" fill="url(#green)" />
		<rect width="10" height="2" x="-4" y="-6" fill="#fff" />
		<rect width="10" height="2" x="-4" y="-6" fill="#000" opacity="0.1" />
		<rect width="8" height="1" x="-3" y="-5" fill="#fff" />
	</g>
</svg>
