<?xml version="1.0" encoding="utf-8" standalone="yes"?>
<!DOCTYPE svg PUBLIC "-//W3C//DTD SVG 1.1//EN" "http://www.w3.org/Graphics/SVG/1.1/DTD/svg11.dtd">
<svg xmlns="http://www.w3.org/2000/svg" xmlns:xlink="http://www.w3.org/1999/xlink"
	width="16" height="16" version="1.1">
	<title>Application Double</title>
	<desc>Application Window Double</desc>
	<g id="icon" transform="translate(8,8)">
		<defs>
			<linearGradient id="backing" x1="0%" y1="0%" x2="100%" y2="100%">
				<stop offset="0%" stop-color="#85acdd" />
				<stop offset="100%" stop-color="#5171a9" />
			</linearGradient>
			<linearGradient id="center" x1="100%" y1="0%" x2="0%" y2="100%">
				<stop offset="0%" stop-color="#dee7f2" />
				<stop offset="100%" stop-color="#fff" />
			</linearGradient>
		</defs>
		<g transform="translate(0,-1)" opacity="0.76">
			<path fill="url(#backing)"
				d="M0,-7 h3 a2,2 0 0,1 2,2 v8 a1,1 0 0,1 -1,1 h-11 a1,1 0 0,1 -1,-1 v-8  a2,2 0 0,1 2,-2 z" />
			<rect width="11" height="7" x="-7" y="-4" fill="#fff" />
			<rect width="9" height="5" x="-6" y="-3" fill="url(#center)" />
			<path fill="#92b9e8" d="M-2,-6 h5 a1,1 0 0,1 1,1 h-11 a1,1 0 0,1 1,-1 h4 z" />
		</g>
		<g transform="translate(3,3)">
			<path fill="url(#backing)"
				d="M0,-7 h3 a2,2 0 0,1 2,2 v8 a1,1 0 0,1 -1,1 h-11 a1,1 0 0,1 -1,-1 v-8  a2,2 0 0,1 2,-2 z" />
			<rect width="11" height="7" x="-7" y="-4" fill="#fff" />
			<rect width="9" height="5" x="-6" y="-3" fill="url(#center)" />
			<path fill="#92b9e8" d="M-2,-6 h5 a1,1 0 0,1 1,1 h-11 a1,1 0 0,1 1,-1 h4 z" />
		</g>
	</g>
</svg>