<?xml version="1.0" encoding="utf-8" standalone="yes"?>
<!DOCTYPE svg PUBLIC "-//W3C//DTD SVG 1.1//EN" "http://www.w3.org/Graphics/SVG/1.1/DTD/svg11.dtd">
<svg xmlns="http://www.w3.org/2000/svg" xmlns:xlink="http://www.w3.org/1999/xlink"
	width="16" height="16" version="1.1">
	<title>Application Side Expand</title>
	<desc>Application Window Side Expand</desc>
	<g id="icon" transform="translate(8,8)">
		<defs>
			<linearGradient id="backing" x1="0%" y1="0%" x2="100%" y2="100%">
				<stop offset="0%" stop-color="#85acdd" />
				<stop offset="100%" stop-color="#5171a9" />
			</linearGradient>
			<linearGradient id="center" x1="100%" y1="0%" x2="0%" y2="100%">
				<stop offset="0%" stop-color="#dee7f2" />
				<stop offset="100%" stop-color="#fff" />
			</linearGradient>
			<linearGradient id="side" x1="0%" y1="0%" x2="100%" y2="100%">
				<stop offset="0%" stop-color="#daffd5" />
				<stop offset="100%" stop-color="#dfffda" />
			</linearGradient>
			<linearGradient id="shade" x1="0%" y1="0%" x2="100%" y2="0%">
				<stop offset="0%" stop-color="#0f8200" />
				<stop offset="50%" stop-color="#0f8200" stop-opacity="0.3" />
				<stop offset="100%" stop-color="#0b6400" stop-opacity="0" />
			</linearGradient>
			<linearGradient id="arrow" x1="100%" y1="0%" x2="0%" y2="0%">
				<stop offset="0%" stop-color="#71b969" />
				<stop offset="100%" stop-color="#205e1d" />
			</linearGradient>
			<linearGradient id="arrow-center" x1="100%" y1="0%" x2="0%"
				y2="100%">
				<stop offset="0%" stop-color="#96cc8e" />
				<stop offset="100%" stop-color="#8ec887" />
			</linearGradient>
		</defs>
		<path fill="url(#backing)"
			d="M0,-7 h5 a2,2 0 0,1 2,2 v10 a1,1 0 0,1 -1,1 h-13 a1,1 0 0,1 -1,-1 v-10  a2,2 0 0,1 2,-2 z" />
		<rect width="13" height="9" x="-7" y="-4" fill="#fff" />
		<rect width="5" height="9" x="-7" y="-4" fill="url(#side)" />
		<path fill="#92b9e8" d="M0,-6 h5 a1,1 0 0,1 1,1 h-13 a1,1 0 0,1 1,-1 h4 z" />
		<g transform="scale(-1,1) translate(4,0)">
			<rect width="3" height="9" x="-2" y="-4" fill="url(#shade)" />
			<path fill="url(#arrow)"
				d="M-1,-4 h-1 v3 h-1 v-2 l-0.5,0 l-3.5,3.5 l3.5,3.5 l0.5,0 v-2 h1 v3 h1 " />
			<path fill="url(#arrow-center)" d="M-2,0 l-1.5,0 v-2 l-2.5,2.5 l2.5,2.5 v-2 l1.5,0" />
		</g>
	</g>
</svg>