<?xml version="1.0" encoding="utf-8" standalone="yes"?>
<!DOCTYPE svg PUBLIC "-//W3C//DTD SVG 1.1//EN" "http://www.w3.org/Graphics/SVG/1.1/DTD/svg11.dtd">
<svg xmlns="http://www.w3.org/2000/svg" xmlns:xlink="http://www.w3.org/1999/xlink"
	width="16" height="16" version="1.1">
	<title>Application Expand</title>
	<desc>Application Window Expand Full Screen</desc>
	<g id="icon" transform="translate(8,8)">
		<defs>
			<linearGradient id="backing" x1="0%" y1="0%" x2="100%" y2="100%">
				<stop offset="0%" stop-color="#85acdd" />
				<stop offset="100%" stop-color="#5171a9" />
			</linearGradient>
			<linearGradient id="center" x1="100%" y1="0%" x2="0%" y2="100%">
				<stop offset="0%" stop-color="#dee7f2" />
				<stop offset="100%" stop-color="#fff" />
			</linearGradient>
		</defs>
		<path fill="url(#backing)"
			d="M0,-8 h6 a2,2 0 0,1 2,2 v12 a1,1 0 0,1 -1,1 h-14 a1,1 0 0,1 -1,-1 v-12  a2,2 0 0,1 2,-2 z" />
		<rect width="14" height="11" x="-7" y="-5" fill="#fff" />
		<rect width="12" height="9" x="-6" y="-4" fill="url(#center)" />
		<path fill="#92b9e8" d="M0,-7 h6 a1,1 0 0,1 1,1 h-14 a1,1 0 0,1 1,-1 h4 z" />
		<g id="arrow" >
			<defs>
				<linearGradient id="arrow-backing" x1="0%" y1="0%" x2="100%"
					y2="100%">
					<stop offset="0%" stop-color="#72c466" />
					<stop offset="100%" stop-color="#22601e" />
				</linearGradient>
				<linearGradient id="arrow-center" x1="0%" y1="0%" x2="100%"
					y2="100%">
					<stop offset="0%" stop-color="#a7d69e" />
					<stop offset="100%" stop-color="#78bd72" />
				</linearGradient>
			</defs>
			<path fill="url(#arrow-backing)"
				d="M-6,-5 h5 l-1.5,1.5 l2,2 l-2,2 l-2,-2 l-1.5,1.5 v-5 m12,0  h-5 l1.5,1.5 l-2,2 l2,2 l2,-2 l1.5,1.5 v-5 m0,11 h-5 l1.5,-1.5 l-2,-2 l2,-2 l2,2 l1.5,-1.5 v5  m-12,0 h5 l-1.5,-1.5 l2,-2 l-2,-2 l-2,2 l-1.5,-1.5 v5 z" />
			<path fill="url(#arrow-center)"
				d="M-5,-4 h2 l-0.75,0.75 l2,2 l-0.5,0.5 l-2,-2 l-0.75,0.75 v-2 m10,0 h-2 l0.75,0.75 l-2,2 l0.5,0.5 l2,-2 l0.75,0.75 v-2 m0,9  h-2 l0.75,-0.75 l-2,-2 l0.5,-0.5 l2,2 l0.75,-0.75 v2 m-10,0 h2 l-0.75,-0.75 l2,-2 l-0.5,-0.5 l-2,2 l-0.75,-0.75 v2 z" />
		</g>
	</g>
</svg>
