<?xml version="1.0" encoding="utf-8" standalone="yes"?>
<!DOCTYPE svg PUBLIC "-//W3C//DTD SVG 1.1//EN" "http://www.w3.org/Graphics/SVG/1.1/DTD/svg11.dtd">
<svg xmlns="http://www.w3.org/2000/svg" xmlns:xlink="http://www.w3.org/1999/xlink"
	width="16" height="16" version="1.1">
	<title>Application Tile Horizontal</title>
	<desc>Application Window Tile Horizontal</desc>
	<g id="icon" transform="translate(8,8)">
		<defs>
			<linearGradient id="backing" x1="0%" y1="0%" x2="100%" y2="100%">
				<stop offset="0%" stop-color="#85acdd" />
				<stop offset="100%" stop-color="#5171a9" />
			</linearGradient>
			<linearGradient id="center" x1="100%" y1="0%" x2="0%" y2="100%">
				<stop offset="0%" stop-color="#dee7f2" />
				<stop offset="100%" stop-color="#fff" />
			</linearGradient>
		</defs>
		<path fill="url(#backing)"
			d="M-1,-5 a2,2 0 0,1 2,-2 h4 a2,2 0 0,1 2,2 v10 a1,1 0 0,1 -1,1 h-13 a1,1 0 0,1 -1,-1 v-10  a2,2 0 0,1 2,-2 h4 a2,2 0 0,1 2,2 z" />
		<rect width="6" height="9" x="-7" y="-4" fill="#fff" />
		<rect width="4" height="7" x="-6" y="-3" fill="url(#center)" />
		<rect width="6" height="9" x="0" y="-4" fill="#fff" />
		<rect width="4" height="7" x="1" y="-3" fill="url(#center)" />
		<path fill="#92b9e8"
			d="M0.5,-5 a1,1 0 0,1 1,-1 h3 a1,1 0 0,1 1,1 h-12 a1,1 0 0,1 1,-1 h3 a1,1 0 0,1 1,1 z" />
	</g>
</svg>
