<?xml version="1.0" encoding="utf-8" standalone="yes"?>
<!DOCTYPE svg PUBLIC "-//W3C//DTD SVG 1.1//EN" "http://www.w3.org/Graphics/SVG/1.1/DTD/svg11.dtd">
<svg xmlns="http://www.w3.org/2000/svg" xmlns:xlink="http://www.w3.org/1999/xlink"
	width="16" height="16" version="1.1">
	<title>Application</title>
	<desc>Application Window</desc>
	<g id="icon" transform="translate(8,8)">
		<defs>
			<linearGradient id="backing" x1="0%" y1="0%" x2="100%" y2="100%">
				<stop offset="0%" stop-color="#85acdd" />
				<stop offset="100%" stop-color="#5171a9" />
			</linearGradient>
			<linearGradient id="center" x1="100%" y1="0%" x2="0%" y2="100%">
				<stop offset="0%" stop-color="#dee7f2" />
				<stop offset="100%" stop-color="#fff" />
			</linearGradient>
		</defs>
		<path fill="url(#backing)"
			d="M0,-7 h5 a2,2 0 0,1 2,2 v10 a1,1 0 0,1 -1,1 h-13 a1,1 0 0,1 -1,-1 v-10  a2,2 0 0,1 2,-2 z" />
		<rect width="13" height="9" x="-7" y="-4" fill="#fff" />
		<rect width="11" height="7" x="-6" y="-3" fill="url(#center)" />
		<path fill="#92b9e8" d="M0,-6 h5 a1,1 0 0,1 1,1 h-13 a1,1 0 0,1 1,-1 h4 z" />
	</g>
	<g id="gear" transform="translate(8,8)">
		<defs>
				<linearGradient id="gear-backing" x1="0%" y1="0%" x2="100%"
				y2="100%">
				<stop offset="0%" stop-color="#ccc" />
				<stop offset="100%" stop-color="#222" />
			</linearGradient>
			<radialGradient id="gear-inner" cx="55%" cy="55%" r="50%">
				<stop offset="0%" stop-color="#aaa" />
				<stop offset="100%" stop-color="#eee" />
			</radialGradient>
		</defs>
		<path transform="scale(0.8)" id="branch"
			d="M4,4 a1,1 0 0,0 -2,0 a1,1 0 0,0 2,0 m2.75,-1.5 h2 l1.83691e-16,3 h-2 v0 l1.41421,1.41421 l-2.12132,2.12132 l-1.41421,-1.41421 h0 l1.22461e-16,2 l-3,3.67382e-16 l-1.22461e-16,-2 h0 l-1.41421,1.41421 l-2.12132,-2.12132 l1.41421,-1.41421 h0 l-2,2.44921e-16 l-5.51073e-16,-3 l2,-2.44921e-16 h0 l-1.41421,-1.41421 l2.12132,-2.12132 l1.41421,1.41421 h0 l-3.67382e-16,-2 l3,-7.34764e-16 l3.67382e-16,2 h0 l1.41421,-1.41421 l2.12132,2.12132 l-1.41421,1.41421 h0 z z"
			fill="url(#gear-backing)" />
		<path transform="scale(0.8)" id="inner-branch"
			d="M5,4 a2,2 0 0,0 -4,0 a2,2 0 0,0 4,0 m1.75,-0.5 h1 l6.12303e-17,1 h-1 l-0.727099,1.75537 l0.707107,0.707107 l-0.707107,0.707107 l-0.707107,-0.707107 l-1.75537,0.727099 l6.12303e-17,1 l-1,1.22461e-16 l-6.12303e-17,-1 l-1.75537,-0.727099 l-0.707107,0.707107 l-0.707107,-0.707107 l0.707107,-0.707107 l-0.727099,-1.75537 l-1,1.22461e-16 l-1.83691e-16,-1 l1,-1.22461e-16 l0.727099,-1.75537 l-0.707107,-0.707107 l0.707107,-0.707107 l0.707107,0.707107 l1.75537,-0.727099 l-1.83691e-16,-1 l1,-2.44921e-16 l1.83691e-16,1 l1.75537,0.727099 l0.707107,-0.707107 l0.707107,0.707107 l-0.707107,0.707107 l0.727099,1.75537 z"
			fill="url(#gear-inner)" />
	</g>
</svg>
