<?xml version="1.0" encoding="utf-8" standalone="yes"?>
<!DOCTYPE svg PUBLIC "-//W3C//DTD SVG 1.1//EN" "http://www.w3.org/Graphics/SVG/1.1/DTD/svg11.dtd">
<svg xmlns="http://www.w3.org/2000/svg" xmlns:xlink="http://www.w3.org/1999/xlink"
	width="16" height="16" version="1.1">
	<title>Application View Gallery</title>
	<desc>Application Window View Gallery</desc>
	<g id="icon" transform="translate(8,8)">
		<defs>
			<linearGradient id="backing" x1="0%" y1="0%" x2="100%" y2="100%">
				<stop offset="0%" stop-color="#85acdd" />
				<stop offset="100%" stop-color="#5171a9" />
			</linearGradient>
			<linearGradient id="sky" x1="0%" y1="0%" x2="100%" y2="100%">
				<stop offset="0%" stop-color="#7ec8fb" />
				<stop offset="100%" stop-color="#3499d9" />
			</linearGradient>
			<linearGradient id="land" x1="0%" y1="0%" x2="100%" y2="100%">
				<stop offset="0%" stop-color="#5dcb4d" />
				<stop offset="100%" stop-color="#84d260" />
			</linearGradient>
		</defs>
		<path fill="url(#backing)"
			d="M0,-7 h5 a2,2 0 0,1 2,2 v10 a1,1 0 0,1 -1,1 h-13 a1,1 0 0,1 -1,-1 v-10  a2,2 0 0,1 2,-2 z" />
		<rect width="13" height="9" x="-7" y="-4" fill="#fff" />
		<path fill="#92b9e8" d="M0,-6 h5 a1,1 0 0,1 1,1 h-13 a1,1 0 0,1 1,-1 h4 z" />
		<rect width="13" height="6" x="-7" y="-4" fill="#eee" />
		<rect width="2" height="1" x="-6" y="3" fill="#60b0eb" />
		<rect width="2" height="1" x="-3" y="3" fill="#f2cd55" />
		<rect width="2" height="1" x="0" y="3" fill="#84c37e" />
		<rect width="2" height="1" x="3" y="3" fill="#fe6f6b" />
		<rect width="1" height="4" x="-6" y="-3" fill="#b5b5b5" />
		<rect width="1" height="4" x="4" y="-3" fill="#b5b5b5" />
		<rect width="9" height="4" x="-5" y="-3" fill="url(#sky)" />
		<path fill="#f8e074" d="M4,-3 h-3 a2,2 0 0,0 3,1.5 " />
		<path fill="url(#land)" d="M-5,-2 a3,3 0 0,1 3,0.5 a3,3 0 0,0 2,1 h4.5 v1 h-9" />
	</g>
</svg>