<?xml version="1.0" encoding="utf-8" standalone="yes"?>
<!DOCTYPE svg PUBLIC "-//W3C//DTD SVG 1.1//EN" "http://www.w3.org/Graphics/SVG/1.1/DTD/svg11.dtd">
<svg xmlns="http://www.w3.org/2000/svg" xmlns:xlink="http://www.w3.org/1999/xlink"
	width="16" height="16" version="1.1">
	<title>Arrow Redo</title>
	<desc>Arrow Redo</desc>
	<g id="icon" transform="translate(8,9)">
		<defs>
			<linearGradient id="arrow-backing" x2="0%" y2="0%" x1="100%"
				y1="100%">
				<stop offset="0%" stop-color="#72c466" />
				<stop offset="100%" stop-color="#22601e" />
			</linearGradient>
			<linearGradient id="arrow-center" x2="0%" y2="0%" x1="100%"
				y1="100%">
				<stop offset="0%" stop-color="#a7d69e" />
				<stop offset="100%" stop-color="#78bd72" />
			</linearGradient>
		</defs>
		<g transform="scale(-1,-1)">
			<path fill="url(#arrow-backing)"
				d="M-6,-6 h7 a6,6 0 0,1 0,12 h-4 v2 l-4,-4 l4,-4 v2 h4 a2,2 0 0,0 0,-4 h-7 z" />
			<path fill="url(#arrow-center)"
				d="M-5,-5 h6 a5,5 0 0,1 0,10 l-4.5,0 v1.5 l-2.5,-2.5 l2.5,-2.5 v1.5 l4.5,0 a3,3 0 0,0 0,-6 h-6 z" />
		</g>
	</g>
</svg>