<?xml version="1.0" encoding="utf-8" standalone="yes"?>
<!DOCTYPE svg PUBLIC "-//W3C//DTD SVG 1.1//EN" "http://www.w3.org/Graphics/SVG/1.1/DTD/svg11.dtd">
<svg xmlns="http://www.w3.org/2000/svg" xmlns:xlink="http://www.w3.org/1999/xlink"
	width="16" height="16" version="1.1">
	<title>Arrow Join</title>
	<desc>Arrow Up Join Merge</desc>
	<g id="icon" transform="translate(8,8)">
		<defs>
			<linearGradient id="arrow-backing" x1="0%" y1="0%" x2="100%"
				y2="100%">
				<stop offset="0%" stop-color="#72c466" />
				<stop offset="100%" stop-color="#22601e" />
			</linearGradient>
			<linearGradient id="arrow-center" x1="0%" y1="0%" x2="100%"
				y2="100%">
				<stop offset="0%" stop-color="#a7d69e" />
				<stop offset="100%" stop-color="#78bd72" />
			</linearGradient>
		</defs>
		<path fill="url(#arrow-backing)"
			d="M-6,7 v-4 a1,1 0 0,1 0.5,-1 l3,-2 a1,1 0 0,0 0.5,-1 v-2 h-2 l4,-4 l4,4 h-2 v2 a1,1 0 0,0 0.5,1 l3,2 a1,1 0 0,1 0.5,1 v4 h-4 v-2 a2,2 0 0,0 -4,0 v2  z" />
		<path fill="url(#arrow-center)"
			d="M-5,6 v-2.5 a1,1 0 0,1 0.5,-1 l3,-2 a1,1 0 0,0 0.5,-1 v-3 l-1.5,0 l2.5,-2.5 l2.5,2.5 l-1.5,0 v3 a1,1 0 0,0 0.5,1 l3,2 a1,1 0 0,1 0.5,1 v2.5 h-2 v-1 a3,3 0 0,0 -6,0 v1  z" />
		<!--
			<path d="M-2,7 h4 v-3 a1,1 0 0,1 0.5,-1 l3,-2 a1,1 0 0,0 0.5,-1 v-3
			h2 l-4,-4 l-4,4 h2 v1 a2,2 0 0,1 -4,0 v-1 h2 l-4,-4 l-4,4 h2 v3
			a1,1 0 0,0 0.5,1 l3,2 a1,1 0 0,1 0.5,1 z" fill="url(#arrow-backing)" /> <path
			d="M-1,6 h2 v-2.5 a1,1 0 0,1 0.5,-1 l3,-2 a1,1 0 0,0 0.5,-1 v-3 l1.5,0
			l-2.5,-2.5 l-2.5,2.5 l1.5,0 v1.5 a3,3 0 0,1 -6,0 v-1.5 l1.5,0 l-2.5,-2.5
			l-2.5,2.5 l1.5,0 v3 a1,1 0 0,0 0.5,1 l3,2 a1,1 0 0,1 0.5,1 z"
			fill="url(#arrow-center)" />
		-->
	</g>
</svg>