<?xml version="1.0" encoding="utf-8" standalone="yes"?>
<!DOCTYPE svg PUBLIC "-//W3C//DTD SVG 1.1//EN" "http://www.w3.org/Graphics/SVG/1.1/DTD/svg11.dtd">
<svg xmlns="http://www.w3.org/2000/svg" xmlns:xlink="http://www.w3.org/1999/xlink"
	width="16" height="16" version="1.1">
	<title>Arrow Switch</title>
	<desc>Arrow Switch</desc>
	<g id="icon" transform="translate(8,8)">
		<defs>
			<linearGradient id="arrow-backing" x1="0%" y1="0%" x2="100%"
				y2="100%">
				<stop offset="0%" stop-color="#72c466" />
				<stop offset="100%" stop-color="#22601e" />
			</linearGradient>
			<linearGradient id="arrow-center" x1="0%" y1="0%" x2="100%"
				y2="100%">
				<stop offset="0%" stop-color="#a7d69e" />
				<stop offset="100%" stop-color="#78bd72" />
			</linearGradient>
		</defs>
		<path fill="url(#arrow-backing)"
			d="M3,0 h1 l3,3 l-4,4 v-2 h-2 a1,1 0 0,1 -1,-0.5 l-3,-5 a1,1 0 0,0 -1,-0.5 h-4 v-4 h6 a1,1 0 0,1 1,0.5 l3,5  a1,1 0 0,0 1,0.5 v-1 z h1 l3,-3 l-4,-4 v2 h-2 a1,1 0 0,0 -1,0.5 l-.5,0.833 l2.1996,3.667 l.3,-.5  a1,1 0 0,1 1,-0.5 v1 M-8,1 v4 h6  a1,1 0 0,0 1,-0.5 l0.5,-0.8333 l-2.1996,-3.666 l-.3,.5 a1,1 0 0,1 -1,0.5 z" />
		<path fill="url(#arrow-center)"
			d="M-7,-2 v-2 l4.5,0 a1,1 0 0,1 1,0.5 l3,5 a1,1 0 0,0 1,0.5 h1 v-1.5 l2.5,2.5 l-2.5,2.5 v-1.5 l-2.25,0 a1,1 0 0,1 -1,-0.5 l-3,-5 a1,1 0 0,0 -1,-0.5 M-7,2 v2 l4.5,0 a1,1 0 0,0 1,-0.5 l0.5,-0.833 l-1.2,-2 l-0.5,0.833 a1,1 0 0,1 -1,0.5 M3.5,-2 v1.5 l2.5,-2.5 l-2.5,-2.5 v1.5 h-2 a1,1 0 0,0 -1,0.5 l-0.5,0.833 l1.2,2 l0.5,-0.833 a1,1 0 0,1 1,-0.5 z" />
	</g>
</svg>