<?xml version="1.0" encoding="utf-8" standalone="yes"?>
<!DOCTYPE svg PUBLIC "-//W3C//DTD SVG 1.1//EN" "http://www.w3.org/Graphics/SVG/1.1/DTD/svg11.dtd">
<svg xmlns="http://www.w3.org/2000/svg" xmlns:xlink="http://www.w3.org/1999/xlink"
	width="16" height="16" version="1.1">
	<title>Arrow Refresh</title>
	<desc>Arrow Refresh</desc>
	<g id="icon" transform="translate(8,8)">
		<defs>
			<linearGradient id="arrow-backing" x1="0%" y1="0%" x2="100%"
				y2="100%">
				<stop offset="0%" stop-color="#72c466" />
				<stop offset="100%" stop-color="#22601e" />
			</linearGradient>
			<linearGradient id="arrow-center" x1="0%" y1="0%" x2="100%"
				y2="100%">
				<stop offset="0%" stop-color="#a7d69e" />
				<stop offset="100%" stop-color="#78bd72" />
			</linearGradient>
		</defs>
		<path fill="url(#arrow-backing)"
			d="M-8,0 a6,6 0 0,1 6,-6 h3 v-2 l4,4 l-4,4 v-2 h-3 a2,2 0 0,0 -2,2 h-4 m12,0 h4 a6,6 0 0,1 -6,6 h-3 v2 l-4,-4 l4,-4 v2 h3 a2,2 0 0,0 2,-2 z" />
		<path fill="url(#arrow-center)"
			d="M-7,-1 a5,5 0 0,1 5,-4 l3.5,0 v-1.5 l2.5,2.5 l-2.5,2.5 v-1.5 h-4 a3,3 0 0,0 -2.5,2 h-2 m12,2 h2 a5,5 0 0,1 -5,4 l-3.5,0 v1.5 l-2.5,-2.5 l2.5,-2.5 v1.5 h4 a3,3 0 0,0 2.5,-2  z" />
	</g>
</svg>