<?xml version="1.0" encoding="utf-8" standalone="yes"?>
<!DOCTYPE svg PUBLIC "-//W3C//DTD SVG 1.1//EN" "http://www.w3.org/Graphics/SVG/1.1/DTD/svg11.dtd">
<svg xmlns="http://www.w3.org/2000/svg" xmlns:xlink="http://www.w3.org/1999/xlink"
	width="16" height="16" version="1.1">
	<title>Arrow Rotate Anticlockwise</title>
	<desc>Arrow Rotate Anticlockwise</desc>
	<g id="icon" transform="translate(8,8)">
		<defs>
			<linearGradient id="arrow-backing" x1="0%" y1="0%" x2="100%"
				y2="100%">
				<stop offset="0%" stop-color="#72c466" />
				<stop offset="100%" stop-color="#22601e" />
			</linearGradient>
			<linearGradient id="arrow-center" x1="0%" y1="0%" x2="100%"
				y2="100%">
				<stop offset="0%" stop-color="#a7d69e" />
				<stop offset="100%" stop-color="#78bd72" />
			</linearGradient>
		</defs>
		<path fill="url(#arrow-backing)"
			d="M6,0 a6,6 0 1,0 -6,6 v2 l4,-4 l-4,-4 v2 a2,2 0 1,1 2,-2 z" />
		<path fill="url(#arrow-center)"
			d="M4.9,-1 a5,5 0 1,0 -4.9,6 l.5,0 v1.5 l2.5,-2.5 l-2.5,-2.5 v1.5 l-0.5,0 a3,3 0 1,1 2.83,-4 z" />
	</g>
</svg>