<?xml version="1.0" encoding="utf-8" standalone="yes"?>
<!DOCTYPE svg PUBLIC "-//W3C//DTD SVG 1.1//EN" "http://www.w3.org/Graphics/SVG/1.1/DTD/svg11.dtd">
<svg xmlns="http://www.w3.org/2000/svg" xmlns:xlink="http://www.w3.org/1999/xlink"
	width="16" height="16" version="1.1">
	<title>Arrow Branch</title>
	<desc>Arrow Branch Split</desc>
	<g id="icon" transform="translate(8,8)">
		<defs>
			<linearGradient id="arrow-backing" x1="0%" y1="0%" x2="100%"
				y2="100%">
				<stop offset="0%" stop-color="#72c466" />
				<stop offset="100%" stop-color="#22601e" />
			</linearGradient>
			<linearGradient id="arrow-center" x1="0%" y1="0%" x2="100%"
				y2="100%">
				<stop offset="0%" stop-color="#a7d69e" />
				<stop offset="100%" stop-color="#78bd72" />
			</linearGradient>
		</defs>
		<path fill="url(#arrow-backing)"
			d="M-5,8 v-12 h-2 l4,-4 l4,4 h-2 v4 h4 v-2 l4,4 l-4,4 v-2 h-1 a3,3 0 0,0 -3,3 v1 h-4 z" />
		<path fill="url(#arrow-center)"
			d="M-4,7 v-11.5 l-1.5,0 l2.5,-2.5 l2.5,2.5 l-1.5,0 v5.5 a3,3 0 0,0 -1,2 v2 a4,4 0 0,1 4,-4 l2.5,0 v-1.5 l2.5,2.5 l-2.5,2.5 v-1.5 l-1.2,0 a4,4 0 0,0 -4,4  z" />
	</g>
</svg>