<?xml version="1.0" encoding="utf-8" standalone="yes"?>
<!DOCTYPE svg PUBLIC "-//W3C//DTD SVG 1.1//EN" "http://www.w3.org/Graphics/SVG/1.1/DTD/svg11.dtd">
<svg xmlns="http://www.w3.org/2000/svg" xmlns:xlink="http://www.w3.org/1999/xlink"
	width="16" height="16" version="1.1">
	<title>Arrow In Out</title>
	<desc>Arrow In Out</desc>
	<g id="icon" transform="translate(8,8)">
		<defs>
			<linearGradient id="arrow-backing" x1="0%" y1="0%" x2="100%"
				y2="100%">
				<stop offset="0%" stop-color="#72c466" />
				<stop offset="100%" stop-color="#22601e" />
			</linearGradient>
			<linearGradient id="arrow-center" x1="0%" y1="0%" x2="100%"
				y2="100%">
				<stop offset="0%" stop-color="#a7d69e" />
				<stop offset="100%" stop-color="#78bd72" />
			</linearGradient>
		</defs>
		<path fill="url(#arrow-backing)"
			d="M-8,-8 h5 l-1,1 l1,1 l1,-1 v5 h-5 l1,-1 l-1,-1 l-1,1 v-5 m16,0 h-5 l1,1 l-1,1 l-1,-1 v5 h5 l-1,-1 l1,-1 l1,1 v-5 m0,16 h-5 l1,-1 l-1,-1 l-1,1 v-5 h5 l-1,1 l1,1 l1,-1 v5 m-16,0 h5 l-1,-1 l1,-1 l1,1 v-5 h-5 l1,1 l-1,1 l-1,-1 v5 z" />
		<!-- The path designed for 16x16 -->
		<!--
			<path d="M-8,-8 h5 v1 h-1 v1 h1 v-1 h1 v5 h-5 v-1 h1
			v-1 h-1 v1 h-1 v-5 m16,0 h-5 v1 h1 v1 h-1 v-1 h-1
			v5 h5 v-1 h-1 v-1 h1 v1 h1 v-5 m0,16 h-5 v-1 h1 v-1
			h-1 v1 h-1 v-5 h5 v1 h-1 v1 h1 v-1 h1 v5 m-16,0 h5
			v-1 h-1 v-1 h1 v1 h1 v-5 h-5 v1 h1 v1 h-1 v-1 h-1
			v5 z" fill="url(#arrow-backing)" />
		-->
		<path fill="url(#arrow-center)"
			d="M-7,-7 h2 l-0.5,0.5 l2,2 l0.5,-0.5 v2 h-2 l0.5,-0.5 l-2,-2 l-0.5,0.5 v-2 m14,0 h-2 l0.5,0.5 l-2,2 l-0.5,-0.5 v2 h2 l-0.5,-0.5 l2,-2 l0.5,0.5 v-2 v14 h-2 l0.5,-0.5 l-2,-2 l-0.5,0.5 v-2 h2 l-0.5,0.5 l2,2 l0.5,-0.5 v2 m-14,0 h2 l-0.5,-0.5 l2,-2 l0.5,0.5 v-2 h-2 l0.5,0.5 l-2,2 l-0.5,-0.5 v2 z" />
	</g>
</svg>
