<?xml version="1.0" encoding="utf-8" standalone="yes"?>
<!DOCTYPE svg PUBLIC "-//W3C//DTD SVG 1.1//EN" "http://www.w3.org/Graphics/SVG/1.1/DTD/svg11.dtd">
<svg xmlns="http://www.w3.org/2000/svg" xmlns:xlink="http://www.w3.org/1999/xlink"
	width="16" height="16" version="1.1">
	<title>Arrow Recycle</title>
	<desc>Arrow Recycle</desc>
	<g id="icon" transform="translate(8,8)">
		<defs>
			<linearGradient id="arrow-backing" x1="0%" y1="0%" x2="100%"
				y2="100%">
				<stop offset="0%" stop-color="#72c466" />
				<stop offset="100%" stop-color="#22601e" />
			</linearGradient>
			<linearGradient id="arrow-center" x1="0%" y1="0%" x2="100%"
				y2="100%">
				<stop offset="0%" stop-color="#a7d69e" />
				<stop offset="100%" stop-color="#78bd72" />
			</linearGradient>
		</defs>
		<!--
			<path fill="#000" d="M-8,5.9282 h16 l-8,-13.8564 l-8,13.8564 " /> <path
			fill="#fff" d="M-3.267845,2.9282 l6.53589,0 l-3.267845,-5.66024
			l-3.267845,5.66024 " />
		-->
		<g fill="url(#arrow-backing)">
			<g id="arrow">
				<path
					d="M-2,2.9282 v3 l-3.5,0 c-1.75,0 -2.625,-1.51554 -1.75,-3.031 l1.5,-2.598076 l-1.73205,-1 l4.781088,-1.281088 l1.281088,4.781088 l-1.73205,-1 l-0.633922,1.0979859 " />
				<path fill="url(#arrow-center)"
					d="M-3,3.9282 v1 l-2.5,0 c-0.9,0 -1.35,-0.779423 -0.9,-1.5588 l1.75,-3.031089 l-1.299038,-0.75 l2.89777,-0.776457 l0.776457,2.897777 l-1.299038,-0.75 l-1.713904,2.968269" />
			</g>
			<use xlink:href="#arrow" transform="rotate(120,0,.7)" />
			<use xlink:href="#arrow" transform="rotate(240,0,.7)" />
		</g>
	</g>
</svg>