<?xml version="1.0" encoding="utf-8" standalone="yes"?>
<!DOCTYPE svg PUBLIC "-//W3C//DTD SVG 1.1//EN" "http://www.w3.org/Graphics/SVG/1.1/DTD/svg11.dtd">
<svg xmlns="http://www.w3.org/2000/svg" xmlns:xlink="http://www.w3.org/1999/xlink"
	width="16" height="16" version="1.1">
	<title>Asterisk Orange</title>
	<desc>Asterisk Star</desc>
	<g id="icon" transform="translate(8,8)">
		<defs>
			<linearGradient id="backing" x1="0%" y1="0%" x2="100%" y2="100%">
				<stop offset="0%" stop-color="#fda416" />
				<stop offset="100%" stop-color="#c65e06" />
			</linearGradient>
			<linearGradient id="inner" x1="0%" y1="0%" x2="100%" y2="100%">
				<stop offset="0%" stop-color="#fec05b" />
				<stop offset="100%" stop-color="#f9aa3b" />
			</linearGradient>
		</defs>
		<path id="branch"
			d="M0,0 l9.18455e-17,-1.5 l8,-0.5 l2.44921e-16,4 l-8,-0.5 M0,0 l-1.29904,-0.75 l3.56699,-7.1782 l3.4641,2 l-4.43301,6.6782 M0,0 l-1.29904,0.75 l-4.43301,-6.6782 l3.4641,-2 l3.56699,7.1782 M0,0 l-2.75536e-16,1.5 h-8.5 l2.44921e-16,-4 h8.5 M0,0 l1.29904,0.75 l-3.56699,7.1782 l-3.4641,-2 l4.43301,-6.6782 M0,0 l1.29904,-0.75 l4.43301,6.6782 l-3.4641,2 l-3.56699,-7.1782 M0,0 l4.59227e-16,-1.5 l8,-0.5 l-7.34764e-16,4 l-8,-0.5 z"
			fill="url(#backing)" />
		<path id="inner-branch"
			d="M0,0 l3.06152e-17,-0.5 l7.00417,-0.43776 l1.22461e-16,2 l-7.00417,-0.43776 M0,0 l-0.433013,-0.25 l3.12297,-6.28467 l1.73205,1 l-3.8812,5.84691 M0,0 l-0.433013,0.25 l-3.8812,-5.84691 l1.73205,-1 l3.12297,6.28467 M0,0 l-9.18455e-17,0.5 l-7.00417,0.43776 l1.22461e-16,-2 l7.00417,0.43776 M0,0 l0.433013,0.25 l-3.12297,6.28467 l-1.73205,-1 l3.8812,-5.84691 M0,0 l0.433013,-0.25 l3.8812,5.84691 l-1.73205,1 l-3.12297,-6.28467 M0,0 l1.53076e-16,-0.5 l7.00417,-0.43776 l-3.67382e-16,2 l-7.00417,-0.43776 z"
			fill="url(#inner)" />
	</g>
</svg>
