<?xml version="1.0" encoding="utf-8" standalone="yes"?>
<!DOCTYPE svg PUBLIC "-//W3C//DTD SVG 1.1//EN" "http://www.w3.org/Graphics/SVG/1.1/DTD/svg11.dtd">
<svg xmlns="http://www.w3.org/2000/svg" xmlns:xlink="http://www.w3.org/1999/xlink"
	width="16" height="16" version="1.1">
	<title>Asterisk Yellow</title>
	<desc>Asterisk Star</desc>
	<g id="icon" transform="translate(8,8)">
		<defs>
			<linearGradient id="backing" x1="0%" y1="0%" x2="100%" y2="100%">
				<stop offset="0%" stop-color="#fec200" />
				<stop offset="100%" stop-color="#c47a00" />
			</linearGradient>
			<linearGradient id="inner" x1="0%" y1="0%" x2="100%" y2="100%">
				<stop offset="0%" stop-color="#fee587" />
				<stop offset="100%" stop-color="#f9d067" />
			</linearGradient>
		</defs>
		<path id="branch"
			d="M0,0 l9.18455e-17,-1.5 l8,-0.5 l2.44921e-16,4 l-8,-0.5 M0,0 l-1.29904,-0.75 l3.56699,-7.1782 l3.4641,2 l-4.43301,6.6782 M0,0 l-1.29904,0.75 l-4.43301,-6.6782 l3.4641,-2 l3.56699,7.1782 M0,0 l-2.75536e-16,1.5 h-8.5 l2.44921e-16,-4 h8.5 M0,0 l1.29904,0.75 l-3.56699,7.1782 l-3.4641,-2 l4.43301,-6.6782 M0,0 l1.29904,-0.75 l4.43301,6.6782 l-3.4641,2 l-3.56699,-7.1782 M0,0 l4.59227e-16,-1.5 l8,-0.5 l-7.34764e-16,4 l-8,-0.5 z"
			fill="url(#backing)" />
		<path id="inner-branch"
			d="M0,0 l3.06152e-17,-0.5 l7.00417,-0.43776 l1.22461e-16,2 l-7.00417,-0.43776 M0,0 l-0.433013,-0.25 l3.12297,-6.28467 l1.73205,1 l-3.8812,5.84691 M0,0 l-0.433013,0.25 l-3.8812,-5.84691 l1.73205,-1 l3.12297,6.28467 M0,0 l-9.18455e-17,0.5 l-7.00417,0.43776 l1.22461e-16,-2 l7.00417,0.43776 M0,0 l0.433013,0.25 l-3.12297,6.28467 l-1.73205,-1 l3.8812,-5.84691 M0,0 l0.433013,-0.25 l3.8812,5.84691 l-1.73205,1 l-3.12297,-6.28467 M0,0 l1.53076e-16,-0.5 l7.00417,-0.43776 l-3.67382e-16,2 l-7.00417,-0.43776 z"
			fill="url(#inner)" />
		<!--
			Ok so I could not get this one right with out help <script
			type="text/javascript"> <![CDATA[ function makeRotate(val){ var path =
			document.getElementById('branch'); var a = 3.576334375; var x = 8.015609771;
			var d = ''; var i = 0; while(i<=6){ d += 'M0,0 '+ 'l' + (1.5 *
			Math.cos(val/180*Math.PI)) + ',' + (-1.5 * Math.sin(val/180*Math.PI)) + ' ';
			d += 'l' + (x * Math.cos((val-90+a)/180*Math.PI)) + ',' + (-x *
			Math.sin((val-90+a)/180*Math.PI)) + ' '; d += 'l' + (4 *
			Math.cos((val-180)/180*Math.PI)) + ',' + (-4 *
			Math.sin((val-180)/180*Math.PI)) + ' '; d += 'l' + (-x *
			Math.cos((val-90-a)/180*Math.PI)) + ',' + (x *
			Math.sin((val-90-a)/180*Math.PI)) + ' '; i++; val += 60; } d += 'z';
			path.setAttribute('d',d); } makeRotate(90); function makeRotater(val){ var
			path = document.getElementById('inner-branch'); var a = 3.576334375; var x =
			7.017834424; var d = ''; var i = 0; while(i<=6){ d += 'M0,0 '+ 'l' + (.5 *
			Math.cos(val/180*Math.PI)) + ',' + (-.5 * Math.sin(val/180*Math.PI)) + ' '; d
			+= 'l' + (x * Math.cos((val-90+a)/180*Math.PI)) + ',' + (-x *
			Math.sin((val-90+a)/180*Math.PI)) + ' '; d += 'l' + (2 *
			Math.cos((val-180)/180*Math.PI)) + ',' + (-2 *
			Math.sin((val-180)/180*Math.PI)) + ' '; d += 'l' + (-x *
			Math.cos((val-90-a)/180*Math.PI)) + ',' + (x *
			Math.sin((val-90-a)/180*Math.PI)) + ' '; i++; val += 60; } d += 'z';
			path.setAttribute('d',d); } makeRotater(90); ]]> </script>
		-->
	</g>
</svg>