<?xml version="1.0" encoding="utf-8" standalone="yes"?>
<!DOCTYPE svg PUBLIC "-//W3C//DTD SVG 1.1//EN" "http://www.w3.org/Graphics/SVG/1.1/DTD/svg11.dtd">
<svg xmlns="http://www.w3.org/2000/svg" xmlns:xlink="http://www.w3.org/1999/xlink"
	width="16" height="16" version="1.1">
	<title>Attach</title>
	<desc>Attach Attachment</desc>
	<g id="attach" transform="translate(8,8)">
		<defs>
			<linearGradient id="attach-backing" x1="0%" y1="0%" x2="0%"
				y2="100%">
				<stop offset="0%" stop-color="#999" />
				<stop offset="100%" stop-color="#333" />
			</linearGradient>
		</defs>
		<path transform="rotate(-45)"
			d="M2,1 h-6 a1.5,1.5 0 0,1 0,-3 h9  a2.25,2.25 0 0,1 0,4.5 h-10 a2.75,2.75 0 0,1 0,-5.5 l12.5,0 v1 l-12.5,0 a1.75,1.75 0 0,0 0,3.5 h10 a1.25,1.25 0 0,0 0,-2.5 h-9 a.5,.5 0 0,0 0,1 h6 z"
			fill="url(#attach-backing)" />
	</g>
</svg>