<?xml version="1.0" encoding="utf-8" standalone="yes"?>
<!DOCTYPE svg PUBLIC "-//W3C//DTD SVG 1.1//EN" "http://www.w3.org/Graphics/SVG/1.1/DTD/svg11.dtd">
<svg xmlns="http://www.w3.org/2000/svg" xmlns:xlink="http://www.w3.org/1999/xlink"
	height="16" width="16" version="1.1">
	<title>Basket Error</title>
	<desc>Basket Shoping Error</desc>
	<g id="icon" transform="translate(8,8)">
		<defs>
			<linearGradient id="backing" x1="0%" y1="0%" x2="100%" y2="100%">
				<stop offset="0%" stop-color="#d3d3d3" />
				<stop offset="100%" stop-color="#777" />
			</linearGradient>
			<linearGradient id="handel" x1="0%" y1="0%" x2="100%" y2="100%">
				<stop offset="0%" stop-color="#6da2ce" />
				<stop offset="100%" stop-color="#728ca6" />
			</linearGradient>
		</defs>
		<path fill="url(#backing)" opacity="0.25"
			d="M-7,0 h14 v1 h-14 m0.5,1 h13 v1 h-13 m0.5,1 h12 v1 h-12 " />
		<path fill="url(#backing)" opacity="0.2"
			d="M-7,0 v3 h1 v-3 m1,0 v6 h1 v-6 m1,0 v6 h1 v-6 m1,0 v6 h1 v-6 m1,0 v6 h1 v-6 m1,0 v6 h1 v-6 m1,0 v3 h1 v-3" />
		<path fill="url(#backing)" opacity="0.5"
			d="m-7,0 h1 v1 h-1 v-1 m2,0 h1 v1 h-1 v-1 m2,0 h1 v1 h-1 v-1 m2,0 h1 v1 h-1 v-1 m2,0 h1 v1 h-1 v-1 m2,0 h1 v1 h-1 v-1 m2,0 h1 v1 h-1 v-1 m-12,2 h1 v1 l-1,-1 m2,0 h1 v1 h-1 v-1 m2,0 h1 v1 h-1 v-1 m2,0 h1 v1 h-1 v-1 m2,0 h1 v1 h-1 v-1 m2,0 h1 v1 h-1 v-1 m2,0 h1 v1 h-1 v-1 m-10, 2 h1 v1 h-1 v-1 m2,0 h1 v1 h-1 v-1 m2,0 h1 v1 h-1 v-1 m2,0 h1 v1 h-1 v-1 m2,0 h1 v1 h-1 v-1 m2,0 h1 v1 h-1 v-1" />
		<path fill="url(#backing)"
			d="M-7,0 l13.8,0 l-1.714,6 l-10.171,0 l-1.714,-6 l-1.2,-1 l2,7 a1,1 0 0,0 1,1 h10 a1,1 0 0,0 1,-1 l2,-7 h-16" />
		<path fill="url(#handel)" d="M-1.5,-1 a1.5,1.5 0 0,1 3,0 h2 a3.5,3.5 0 0,0 -7,0" />
		<path fill="#83bbd5" d="M-2,-1 a2,2 0 0,1 4,0 h1 a3,3 0 0,0 -6,0" />
		<g id="error" transform="translate(2,3)">
			<defs>
				<linearGradient id="error-backing" x1="0%" y1="0%" x2="100%"
					y2="0%">
					<stop offset="0%" stop-color="#debd5c" />
					<stop offset="100%" stop-color="#bd7723" />
				</linearGradient>
				<linearGradient id="error-center" x1="0%" y1="0%" x2="100%"
					y2="0%">
					<stop offset="0%" stop-color="#fbf4dc" />
					<stop offset="100%" stop-color="#f8eaab" />
				</linearGradient>
				<linearGradient id="error-in-border" x1="0%" y1="0%" x2="100%"
					y2="0%">
					<stop offset="0%" stop-color="#f5da58" />
					<stop offset="100%" stop-color="#f6de6a" />
				</linearGradient>
			</defs>
			<path fill="url(#error-backing)" d="M0.5,-5 l5.5,10 h-11 l5.5,-10 Z" />
			<path fill="url(#error-center)" d="M0.5,-3.5 l4,7.5 h-8 l4,-7.5 Z" />
			<path fill="url(#error-in-border)" d="M0.5,-2 l2.5,5 h-5 l2.5,-5 Z" />
			<rect width="1" height="2" y="-1" fill="#c28832" />
			<rect width="1" height="1" y="2" fill="#c28832" />
		</g>
	</g>
</svg>