<?xml version="1.0" encoding="utf-8" standalone="yes"?>
<!DOCTYPE svg PUBLIC "-//W3C//DTD SVG 1.1//EN" "http://www.w3.org/Graphics/SVG/1.1/DTD/svg11.dtd">
<svg xmlns="http://www.w3.org/2000/svg" xmlns:xlink="http://www.w3.org/1999/xlink"
	width="16" height="16" version="1.1">
	<title>Bin Edit</title>
	<desc>Bin Trash Edit</desc>
	<g id="icon" transform="translate(8,8)">
		<defs>
			<linearGradient id="backing" x1="0%" y1="0%" x2="100%" y2="100%">
				<stop offset="0%" stop-color="#000" stop-opacity="0.28" />
				<stop offset="100%" stop-color="#000" stop-opacity="0.70" />
			</linearGradient>
			<linearGradient id="backing2" x1="0%" y1="0%" x2="100%" y2="0%">
				<stop offset="0%" stop-color="#000" stop-opacity="0.0" />
				<stop offset="50%" stop-color="#000" stop-opacity="0.2" />
				<stop offset="100%" stop-color="#000" stop-opacity="0.0" />
			</linearGradient>
			<linearGradient id="inner" x1="0%" y1="0%" x2="100%" y2="0%">
				<stop offset="0%" stop-color="#e9e9e9" />
				<stop offset="60%" stop-color="#e5e5e5" />
				<stop offset="100%" stop-color="#b1b1b1" />
			</linearGradient>
			<linearGradient id="inside" x1="0%" y1="0%" x2="100%" y2="0%">
				<stop offset="0%" stop-color="#f8f8f8" />
				<stop offset="50%" stop-color="#dadada" />
				<stop offset="100%" stop-color="#efefef" />
			</linearGradient>
			<linearGradient id="inside_bin" x1="0%" y1="0%" x2="100%" y2="0%">
				<stop offset="0%" stop-color="#cccccc" />
				<stop offset="50%" stop-color="#aaaaaa" />
				<stop offset="100%" stop-color="#cccccc" />
			</linearGradient>
			<radialGradient id="inside-lid">
				<stop offset="0%" stop-color="#000" stop-opacity="0.20" />
				<stop offset="100%" stop-color="#000" stop-opacity="0.0" />
			</radialGradient>
			<linearGradient id="center" x1="0%" y1="0%" x2="100%" y2="0%">
				<stop offset="0%" stop-color="#eaeaea" />
				<stop offset="20%" stop-color="#b9b9b9" />
				<stop offset="25%" stop-color="#b9b9b9" />
				<stop offset="50%" stop-color="#e3e3e3" />
				<stop offset="65%" stop-color="#e3e3e3" />
				<stop offset="85%" stop-color="#8f8f8f" />
				<stop offset="100%" stop-color="#9f9f9f" />
			</linearGradient>
			<linearGradient id="handel" x1="0%" y1="0%" x2="100%" y2="100%">
				<stop offset="0%" stop-color="#000" stop-opacity="0.40" />
				<stop offset="100%" stop-color="#000" stop-opacity="0.30" />
			</linearGradient>
			<mask id="lid_mask">
				<rect width="16" height="16" x="-8" y="-8" fill="#fff" />
				<path fill="#000"
					d="M0,0 a5,4 0 0,1 5,4 a5,4 0 0,1 -5,4 a5,4 0 0,1 -5,-4 a5,4 0 0,1 5,-4"
					transform="rotate(45)" />
			</mask>
			<mask id="trash">
				<rect width="16" height="16" x="-8" y="-8" fill="#000" />
				<ellipse fill="#fff" rx="4" ry="2" cx="2" cy="-4" />
				<rect fill="#fff" x="-2" y="-8" width="8" height="4" />
			</mask>
			<linearGradient id="paper" x1="0%" y1="0%" x2="0%" y2="100%">
				<stop offset="0%" stop-color="#fff" />
				<stop offset="100%" stop-color="#efefef" />
			</linearGradient>
			<path fill="url(#paper)" id="shard" d="M0,0 l2,4 h-4 l2,-4" />
		</defs>
		<g mask="url(#lid_mask)">
			<path fill="url(#backing)" d="M-3,-4 a5,3 0 0,1 10,0 v8 a5,3 0 0,1 -10,0 " />
			<path fill="url(#backing2)" d="M-3,-4 a5,3 0 0,1 10,0 v8 a5,3 0 0,1 -10,0 " />
			<ellipse fill="url(#inside_bin)" rx="4" ry="2" cx="2" cy="-4" />
			<path fill="url(#inner)" d="M-2,-3 a4,2 0 0,0 8,0 v7 a4,2 0 0,1 -8,0 " />
			<path fill="url(#center)" d="M-1,-1 a4.25,3 0 0,0 6,0 v5 a4.25,3 0 0,1 -6,0 " />
		</g>
		<path fill="url(#backing)"
			d="M0,0 a5,4 0 0,1 5,4 a5,4 0 0,1 -5,4 a5,4 0 0,1 -5,-4 a5,4 0 0,1 5,-4"
			transform="rotate(45)" />
		<path fill="url(#inside)"
			d="M0,1 a4,3 0 0,1 4,3 a4,3 0 0,1 -4,3 a4,3 0 0,1 -4,-3 a4,3 0 0,1 4,-3"
			transform="rotate(45)" />
		<path fill="url(#inside-lid)"
			d="M0,2 a3,2 0 0,1 3,2 a3,2 0 0,1 -3,2 a3,2 0 0,1 -3,-2 a4,3 0 0,1 3,-2"
			transform="rotate(45)" />
		<path fill="url(#handel)"
			d="M-2,-4 v-1 a1,1 0 0,1 1,-1 h2 a1,1 0 0,1 1,1 v1 h-1 v-1 h-2 v1"
			transform="rotate(225)" />
		<g mask="url(#trash)">
			<use xlink:href="#shard" transform="translate(3,-8) scale(1.3)" />
			<use xlink:href="#shard" transform="translate(6,-4) scale(0.7) rotate(80)" />
			<use xlink:href="#shard"
				transform="translate(3,-7) scale(0.9) rotate(290) translate(-3.5,-4)" />
			<use xlink:href="#shard" transform="translate(1,-6)" />
		</g>
		<g id="pencil" transform="translate(2,2)">
			<defs>
				<linearGradient id="top_center" x1="0%" y1="0%" x2="100%" y2="0%">
					<stop offset="0%" stop-color="#f7e1c9" />
					<stop offset="100%" stop-color="#f4cfa5" />
				</linearGradient>
				<linearGradient id="pencil-back" x1="100%" y1="0%" x2="0%"
					y2="100%">
					<stop offset="0%" stop-color="#ca9350" stop-opacity="1.0" />
					<stop offset="20%" stop-color="#ca9350" stop-opacity="0.5" />
					<stop offset="30%" stop-color="#ca9350" stop-opacity="0.0" />
					<stop offset="55%" stop-color="#936d1e" stop-opacity="0.0" />
					<stop offset="65%" stop-color="#936d1e" stop-opacity="0.3" />
					<stop offset="80%" stop-color="#936d1e" stop-opacity="0.9" />
					<stop offset="92%" stop-color="#936d1e" stop-opacity="1.0" />
					<stop offset="94%" stop-color="#594212" stop-opacity="1.0" />
				</linearGradient>
				<linearGradient id="pencil-cross" x1="37%" y1="37%" x2="63%"
					y2="63%">
					<stop offset="0%" stop-color="#e4ba2f" />
					<stop offset="100%" stop-color="#d98f3b" />
				</linearGradient>
				<linearGradient id="pencil-nib" x1="100%" y1="0%" x2="0%" y2="100%">
					<stop offset="0%" stop-color="#fae7d1" stop-opacity="1.0" />
					<stop offset="75%" stop-color="#fae7d1" stop-opacity="0.9" />
					<stop offset="100%" stop-color="#fae7d1" stop-opacity="0.0" />
				</linearGradient>
				<linearGradient id="pencil-outer" x1="37%" y1="37%" x2="63%"
					y2="63%">
					<stop offset="0%" stop-color="#f8edc3" />
					<stop offset="10%" stop-color="#fcf4b3" />
					<stop offset="45%" stop-color="#f4d644" />
					<stop offset="55%" stop-color="#f4d644" />
					<stop offset="90%" stop-color="#fcf4b3" />
					<stop offset="100%" stop-color="#faee8e" />
				</linearGradient>
				<linearGradient id="pencil-nib-shadow" x1="0%" y1="0%" x2="100%"
					y2="100%">
					<stop offset="0%" stop-color="#e07500" stop-opacity="0.0" />
					<stop offset="40%" stop-color="#e07500" stop-opacity="0.2" />
					<stop offset="50%" stop-color="#e07500" stop-opacity="0.45" />
					<stop offset="60%" stop-color="#e07500" stop-opacity="0.4" />
					<stop offset="100%" stop-color="#e07500" stop-opacity="0.0" />
				</linearGradient>
			</defs>
			<path fill="url(#pencil-cross)" d="M2,-5 l-8,8 v3 h3 l8,-8 a2,1.25 45 0,0 -3,-3" />
			<path fill="url(#pencil-back)" d="M2,-5 l-8,8 v3 h3 l8,-8 a2,1.25 45 0,0 -3,-3" />
			<ellipse transform="translate(3.5,-3.5) rotate(45)" cx="0" cy="0" rx="1.25"
				ry="0.75" fill="url(#top_center)" />
			<path fill="url(#pencil-nib)" d="M-5,5 h2 l1,-1 a1.41,0.75 45 0,1 -2,-2 l-1,1 v2" />
			<path fill="url(#pencil-nib-shadow)" d="M-5,5 h2 l1,-1 a1.41,0.75 45 0,1 -2,-2 l-1,1 v2" />
			<path fill="url(#pencil-outer)"
				d="M2,-4 l-5.5,5.5 a1.41,0.75 45 0,0 2,2 l5.5,-5.5 a1.41,0.75 45 0,1 -2,-2" />
		</g>
	</g>
</svg>
