<?xml version="1.0" encoding="utf-8" standalone="yes"?>
<!DOCTYPE svg PUBLIC "-//W3C//DTD SVG 1.1//EN" "http://www.w3.org/Graphics/SVG/1.1/DTD/svg11.dtd">
<svg xmlns="http://www.w3.org/2000/svg" xmlns:xlink="http://www.w3.org/1999/xlink"
	width="16" height="16" version="1.1">
	<title>Bin Closed</title>
	<desc>Bin Trash Closed</desc>
	<g id="icon" transform="translate(8,8)">
		<defs>
			<linearGradient id="backing" x1="0%" y1="0%" x2="100%" y2="100%">
				<stop offset="0%" stop-color="#000" stop-opacity="0.28" />
				<stop offset="100%" stop-color="#000" stop-opacity="0.70" />
			</linearGradient>
			<linearGradient id="backing2" x1="0%" y1="0%" x2="100%" y2="0%">
				<stop offset="0%" stop-color="#000" stop-opacity="0.0" />
				<stop offset="50%" stop-color="#000" stop-opacity="0.2" />
				<stop offset="100%" stop-color="#000" stop-opacity="0.0" />
			</linearGradient>
			<linearGradient id="inner" x1="0%" y1="0%" x2="100%" y2="0%">
				<stop offset="0%" stop-color="#e9e9e9" />
				<stop offset="60%" stop-color="#e5e5e5" />
				<stop offset="100%" stop-color="#b1b1b1" />
			</linearGradient>
			<linearGradient id="inside" x1="0%" y1="0%" x2="100%" y2="0%">
				<stop offset="0%" stop-color="#f8f8f8" />
				<stop offset="50%" stop-color="#dadada" />
				<stop offset="100%" stop-color="#efefef" />
			</linearGradient>
			<linearGradient id="center" x1="0%" y1="0%" x2="100%" y2="0%">
				<stop offset="0%" stop-color="#eaeaea" />
				<stop offset="20%" stop-color="#b9b9b9" />
				<stop offset="25%" stop-color="#b9b9b9" />
				<stop offset="50%" stop-color="#e3e3e3" />
				<stop offset="65%" stop-color="#e3e3e3" />
				<stop offset="85%" stop-color="#8f8f8f" />
				<stop offset="100%" stop-color="#9f9f9f" />
			</linearGradient>
			<linearGradient id="handel" x1="0%" y1="0%" x2="100%" y2="100%">
				<stop offset="0%" stop-color="#000" stop-opacity="0.40" />
				<stop offset="100%" stop-color="#000" stop-opacity="0.30" />
			</linearGradient>
		</defs>
		<path fill="url(#backing)" d="M-3,-4 a5,3 0 0,1 10,0 v8 a5,3 0 0,1 -10,0 " />
		<path fill="url(#backing2)" d="M-3,-4 a5,3 0 0,1 10,0 v8 a5,3 0 0,1 -10,0 " />
		<ellipse fill="url(#inside)" rx="4" ry="2" cx="2" cy="-4" />
		<path fill="url(#inner)" d="M-2,-3 a4,2 0 0,0 8,0 v7 a4,2 0 0,1 -8,0 " />
		<path fill="url(#center)" d="M-1,-1 a4.25,3 0 0,0 6,0 v5 a4.25,3 0 0,1 -6,0 " />
		<path fill="url(#handel)"
			d="M0,-4 v-1 a1,1 0 0,1 1,-1 h2 a1,1 0 0,1 1,1 v1 h-1 v-1 h-2 v1" />
	</g>
</svg>
