<?xml version="1.0" encoding="utf-8" standalone="yes"?>
<!DOCTYPE svg PUBLIC "-//W3C//DTD SVG 1.1//EN" "http://www.w3.org/Graphics/SVG/1.1/DTD/svg11.dtd">
<svg xmlns="http://www.w3.org/2000/svg" xmlns:xlink="http://www.w3.org/1999/xlink"
	width="16" height="16" version="1.1">
	<title>Book Error</title>
	<desc>Book Bookmark Error</desc>
	<g id="icon" transform="translate(8,8)">
		<defs>
			<linearGradient id="backing" x1="0%" y1="0%" x2="100%" y2="100%">
				<stop offset="0%" stop-color="#4c6d9d" />
				<stop offset="100%" stop-color="#35598e" />
			</linearGradient>
			<linearGradient id="center" x1="0%" y1="0%" x2="100%" y2="100%">
				<stop offset="0%" stop-color="#b9d4e6" />
				<stop offset="100%" stop-color="#7ea4cf" />
			</linearGradient>
			<linearGradient id="back" x1="0%" y1="0%" x2="100%" y2="100%">
				<stop offset="0%" stop-color="#2a3e57" />
				<stop offset="100%" stop-color="#21344e" />
			</linearGradient>
			<linearGradient id="inner" x1="0%" y1="0%" x2="100%" y2="100%">
				<stop offset="0%" stop-color="#9bbfd9" />
				<stop offset="100%" stop-color="#5588bf" />
			</linearGradient>
			<linearGradient id="edge" x1="0%" y1="0%" x2="100%" y2="100%">
				<stop offset="0%" stop-color="#000" stop-opacity="0.05" />
				<stop offset="100%" stop-color="#000" stop-opacity="0.3" />
			</linearGradient>
			<linearGradient id="top" x1="0%" y1="0%" x2="100%" y2="100%">
				<stop offset="0%" stop-color="#d7dee8" />
				<stop offset="100%" stop-color="#ffffff" />
			</linearGradient>
			<filter id="Gaussian_Blur">
				<feGaussianBlur in="SourceGraphic" stdDeviation="1" />
			</filter>
		</defs>
		<path fill="url(#top)" d="M-5,-6 l1,-1 h9 v1 z" />
		<path fill="url(#backing)"
			d="M5,-6 v13 a1,1 0 0,1 -1,1 h-10 a1,1 0 0,1 -1,-1 v-13 a1,1 0 0,1 0.13,-0.5 l1.37,-1.37 a1,1 0 0,1 0.5,-0.13 h10  a1,1 0 0,1 1,1 h-10 l-1,1 z" />
		<path fill="url(#center)" d="M4,-5 v12 h-10 v-13 h1 v1 z" />
		<path fill="url(#back)" d="M5,-7 h1 v12 a1,1 0 0,1 -1,1 z" />
		<rect width="8" height="10" x="-5" y="-4" fill="url(#inner)" />
		<rect width="5" height="1" x="-3" y="-3" fill="#e4edf5" />
		<rect width="1" height="11" x="-5" y="-5" fill="url(#edge)" />
		<g id="error" transform="translate(2,3)">
			<defs>
				<linearGradient id="error-backing" x1="0%" y1="0%" x2="100%"
					y2="0%">
					<stop offset="0%" stop-color="#debd5c" />
					<stop offset="100%" stop-color="#bd7723" />
				</linearGradient>
				<linearGradient id="error-center" x1="0%" y1="0%" x2="100%"
					y2="0%">
					<stop offset="0%" stop-color="#fbf4dc" />
					<stop offset="100%" stop-color="#f8eaab" />
				</linearGradient>
				<linearGradient id="error-in-border" x1="0%" y1="0%" x2="100%"
					y2="0%">
					<stop offset="0%" stop-color="#f5da58" />
					<stop offset="100%" stop-color="#f6de6a" />
				</linearGradient>
			</defs>
			<path fill="url(#error-backing)" d="M0.5,-5 l5.5,10 h-11 l5.5,-10 Z" />
			<path fill="url(#error-center)" d="M0.5,-3.5 l4,7.5 h-8 l4,-7.5 Z" />
			<path fill="url(#error-in-border)" d="M0.5,-2 l2.5,5 h-5 l2.5,-5 Z" />
			<rect width="1" height="2" y="-1" fill="#c28832" />
			<rect width="1" height="1" y="2" fill="#c28832" />
		</g>
	</g>
</svg>
