<?xml version="1.0" encoding="utf-8" standalone="yes"?>
<!DOCTYPE svg PUBLIC "-//W3C//DTD SVG 1.1//EN" "http://www.w3.org/Graphics/SVG/1.1/DTD/svg11.dtd">
<svg xmlns="http://www.w3.org/2000/svg" xmlns:xlink="http://www.w3.org/1999/xlink"
	width="16" height="16" version="1.1">
	<title>Bookmark Go</title>
	<desc>Book Bookmark Go</desc>
	<g id="icon" transform="translate(8,8)">
		<defs>
			<linearGradient id="backing" x1="0%" y1="0%" x2="100%" y2="100%">
				<stop offset="0%" stop-color="#4c6d9d" />
				<stop offset="100%" stop-color="#35598e" />
			</linearGradient>
			<linearGradient id="center" x1="0%" y1="0%" x2="100%" y2="100%">
				<stop offset="0%" stop-color="#b9d4e6" />
				<stop offset="100%" stop-color="#7ea4cf" />
			</linearGradient>
			<linearGradient id="back" x1="0%" y1="0%" x2="100%" y2="100%">
				<stop offset="0%" stop-color="#2a3e57" />
				<stop offset="100%" stop-color="#21344e" />
			</linearGradient>
			<linearGradient id="inner" x1="0%" y1="0%" x2="100%" y2="100%">
				<stop offset="0%" stop-color="#9bbfd9" />
				<stop offset="100%" stop-color="#5588bf" />
			</linearGradient>
			<linearGradient id="edge" x1="0%" y1="0%" x2="100%" y2="100%">
				<stop offset="0%" stop-color="#000" stop-opacity="0.05" />
				<stop offset="100%" stop-color="#000" stop-opacity="0.3" />
			</linearGradient>
			<linearGradient id="top" x1="0%" y1="0%" x2="100%" y2="100%">
				<stop offset="0%" stop-color="#d7dee8" />
				<stop offset="100%" stop-color="#ffffff" />
			</linearGradient>
			<filter id="Gaussian_Blur">
				<feGaussianBlur in="SourceGraphic" stdDeviation="1" />
			</filter>
			<linearGradient id="marker" x1="0%" y1="0%" x2="100%" y2="100%">
				<stop offset="0%" stop-color="#fe7874" />
				<stop offset="100%" stop-color="#ea111c" />
			</linearGradient>
			<linearGradient id="marker-center" x1="0%" y1="0%" x2="100%"
				y2="100%">
				<stop offset="0%" stop-color="#fdcec4" />
				<stop offset="100%" stop-color="#f99993" />
			</linearGradient>
		</defs>
		<path fill="url(#top)" d="M-5,-6 l1,-1 h9 v1 z" />
		<path fill="url(#backing)"
			d="M5,-6 v13 a1,1 0 0,1 -1,1 h-10 a1,1 0 0,1 -1,-1 v-13 a1,1 0 0,1 0.13,-0.5 l1.37,-1.37 a1,1 0 0,1 0.5,-0.13 h10  a1,1 0 0,1 1,1 h-10 l-1,1 z" />
		<path fill="url(#center)" d="M4,-5 v12 h-10 v-13 h1 v1 z" />
		<path fill="url(#back)" d="M5,-7 h1 v12 a1,1 0 0,1 -1,1 z" />
		<rect width="8" height="10" x="-5" y="-4" fill="url(#inner)" />
		<rect width="5" height="1" x="-3" y="-3" fill="#e4edf5" />
		<rect width="1" height="11" x="-5" y="-5" fill="url(#edge)" />
		<path fill="url(#marker)" d="M-4,-7 h3 v12 l-1.5,-1.5 l-1.5,1.5 v-12" />
		<path fill="url(#marker-center)" d="M-3,-6 h1 v8.5 h-1 v-8.5 z" />
		<g id="icon" transform="translate(3,3)">
			<defs>
				<linearGradient id="border_go" x1="0%" y1="0%" x2="100%" y2="100%">
					<stop offset="0%" stop-color="#6fa53d" />
					<stop offset="100%" stop-color="#1e7b03" />
				</linearGradient>
				<linearGradient id="inner_go" x1="0%" y1="0%" x2="100%" y2="100%">
					<stop offset="0%" stop-color="#b0ce96" />
					<stop offset="100%" stop-color="#96c180" />
				</linearGradient>
			</defs>
			<path fill="url(#border_go)"
				d="M-1,-2 v-2 h1 l4.5,4.5 l-4.5,4.5 h-1 v-2 h-4 v-5 Z" />
			<path fill="url(#inner_go)" d="M0,-1 v-1.5 l3,3 l-3,3 v-1.5 h-4 v-3 Z" />
			<path fill="#8eba6f" d="M0.5,0 v-0.5 l1,1 l-1,1 v-0.5 l-3.5,0 v-1 Z" />
		</g>
	</g>
</svg>
