<?xml version="1.0" encoding="utf-8" standalone="yes"?>
<!DOCTYPE svg PUBLIC "-//W3C//DTD SVG 1.1//EN" "http://www.w3.org/Graphics/SVG/1.1/DTD/svg11.dtd">
<svg xmlns="http://www.w3.org/2000/svg" xmlns:xlink="http://www.w3.org/1999/xlink"
	width="16" height="16" version="1.1">
	<title>Book</title>
	<desc>Book Bookmark</desc>
	<g id="icon" transform="translate(8,8)">
		<defs>
			<linearGradient id="backing" x1="0%" y1="0%" x2="100%" y2="100%">
				<stop offset="0%" stop-color="#4c6d9d" />
				<stop offset="100%" stop-color="#35598e" />
			</linearGradient>
			<linearGradient id="center" x1="0%" y1="0%" x2="100%" y2="100%">
				<stop offset="0%" stop-color="#b9d4e6" />
				<stop offset="100%" stop-color="#7ea4cf" />
			</linearGradient>
			<linearGradient id="back" x1="0%" y1="0%" x2="100%" y2="100%">
				<stop offset="0%" stop-color="#2a3e57" />
				<stop offset="100%" stop-color="#21344e" />
			</linearGradient>
			<linearGradient id="inner" x1="0%" y1="0%" x2="100%" y2="100%">
				<stop offset="0%" stop-color="#9bbfd9" />
				<stop offset="100%" stop-color="#5588bf" />
			</linearGradient>
			<linearGradient id="edge" x1="0%" y1="0%" x2="100%" y2="100%">
				<stop offset="0%" stop-color="#000" stop-opacity="0.05" />
				<stop offset="100%" stop-color="#000" stop-opacity="0.3" />
			</linearGradient>
			<linearGradient id="top" x1="0%" y1="0%" x2="100%" y2="100%">
				<stop offset="0%" stop-color="#d7dee8" />
				<stop offset="100%" stop-color="#ffffff" />
			</linearGradient>
			<filter id="Gaussian_Blur">
				<feGaussianBlur in="SourceGraphic" stdDeviation="1" />
			</filter>
		</defs>
		<path fill="url(#top)" d="M-5,-6 l1,-1 h9 v1 z" />
		<path fill="url(#backing)"
			d="M5,-6 v13 a1,1 0 0,1 -1,1 h-10 a1,1 0 0,1 -1,-1 v-13 a1,1 0 0,1 0.13,-0.5 l1.37,-1.37 a1,1 0 0,1 0.5,-0.13 h10  a1,1 0 0,1 1,1 h-10 l-1,1 z" />
		<path fill="url(#center)" d="M4,-5 v12 h-10 v-13 h1 v1 z" />
		<path fill="url(#back)" d="M5,-7 h1 v12 a1,1 0 0,1 -1,1 z" />
		<rect width="8" height="10" x="-5" y="-4" fill="url(#inner)" />
		<rect width="1" height="11" x="-5" y="-5" fill="url(#edge)" />
		<path fill="#e4edf5" transform="translate(-3.25,3.75) scale(0.0025,-0.0040)"
			d="M11 1334V1408Q177 1397 318 1397Q414 1397 699 1408V1334Q605 1314 574 1288Q555 1273 555 1251Q555 1238 558 1223Q561 1212 639 975L815 447Q862 560 1041 1030Q981 1195 960 1232T913 1285T778 1334V1408Q1022
1397 1128 1397Q1232 1397 1468 1408V1334L1444 1328Q1343 1305 1326 1291T1308 1254Q1308 1243 1311 1228L1428 864Q1496 652 1565 458Q1819 1195 1819 1256Q1819 1276 1800 1291T1661 1334V1408Q1812 1397 1901 1397Q1963 1397 2164 1408V1334Q2053 1313 2019
1285T1953 1167Q1932 1103 1867 934Q1736 591 1519 -41H1426Q1329 275 1107 850Q904 335 769 -41H676L419 685Q249 1149 212 1222Q193 1261 170 1278Q138 1303 11 1334Z" />
	</g>
</svg>
