<?xml version="1.0" encoding="utf-8" standalone="yes"?>
<!DOCTYPE svg PUBLIC "-//W3C//DTD SVG 1.1//EN" "http://www.w3.org/Graphics/SVG/1.1/DTD/svg11.dtd">
<svg xmlns="http://www.w3.org/2000/svg" xmlns:xlink="http://www.w3.org/1999/xlink"
	width="16" height="16" version="1.1">
	<title>Addresses Book Add</title>
	<desc>Addresses Book Add</desc>
	<g id="icon" transform="translate(8,8)">
		<defs>
			<linearGradient id="backing" x1="0%" y1="0%" x2="100%" y2="100%">
				<stop offset="0%" stop-color="#c2724a" />
				<stop offset="100%" stop-color="#9d5137" />
			</linearGradient>
			<linearGradient id="backing-left" x1="0%" y1="0%" x2="100%"
				y2="100%">
				<stop offset="0%" stop-color="#525252" />
				<stop offset="100%" stop-color="#4c4c4c" />
			</linearGradient>
			<linearGradient id="center" x1="0%" y1="0%" x2="100%" y2="100%">
				<stop offset="0%" stop-color="#fce6bf" />
				<stop offset="100%" stop-color="#fad1a0" />
			</linearGradient>
			<linearGradient id="center-left" x1="0%" y1="0%" x2="100%" y2="100%">
				<stop offset="0%" stop-color="#7b7b7b" />
				<stop offset="100%" stop-color="#6f6f6f" />
			</linearGradient>
			<linearGradient id="back" x1="0%" y1="0%" x2="100%" y2="100%">
				<stop offset="0%" stop-color="#894030" />
				<stop offset="100%" stop-color="#5e361f" />
			</linearGradient>
			<linearGradient id="inner" x1="0%" y1="0%" x2="100%" y2="100%">
				<stop offset="0%" stop-color="#ecb080" />
				<stop offset="100%" stop-color="#e39c70" />
			</linearGradient>
			<linearGradient id="inner-left" x1="0%" y1="0%" x2="100%" y2="100%">
				<stop offset="0%" stop-color="#717171" />
				<stop offset="100%" stop-color="#555" />
			</linearGradient>
			<linearGradient id="top" x1="0%" y1="0%" x2="100%" y2="100%">
				<stop offset="0%" stop-color="#d7dee8" />
				<stop offset="100%" stop-color="#ffffff" />
			</linearGradient>
			<filter id="Gaussian_Blur">
				<feGaussianBlur in="SourceGraphic" stdDeviation="1" />
			</filter>
		</defs>
		<path fill="url(#back)" d="M5,-7 h1 v13 a1,1 0 0,1 -1,1 z" />
		<path fill="url(#top)" d="M-5,-6 l1,-1 h9 v1 z" />
		<rect width="3" height="4" x="4" y="-6" fill="#81c3ff" />
		<rect width="1" height="2" x="5" y="-5" fill="#9fd2ff" />
		<rect width="3" height="4" x="4" y="-2" fill="#6fb166" />
		<rect width="1" height="2" x="5" y="-1" fill="#99cf90" />
		<rect width="3" height="4" x="4" y="2" fill="#ff9754" />
		<rect width="1" height="2" x="5" y="3" fill="#ffaa73" />
		<path fill="url(#backing)"
			d="M5,-6 v13 a1,1 0 0,1 -1,1 h-8 v-14 m2,-2 h7 a1,1 0 0,1 1,1 h-8 " />
		<path fill="url(#backing-left)"
			d="M-4,-6 v14  h-2 a1,1 0 0,1 -1,-1 v-13 a1,1 0 0,1 0.13,-0.5 l1.37,-1.37 a1,1 0 0,1 0.5,-0.13 h3 v1 h-2 l-1,1 z" />
		<path fill="url(#center)" d="M4,-5 v12 h-8 v-12 z" />
		<path fill="url(#center-left)" d="M-4,-5 v12 h-2 v-13 h1 v1 z" />
		<rect width="7" height="10" x="-4" y="-4" fill="url(#inner)" />
		<rect width="1" height="10" x="-5" y="-4" fill="url(#inner-left)" />
		<path fill="#fff"
			d="M1,1.5 v-2.5 a0.5,0.5 0 0,0 -0.5,-0.5 h-2 a0.5,0.5 0 0,0 -0.5,0.5 v3 a0.5,0.5 0 0,0 0.5,0.5 l2.5,0 v-1 h-2 v-2 h1 v2 m1,0 a1,1 0 0,0 1,-1 v-1.5 a1,1 0 0,0 -1,-1 h-3 a1,1 0 0,0 -1,1 v3 a1,1 0 0,0 1,1 h3 a0.5,0.5 0 0,1 0,1 h-3 a2,2 0 0,1 -2,-2 v-3 a2,2 0 0,1 2,-2 h3 a2,2 0 0,1 2,2 v1.5 a2,2 0 0,1 -2,2  " />
		<g id="add" transform="translate(4.5,4.5)">
			<defs>
				<linearGradient id="backing_add" x1="0%" y1="0%" x2="100%"
					y2="100%">
					<stop offset="0%" stop-color="#6e9458" />
					<stop offset="100%" stop-color="#376b19" />
				</linearGradient>
				<linearGradient id="center_add" x1="0%" y1="0%" x2="100%" y2="100%">
					<stop offset="0%" stop-color="#b1d390" />
					<stop offset="100%" stop-color="#8fbc67" />
				</linearGradient>
			</defs>
			<circle id="back" r="3.5" fill="url(#backing_add)" />
			<circle id="center-dot" r="2.5" fill="url(#center_add)" />
			<path fill="#fff"
				d="M-0.5,-0.5 v-1 h1 v1 h1 v1 h-1 v1 h-1 v-1 h-1 v-1 h1 z " />
		</g>
	</g>
</svg>
