<?xml version="1.0" encoding="utf-8" standalone="yes"?>
<!DOCTYPE svg PUBLIC "-//W3C//DTD SVG 1.1//EN" "http://www.w3.org/Graphics/SVG/1.1/DTD/svg11.dtd">
<svg xmlns="http://www.w3.org/2000/svg" xmlns:xlink="http://www.w3.org/1999/xlink"
	width="16" height="16" version="1.1">
	<title>Book Open</title>
	<desc>Book Bookmark Open</desc>
	<g id="icon" transform="translate(8,8)">
		<defs>
			<linearGradient id="backing" x1="0%" y1="0%" x2="100%" y2="100%">
				<stop offset="0%" stop-color="#649bc9" />
				<stop offset="100%" stop-color="#03315e" />
			</linearGradient>
			<linearGradient id="back" x1="0%" y1="0%" x2="100%" y2="100%">
				<stop offset="0%" stop-color="#6399c6" />
				<stop offset="100%" stop-color="#012e5b" />
			</linearGradient>
			<linearGradient id="base" x1="0%" y1="0%" x2="100%" y2="100%">
				<stop offset="0%" stop-color="#7490ab" />
				<stop offset="100%" stop-color="#738faa" />
			</linearGradient>
			<linearGradient id="center" x1="0%" y1="0%" x2="100%" y2="0%">
				<stop offset="0%" stop-color="#fff" />
				<stop offset="25%" stop-color="#ddd" />
				<stop offset="50%" stop-color="#999" />
				<stop offset="75%" stop-color="#ddd" />
				<stop offset="100%" stop-color="#fff" />
			</linearGradient>
			<linearGradient id="text" x1="0%" y1="0%" x2="100%" y2="100%">
				<stop offset="0%" stop-color="#000" stop-opacity="0.2" />
				<stop offset="100%" stop-color="#000" stop-opacity="0.25" />
			</linearGradient>
		</defs>
		<path fill="url(#back)"
			d="M-8,-5 h7 l1,1 l1,-1 h7 v10 a1,1 0 0,1 -1,1 h-5 a2.5,2.5 0 0,1 -4,0 h-5 a1,1 0 0,1 -1,-1" />
		<path fill="#5d8bb3" d="M-7,4 h14 v1 h-6 a1,1 0 0,1 -2,0 h-6 " />
		<path fill="url(#backing)"
			d="M0,-4 a2,2 0 0,1 2,-2 h5 v10 h-6 a1,1 0 0,1 -2,0 h-6 v-10 h5 a2,2 0 0,1 2,2 z" />
		<path fill="url(#base)" d="M0,3 h1 v1 a4,4 0 0,1 -2,0 v-1" />
		<path fill="#fff"
			d="M0,-3 a2,2 0 0,1 2,-2 h4 v8 h-12 v-8 h4  a2,2 0 0,1 2,2" />
		<path fill="url(#center)"
			d="M0,-3 a2,2 0 0,1 1.5,-1.9 v7.9 h-3 v-7.9 a2,2 0 0,1 1.5,1.9 " />
		<path fill="url(#text)"
			d="M-5,-4 h3 v1.25 h-3 m0,0.75 h3 v1.25 h-3 m0,0.75 h3 v1.25 h-3 m7,-5.25  h3 v1.25 h-3 m0,0.75 h3 v1.25 h-3 m0,0.75 h3 v1.25 h-3" />
		<rect width="1" height="6" y="-4" x="4" fill="#000" opacity="0.05" />
	</g>
</svg>
