<?xml version="1.0" encoding="utf-8" standalone="yes"?>
<!DOCTYPE svg PUBLIC "-//W3C//DTD SVG 1.1//EN" "http://www.w3.org/Graphics/SVG/1.1/DTD/svg11.dtd">
<svg xmlns="http://www.w3.org/2000/svg" xmlns:xlink="http://www.w3.org/1999/xlink"
	width="16" height="16" version="1.1">
	<title>Box</title>
	<desc>Box</desc>
	<g id="icon" transform="translate(8,8)">
		<defs>
			<linearGradient id="backing" x1="0%" y1="0%" x2="100%" y2="100%">
				<stop offset="0%" stop-color="#96621f" />
				<stop offset="100%" stop-color="#774c15" />
			</linearGradient>
			<linearGradient id="in-border" x1="0%" y1="0%" x2="100%" y2="100%">
				<stop offset="0%" stop-color="#eecc8f" />
				<stop offset="100%" stop-color="#da9874" />
			</linearGradient>
			<linearGradient id="center" x1="0%" y1="0%" x2="100%" y2="100%">
				<stop offset="0%" stop-color="#ebb865" />
				<stop offset="100%" stop-color="#c86530" />
			</linearGradient>
			<linearGradient id="top" x1="0%" y1="0%" x2="100%" y2="100%">
				<stop offset="0%" stop-color="#bc9360" />
				<stop offset="100%" stop-color="#b08e67" />
			</linearGradient>
			<linearGradient id="inner" x1="0%" y1="0%" x2="100%" y2="100%">
				<stop offset="0%" stop-color="#a66f2b" />
				<stop offset="100%" stop-color="#7a4c12" />
			</linearGradient>
		</defs>
		<path fill="url(#backing)"
			d="M0,-6 h5 l3,3 v9 a1,1 0 0,1 -1,1 h-14 a1,1 0 0,1 -1,-1 v-9 l3,-3 z" />
		<rect width="14" height="8" x="-7" y="-2" fill="url(#in-border)" />
		<rect width="12" height="6" x="-6" y="-1" fill="url(#center)" />
		<path fill="url(#top)" d="M-7,-2 l3,-3 h8 l3,3 z" />
		<path fill="url(#inner)" d="M-6,-2 l2,-2 h8 l2,2 z" />
	</g>
</svg>