<?xml version="1.0" encoding="utf-8" standalone="yes"?>
<!DOCTYPE svg PUBLIC "-//W3C//DTD SVG 1.1//EN" "http://www.w3.org/Graphics/SVG/1.1/DTD/svg11.dtd">
<svg xmlns="http://www.w3.org/2000/svg" xmlns:xlink="http://www.w3.org/1999/xlink"
	width="16" height="16" version="1.1">
	<title>Brick Edit</title>
	<desc>Brick Edit</desc>
	<g id="icon" transform="translate(8,8)">
		<defs>
			<linearGradient id="backing" x1="0%" y1="0%" x2="100%" y2="100%">
				<stop offset="0%" stop-color="#c2c2c2" />
				<stop offset="100%" stop-color="#949494" />
			</linearGradient>
			<linearGradient id="inner-left" x1="0%" y1="0%" x2="100%" y2="100%">
				<stop offset="0%" stop-color="#f5f5f5" />
				<stop offset="100%" stop-color="#e8e8e8" />
			</linearGradient>
			<linearGradient id="inner-right" x1="0%" y1="0%" x2="100%" y2="100%">
				<stop offset="0%" stop-color="#a8a8a8" />
				<stop offset="40%" stop-color="#bcbcbc" />
				<stop offset="60%" stop-color="#cbcbcb" />
				<stop offset="100%" stop-color="#c9c9c9" />
			</linearGradient>
			<linearGradient id="center-left" x1="0%" y1="0%" x2="100%" y2="0%">
				<stop offset="0%" stop-color="#f1f1f1" />
				<stop offset="100%" stop-color="#d6d6d6" />
			</linearGradient>
			<linearGradient id="center-right" x1="0%" y1="0%" x2="100%"
				y2="0%">
				<stop offset="0%" stop-color="#bdbdbd" />
				<stop offset="100%" stop-color="#c0c0c0" />
			</linearGradient>
			<linearGradient id="center" x1="0%" y1="0%" x2="100%" y2="0%">
				<stop offset="0%" stop-color="#f1f1f1" />
				<stop offset="50%" stop-color="#d6d6d6" />
				<stop offset="50%" stop-color="#bdbdbd" />
				<stop offset="100%" stop-color="#c0c0c0" />
			</linearGradient>
			<linearGradient id="bump" x1="0%" y1="0%" x2="100%" y2="0%">
				<stop offset="0%" stop-color="#cdcdcd" />
				<stop offset="33%" stop-color="#b5b5b5" />
				<stop offset="33%" stop-color="#cbcbcb" />
				<stop offset="66%" stop-color="#cccccc" />
				<stop offset="66%" stop-color="#b9b9b9" />
				<stop offset="100%" stop-color="#c0c0c0" />
			</linearGradient>
			<linearGradient id="masking-left" x1="50%" y1="0%" x2="0%" y2="100%">
				<stop offset="0%" stop-color="#000" />
				<stop offset="60%" stop-color="#fff" />
				<stop offset="100%" stop-color="#fff" />
			</linearGradient>
			<linearGradient id="masking-right" x1="0%" y1="0%" x2="50%"
				y2="100%">
				<stop offset="0%" stop-color="#000" />
				<stop offset="85%" stop-color="#fff" />
				<stop offset="100%" stop-color="#fff" />
			</linearGradient>
			<mask id="blend-mask">
				<path fill="url(#masking-left)" d="M-6,-2 l6,3 v-3 h-2 v-2 h-4 v2" />
				<path fill="url(#masking-right)" d="M0,1 l6,-3 v-2 h-4 v2 h-2" />
			</mask>
			<linearGradient id="center-bump" x1="0%" y1="0%" x2="100%" y2="0%">
				<stop offset="0%" stop-color="#c1c1c1" />
				<stop offset="100%" stop-color="#9a9a9a" />
			</linearGradient>
		</defs>
		<path fill="url(#backing)"
			d="M-8,3 l8,4 l8,-4 v-6 a1,1 1 0,1 -1,-1 a2,2 1 0,0 -2,-2 h-2 a2,2 1 0,0 -2,-2 h-2 a2,2 1 0,0 -2,2 h-2 a2,2 1 0,0 -2,2 a1,1 1 0,1 -1,1 z" />
		<path fill="url(#inner-left)" d="M-7,2.5 l7,3.5 v-5 l-7,-3.5" />
		<path fill="url(#inner-right)" d="M0,6 l7,-3.5 v-5 l-7,3.5" />
		<path fill="url(#center-left)" d="M-6,2 l5,2.5 v-3 l-5,-2.5 " />
		<path fill="url(#center-right)" d="M1,4.5 l5,-2.5 v-3 l-5,2.5 " />
		<path fill="url(#bump)" d="M-6,-2 l6,3 l6,-3 v-2 h-4 v2 h-4 v-2 h-4 " />
		<path fill="url(#center)" mask="url(#blend-mask)"
			d="M-6,-2 l6,3 l6,-3 v-2 h-4 v2 h-4 v-2 h-4 " />
		<rect width="4" height="4" x="-2" y="-6.25" fill="url(#center-bump)" />
		<path fill="#ffffff"
			d="M0,-7 a2,0.75 1 0,1 2,0.75 a2,1.25 1 0,1 -4,0 a2,0.75 1 0,1 2,-0.75" />
		<path fill="#ffffff"
			d="M0,-3 a2,0.75 1 0,1 2,0.75 a2,1.25 1 0,1 -4,0 a2,0.75 1 0,1 2,-0.75" />
		<path fill="#ffffff"
			d="M-4,-5 a2,0.75 1 0,1 2,0.75 a2,1.25 1 0,1 -4,0 a2,0.75 1 0,1 2,-0.75" />
		<path fill="#ffffff"
			d="M4,-5 a2,0.75 1 0,1 2,0.75 a2,1.25 1 0,1 -4,0 a2,0.75 1 0,1 2,-0.75" />
		<g id="pencil" transform="translate(2,2)">
			<defs>
				<linearGradient id="top_center" x1="0%" y1="0%" x2="100%" y2="0%">
					<stop offset="0%" stop-color="#f7e1c9" />
					<stop offset="100%" stop-color="#f4cfa5" />
				</linearGradient>
				<linearGradient id="pencil-back" x1="100%" y1="0%" x2="0%"
					y2="100%">
					<stop offset="0%" stop-color="#ca9350" stop-opacity="1.0" />
					<stop offset="20%" stop-color="#ca9350" stop-opacity="0.5" />
					<stop offset="30%" stop-color="#ca9350" stop-opacity="0.0" />
					<stop offset="55%" stop-color="#936d1e" stop-opacity="0.0" />
					<stop offset="65%" stop-color="#936d1e" stop-opacity="0.3" />
					<stop offset="80%" stop-color="#936d1e" stop-opacity="0.9" />
					<stop offset="92%" stop-color="#936d1e" stop-opacity="1.0" />
					<stop offset="94%" stop-color="#594212" stop-opacity="1.0" />
				</linearGradient>
				<linearGradient id="pencil-cross" x1="37%" y1="37%" x2="63%"
					y2="63%">
					<stop offset="0%" stop-color="#e4ba2f" />
					<stop offset="100%" stop-color="#d98f3b" />
				</linearGradient>
				<linearGradient id="pencil-nib" x1="100%" y1="0%" x2="0%" y2="100%">
					<stop offset="0%" stop-color="#fae7d1" stop-opacity="1.0" />
					<stop offset="75%" stop-color="#fae7d1" stop-opacity="0.9" />
					<stop offset="100%" stop-color="#fae7d1" stop-opacity="0.0" />
				</linearGradient>
				<linearGradient id="pencil-outer" x1="37%" y1="37%" x2="63%"
					y2="63%">
					<stop offset="0%" stop-color="#f8edc3" />
					<stop offset="10%" stop-color="#fcf4b3" />
					<stop offset="45%" stop-color="#f4d644" />
					<stop offset="55%" stop-color="#f4d644" />
					<stop offset="90%" stop-color="#fcf4b3" />
					<stop offset="100%" stop-color="#faee8e" />
				</linearGradient>
				<linearGradient id="pencil-nib-shadow" x1="0%" y1="0%" x2="100%"
					y2="100%">
					<stop offset="0%" stop-color="#e07500" stop-opacity="0.0" />
					<stop offset="40%" stop-color="#e07500" stop-opacity="0.2" />
					<stop offset="50%" stop-color="#e07500" stop-opacity="0.45" />
					<stop offset="60%" stop-color="#e07500" stop-opacity="0.4" />
					<stop offset="100%" stop-color="#e07500" stop-opacity="0.0" />
				</linearGradient>
			</defs>
			<path fill="url(#pencil-cross)" d="M2,-5 l-8,8 v3 h3 l8,-8 a2,1.25 45 0,0 -3,-3" />
			<path fill="url(#pencil-back)" d="M2,-5 l-8,8 v3 h3 l8,-8 a2,1.25 45 0,0 -3,-3" />
			<ellipse transform="translate(3.5,-3.5) rotate(45)" cx="0" cy="0" rx="1.25"
				ry="0.75" fill="url(#top_center)" />
			<path fill="url(#pencil-nib)" d="M-5,5 h2 l1,-1 a1.41,0.75 45 0,1 -2,-2 l-1,1 v2" />
			<path fill="url(#pencil-nib-shadow)" d="M-5,5 h2 l1,-1 a1.41,0.75 45 0,1 -2,-2 l-1,1 v2" />
			<path fill="url(#pencil-outer)"
				d="M2,-4 l-5.5,5.5 a1.41,0.75 45 0,0 2,2 l5.5,-5.5 a1.41,0.75 45 0,1 -2,-2" />
		</g>
	</g>
</svg>
