<?xml version="1.0" encoding="utf-8" standalone="yes"?>
<!DOCTYPE svg PUBLIC "-//W3C//DTD SVG 1.1//EN" "http://www.w3.org/Graphics/SVG/1.1/DTD/svg11.dtd">
<svg xmlns="http://www.w3.org/2000/svg" xmlns:xlink="http://www.w3.org/1999/xlink"
	width="16" height="16" version="1.1">
	<title>Brick Delete</title>
	<desc>Brick Delete</desc>
	<g id="icon" transform="translate(8,8)">
		<defs>
			<linearGradient id="backing" x1="0%" y1="0%" x2="100%" y2="100%">
				<stop offset="0%" stop-color="#c2c2c2" />
				<stop offset="100%" stop-color="#949494" />
			</linearGradient>
			<linearGradient id="inner-left" x1="0%" y1="0%" x2="100%" y2="100%">
				<stop offset="0%" stop-color="#f5f5f5" />
				<stop offset="100%" stop-color="#e8e8e8" />
			</linearGradient>
			<linearGradient id="inner-right" x1="0%" y1="0%" x2="100%" y2="100%">
				<stop offset="0%" stop-color="#a8a8a8" />
				<stop offset="40%" stop-color="#bcbcbc" />
				<stop offset="60%" stop-color="#cbcbcb" />
				<stop offset="100%" stop-color="#c9c9c9" />
			</linearGradient>
			<linearGradient id="center-left" x1="0%" y1="0%" x2="100%" y2="0%">
				<stop offset="0%" stop-color="#f1f1f1" />
				<stop offset="100%" stop-color="#d6d6d6" />
			</linearGradient>
			<linearGradient id="center-right" x1="0%" y1="0%" x2="100%"
				y2="0%">
				<stop offset="0%" stop-color="#bdbdbd" />
				<stop offset="100%" stop-color="#c0c0c0" />
			</linearGradient>
			<linearGradient id="center" x1="0%" y1="0%" x2="100%" y2="0%">
				<stop offset="0%" stop-color="#f1f1f1" />
				<stop offset="50%" stop-color="#d6d6d6" />
				<stop offset="50%" stop-color="#bdbdbd" />
				<stop offset="100%" stop-color="#c0c0c0" />
			</linearGradient>
			<linearGradient id="bump" x1="0%" y1="0%" x2="100%" y2="0%">
				<stop offset="0%" stop-color="#cdcdcd" />
				<stop offset="33%" stop-color="#b5b5b5" />
				<stop offset="33%" stop-color="#cbcbcb" />
				<stop offset="66%" stop-color="#cccccc" />
				<stop offset="66%" stop-color="#b9b9b9" />
				<stop offset="100%" stop-color="#c0c0c0" />
			</linearGradient>
			<linearGradient id="masking-left" x1="50%" y1="0%" x2="0%" y2="100%">
				<stop offset="0%" stop-color="#000" />
				<stop offset="60%" stop-color="#fff" />
				<stop offset="100%" stop-color="#fff" />
			</linearGradient>
			<linearGradient id="masking-right" x1="0%" y1="0%" x2="50%"
				y2="100%">
				<stop offset="0%" stop-color="#000" />
				<stop offset="85%" stop-color="#fff" />
				<stop offset="100%" stop-color="#fff" />
			</linearGradient>
			<mask id="blend-mask">
				<path fill="url(#masking-left)" d="M-6,-2 l6,3 v-3 h-2 v-2 h-4 v2" />
				<path fill="url(#masking-right)" d="M0,1 l6,-3 v-2 h-4 v2 h-2" />
			</mask>
			<linearGradient id="center-bump" x1="0%" y1="0%" x2="100%" y2="0%">
				<stop offset="0%" stop-color="#c1c1c1" />
				<stop offset="100%" stop-color="#9a9a9a" />
			</linearGradient>
		</defs>
		<path fill="url(#backing)"
			d="M-8,3 l8,4 l8,-4 v-6 a1,1 1 0,1 -1,-1 a2,2 1 0,0 -2,-2 h-2 a2,2 1 0,0 -2,-2 h-2 a2,2 1 0,0 -2,2 h-2 a2,2 1 0,0 -2,2 a1,1 1 0,1 -1,1 z" />
		<path fill="url(#inner-left)" d="M-7,2.5 l7,3.5 v-5 l-7,-3.5" />
		<path fill="url(#inner-right)" d="M0,6 l7,-3.5 v-5 l-7,3.5" />
		<path fill="url(#center-left)" d="M-6,2 l5,2.5 v-3 l-5,-2.5 " />
		<path fill="url(#center-right)" d="M1,4.5 l5,-2.5 v-3 l-5,2.5 " />
		<path fill="url(#bump)" d="M-6,-2 l6,3 l6,-3 v-2 h-4 v2 h-4 v-2 h-4 " />
		<path fill="url(#center)" mask="url(#blend-mask)"
			d="M-6,-2 l6,3 l6,-3 v-2 h-4 v2 h-4 v-2 h-4 " />
		<rect width="4" height="4" x="-2" y="-6.25" fill="url(#center-bump)" />
		<path fill="#ffffff"
			d="M0,-7 a2,0.75 1 0,1 2,0.75 a2,1.25 1 0,1 -4,0 a2,0.75 1 0,1 2,-0.75" />
		<path fill="#ffffff"
			d="M0,-3 a2,0.75 1 0,1 2,0.75 a2,1.25 1 0,1 -4,0 a2,0.75 1 0,1 2,-0.75" />
		<path fill="#ffffff"
			d="M-4,-5 a2,0.75 1 0,1 2,0.75 a2,1.25 1 0,1 -4,0 a2,0.75 1 0,1 2,-0.75" />
		<path fill="#ffffff"
			d="M4,-5 a2,0.75 1 0,1 2,0.75 a2,1.25 1 0,1 -4,0 a2,0.75 1 0,1 2,-0.75" />
		<g id="delete" transform="translate(4.5,4.5)">
			<defs>
				<linearGradient id="backing_delete" x1="0%" y1="0%" x2="100%"
					y2="100%">
					<stop offset="0%" stop-color="#c4581e" />
					<stop offset="100%" stop-color="#b84503" />
				</linearGradient>
				<linearGradient id="center_delete" x1="0%" y1="0%" x2="100%"
					y2="100%">
					<stop offset="0%" stop-color="#fed6b8" />
					<stop offset="100%" stop-color="#dd6401" />
				</linearGradient>
			</defs>
			<circle id="back" r="3.5" fill="url(#backing_delete)" />
			<circle id="center-dot" r="2.5" fill="url(#center_delete)" />
			<path fill="#fff" d="M-1.5,-0.5 h3 v1 h-3 v-1 z " />
		</g>
	</g>
</svg>
