<?xml version="1.0" encoding="utf-8" standalone="yes"?>
<!DOCTYPE svg PUBLIC "-//W3C//DTD SVG 1.1//EN" "http://www.w3.org/Graphics/SVG/1.1/DTD/svg11.dtd">
<svg xmlns="http://www.w3.org/2000/svg" xmlns:xlink="http://www.w3.org/1999/xlink"
	width="16" height="16" version="1.1">
	<title>Building Edit</title>
	<desc>Building Build Edit</desc>
	<g id="icon" transform="translate(8,8)">
		<defs>
			<linearGradient id="backing" x1="0%" y1="0%" x2="100%" y2="100%">
				<stop offset="0%" stop-color="#eee" />
				<stop offset="100%" stop-color="#666" />
			</linearGradient>
			<linearGradient id="shade" x1="0%" y1="0%" x2="0%" y2="100%">
				<stop offset="0%" stop-color="#eee" />
				<stop offset="100%" stop-color="#ddd" />
			</linearGradient>
			<linearGradient id="door" x1="0%" y1="0%" x2="100%" y2="100%">
				<stop offset="0%" stop-color="#818181" />
				<stop offset="100%" stop-color="#8d8d8d" />
			</linearGradient>
			<linearGradient id="door-inner" x1="0%" y1="0%" x2="100%" y2="100%">
				<stop offset="0%" stop-color="#b5b5b5" />
				<stop offset="100%" stop-color="#bdbdbd" />
			</linearGradient>
			<linearGradient id="windows" x1="0%" y1="0%" x2="100%" y2="100%">
				<stop offset="0%" stop-color="#bad1f8" />
				<stop offset="100%" stop-color="#95b8f1" />
			</linearGradient>
			<linearGradient id="top" x1="0%" y1="0%" x2="100%" y2="100%">
				<stop offset="0%" stop-color="#9a9a9a" />
				<stop offset="100%" stop-color="#747474" />
			</linearGradient>
			<linearGradient id="bush" x1="0%" y1="0%" x2="0%" y2="100%">
				<stop offset="0%" stop-color="#7ac170" />
				<stop offset="100%" stop-color="#428b3f" />
			</linearGradient>
			<linearGradient id="bush-inner" x1="0%" y1="0%" x2="100%" y2="100%">
				<stop offset="0%" stop-color="#8fcb87" />
				<stop offset="100%" stop-color="#7fbb79" />
			</linearGradient>
		</defs>
		<rect width="10" height="13" x="-5" y="-6" fill="url(#backing)" />
		<rect width="8" height="11" x="-4" y="-5" fill="#fff" />
		<rect width="6" height="10" x="-3" y="-4" fill="url(#shade)" />
		<rect width="14" height="1" x="-7" y="6" fill="#6b6b6b" />
		<rect width="4" height="4" x="-2" y="2" fill="url(#door)" />
		<rect width="2" height="3" x="-1" y="3" fill="url(#door-inner)" />
		<path fill="url(#windows)"
			d="M-3,-4 h6 v1 h-6 m0,1 h6 v1 h-6 m0,1 h6 v1 h-6 z" />
		<path fill="url(#top)" d="M1,-7 v1 l1.5,1 l1.5,-1 v-1 z" />
		<rect width="1" height="1" x="2" y="-8" fill="#f00" />
		<path fill="url(#bush)"
			d="M-6.5,6 h4 a0.5,0.5 0 0,0 0.5,-0.5 a0.5,0.5 0 0,0 -0.5,-0.5 a1,1 0 0,0 -1,-1 a0.5,0.5 0 0,1 -0.5,-0.5 v-1 a0.5,0.5 0 0,0 -1,0 v1 a0.5,0.5 0 0,1 -0.5,0.5 a1,1 0 0,0 -1,1 a0.5,0.5 0 0,0 -0.5,0.5 a0.5,0.5 0 0,0 0.5,0.5 m9,0 h4 a0.5,0.5 0 0,0 0.5,-0.5 a0.5,0.5 0 0,0 -0.5,-0.5 a1,1 0 0,0 -1,-1 a0.5,0.5 0 0,1 -0.5,-0.5 v-1 a0.5,0.5 0 0,0 -1,0 v1 a0.5,0.5 0 0,1 -0.5,0.5 a1,1 0 0,0 -1,1 a0.5,0.5 0 0,0 -0.5,0.5 a0.5,0.5 0 0,0 0.5,0.5 z" />
		<path fill="url(#bush-inner)"
			d="M-5.5,5.5 h2 a0.5,0.5 0 0,0 0,-1 a1.5,1.5 0 0,0 -2,0  a0.5,0.5 0 0,0 0,1 m9,0 h2 a0.5,0.5 0 0,0 0,-1 a1.5,1.5 0 0,0 -2,0  a0.5,0.5 0 0,0 0,1 z" />
		<g id="pencil" transform="translate(2,2)">
			<defs>
				<linearGradient id="top_center" x1="0%" y1="0%" x2="100%" y2="0%">
					<stop offset="0%" stop-color="#f7e1c9" />
					<stop offset="100%" stop-color="#f4cfa5" />
				</linearGradient>
				<linearGradient id="pencil-back" x1="100%" y1="0%" x2="0%"
					y2="100%">
					<stop offset="0%" stop-color="#ca9350" stop-opacity="1.0" />
					<stop offset="20%" stop-color="#ca9350" stop-opacity="0.5" />
					<stop offset="30%" stop-color="#ca9350" stop-opacity="0.0" />
					<stop offset="55%" stop-color="#936d1e" stop-opacity="0.0" />
					<stop offset="65%" stop-color="#936d1e" stop-opacity="0.3" />
					<stop offset="80%" stop-color="#936d1e" stop-opacity="0.9" />
					<stop offset="92%" stop-color="#936d1e" stop-opacity="1.0" />
					<stop offset="94%" stop-color="#594212" stop-opacity="1.0" />
				</linearGradient>
				<linearGradient id="pencil-cross" x1="37%" y1="37%" x2="63%"
					y2="63%">
					<stop offset="0%" stop-color="#e4ba2f" />
					<stop offset="100%" stop-color="#d98f3b" />
				</linearGradient>
				<linearGradient id="pencil-nib" x1="100%" y1="0%" x2="0%" y2="100%">
					<stop offset="0%" stop-color="#fae7d1" stop-opacity="1.0" />
					<stop offset="75%" stop-color="#fae7d1" stop-opacity="0.9" />
					<stop offset="100%" stop-color="#fae7d1" stop-opacity="0.0" />
				</linearGradient>
				<linearGradient id="pencil-outer" x1="37%" y1="37%" x2="63%"
					y2="63%">
					<stop offset="0%" stop-color="#f8edc3" />
					<stop offset="10%" stop-color="#fcf4b3" />
					<stop offset="45%" stop-color="#f4d644" />
					<stop offset="55%" stop-color="#f4d644" />
					<stop offset="90%" stop-color="#fcf4b3" />
					<stop offset="100%" stop-color="#faee8e" />
				</linearGradient>
				<linearGradient id="pencil-nib-shadow" x1="0%" y1="0%" x2="100%"
					y2="100%">
					<stop offset="0%" stop-color="#e07500" stop-opacity="0.0" />
					<stop offset="40%" stop-color="#e07500" stop-opacity="0.2" />
					<stop offset="50%" stop-color="#e07500" stop-opacity="0.45" />
					<stop offset="60%" stop-color="#e07500" stop-opacity="0.4" />
					<stop offset="100%" stop-color="#e07500" stop-opacity="0.0" />
				</linearGradient>
			</defs>
			<path fill="url(#pencil-cross)" d="M2,-5 l-8,8 v3 h3 l8,-8 a2,1.25 45 0,0 -3,-3" />
			<path fill="url(#pencil-back)" d="M2,-5 l-8,8 v3 h3 l8,-8 a2,1.25 45 0,0 -3,-3" />
			<ellipse transform="translate(3.5,-3.5) rotate(45)" cx="0" cy="0" rx="1.25"
				ry="0.75" fill="url(#top_center)" />
			<path fill="url(#pencil-nib)" d="M-5,5 h2 l1,-1 a1.41,0.75 45 0,1 -2,-2 l-1,1 v2" />
			<path fill="url(#pencil-nib-shadow)" d="M-5,5 h2 l1,-1 a1.41,0.75 45 0,1 -2,-2 l-1,1 v2" />
			<path fill="url(#pencil-outer)"
				d="M2,-4 l-5.5,5.5 a1.41,0.75 45 0,0 2,2 l5.5,-5.5 a1.41,0.75 45 0,1 -2,-2" />
		</g>
	</g>
</svg>
