<?xml version="1.0" encoding="utf-8" standalone="yes"?>
<!DOCTYPE svg PUBLIC "-//W3C//DTD SVG 1.1//EN" "http://www.w3.org/Graphics/SVG/1.1/DTD/svg11.dtd">
<svg xmlns="http://www.w3.org/2000/svg" xmlns:xlink="http://www.w3.org/1999/xlink"
	width="16" height="16" version="1.1">
	<title>Building Go</title>
	<desc>Building Build Go</desc>
	<g id="icon" transform="translate(8,8)">
		<defs>
			<linearGradient id="backing" x1="0%" y1="0%" x2="100%" y2="100%">
				<stop offset="0%" stop-color="#eee" />
				<stop offset="100%" stop-color="#666" />
			</linearGradient>
			<linearGradient id="shade" x1="0%" y1="0%" x2="0%" y2="100%">
				<stop offset="0%" stop-color="#eee" />
				<stop offset="100%" stop-color="#ddd" />
			</linearGradient>
			<linearGradient id="door" x1="0%" y1="0%" x2="100%" y2="100%">
				<stop offset="0%" stop-color="#818181" />
				<stop offset="100%" stop-color="#8d8d8d" />
			</linearGradient>
			<linearGradient id="door-inner" x1="0%" y1="0%" x2="100%" y2="100%">
				<stop offset="0%" stop-color="#b5b5b5" />
				<stop offset="100%" stop-color="#bdbdbd" />
			</linearGradient>
			<linearGradient id="windows" x1="0%" y1="0%" x2="100%" y2="100%">
				<stop offset="0%" stop-color="#bad1f8" />
				<stop offset="100%" stop-color="#95b8f1" />
			</linearGradient>
			<linearGradient id="top" x1="0%" y1="0%" x2="100%" y2="100%">
				<stop offset="0%" stop-color="#9a9a9a" />
				<stop offset="100%" stop-color="#747474" />
			</linearGradient>
			<linearGradient id="bush" x1="0%" y1="0%" x2="0%" y2="100%">
				<stop offset="0%" stop-color="#7ac170" />
				<stop offset="100%" stop-color="#428b3f" />
			</linearGradient>
			<linearGradient id="bush-inner" x1="0%" y1="0%" x2="100%" y2="100%">
				<stop offset="0%" stop-color="#8fcb87" />
				<stop offset="100%" stop-color="#7fbb79" />
			</linearGradient>
		</defs>
		<rect width="10" height="13" x="-5" y="-6" fill="url(#backing)" />
		<rect width="8" height="11" x="-4" y="-5" fill="#fff" />
		<rect width="6" height="10" x="-3" y="-4" fill="url(#shade)" />
		<rect width="14" height="1" x="-7" y="6" fill="#6b6b6b" />
		<rect width="4" height="4" x="-2" y="2" fill="url(#door)" />
		<rect width="2" height="3" x="-1" y="3" fill="url(#door-inner)" />
		<path fill="url(#windows)"
			d="M-3,-4 h6 v1 h-6 m0,1 h6 v1 h-6 m0,1 h6 v1 h-6 z" />
		<path fill="url(#top)" d="M1,-7 v1 l1.5,1 l1.5,-1 v-1 z" />
		<rect width="1" height="1" x="2" y="-8" fill="#f00" />
		<path fill="url(#bush)"
			d="M-6.5,6 h4 a0.5,0.5 0 0,0 0.5,-0.5 a0.5,0.5 0 0,0 -0.5,-0.5 a1,1 0 0,0 -1,-1 a0.5,0.5 0 0,1 -0.5,-0.5 v-1 a0.5,0.5 0 0,0 -1,0 v1 a0.5,0.5 0 0,1 -0.5,0.5 a1,1 0 0,0 -1,1 a0.5,0.5 0 0,0 -0.5,0.5 a0.5,0.5 0 0,0 0.5,0.5 m9,0 h4 a0.5,0.5 0 0,0 0.5,-0.5 a0.5,0.5 0 0,0 -0.5,-0.5 a1,1 0 0,0 -1,-1 a0.5,0.5 0 0,1 -0.5,-0.5 v-1 a0.5,0.5 0 0,0 -1,0 v1 a0.5,0.5 0 0,1 -0.5,0.5 a1,1 0 0,0 -1,1 a0.5,0.5 0 0,0 -0.5,0.5 a0.5,0.5 0 0,0 0.5,0.5 z" />
		<path fill="url(#bush-inner)"
			d="M-5.5,5.5 h2 a0.5,0.5 0 0,0 0,-1 a1.5,1.5 0 0,0 -2,0  a0.5,0.5 0 0,0 0,1 m9,0 h2 a0.5,0.5 0 0,0 0,-1 a1.5,1.5 0 0,0 -2,0  a0.5,0.5 0 0,0 0,1 z" />
		<g id="go" transform="translate(3,3)">
			<defs>
				<linearGradient id="border_go" x1="0%" y1="0%" x2="100%" y2="100%">
					<stop offset="0%" stop-color="#6fa53d" />
					<stop offset="100%" stop-color="#1e7b03" />
				</linearGradient>
				<linearGradient id="inner_go" x1="0%" y1="0%" x2="100%" y2="100%">
					<stop offset="0%" stop-color="#b0ce96" />
					<stop offset="100%" stop-color="#96c180" />
				</linearGradient>
			</defs>
			<path fill="url(#border_go)"
				d="M-1,-2 v-2 h1 l4.5,4.5 l-4.5,4.5 h-1 v-2 h-4 v-5 Z" />
			<path fill="url(#inner_go)" d="M0,-1 v-1.5 l3,3 l-3,3 v-1.5 h-4 v-3 Z" />
			<path fill="#8eba6f" d="M0.5,0 v-0.5 l1,1 l-1,1 v-0.5 l-3.5,0 v-1 Z" />
		</g>
	</g>
</svg>