<?xml version="1.0" encoding="utf-8" standalone="yes"?>
<!DOCTYPE svg PUBLIC "-//W3C//DTD SVG 1.1//EN" "http://www.w3.org/Graphics/SVG/1.1/DTD/svg11.dtd">
<svg xmlns="http://www.w3.org/2000/svg" xmlns:xlink="http://www.w3.org/1999/xlink"
	width="16" height="16" version="1.1">
	<title>Bullet Feed</title>
	<desc>Bullet Feed</desc>
	<g id="icon" transform="translate(8,8)">
		<defs>
			<linearGradient id="feed" x1="0%" y1="0%" x2="100%" y2="100%">
				<stop offset="0%" stop-color="#ff8f16" />
				<stop offset="100%" stop-color="#ff4d0e" />
			</linearGradient>
		</defs>
		<path fill="url(#feed)"
			d="M-3,3 a1,1 0 1,1 2,0 a1,1 0 1,1 -2,0 m0,-2 v-1 h1 a3,3 0 0,1 3,3 v1 h-1 v-1  a2,2 0 0,0 -2,-2 h-1 m0,-2 v-1 h1 a5,5 0 0,1 5,5 v1 h-1 l0-1 a4,4 0 0,0 -4,-4 h-1 z" />
	</g>
</svg>