<?xml version="1.0" encoding="utf-8" standalone="yes"?>
<!DOCTYPE svg PUBLIC "-//W3C//DTD SVG 1.1//EN" "http://www.w3.org/Graphics/SVG/1.1/DTD/svg11.dtd">
<svg xmlns="http://www.w3.org/2000/svg" xmlns:xlink="http://www.w3.org/1999/xlink"
	width="16" height="16" version="1.1">
	<title>Bullet Key</title>
	<desc>Bullet Key</desc>
	<g id="key-icon" transform="translate(8,8)">
		<defs>
			<linearGradient id="key-backing" x1="0%" y1="0%" x2="100%" y2="0%">
				<stop offset="0%" stop-color="#e3b044" />
				<stop offset="100%" stop-color="#d67d29" />
			</linearGradient>
			<linearGradient id="key-center" x1="0%" y1="0%" x2="100%" y2="0%">
				<stop offset="0%" stop-color="#f9eea9" />
				<stop offset="100%" stop-color="#f5d855" />
			</linearGradient>
			<linearGradient id="key-line" x1="0%" y1="0%" x2="0%" y2="100%">
				<stop offset="0%" stop-color="#eec528" stop-opacity="0" />
				<stop offset="100%" stop-color="#eec528" />
			</linearGradient>
			<linearGradient id="key-top" x1="0%" y1="0%" x2="100%" y2="100%">
				<stop offset="0%" stop-color="#eec528" stop-opacity="0" />
				<stop offset="100%" stop-color="#eec528" />
			</linearGradient>
		</defs>
		<g id="key-tick" transform="scale(0.625)">
			<path fill="url(#key-backing)"
				d="M-8,8 v-6 h2 v-2 h3 l1,-1 a3,3 0 0,1 -1,-3.5 l3,-3 a3,3 0 0,1 3.5,0 l3,3 a3,3 0 0,1 1,3.5 l-3,3 a3,3 0 0,1 -3,0 l-6,6 Z" />
			<path fill="url(#key-center)" d="M-7,7 v-4 h2 v-2 l2.5,0 l3,-3 l1.8,1.8 l-7.2,7.2 Z" />
			<path transform="scale(0.8)"
				d="M-1.5,-2 a3,3 0 0,1 -1,-3.5 l3,-3 a3,3 0 0,1 3.5,0 l3.3,3.3 a3,3 0 0,1 1,3.5 l-3,3 a3,3 0 0,1 -3,0 Z"
				fill="url(#key-center)" />
			<path transform="scale(0.6)"
				d="M-0.4,-3.2 a3,3 0 0,1 -1,-3.5 l3,-3 a3,3 0 0,1 3.5,0 l3.3,3.3 a3,3 0 0,1 1,3.5 l-3,3 a3,3 0 0,1 -3,0 Z"
				fill="url(#key-top)" />
			<path fill="url(#key-line)" d="M-6,6 v-1 l6,-6 l1,1 l-6,6 Z" />
			<rect width="2" height="1" transform="translate(3,-5) rotate(45)" fill="url(#key-backing)" />
		</g>
	</g>
</svg>