<?xml version="1.0" encoding="utf-8" standalone="yes"?>
<!DOCTYPE svg PUBLIC "-//W3C//DTD SVG 1.1//EN" "http://www.w3.org/Graphics/SVG/1.1/DTD/svg11.dtd">
<svg xmlns="http://www.w3.org/2000/svg" xmlns:xlink="http://www.w3.org/1999/xlink"
	width="16" height="16" version="1.1">
	<title>Calculator Go</title>
	<desc>Calculator Maths Go</desc>
	<g id="add" transform="translate(8,8)">
		<defs>
			<linearGradient id="backing" x1="0%" y1="0%" x2="100%" y2="100%">
				<stop offset="0%" stop-color="#a8a8a8" />
				<stop offset="100%" stop-color="#7a7a7a" />
			</linearGradient>
			<linearGradient id="screen" x1="0%" y1="0%" x2="0%" y2="100%">
				<stop offset="0%" stop-color="#4d72a7" />
				<stop offset="100%" stop-color="#567bb0" />
			</linearGradient>
			<linearGradient id="pad" x1="0%" y1="100%" x2="100%" y2="0%">
				<stop offset="0%" stop-color="#000" stop-opacity="0.08" />
				<stop offset="100%" stop-color="#000" stop-opacity="0.25" />
			</linearGradient>
			<linearGradient id="on" x1="0%" y1="0%" x2="100%" y2="0%">
				<stop offset="0%" stop-color="#e87473" />
				<stop offset="100%" stop-color="#db5852" />
			</linearGradient>
			<linearGradient id="button" x1="0%" y1="0%" x2="100%" y2="0%">
				<stop offset="0%" stop-color="#adadad" />
				<stop offset="100%" stop-color="#8e8e8e" />
			</linearGradient>
		</defs>
		<path fill="url(#backing)"
			d="M0,-7 h5 a1,1 0 0,1 1,1 v12 a1,1 0 0,1 -1,1 h-10 a1,1 0 0,1 -1,-1 v-12 a1,1 0 0,1 1,-1 z" />
		<rect width="10" height="12" x="-5" y="-6" fill="#fff" />
		<path fill="url(#screen)" d="M0,-5 h3 a1,1 0 0,1 1,1 v2 h-8 v-2 a1,1 0 0,1 1,-1 z" />
		<rect width="6" height="2" x="-3" y="-4" fill="#6b92c8" />
		<rect width="8" height="8" x="-4" y="-2" fill="url(#pad)" />
		<rect width="10" height="1" transform="translate(-5,5)" fill="#000"
			opacity="0.1" />
		<rect width="2" height="1" x="2" y="-1" fill="url(#on)" />
		<rect width="2" id="buttons" height="1" transform="translate(-4,-1)"
			fill="url(#button)" />
		<use xlink:href="#buttons" transform="translate(0,2)" />
		<use xlink:href="#buttons" transform="translate(0,4)" />
		<use xlink:href="#buttons" transform="translate(3,0)" />
		<use xlink:href="#buttons" transform="translate(3,2)" />
		<use xlink:href="#buttons" transform="translate(3,4)" />
		<use xlink:href="#buttons" transform="translate(6,2)" />
		<use xlink:href="#buttons" transform="translate(6,4)" />
		<g id="go" transform="translate(3,3)">
			<defs>
				<linearGradient id="border_go" x1="0%" y1="0%" x2="100%" y2="100%">
					<stop offset="0%" stop-color="#6fa53d" />
					<stop offset="100%" stop-color="#1e7b03" />
				</linearGradient>
				<linearGradient id="inner_go" x1="0%" y1="0%" x2="100%" y2="100%">
					<stop offset="0%" stop-color="#b0ce96" />
					<stop offset="100%" stop-color="#96c180" />
				</linearGradient>
			</defs>
			<path fill="url(#border_go)"
				d="M-1,-2 v-2 h1 l4.5,4.5 l-4.5,4.5 h-1 v-2 h-4 v-5 Z" />
			<path fill="url(#inner_go)" d="M0,-1 v-1.5 l3,3 l-3,3 v-1.5 h-4 v-3 Z" />
			<path fill="#8eba6f" d="M0.5,0 v-0.5 l1,1 l-1,1 v-0.5 l-3.5,0 v-1 Z" />
		</g>
	</g>
</svg>