<?xml version="1.0" encoding="utf-8" standalone="yes"?>
<!DOCTYPE svg PUBLIC "-//W3C//DTD SVG 1.1//EN" "http://www.w3.org/Graphics/SVG/1.1/DTD/svg11.dtd">
<svg xmlns="http://www.w3.org/2000/svg" xmlns:xlink="http://www.w3.org/1999/xlink"
	width="16" height="16" version="1.1">
	<title>Calendar View Week</title>
	<desc>Calendar View Week</desc>
	<g id="icon" transform="translate(8,8)">
		<defs>
			<linearGradient id="backing" x1="0%" y1="0%" x2="100%" y2="100%">
				<stop offset="0%" stop-color="#a3c2ef" />
				<stop offset="50%" stop-color="#729ed6" />
				<stop offset="100%" stop-color="#5284c3" />
			</linearGradient>
			<linearGradient id="inner" x1="0%" y1="0%" x2="100%" y2="100%">
				<stop offset="0%" stop-color="#f4f7fb" />
				<stop offset="50%" stop-color="#edf2f8" />
				<stip offset="80%" stop-color="#c8d6ea" />
				<stop offset="90%" stop-color="#d8e2f0" />
			</linearGradient>
			<linearGradient id="label" x1="0%" y1="0%" x2="100%" y2="100%">
				<stop offset="0%" stop-color="#ffa465" />
				<stop offset="90%" stop-color="#ff7d3b" />
			</linearGradient>
			<linearGradient id="label-center" x1="0%" y1="0%" x2="100%"
				y2="100%">
				<stop offset="0%" stop-color="#ffbd79" />
				<stop offset="100%" stop-color="#ffa754" />
			</linearGradient>
			<linearGradient id="center" x1="0%" y1="0%" x2="0%" y2="100%">
				<stop offset="0%" stop-color="#a6c3e9" />
				<stop offset="100%" stop-color="#bed2eb" />
			</linearGradient>
		</defs>
		<rect width="14" height="14" rx="1" ry="1" x="-7" y="-7" fill="url(#backing)" />
		<rect width="12" height="12" x="-6" y="-6" fill="url(#inner)" />
		<rect width="10" height="3" x="-5" y="-5" fill="url(#label)" />
		<rect width="8" height="1" x="-4" y="-4" fill="url(#label-center)" />
		<rect width="10" height="7" x="-5" y="-2" fill="url(#center)" />
		<path fill="#fff"
			d="M-5,-2 h1 v6 h-1 v-6 m2,0 h1 v6 h-1 v-6 m2,0 h1 v6 h-1 v-6 m2,0 h1 v6 h-1 v-6 m2,0 h1 v6 h-1 v-6 z" />
	</g>
</svg>
