<?xml version="1.0" encoding="utf-8" standalone="yes"?>
<!DOCTYPE svg PUBLIC "-//W3C//DTD SVG 1.1//EN" "http://www.w3.org/Graphics/SVG/1.1/DTD/svg11.dtd">
<svg xmlns="http://www.w3.org/2000/svg" xmlns:xlink="http://www.w3.org/1999/xlink"
	width="16" height="16" version="1.1">
	<title>Calendar View Day</title>
	<desc>Calendar View Day</desc>
	<g id="icon" transform="translate(8,8)">
		<defs>
			<linearGradient id="backing" x1="0%" y1="0%" x2="100%" y2="100%">
				<stop offset="0%" stop-color="#a3c2ef" />
				<stop offset="50%" stop-color="#729ed6" />
				<stop offset="100%" stop-color="#5284c3" />
			</linearGradient>
			<linearGradient id="inner" x1="0%" y1="0%" x2="100%" y2="100%">
				<stop offset="0%" stop-color="#f4f7fb" />
				<stop offset="50%" stop-color="#edf2f8" />
				<stip offset="80%" stop-color="#c8d6ea" />
				<stop offset="90%" stop-color="#d8e2f0" />
			</linearGradient>
			<linearGradient id="label" x1="0%" y1="0%" x2="100%" y2="100%">
				<stop offset="0%" stop-color="#ffa465" />
				<stop offset="90%" stop-color="#ff7d3b" />
			</linearGradient>
			<linearGradient id="label-center" x1="0%" y1="0%" x2="100%"
				y2="100%">
				<stop offset="0%" stop-color="#ffbd79" />
				<stop offset="100%" stop-color="#ffa754" />
			</linearGradient>
			<linearGradient id="center" x1="0%" y1="0%" x2="0%" y2="100%">
				<stop offset="0%" stop-color="#a6c3e9" />
				<stop offset="50%" stop-color="#abc6e5" />
				<stop offset="100%" stop-color="#83abdc" />
			</linearGradient>
		</defs>
		<rect width="14" height="14" rx="1" ry="1" x="-7" y="-7" fill="url(#backing)" />
		<rect width="12" height="12" x="-6" y="-6" fill="url(#inner)" />
		<rect width="10" height="3" x="-5" y="-5" fill="url(#label)" />
		<rect width="8" height="1" x="-4" y="-4" fill="url(#label-center)" />
		<rect width="10" height="7" x="-5" y="-2" fill="url(#center)" />
		<rect width="8" height="6" x="-4" y="-2" fill="#fff" />
		<path fill="#69ab62" transform="translate(-3.25,3) scale(0.0025,-0.0025)"
			d="M1179 0H195V260H509V1047H195V1290Q264 1290 332 1299T441 1328Q489 1352 515 1392T546 1493H872V260H1179V0Z" />
		<path fill="#69ab62" transform="translate(0,3) scale(0.0025,-0.0025)"
			d="M1226 745Q1226 552 1195 407T1096 165Q1028 68 919 19T652 -31Q495 -31 386 18T208 167Q140 265 109 408T78 744Q78 942 108 1082T210 1323Q280 1422 390 1470T652 1519Q813 1519 920 1469T1097 1318Q1165
1220 1195 1076T1226 745ZM851 745Q851 1021 806 1132T652 1244Q545 1244 499 1133T453 743Q453 471 499 358T652 244Q759 244 805 357T851 745Z" />
	</g>
</svg>
