<?xml version="1.0" encoding="utf-8" standalone="yes"?>
<!DOCTYPE svg PUBLIC "-//W3C//DTD SVG 1.1//EN" "http://www.w3.org/Graphics/SVG/1.1/DTD/svg11.dtd">
<svg xmlns="http://www.w3.org/2000/svg" xmlns:xlink="http://www.w3.org/1999/xlink"
	width="16" height="16" version="1.1">
	<title>Cancel</title>
	<desc>Cancel</desc>
	<g id="icon" transform="translate(8,8)">
		<defs>
			<linearGradient id="backing" x1="0%" y1="0%" x2="100%" y2="100%">
				<stop offset="0%" stop-color="#eba39e" />
				<stop offset="100%" stop-color="#d12e25" />
			</linearGradient>
			<linearGradient id="inner" x1="0%" y1="0%" x2="100%" y2="100%">
				<stop offset="0%" stop-color="#fcd4c4" />
				<stop offset="100%" stop-color="#f49486" />
			</linearGradient>
			<linearGradient id="center" x1="0%" y1="0%" x2="100%" y2="100%">
				<stop offset="0%" stop-color="#ffaf8b" />
				<stop offset="100%" stop-color="#fa4225" />
			</linearGradient>
		</defs>
		<polygon
			points="-2.89949,-7 2.89949,-7 7,-2.89949 7,2.89949 2.89949,7 -2.89949,7 -7,2.89949 -7,-2.89949 -2.89949,-7 2.89949,-7"
			fill="url(#backing)" />
		<polygon
			points="-2.48528,-6 2.48528,-6 6,-2.48528 6,2.48528 2.48528,6 -2.48528,6 -6,2.48528 -6,-2.48528 -2.48528,-6 2.48528,-6"
			fill="url(#inner)" />
		<polygon
			points="-2.07107,-5 2.07107,-5 5,-2.07107 5,2.07107 2.07107,5 -2.07107,5 -5,2.07107 -5,-2.07107 -2.07107,-5 2.07107,-5"
			fill="url(#center)" />
		<path transform="rotate(45)"
			d="M1,-1 h3 v2 h-3 v3 h-2 v-3 h-3 v-2 h3 v-3 h2 Z"
			fill="#fff" />
	</g>
</svg>