<?xml version="1.0" encoding="utf-8" standalone="yes"?>
<!DOCTYPE svg PUBLIC "-//W3C//DTD SVG 1.1//EN" "http://www.w3.org/Graphics/SVG/1.1/DTD/svg11.dtd">
<svg xmlns="http://www.w3.org/2000/svg" xmlns:xlink="http://www.w3.org/1999/xlink"
	width="16" height="16" version="1.1">
	<title>Bar Chart Go</title>
	<desc>Bar Chart Go</desc>
	<g id="icon" transform="translate(8,8)">
		<defs>
			<linearGradient id="red" x1="0%" y1="0%" x2="100%" y2="100%">
				<stop offset="0%" stop-color="#fe7874" />
				<stop offset="100%" stop-color="#f33d41" />
			</linearGradient>
			<linearGradient id="inner" x1="0%" y1="0%" x2="100%" y2="0%">
				<stop offset="0%" stop-color="#fff" stop-opacity="0.5" />
				<stop offset="100%" stop-color="#fff" stop-opacity="0.4" />
			</linearGradient>
			<linearGradient id="green" x1="0%" y1="0%" x2="100%" y2="100%">
				<stop offset="0%" stop-color="#6cbc60" />
				<stop offset="100%" stop-color="#2c6d27" />
			</linearGradient>
			<linearGradient id="blue" x1="0%" y1="0%" x2="100%" y2="100%">
				<stop offset="0%" stop-color="#77a6ea" />
				<stop offset="100%" stop-color="#112ec0" />
			</linearGradient>
		</defs>
		<rect width="6" height="10" x="-8" y="-3" fill="url(#red)" />
		<rect width="4" height="8" x="-7" y="-2" fill="url(#inner)" />
		<rect width="2" height="6" x="-6" y="-1" fill="url(#red)" />
		<rect width="6" height="7" x="2" y="0" fill="url(#green)" />
		<rect width="4" height="5" x="3" y="1" fill="url(#inner)" />
		<rect width="2" height="3" x="4" y="2" fill="url(#green)" />
		<rect width="6" height="14" x="-3" y="-7" fill="url(#blue)" />
		<rect width="4" height="12" x="-2" y="-6" fill="url(#inner)" />
		<rect width="2" height="10" x="-1" y="-5" fill="url(#blue)" />
		<rect width="16" height="1" x="-8" y="6" fill="#00f" opacity="0.4" />
		<g id="go" transform="translate(3,3)">
			<defs>
				<linearGradient id="border_go" x1="0%" y1="0%" x2="100%" y2="100%">
					<stop offset="0%" stop-color="#6fa53d" />
					<stop offset="100%" stop-color="#1e7b03" />
				</linearGradient>
				<linearGradient id="inner_go" x1="0%" y1="0%" x2="100%" y2="100%">
					<stop offset="0%" stop-color="#b0ce96" />
					<stop offset="100%" stop-color="#96c180" />
				</linearGradient>
			</defs>
			<path fill="url(#border_go)"
				d="M-1,-2 v-2 h1 l4.5,4.5 l-4.5,4.5 h-1 v-2 h-4 v-5 Z" />
			<path fill="url(#inner_go)" d="M0,-1 v-1.5 l3,3 l-3,3 v-1.5 h-4 v-3 Z" />
			<path fill="#8eba6f" d="M0.5,0 v-0.5 l1,1 l-1,1 v-0.5 l-3.5,0 v-1 Z" />
		</g>
	</g>
</svg>
