<?xml version="1.0" encoding="utf-8" standalone="yes"?>
<!DOCTYPE svg PUBLIC "-//W3C//DTD SVG 1.1//EN" "http://www.w3.org/Graphics/SVG/1.1/DTD/svg11.dtd">
<svg xmlns="http://www.w3.org/2000/svg" xmlns:xlink="http://www.w3.org/1999/xlink"
	width="16" height="16" version="1.1">
	<title>Bar Chart</title>
	<desc>Bar Chart Graph</desc>
	<g id="icon" transform="translate(8,8)">
		<defs>
			<linearGradient id="red" x1="0%" y1="0%" x2="100%" y2="100%">
				<stop offset="0%" stop-color="#fe7874" />
				<stop offset="100%" stop-color="#f33d41" />
			</linearGradient>
			<linearGradient id="inner" x1="0%" y1="0%" x2="100%" y2="0%">
				<stop offset="0%" stop-color="#fff" stop-opacity="0.5" />
				<stop offset="100%" stop-color="#fff" stop-opacity="0.4" />
			</linearGradient>
			<linearGradient id="green" x1="0%" y1="0%" x2="100%" y2="100%">
				<stop offset="0%" stop-color="#6cbc60" />
				<stop offset="100%" stop-color="#2c6d27" />
			</linearGradient>
			<linearGradient id="blue" x1="0%" y1="0%" x2="100%" y2="100%">
				<stop offset="0%" stop-color="#77a6ea" />
				<stop offset="100%" stop-color="#112ec0" />
			</linearGradient>
		</defs>
		<rect width="6" height="10" x="-8" y="-3" fill="url(#red)" />
		<rect width="4" height="8" x="-7" y="-2" fill="url(#inner)" />
		<rect width="2" height="6" x="-6" y="-1" fill="url(#red)" />
		<rect width="6" height="7" x="2" y="0" fill="url(#green)" />
		<rect width="4" height="5" x="3" y="1" fill="url(#inner)" />
		<rect width="2" height="3" x="4" y="2" fill="url(#green)" />
		<rect width="6" height="14" x="-3" y="-7" fill="url(#blue)" />
		<rect width="4" height="12" x="-2" y="-6" fill="url(#inner)" />
		<rect width="2" height="10" x="-1" y="-5" fill="url(#blue)" />
		<rect width="16" height="1" x="-8" y="6" fill="#00f" opacity="0.4" />
	</g>
</svg>
