<?xml version="1.0" encoding="utf-8" standalone="yes"?>
<!DOCTYPE svg PUBLIC "-//W3C//DTD SVG 1.1//EN" "http://www.w3.org/Graphics/SVG/1.1/DTD/svg11.dtd">
<svg xmlns="http://www.w3.org/2000/svg" xmlns:xlink="http://www.w3.org/1999/xlink"
	width="16" height="16" version="1.1">
	<title>Chart Pie Error</title>
	<desc>Chart Pie Error</desc>
	<g id="icon" transform="translate(8,8)">
		<defs>
			<linearGradient id="green" x1="0%" y1="0%" x2="100%" y2="100%">
				<stop offset="0%" stop-color="#8ad07c" />
				<stop offset="100%" stop-color="#3a8435" />
			</linearGradient>
			<linearGradient id="green-inner" x1="0%" y1="0%" x2="100%" y2="100%">
				<stop offset="0%" stop-color="#bee1be" />
				<stop offset="100%" stop-color="#a3daa8" />
			</linearGradient>
			<linearGradient id="green-center" x1="0%" y1="0%" x2="100%"
				y2="100%">
				<stop offset="0%" stop-color="#62ca6e" />
				<stop offset="100%" stop-color="#59c666" />
			</linearGradient>
			<linearGradient id="blue" x1="0%" y1="0%" x2="100%" y2="100%">
				<stop offset="0%" stop-color="#699fdf" />
				<stop offset="100%" stop-color="#173d86" />
			</linearGradient>
			<linearGradient id="blue-inner" x1="0%" y1="0%" x2="100%" y2="100%">
				<stop offset="0%" stop-color="#b2d1f2" />
				<stop offset="100%" stop-color="#7fa6e6" />
			</linearGradient>
			<linearGradient id="blue-center" x1="0%" y1="0%" x2="100%" y2="100%">
				<stop offset="0%" stop-color="#73a6e6" />
				<stop offset="100%" stop-color="#4c79d9" />
			</linearGradient>
			<linearGradient id="red" x1="0%" y1="0%" x2="100%" y2="100%">
				<stop offset="0%" stop-color="#f96665" />
				<stop offset="100%" stop-color="#e8151d" />
			</linearGradient>
			<linearGradient id="red-inner" x1="0%" y1="0%" x2="100%" y2="100%">
				<stop offset="0%" stop-color="#efb2ae" />
				<stop offset="100%" stop-color="#e76d6c" />
			</linearGradient>
			<linearGradient id="red-center" x1="0%" y1="0%" x2="100%" y2="100%">
				<stop offset="0%" stop-color="#e6817b" />
				<stop offset="100%" stop-color="#e78988" />
			</linearGradient>
		</defs>
		<path fill="url(#green)" d="M-7.5,2 a7.5,7.5 0 0,1 9.5,-9.5 l-3,6" />
		<path fill="url(#green-inner)" d="M-6.75,0.25 a6.5,6.5 0 0,1 7.25,-7.25 l-2.5,5" />
		<path fill="url(#green-center)" d="M-5.75,-1.25 a5.5,5.5 0 0,1 5,-5 l-1.75,3.5" />
		<path fill="url(#blue)" d="M3.5,-7 a7,7 0 0,1 -3.5,13 v-7" />
		<path fill="url(#blue-inner)" d="M3.75,-5.5 a6.25,6.25 0 0,1 -2.75,10.5 v-5.5" />
		<path fill="url(#blue-center)" d="M4,-4 a5.75,5.75 0 0,1 -2,7.5 v-4" />
		<path fill="url(#red)" d="M-1,7 a7,7 0 0,1 -6,-4 l6,-3" />
		<path fill="url(#red-inner)" d="M-2,6 a6.25,6.25 0 0,1 -3.5,-2.5 l3.5,-1.75" />
		<path fill="url(#red-center)" d="M-3,4.5 a5.5,5.5 0 0,1 -1,-0.75 l1,-0.75" />
		<g id="error" transform="translate(2,3)">
			<defs>
				<linearGradient id="error-backing" x1="0%" y1="0%" x2="100%"
					y2="0%">
					<stop offset="0%" stop-color="#debd5c" />
					<stop offset="100%" stop-color="#bd7723" />
				</linearGradient>
				<linearGradient id="error-center" x1="0%" y1="0%" x2="100%"
					y2="0%">
					<stop offset="0%" stop-color="#fbf4dc" />
					<stop offset="100%" stop-color="#f8eaab" />
				</linearGradient>
				<linearGradient id="error-in-border" x1="0%" y1="0%" x2="100%"
					y2="0%">
					<stop offset="0%" stop-color="#f5da58" />
					<stop offset="100%" stop-color="#f6de6a" />
				</linearGradient>
			</defs>
			<path fill="url(#error-backing)" d="M0.5,-5 l5.5,10 h-11 l5.5,-10 Z" />
			<path fill="url(#error-center)" d="M0.5,-3.5 l4,7.5 h-8 l4,-7.5 Z" />
			<path fill="url(#error-in-border)" d="M0.5,-2 l2.5,5 h-5 l2.5,-5 Z" />
			<rect width="1" height="2" y="-1" fill="#c28832" />
			<rect width="1" height="1" y="2" fill="#c28832" />
		</g>
	</g>
</svg>
