<?xml version="1.0" encoding="utf-8" standalone="yes"?>
<!DOCTYPE svg PUBLIC "-//W3C//DTD SVG 1.1//EN" "http://www.w3.org/Graphics/SVG/1.1/DTD/svg11.dtd">
<svg xmlns="http://www.w3.org/2000/svg" xmlns:xlink="http://www.w3.org/1999/xlink"
	width="16" height="16" version="1.1">
	<title>Chart Organisation Delete</title>
	<desc>Chart Organisation Delete</desc>
	<g id="icon" transform="translate(8,8)">
		<defs>
			<linearGradient id="backing" x1="0%" y1="0%" x2="100%" y2="100%">
				<stop offset="0%" stop-color="#70c163" />
				<stop offset="50%" stop-color="#50aa47" />
				<stop offset="100%" stop-color="#237d20" />
			</linearGradient>
			<linearGradient id="center" x1="0%" y1="0%" x2="100%" y2="100%">
				<stop offset="0%" stop-color="#ffffff" stop-opacity="0.5" />
				<stop offset="100%" stop-color="#ffffff" stop-opacity="0.25" />
			</linearGradient>
			<linearGradient id="line" x1="0%" y1="0%" x2="100%" y2="100%">
				<stop offset="0%" stop-color="#bebebe" />
				<stop offset="50%" stop-color="#999999" />
				<stop offset="100%" stop-color="#5d5d5d" />
			</linearGradient>
			<linearGradient id="root" x1="0%" y1="0%" x2="100%" y2="100%">
				<stop offset="0%" stop-color="#95c0f4" />
				<stop offset="50%" stop-color="#6da4e1" />
				<stop offset="100%" stop-color="#427ec4" />
			</linearGradient>
		</defs>
		<path fill="url(#backing)"
			d="M-8,2 h4 v4 h-4 v-4 m6,0 h4 v4 h-4 v-4 m6,0 h4 v4 h-4 v-4" />
		<path fill="url(#center)"
			d="M-7,3 h2 v2 h-2 v-2 m6,0 h2 v2 h-2 v-2 m6,0 h2 v2 h-2 v-2" />
		<path fill="url(#line)"
			d="M-6,-1 h5 v-1 h2 v1 h5 v2 h-1 v-1 h-10 v1 h-1 v-2" />
		<rect width="4" height="4" x="-2" y="-7" fill="url(#root)" />
		<rect width="2" height="2" x="-1" y="-6" fill="url(#center)" />
		<g id="delete" transform="translate(4.5,4.5)">
			<defs>
				<linearGradient id="backing_delete" x1="0%" y1="0%" x2="100%"
					y2="100%">
					<stop offset="0%" stop-color="#c4581e" />
					<stop offset="100%" stop-color="#b84503" />
				</linearGradient>
				<linearGradient id="center_delete" x1="0%" y1="0%" x2="100%"
					y2="100%">
					<stop offset="0%" stop-color="#fed6b8" />
					<stop offset="100%" stop-color="#dd6401" />
				</linearGradient>
			</defs>
			<circle id="back" r="3.5" fill="url(#backing_delete)" />
			<circle id="center-dot" r="2.5" fill="url(#center_delete)" />
			<path fill="#fff" d="M-1.5,-0.5 h3 v1 h-3 v-1 z " />
		</g>
	</g>
</svg>
