<?xml version="1.0" encoding="utf-8" standalone="yes"?>
<!DOCTYPE svg PUBLIC "-//W3C//DTD SVG 1.1//EN" "http://www.w3.org/Graphics/SVG/1.1/DTD/svg11.dtd">
<svg xmlns="http://www.w3.org/2000/svg" xmlns:xlink="http://www.w3.org/1999/xlink"
	width="16" height="16" version="1.1">
	<title>Chart Curve Delete</title>
	<desc>Chart Curve Delete</desc>
	<g id="icon" transform="translate(8,8)">
		<defs>
			<linearGradient id="grid" x1="0%" y1="0%" x2="100%" y2="100%">
				<stop offset="0%" stop-color="#3476c6" />
				<stop offset="50%" stop-color="#2b69b4" />
				<stop offset="100%" stop-color="#2863ab" />
			</linearGradient>
			<mask id="under">
				<rect width="16" height="16" x="-8" y="-8" fill="#fff" />
				<path stroke="#000" fill="none" d="M-5,-6 c5,12 4,3 12,3" stroke-width="1.2" />
				<rect width="8" height="16" x="-8" y="-8" fill="#fff" />
			</mask>
			<linearGradient id="red-line" x1="0%" y1="0%" x2="0%" y2="100%">
				<stop offset="0%" stop-color="#ef5759" />
				<stop offset="50%" stop-color="#f63639" />
				<stop offset="100%" stop-color="#f90004" />
			</linearGradient>
			<linearGradient id="blue-line" x1="0%" y1="0%" x2="0%" y2="100%">
				<stop offset="0%" stop-color="#4f92dd" />
				<stop offset="100%" stop-color="#0257e0" />
			</linearGradient>
			<linearGradient id="green-line" x1="0%" y1="0%" x2="0%" y2="100%">
				<stop offset="0%" stop-color="#4ba43c" />
				<stop offset="100%" stop-color="#37752d" />
			</linearGradient>
		</defs>
		<path fill="url(#grid)" d="M-7,-7 h1 v13 h13 v1 h-14 v-14" />
		<path stroke="url(#green-line)" fill="none" d="M-5,5 c5,0 6,-8 12,0"
			stroke-width="1.2" />
		<path stroke="url(#blue-line)" fill="none" d="M-5,-6 c5,12 4,3 12,3"
			stroke-width="1.2" />
		<path mask="url(#under)" stroke-width="1.2" stroke="url(#red-line)" fill="none"
			d="M-5,2.5 c4,-9 9,-9 12,-0.5" />
		<g id="delete" transform="translate(4.5,4.5)">
			<defs>
				<linearGradient id="backing_delete" x1="0%" y1="0%" x2="100%"
					y2="100%">
					<stop offset="0%" stop-color="#c4581e" />
					<stop offset="100%" stop-color="#b84503" />
				</linearGradient>
				<linearGradient id="center_delete" x1="0%" y1="0%" x2="100%"
					y2="100%">
					<stop offset="0%" stop-color="#fed6b8" />
					<stop offset="100%" stop-color="#dd6401" />
				</linearGradient>
			</defs>
			<circle id="back" r="3.5" fill="url(#backing_delete)" />
			<circle id="center-dot" r="2.5" fill="url(#center_delete)" />
			<path fill="#fff" d="M-1.5,-0.5 h3 v1 h-3 v-1 z " />
		</g>
	</g>
</svg>
