<?xml version="1.0" encoding="utf-8" standalone="yes"?>
<!DOCTYPE svg PUBLIC "-//W3C//DTD SVG 1.1//EN" "http://www.w3.org/Graphics/SVG/1.1/DTD/svg11.dtd">
<svg xmlns="http://www.w3.org/2000/svg" xmlns:xlink="http://www.w3.org/1999/xlink"
	width="16" height="16" version="1.1">
	<title>Chart Line Error</title>
	<desc>Chart Line Error</desc>
	<g id="icon" transform="translate(8,8)">
		<defs>
			<linearGradient id="red-line" x1="0%" y1="0%" x2="100%" y2="0%">
				<stop offset="0%" stop-color="#fb6665" />
				<stop offset="50%" stop-color="#f03137" />
				<stop offset="100%" stop-color="#f33d42" />
			</linearGradient>
			<linearGradient id="blue-line" x1="0%" y1="0%" x2="100%" y2="0%">
				<stop offset="0%" stop-color="#427bcc" />
				<stop offset="50%" stop-color="#437ccd" />
				<stop offset="100%" stop-color="#3062aa" />
			</linearGradient>
			<linearGradient id="center" x1="0%" y1="0%" x2="100%" y2="0%">
				<stop offset="0%" stop-color="#ffffff" stop-opacity="0.5" />
				<stop offset="100%" stop-color="#ffffff" stop-opacity="0.25" />
			</linearGradient>
			<rect id="square" width="3" height="3" />
		</defs>
		<path fill="url(#blue-line)"
			d="M-8,5 v-1 a1,1 0 0,1 1,-1 l1.5,0 l4.5,-2.5 v-1.5 a1,1 0 0,1 1,-1 h1 a1,1 0 0,1 1,1 l3,1 a1,1 0 0,1 1,-1 h1 a1,1 0 0,1 1,1 v1 a1,1 0 0,1 -1,1 h-1 a1,1 0 0,1 -1,-1 l-3,-1 a1,1 0 0,1 -1,1 l-1.25,0 l-4.75,3 v1 a1,1 0 0,1 -1,1 h-1 a1,1 0 0,1 -1,-1" />
		<path fill="url(#red-line)"
			d="M-8,0 v-1 a1,1 0 0,1 1,-1 h1 a1,1 0 0,1 1,1 v1 l4,2 h2 l4,-5 v-2 a1,1 0 0,1 1,-1 h1 a1,1 0 0,1 1,1 v1 a1,1 0 0,1 -1,1 h-1 l-4,5 v2 a1,1 0 0,1 -1,1 h-1 a1,1 0 0,1 -1,-1 v-1 l-4,-2 h-2 a1,1 0 0,1 -1,-1" />
		<path fill="url(#center)"
			d="M-7,0 v-1 h1 v1 h-1 m0,5 v-1 h1 v1 h-1 m7,-5 v-1 h1 v1 h-1 m0,4 v-1 h1 v1 h-1 m6,-8 v-1 h1 v1 h-1 m0,5 v-1 h1 v1 h-1" />
		<g id="error" transform="translate(2,3)">
			<defs>
				<linearGradient id="error-backing" x1="0%" y1="0%" x2="100%"
					y2="0%">
					<stop offset="0%" stop-color="#debd5c" />
					<stop offset="100%" stop-color="#bd7723" />
				</linearGradient>
				<linearGradient id="error-center" x1="0%" y1="0%" x2="100%"
					y2="0%">
					<stop offset="0%" stop-color="#fbf4dc" />
					<stop offset="100%" stop-color="#f8eaab" />
				</linearGradient>
				<linearGradient id="error-in-border" x1="0%" y1="0%" x2="100%"
					y2="0%">
					<stop offset="0%" stop-color="#f5da58" />
					<stop offset="100%" stop-color="#f6de6a" />
				</linearGradient>
			</defs>
			<path fill="url(#error-backing)" d="M0.5,-5 l5.5,10 h-11 l5.5,-10 Z" />
			<path fill="url(#error-center)" d="M0.5,-3.5 l4,7.5 h-8 l4,-7.5 Z" />
			<path fill="url(#error-in-border)" d="M0.5,-2 l2.5,5 h-5 l2.5,-5 Z" />
			<rect width="1" height="2" y="-1" fill="#c28832" />
			<rect width="1" height="1" y="2" fill="#c28832" />
		</g>
	</g>
</svg>
