<?xml version="1.0" encoding="utf-8" standalone="yes"?>
<!DOCTYPE svg PUBLIC "-//W3C//DTD SVG 1.1//EN" "http://www.w3.org/Graphics/SVG/1.1/DTD/svg11.dtd">
<svg xmlns="http://www.w3.org/2000/svg" xmlns:xlink="http://www.w3.org/1999/xlink"
	width="16" height="16" version="1.1">
	<title>Chart Curve Go</title>
	<desc>Chart Curve Go</desc>
	<g id="icon" transform="translate(8,8)">
		<defs>
			<linearGradient id="grid" x1="0%" y1="0%" x2="100%" y2="100%">
				<stop offset="0%" stop-color="#3476c6" />
				<stop offset="50%" stop-color="#2b69b4" />
				<stop offset="100%" stop-color="#2863ab" />
			</linearGradient>
			<mask id="under">
				<rect width="16" height="16" x="-8" y="-8" fill="#fff" />
				<path stroke="#000" fill="none" d="M-5,-6 c5,12 4,3 12,3" stroke-width="1.2" />
				<rect width="8" height="16" x="-8" y="-8" fill="#fff" />
			</mask>
			<linearGradient id="red-line" x1="0%" y1="0%" x2="0%" y2="100%">
				<stop offset="0%" stop-color="#ef5759" />
				<stop offset="50%" stop-color="#f63639" />
				<stop offset="100%" stop-color="#f90004" />
			</linearGradient>
			<linearGradient id="blue-line" x1="0%" y1="0%" x2="0%" y2="100%">
				<stop offset="0%" stop-color="#4f92dd" />
				<stop offset="100%" stop-color="#0257e0" />
			</linearGradient>
			<linearGradient id="green-line" x1="0%" y1="0%" x2="0%" y2="100%">
				<stop offset="0%" stop-color="#4ba43c" />
				<stop offset="100%" stop-color="#37752d" />
			</linearGradient>
		</defs>
		<path fill="url(#grid)" d="M-7,-7 h1 v13 h13 v1 h-14 v-14" />
		<path stroke="url(#green-line)" fill="none" d="M-5,5 c5,0 6,-8 12,0"
			stroke-width="1.2" />
		<path stroke="url(#blue-line)" fill="none" d="M-5,-6 c5,12 4,3 12,3"
			stroke-width="1.2" />
		<path mask="url(#under)" stroke-width="1.2" stroke="url(#red-line)" fill="none"
			d="M-5,2.5 c4,-9 9,-9 12,-0.5" />
		<g id="go" transform="translate(3,3)">
			<defs>
				<linearGradient id="border_go" x1="0%" y1="0%" x2="100%" y2="100%">
					<stop offset="0%" stop-color="#6fa53d" />
					<stop offset="100%" stop-color="#1e7b03" />
				</linearGradient>
				<linearGradient id="inner_go" x1="0%" y1="0%" x2="100%" y2="100%">
					<stop offset="0%" stop-color="#b0ce96" />
					<stop offset="100%" stop-color="#96c180" />
				</linearGradient>
			</defs>
			<path fill="url(#border_go)"
				d="M-1,-2 v-2 h1 l4.5,4.5 l-4.5,4.5 h-1 v-2 h-4 v-5 Z" />
			<path fill="url(#inner_go)" d="M0,-1 v-1.5 l3,3 l-3,3 v-1.5 h-4 v-3 Z" />
			<path fill="#8eba6f" d="M0.5,0 v-0.5 l1,1 l-1,1 v-0.5 l-3.5,0 v-1 Z" />
		</g>
	</g>
</svg>
