<?xml version="1.0" encoding="utf-8" standalone="yes"?>
<!DOCTYPE svg PUBLIC "-//W3C//DTD SVG 1.1//EN" "http://www.w3.org/Graphics/SVG/1.1/DTD/svg11.dtd">
<svg xmlns="http://www.w3.org/2000/svg" xmlns:xlink="http://www.w3.org/1999/xlink"
	width="16" height="16" version="1.1">
	<title>Chart Line Delete</title>
	<desc>Chart Line Delete</desc>
	<g id="icon" transform="translate(8,8)">
		<defs>
			<linearGradient id="red-line" x1="0%" y1="0%" x2="100%" y2="0%">
				<stop offset="0%" stop-color="#fb6665" />
				<stop offset="50%" stop-color="#f03137" />
				<stop offset="100%" stop-color="#f33d42" />
			</linearGradient>
			<linearGradient id="blue-line" x1="0%" y1="0%" x2="100%" y2="0%">
				<stop offset="0%" stop-color="#427bcc" />
				<stop offset="50%" stop-color="#437ccd" />
				<stop offset="100%" stop-color="#3062aa" />
			</linearGradient>
			<linearGradient id="center" x1="0%" y1="0%" x2="100%" y2="0%">
				<stop offset="0%" stop-color="#ffffff" stop-opacity="0.5" />
				<stop offset="100%" stop-color="#ffffff" stop-opacity="0.25" />
			</linearGradient>
			<rect id="square" width="3" height="3" />
		</defs>
		<path fill="url(#blue-line)"
			d="M-8,5 v-1 a1,1 0 0,1 1,-1 l1.5,0 l4.5,-2.5 v-1.5 a1,1 0 0,1 1,-1 h1 a1,1 0 0,1 1,1 l3,1 a1,1 0 0,1 1,-1 h1 a1,1 0 0,1 1,1 v1 a1,1 0 0,1 -1,1 h-1 a1,1 0 0,1 -1,-1 l-3,-1 a1,1 0 0,1 -1,1 l-1.25,0 l-4.75,3 v1 a1,1 0 0,1 -1,1 h-1 a1,1 0 0,1 -1,-1" />
		<path fill="url(#red-line)"
			d="M-8,0 v-1 a1,1 0 0,1 1,-1 h1 a1,1 0 0,1 1,1 v1 l4,2 h2 l4,-5 v-2 a1,1 0 0,1 1,-1 h1 a1,1 0 0,1 1,1 v1 a1,1 0 0,1 -1,1 h-1 l-4,5 v2 a1,1 0 0,1 -1,1 h-1 a1,1 0 0,1 -1,-1 v-1 l-4,-2 h-2 a1,1 0 0,1 -1,-1" />
		<path fill="url(#center)"
			d="M-7,0 v-1 h1 v1 h-1 m0,5 v-1 h1 v1 h-1 m7,-5 v-1 h1 v1 h-1 m0,4 v-1 h1 v1 h-1 m6,-8 v-1 h1 v1 h-1 m0,5 v-1 h1 v1 h-1" />
		<g id="delete" transform="translate(4.5,4.5)">
			<defs>
				<linearGradient id="backing_delete" x1="0%" y1="0%" x2="100%"
					y2="100%">
					<stop offset="0%" stop-color="#c4581e" />
					<stop offset="100%" stop-color="#b84503" />
				</linearGradient>
				<linearGradient id="center_delete" x1="0%" y1="0%" x2="100%"
					y2="100%">
					<stop offset="0%" stop-color="#fed6b8" />
					<stop offset="100%" stop-color="#dd6401" />
				</linearGradient>
			</defs>
			<circle id="back" r="3.5" fill="url(#backing_delete)" />
			<circle id="center-dot" r="2.5" fill="url(#center_delete)" />
			<path fill="#fff" d="M-1.5,-0.5 h3 v1 h-3 v-1 z " />
		</g>
	</g>
</svg>
