<?xml version="1.0" encoding="utf-8" standalone="yes"?>
<!DOCTYPE svg PUBLIC "-//W3C//DTD SVG 1.1//EN" "http://www.w3.org/Graphics/SVG/1.1/DTD/svg11.dtd">
<svg xmlns="http://www.w3.org/2000/svg" xmlns:xlink="http://www.w3.org/1999/xlink"
	width="16" height="16" version="1.1">
	<title>Chart Line Link</title>
	<desc>Chart Line Link</desc>
	<g id="icon" transform="translate(8,8)">
		<defs>
			<linearGradient id="red-line" x1="0%" y1="0%" x2="100%" y2="0%">
				<stop offset="0%" stop-color="#fb6665" />
				<stop offset="50%" stop-color="#f03137" />
				<stop offset="100%" stop-color="#f33d42" />
			</linearGradient>
			<linearGradient id="blue-line" x1="0%" y1="0%" x2="100%" y2="0%">
				<stop offset="0%" stop-color="#427bcc" />
				<stop offset="50%" stop-color="#437ccd" />
				<stop offset="100%" stop-color="#3062aa" />
			</linearGradient>
			<linearGradient id="center" x1="0%" y1="0%" x2="100%" y2="0%">
				<stop offset="0%" stop-color="#ffffff" stop-opacity="0.5" />
				<stop offset="100%" stop-color="#ffffff" stop-opacity="0.25" />
			</linearGradient>
			<rect id="square" width="3" height="3" />
		</defs>
		<path fill="url(#blue-line)"
			d="M-8,5 v-1 a1,1 0 0,1 1,-1 l1.5,0 l4.5,-2.5 v-1.5 a1,1 0 0,1 1,-1 h1 a1,1 0 0,1 1,1 l3,1 a1,1 0 0,1 1,-1 h1 a1,1 0 0,1 1,1 v1 a1,1 0 0,1 -1,1 h-1 a1,1 0 0,1 -1,-1 l-3,-1 a1,1 0 0,1 -1,1 l-1.25,0 l-4.75,3 v1 a1,1 0 0,1 -1,1 h-1 a1,1 0 0,1 -1,-1" />
		<path fill="url(#red-line)"
			d="M-8,0 v-1 a1,1 0 0,1 1,-1 h1 a1,1 0 0,1 1,1 v1 l4,2 h2 l4,-5 v-2 a1,1 0 0,1 1,-1 h1 a1,1 0 0,1 1,1 v1 a1,1 0 0,1 -1,1 h-1 l-4,5 v2 a1,1 0 0,1 -1,1 h-1 a1,1 0 0,1 -1,-1 v-1 l-4,-2 h-2 a1,1 0 0,1 -1,-1" />
		<path fill="url(#center)"
			d="M-7,0 v-1 h1 v1 h-1 m0,5 v-1 h1 v1 h-1 m7,-5 v-1 h1 v1 h-1 m0,4 v-1 h1 v1 h-1 m6,-8 v-1 h1 v1 h-1 m0,5 v-1 h1 v1 h-1" />
		<g id="link-icon" transform="translate(1.5,4)">
			<defs>
				<linearGradient id="link-border" x1="0%" y1="0%" x2="100%"
					y2="0%">
					<stop offset="0%" stop-color="#858585" />
					<stop offset="100%" stop-color="#4a4a4a" />
				</linearGradient>
				<linearGradient id="link-inner" x1="0%" y1="0%" x2="100%" y2="0%">
					<stop offset="0%" stop-color="#dddddd" />
					<stop offset="100%" stop-color="#aeaeae" />
				</linearGradient>
				<radialGradient id="link-center-link" cx="50%" cy="0%" r="70%">
					<stop offset="0%" stop-color="#929292" />
					<stop offset="100%" stop-color="#414141" />
				</radialGradient>
				<radialGradient id="link-center-link-center" cx="50%" cy="50%"
					r="70%">
					<stop offset="0%" stop-color="#cecece" />
					<stop offset="100%" stop-color="#bdbdbd" />
				</radialGradient>
			</defs>
			<g id="link">
				<path fill="url(#link-border)"
					d="M-1.5,-3 l-1.5,0 a3.5,3.5 0 0,0 0,7 l1.5,0 a1.5,1.5 0 0,0 0,-3 h-2 a0.5,0.5 0 0,1 0,-1 h2 a1.5,1.5 0 0,0 0,-3   Z" />
				<path fill="url(#link-inner)"
					d="M-1.5,-2 l-1.5,0 a2.5,2.5 0 0,0 0,5 l1.5,0 a0.5,0.5 0 0,0 0,-1 l-1.5,0 a1.5,1.5 0 0,1 0,-3 l1.5,0 a0.5,0.5 0 0,0 0,-1 Z" />
			</g>
			<use xlink:href="#link" transform="rotate(180) translate(0,-1)" />
			<rect width="6" height="3" x="-3.25" y="-1" fill="url(#link-center-link)" />
			<rect width="4" height="1" x="-2.25" y="-0" fill="url(#link-center-link-center)" />
		</g>
	</g>
</svg>
