<?xml version="1.0" encoding="utf-8" standalone="yes"?>
<!DOCTYPE svg PUBLIC "-//W3C//DTD SVG 1.1//EN" "http://www.w3.org/Graphics/SVG/1.1/DTD/svg11.dtd">
<svg xmlns="http://www.w3.org/2000/svg" xmlns:xlink="http://www.w3.org/1999/xlink"
	width="16" height="16" version="1.1">
	<title>Cog Delete</title>
	<desc>Cog Delete</desc>
	<g id="icon" transform="translate(8,8)">
		<defs>
			<linearGradient id="backing" x1="0%" y1="0%" x2="100%" y2="100%">
				<stop offset="0%" stop-color="#ccc" />
				<stop offset="100%" stop-color="#444" />
			</linearGradient>
			<radialGradient id="inner" cx="55%" cy="55%" r="50%">
				<stop offset="0%" stop-color="#aaa" />
				<stop offset="100%" stop-color="#eee" />
			</radialGradient>
		</defs>
		<path id="branch"
			d="M2,0 a2,2 0 0,0 -4,0 a2,2 0 0,0 4,0 m3,-2 h3 l2.44921e-16,4 h-3 v0 l2.12132,2.12132 l-2.82843,2.82843 l-2.12132,-2.12132 h0 l1.83691e-16,3 l-4,4.89843e-16 l-1.83691e-16,-3 h0 l-2.12132,2.12132 l-2.82843,-2.82843 l2.12132,-2.12132 h0 l-3,3.67382e-16 l-7.34764e-16,-4 l3,-3.67382e-16 h0 l-2.12132,-2.12132 l2.82843,-2.82843 l2.12132,2.12132 h0 l-5.51073e-16,-3 l4,-9.79685e-16 l5.51073e-16,3 h0 l2.12132,-2.12132 l2.82843,2.82843 l-2.12132,2.12132 h0 z"
			fill="url(#backing)" />
		<path id="inner-branch"
			d="M2.5,0 a2.5,2.5 0 0,0 -5,0 a2.5,2.5 0 0,0 5,0 m2.5,-1 h2 l1.22461e-16,2 h-2 l-0.727099,1.75537 l1.41421,1.41421 l-1.41421,1.41421 l-1.41421,-1.41421 l-1.75537,0.727099 l1.22461e-16,2 l-2,2.44921e-16 l-1.22461e-16,-2 l-1.75537,-0.727099 l-1.41421,1.41421 l-1.41421,-1.41421 l1.41421,-1.41421 l-0.727099,-1.75537 l-2,2.44921e-16 l-3.67382e-16,-2 l2,-2.44921e-16 l0.727099,-1.75537 l-1.41421,-1.41421 l1.41421,-1.41421 l1.41421,1.41421 l1.75537,-0.727099 l-3.67382e-16,-2 l2,-4.89843e-16 l3.67382e-16,2 l1.75537,0.727099 l1.41421,-1.41421 l1.41421,1.41421 l-1.41421,1.41421 l0.727099,1.75537 z"
			fill="url(#inner)" />
		<g id="delete" transform="translate(4.5,4.5)">
			<defs>
				<linearGradient id="backing_delete" x1="0%" y1="0%" x2="100%"
					y2="100%">
					<stop offset="0%" stop-color="#c4581e" />
					<stop offset="100%" stop-color="#b84503" />
				</linearGradient>
				<linearGradient id="center_delete" x1="0%" y1="0%" x2="100%"
					y2="100%">
					<stop offset="0%" stop-color="#fed6b8" />
					<stop offset="100%" stop-color="#dd6401" />
				</linearGradient>
			</defs>
			<circle id="back" r="3.5" fill="url(#backing_delete)" />
			<circle id="center-dot" r="2.5" fill="url(#center_delete)" />
			<path fill="#fff" d="M-1.5,-0.5 h3 v1 h-3 v-1 z " />
		</g>
	</g>
</svg>
