<?xml version="1.0" encoding="utf-8" standalone="yes"?>
<!DOCTYPE svg PUBLIC "-//W3C//DTD SVG 1.1//EN" "http://www.w3.org/Graphics/SVG/1.1/DTD/svg11.dtd">
<svg xmlns="http://www.w3.org/2000/svg" xmlns:xlink="http://www.w3.org/1999/xlink"
	width="16" height="16" version="1.1">
	<title>Cog</title>
	<desc>Cog</desc>
	<g id="icon" transform="translate(8,8)">
		<defs>
			<linearGradient id="backing" x1="0%" y1="0%" x2="100%" y2="100%">
				<stop offset="0%" stop-color="#ccc" />
				<stop offset="100%" stop-color="#444" />
			</linearGradient>
			<radialGradient id="inner" cx="55%" cy="55%" r="50%">
				<stop offset="0%" stop-color="#aaa" />
				<stop offset="100%" stop-color="#eee" />
			</radialGradient>
		</defs>
		<path id="branch"
			d="M2,0 a2,2 0 0,0 -4,0 a2,2 0 0,0 4,0 m3,-2 h3 l2.44921e-16,4 h-3 v0 l2.12132,2.12132 l-2.82843,2.82843 l-2.12132,-2.12132 h0 l1.83691e-16,3 l-4,4.89843e-16 l-1.83691e-16,-3 h0 l-2.12132,2.12132 l-2.82843,-2.82843 l2.12132,-2.12132 h0 l-3,3.67382e-16 l-7.34764e-16,-4 l3,-3.67382e-16 h0 l-2.12132,-2.12132 l2.82843,-2.82843 l2.12132,2.12132 h0 l-5.51073e-16,-3 l4,-9.79685e-16 l5.51073e-16,3 h0 l2.12132,-2.12132 l2.82843,2.82843 l-2.12132,2.12132 h0 z"
			fill="url(#backing)" />
		<path id="inner-branch"
			d="M2.5,0 a2.5,2.5 0 0,0 -5,0 a2.5,2.5 0 0,0 5,0 m2.5,-1 h2 l1.22461e-16,2 h-2 l-0.727099,1.75537 l1.41421,1.41421 l-1.41421,1.41421 l-1.41421,-1.41421 l-1.75537,0.727099 l1.22461e-16,2 l-2,2.44921e-16 l-1.22461e-16,-2 l-1.75537,-0.727099 l-1.41421,1.41421 l-1.41421,-1.41421 l1.41421,-1.41421 l-0.727099,-1.75537 l-2,2.44921e-16 l-3.67382e-16,-2 l2,-2.44921e-16 l0.727099,-1.75537 l-1.41421,-1.41421 l1.41421,-1.41421 l1.41421,1.41421 l1.75537,-0.727099 l-3.67382e-16,-2 l2,-4.89843e-16 l3.67382e-16,2 l1.75537,0.727099 l1.41421,-1.41421 l1.41421,1.41421 l-1.41421,1.41421 l0.727099,1.75537 z"
			fill="url(#inner)" />
		<!--
			Ok so I could not get this one right with out help <script
			type="text/javascript"> <![CDATA[ function makeRotate(val){ var path =
			document.getElementById('branch'); var a = 3.576334375; var x = 3; var y = 4;
			var z = 0; var d = 'M2,0 a2,2 0 0,0 -4,0 a2,2 0 0,0 4,0 m3,-2'; var i = 0;
			while(i<=7){ d += 'l' + (x * Math.cos((val-90)/180*Math.PI)) + ',' + (-x *
			Math.sin((val-90)/180*Math.PI)) + ' '; d += 'l' + (y *
			Math.cos((val-180)/180*Math.PI)) + ',' + (-y *
			Math.sin((val-180)/180*Math.PI)) + ' '; d += 'l' + (-x *
			Math.cos((val-90)/180*Math.PI)) + ',' + (x * Math.sin((val-90)/180*Math.PI))
			+ ' '; d += 'l' + (z * Math.cos((val-180-22.5)/180*Math.PI)) + ',' + (-z *
			Math.sin((val-180-22.5)/180*Math.PI)) + ' '; i++; val -= 45; } d += 'z';
			path.setAttribute('d',d); } makeRotate(90); function makeRotater(val){ var
			path = document.getElementById('inner-branch'); var a = 3.576334375; var x =
			2; var y = 2; var z = 1.9; var d = 'M2.5,0 a2.5,2.5 0 0,0 -5,0 a2.5,2.5 0 0,0
			5,0 m2.5,-1 '; var i = 0; while(i<=7){ d += 'l' + (x *
			Math.cos((val-90)/180*Math.PI)) + ',' + (-x * Math.sin((val-90)/180*Math.PI))
			+ ' '; d += 'l' + (y * Math.cos((val-180)/180*Math.PI)) + ',' + (-y *
			Math.sin((val-180)/180*Math.PI)) + ' '; d += 'l' + (-x *
			Math.cos((val-90)/180*Math.PI)) + ',' + (x * Math.sin((val-90)/180*Math.PI))
			+ ' '; d += 'l' + (z * Math.cos((val-180-22.5)/180*Math.PI)) + ',' + (-z *
			Math.sin((val-180-22.5)/180*Math.PI)) + ' '; i++; val -= 45; } d += 'z';
			path.setAttribute('d',d); } makeRotater(90); ]]> </script>
		-->
	</g>
</svg>