<?xml version="1.0" encoding="utf-8" standalone="yes"?>
<!DOCTYPE svg PUBLIC "-//W3C//DTD SVG 1.1//EN" "http://www.w3.org/Graphics/SVG/1.1/DTD/svg11.dtd">
<svg xmlns="http://www.w3.org/2000/svg" xmlns:xlink="http://www.w3.org/1999/xlink"
	width="16" height="16" version="1.1">
	<title>Comments</title>
	<desc>Comments</desc>
	<g id="icon" transform="translate(10,10)">
		<defs>
			<linearGradient id="center" x1="0%" y1="0%" x2="100%" y2="100%">
				<stop offset="0%" stop-color="#e9f2fe" />
				<stop offset="50%" stop-color="#dfecfe" />
				<stop offset="100%" stop-color="#d1e4fc" />
			</linearGradient>
		</defs>
		<use xlink:href="#comment" transform="translate(-4,-4)" opacity="0.75" />
		<g id="comment">
			<path fill="#5887b8"
				d="M0,-6 h4 a2,2 0 0,1 2,2 v4 a2,2 0 0,1 -2,2 h-8 a2,2 0 0,1 -2,-2 v-4 a2,2 0 0,1 2,-2 h4 m-4,8 v3 l4,-3 z" />
			<path fill="#ffffff"
				d="M0,-5 h4 a1,1 0 0,1 1,1 v4 a1,1 0 0,1 -1,1 h-8 a1,1 0 0,1 -1,-1 v-4 a1,1 0 0,1 1,-1 h4 m-3,6 v2 l3,-2 z" />
			<path fill="url(#center)" d="M0,-4 h4 v4 h-8 v-4" />
		</g>
	</g>
</svg>
