<?xml version="1.0" encoding="utf-8" standalone="yes"?>
<!DOCTYPE svg PUBLIC "-//W3C//DTD SVG 1.1//EN" "http://www.w3.org/Graphics/SVG/1.1/DTD/svg11.dtd">
<svg xmlns="http://www.w3.org/2000/svg" xmlns:xlink="http://www.w3.org/1999/xlink"
	width="16" height="16" version="1.1">
	<title>Comment Delete</title>
	<desc>Comment Delete</desc>
	<g id="icon" transform="translate(8,8)">
		<defs>
			<linearGradient id="center" x1="0%" y1="0%" x2="100%" y2="100%">
				<stop offset="0%" stop-color="#e9f2fe" />
				<stop offset="50%" stop-color="#dfecfe" />
				<stop offset="100%" stop-color="#d1e4fc" />
			</linearGradient>
		</defs>
		<path fill="#5887b8"
			d="M0,-6 h4 a2,2 0 0,1 2,2 v4 a2,2 0 0,1 -2,2 h-8 a2,2 0 0,1 -2,-2 v-4 a2,2 0 0,1 2,-2 h4 m0,8 l-2,3 l6.5,-3 z" />
		<path fill="#ffffff"
			d="M0,-5 h4 a1,1 0 0,1 1,1 v4 a1,1 0 0,1 -1,1 h-8 a1,1 0 0,1 -1,-1 v-4 a1,1 0 0,1 1,-1 h4 m1.5,6 l-1.5,2.25 l4.25,-2.25 z" />
		<path fill="url(#center)" d="M0,-4 h4 v4 c-5.5,4 1,0 -4,0 h-4 v-4" />
		<g id="delete" transform="translate(4.5,1.5)">
			<defs>
				<linearGradient id="backing_delete" x1="0%" y1="0%" x2="100%"
					y2="100%">
					<stop offset="0%" stop-color="#c4581e" />
					<stop offset="100%" stop-color="#b84503" />
				</linearGradient>
				<linearGradient id="center_delete" x1="0%" y1="0%" x2="100%"
					y2="100%">
					<stop offset="0%" stop-color="#fed6b8" />
					<stop offset="100%" stop-color="#dd6401" />
				</linearGradient>
			</defs>
			<circle id="back" r="3.5" fill="url(#backing_delete)" />
			<circle id="center-dot" r="2.5" fill="url(#center_delete)" />
			<path fill="#fff" d="M-1.5,-0.5 h3 v1 h-3 v-1 z " />
		</g>
	</g>
</svg>
