<?xml version="1.0" encoding="utf-8" standalone="yes"?>
<!DOCTYPE svg PUBLIC "-//W3C//DTD SVG 1.1//EN" "http://www.w3.org/Graphics/SVG/1.1/DTD/svg11.dtd">
<svg xmlns="http://www.w3.org/2000/svg" xmlns:xlink="http://www.w3.org/1999/xlink"
	width="16" height="16" version="1.1">
	<title>Compress</title>
	<desc>Compress Archive</desc>
	<g id="icon" transform="translate(8,8)">
		<defs>
			<linearGradient id="compress-backing" x1="0%" y1="0%" x2="100%"
				y2="100%">
				<stop offset="0%" stop-color="#c29f27" />
				<stop offset="50%" stop-color="#c29f27" />
				<stop offset="100%" stop-color="#b49832" />
			</linearGradient>
			<linearGradient id="compress-center" x1="0%" y1="0%" x2="100%"
				y2="100%">
				<stop offset="0%" stop-color="#f6f576" />
				<stop offset="50%" stop-color="#f6f460" />
				<stop offset="100%" stop-color="#f6f451" />
			</linearGradient>
			<linearGradient id="compress-top" x1="0%" y1="0%" x2="100%"
				y2="100%">
				<stop offset="0%" stop-color="#d8d835" />
				<stop offset="100%" stop-color="#cec842" />
			</linearGradient>
			<linearGradient id="compress-handel" x1="0%" y1="0%" x2="100%"
				y2="100%">
				<stop offset="0%" stop-color="#d8d835" />
				<stop offset="100%" stop-color="#d6d523" />
			</linearGradient>
			<linearGradient id="compress-handel-center" x1="0%" y1="0%"
				x2="100%" y2="100%">
				<stop offset="0%" stop-color="#f4f4a7" />
				<stop offset="100%" stop-color="#f4f4a0" />
			</linearGradient>
			<linearGradient id="compress-grip" x1="0%" y1="0%" x2="100%"
				y2="100%">
				<stop offset="0%" stop-color="#6091d5" />
				<stop offset="100%" stop-color="#296cd2" />
			</linearGradient>
			<linearGradient id="compress-clamp" x1="0%" y1="0%" x2="100%"
				y2="100%">
				<stop offset="0%" stop-color="#a6a69e" />
				<stop offset="50%" stop-color="#7e847f" />
				<stop offset="100%" stop-color="#636356" />
			</linearGradient>
			<linearGradient id="compress-clamp-inner" x1="0%" y1="0%" x2="100%"
				y2="100%">
				<stop offset="0%" stop-color="#bfbfb9" />
				<stop offset="100%" stop-color="#a4a49c" />
			</linearGradient>
		</defs>
		<path fill="url(#compress-backing)"
			d="M1,0 v3 a1,1 0 0,1 -1,1 h-7 a1,1 0 0,1 -1,-1 v-7.5 l2.5,-2.5 h4 l2.5,2.5 v4 z" />
		<rect width="7" height="7" x="-7" y="-4" fill="url(#compress-center)" />
		<path fill="url(#compress-top)" d="M-7,-4 l2,-2 h3 l2,2 z" />
		<path fill="url(#compress-handel)" d="M-6,-3 h5 v1 a1,1 0 0,1 -1,1 h-3 a1,1 0 0,1 -1,-1" />
		<path fill="url(#compress-handel)" d="M-6,0 h5 v1 a1,1 0 0,1 -1,1 h-3 a1,1 0 0,1 -1,-1" />
		<path fill="url(#compress-handel-center)" d="M-5,-3 h3 v1 h-3 m0,2 h3 v1 h-3" />
		<path fill="url(#compress-clamp)"
			d="M5.15,0 v6.5 h1 h0.5 l-7.15,0 v-0.5 l2.85,0 v-1.5 l-4.85,0 l-1,-1 h4 a1,1 0 0,0 1,-1 h1 v-8 h-7 v-2 l3,-1 l6.15,0 a1,1 0 0,1 1,1" />
		<circle r="1.5" cx="-1.5" cy="6.5" fill="url(#compress-grip)" />
		<circle r="1.5" cx="6.5" cy="6.5" fill="url(#compress-grip)" />
		<circle r="0.5" cx="-1.5" cy="6.5" fill="#88afeb" />
		<circle r="0.5" cx="6.5" cy="6.5" fill="#88afeb" />
		<path fill="url(#compress-clamp-inner)"
			d="M4,-7 v12 l-1.5,0 v-2 l0.5,0 v-7 a2,2 0 0,0 -2,-2 h-5 l3,-1 h5" />
	</g>
</svg>
