<?xml version="1.0" encoding="utf-8" standalone="yes"?>
<!DOCTYPE svg PUBLIC "-//W3C//DTD SVG 1.1//EN" "http://www.w3.org/Graphics/SVG/1.1/DTD/svg11.dtd">
<svg xmlns="http://www.w3.org/2000/svg" xmlns:xlink="http://www.w3.org/1999/xlink"
	width="16" height="16" version="1.1">
	<title>Computer</title>
	<desc>Computer</desc>
	<g id="icon" transform="translate(11,7)">
		<defs>
			<linearGradient id="server-backing" x1="0%" y1="0%" x2="100%"
				y2="100%">
				<stop offset="0%" stop-color="#cbcbcb" />
				<stop offset="50%" stop-color="#b0b0b0" />
				<stop offset="100%" stop-color="#636363" />
			</linearGradient>
			<linearGradient id="server-inner" x1="0%" y1="0%" x2="100%"
				y2="100%">
				<stop offset="0%" stop-color="#e9e9e9" />
				<stop offset="50%" stop-color="#f0f0f0" />
				<stop offset="100%" stop-color="#cdced3" />
			</linearGradient>
			<linearGradient id="server-side" x1="0%" y1="0%" x2="100%" y2="0%">
				<stop offset="0%" stop-color="#dfdfdf" />
				<stop offset="40%" stop-color="#d8d8d9" />
				<stop offset="100%" stop-color="#b8b9c0" />
			</linearGradient>
			<linearGradient id="server-front" x1="0%" y1="0%" x2="100%"
				y2="100%">
				<stop offset="0%" stop-color="#c9cacf" />
				<stop offset="100%" stop-color="#aeafb7" />
			</linearGradient>
			<linearGradient id="server-grid" x1="0%" y1="0%" x2="100%" y2="100%">
				<stop offset="0%" stop-color="#979798" />
				<stop offset="100%" stop-color="#8a8a8a" />
			</linearGradient>
			<linearGradient id="server-button" x1="0%" y1="0%" x2="100%"
				y2="100%">
				<stop offset="0%" stop-color="#a4c8a0" />
				<stop offset="60%" stop-color="#56a950" />
				<stop offset="100%" stop-color="#379437" />
			</linearGradient>
		</defs>
		<path fill="url(#server-backing)"
			d="M5,0 v6 a1,1 0 0,1 -1,1 h-5 c-1,0 -1,0 -2,-0.5 l-2,-2 c-1,-1 -1,-1 -1,-1.5 v-5 c0,-1 1,-2 2,-3 c0.5,-0.5 2,-2 2,-2 h6 a1,1 0 0,1 1,1" />
		<path fill="url(#server-inner)" d="M4,0 v6 h-6 l-3,-3 v-5.5 l3,-3.5 h6" />
		<path fill="url(#server-side)" d="M3,0 v5 h-5 l-2,-2.5 v-5 l2,-2.5 h5" />
		<rect width="5" height="10" x="-2" y="-5" fill="url(#server-front)" />
		<path fill="url(#server-grid)" d="M-1,-4 h4 v1 h-4 m0,1 h4 v1 h-4" />
		<rect width="2" height="2" x="1" y="0" fill="url(#server-button)" />
	</g>
	<g id="monitor-icon" transform="translate(7,11)">
		<defs>
			<linearGradient id="monitor-backing" x1="0%" y1="0%" x2="100%"
				y2="100%">
				<stop offset="0%" stop-color="#d8d8d8" />
				<stop offset="50%" stop-color="#a9a9a9" />
				<stop offset="100%" stop-color="#727272" />
			</linearGradient>
			<linearGradient id="monitor-edge" x1="0%" y1="0%" x2="100%"
				y2="100%">
				<stop offset="0%" stop-color="#dfe1e3" />
				<stop offset="100%" stop-color="#d6d6d8" />
			</linearGradient>
			<linearGradient id="monitor" x1="0%" y1="0%" x2="100%" y2="0%">
				<stop offset="0%" stop-color="#4d72a7" />
				<stop offset="100%" stop-color="#4d72a7" />
			</linearGradient>
			<linearGradient id="monitor-center" x1="0%" y1="0%" x2="100%"
				y2="0%">
				<stop offset="0%" stop-color="#698fc5" />
				<stop offset="100%" stop-color="#759ed4" />
			</linearGradient>
			<linearGradient id="monitor-gloss" x1="0%" y1="0%" x2="100%"
				y2="100%">
				<stop offset="0%" stop-color="#92aed6" stop-opacity="0.7" />
				<stop offset="100%" stop-color="#92aed6" stop-opacity="0.1" />
			</linearGradient>
			<linearGradient id="base" x1="0%" y1="0%" x2="100%" y2="100%">
				<stop offset="0%" stop-color="#8d8d8d" />
				<stop offset="100%" stop-color="#666" />
			</linearGradient>
			<linearGradient id="base-center" x1="0%" y1="0%" x2="100%" y2="100%">
				<stop offset="0%" stop-color="#c5c6c8" />
				<stop offset="100%" stop-color="#c7c8cd" />
			</linearGradient>
		</defs>
		<path fill="url(#monitor-backing)"
			d="M0,-8 h4 a1,1 0 0,1 1,1 v8 a1,1 0 0,1 -1,1 h-10 a1,1 0 0,1 -1,-1 v-8  a1,1 0 0,1 1,-1 z" />
		<rect width="10" height="8" x="-6" y="-7" fill="url(#monitor-edge)" />
		<rect width="8" height="6" x="-5" y="-6" fill="url(#monitor)" />
		<rect width="6" height="4" x="-4" y="-5" fill="url(#monitor-center)" />
		<path fill="url(#monitor-gloss)" d="M-5,-6 h8 v6" />
		<path fill="url(#base)"
			d="M0.5,2 a0.5,0.5 0 0,0 0.5,0.5 a1,1 0 0,1 1,1 h0.5 a1,1 0 0,1 -1,1 h-4 a1,1 0 0,1 -1,-1 v-0.5 a1,1 0 0,1 1,-1 a0.5,0.5 0 0,0 0.5,-0.5 " />
		<path fill="url(#base-center)"
			d="M-0.5,2 a1,1 0 0,0 1,1 a0.5,0.5 0 0,1 0,1 h-3 a0.5,0.5 0 0,1 0,-1 a1,1 0 0,0 1,-1 " />
	</g>
</svg>
