<?xml version="1.0" encoding="utf-8" standalone="yes"?>
<!DOCTYPE svg PUBLIC "-//W3C//DTD SVG 1.1//EN" "http://www.w3.org/Graphics/SVG/1.1/DTD/svg11.dtd">
<svg xmlns="http://www.w3.org/2000/svg" xmlns:xlink="http://www.w3.org/1999/xlink"
	width="16" height="16" version="1.1">
	<title>Control Equalizer</title>
	<desc>Control Equalizer</desc>
	<g id="icon" transform="translate(8,8)">
		<defs>
			<linearGradient id="backing" x1="0%" y1="0%" x2="100%" y2="100%">
				<stop offset="0%" stop-color="#d8d8d8" />
				<stop offset="100%" stop-color="#999" />
			</linearGradient>
			<linearGradient id="center" x1="0%" y1="0%" x2="100%" y2="100%">
				<stop offset="0%" stop-color="#eee" />
				<stop offset="100%" stop-color="#e2e2e2" />
			</linearGradient>
			<linearGradient id="button" x1="0%" y1="0%" x2="100%" y2="100%">
				<stop offset="0%" stop-color="#6f6f6f" />
				<stop offset="100%" stop-color="#6d6d6d" />
			</linearGradient>
			<linearGradient id="shadow" x1="0%" y1="0%" x2="100%" y2="100%">
				<stop offset="0%" stop-color="#505050" />
				<stop offset="100%" stop-color="#414141" />
			</linearGradient>
			<filter id="Gaussian_Blur05">
				<feGaussianBlur in="SourceGraphic" stdDeviation="0.5" />
			</filter>
		</defs>
		<circle id="back" r="7" fill="url(#backing)" />
		<circle id="round" r="6" fill="#fff" />
		<circle id="round" r="5" fill="url(#center)" />
		<g id="equalizer">
			<path fill="#fff" opacity="0.75" filter="url(#Gaussian_Blur05)"
				d="M-1,2 a0.75,0.75 0 0,1 0,1.5 v1.5 a0.25,0.25 0 0,0 0.25,-0.25 v-0.5 a1.5,1.5 0 0,0 0,-3 v-3.5 a0.25,0.25 0 0,0 -0.5,0 v3.5 a1.5,1.5 0 0,0 0,3 h0.5 a0.25,0.25 0 0,0 0.25,0.25 v-1.5 a0.75,0.75 0 0,1 0,-1.5   " />
			<path fill="url(#button)"
				d="M-1.5,1.5 a0.75,0.75 0 0,1 0,1.5 v1.5 a0.25,0.25 0 0,0 0.25,-0.25 v-0.5 a1.5,1.5 0 0,0 0,-3 v-3.5 a0.25,0.25 0 0,0 -0.5,0 v3.5 a1.5,1.5 0 0,0 0,3 h0.5 a0.25,0.25 0 0,0 0.25,0.25 v-1.5 a0.75,0.75 0 0,1 0,-1.5  " />
		</g>
		<use xlink:href="#equalizer" transform="translate(3,0) scale(1,-1)" />
	</g>
</svg>