<?xml version="1.0" encoding="utf-8" standalone="yes"?>
<!DOCTYPE svg PUBLIC "-//W3C//DTD SVG 1.1//EN" "http://www.w3.org/Graphics/SVG/1.1/DTD/svg11.dtd">
<svg xmlns="http://www.w3.org/2000/svg" xmlns:xlink="http://www.w3.org/1999/xlink"
	width="16" height="16" version="1.1">
	<title>Control Repeat Blue</title>
	<desc>Control Repeat Blue</desc>
	<g id="icon" transform="translate(8,8)">
		<defs>
			<linearGradient id="backing" x1="0%" y1="0%" x2="100%" y2="100%">
				<stop offset="0%" stop-color="#d8d8d8" />
				<stop offset="100%" stop-color="#999" />
			</linearGradient>
			<linearGradient id="center" x1="0%" y1="0%" x2="100%" y2="100%">
				<stop offset="0%" stop-color="#ebf1f9" />
				<stop offset="100%" stop-color="#dae5f5" />
			</linearGradient>
			<linearGradient id="button" x1="0%" y1="0%" x2="100%" y2="100%">
				<stop offset="0%" stop-color="#4e7cb6" />
				<stop offset="100%" stop-color="#4d7ab3" />
			</linearGradient>
			<linearGradient id="shadow" x1="0%" y1="0%" x2="100%" y2="100%">
				<stop offset="0%" stop-color="#5f92d2" />
				<stop offset="100%" stop-color="#5c90d2" />
			</linearGradient>
			<filter id="Gaussian_Blur05">
				<feGaussianBlur in="SourceGraphic" stdDeviation="0.5" />
			</filter>
			<filter id="Gaussian_Blur">
				<feGaussianBlur in="SourceGraphic" stdDeviation="0.75" />
			</filter>
		</defs>
		<circle id="back" r="7" fill="#4597ff" filter="url(#Gaussian_Blur)" />
		<circle id="back" r="7" fill="url(#backing)" />
		<circle id="round" r="6" fill="#fff" />
		<circle id="round" r="5" fill="url(#center)" />
		<path fill="#fff" opacity="0.75" filter="url(#Gaussian_Blur05)"
			d="M-2.5,0.5 h0.5 a0.5,0.5 0 0,0 0.5,0.5 l0.5,0 v1 h-1 a1,1 0 0,1 -1,-1 v-3 a1,1 0 0,1 1,-1 h6 a1,1 0 0,1 1,1 v3 a1,1 0 0,1 -1,1 h-1 v2 l-2.5,-2.5 l2.5,-2.5 v2 l0.5,0 a0.5,0.5 0 0,0 0.5,-0.5 v-2 a0.5,0.5 0 0,0 -0.5,-0.5 h-5 a0.5,0.5 0 0,0 -0.5,0.5 " />
		<path fill="url(#button)"
			d="M-3,0 h0.5 a0.5,0.5 0 0,0 0.5,0.5 l0.5,0 v1 h-1 a1,1 0 0,1 -1,-1 v-3 a1,1 0 0,1 1,-1 h6 a1,1 0 0,1 1,1 v3 a1,1 0 0,1 -1,1 h-1 v2 l-2.5,-2.5 l2.5,-2.5 v2 l0.5,0 a0.5,0.5 0 0,0 0.5,-0.5 v-2 a0.5,0.5 0 0,0 -0.5,-0.5 h-5 a0.5,0.5 0 0,0 -0.5,0.5 " />
	</g>
</svg>
