<?xml version="1.0" encoding="utf-8" standalone="yes"?>
<!DOCTYPE svg PUBLIC "-//W3C//DTD SVG 1.1//EN" "http://www.w3.org/Graphics/SVG/1.1/DTD/svg11.dtd">
<svg xmlns="http://www.w3.org/2000/svg" xmlns:xlink="http://www.w3.org/1999/xlink"
	width="16" height="16" version="1.1">
	<title>Cookie Link</title>
	<desc>Cookie Link</desc>
	<g id="icon" transform="translate(8,8)">
		<defs>
			<linearGradient id="backing" x1="0%" y1="0%" x2="100%" y2="100%">
				<stop offset="0%" stop-color="#d79662" />
				<stop offset="100%" stop-color="#9a6016" />
			</linearGradient>
			<linearGradient id="in-border" x1="0%" y1="0%" x2="100%" y2="100%">
				<stop offset="0%" stop-color="#fdf2e7" />
				<stop offset="100%" stop-color="#f3d7ba" />
			</linearGradient>
			<linearGradient id="center" x1="0%" y1="0%" x2="100%" y2="100%">
				<stop offset="0%" stop-color="#ebbc91" />
				<stop offset="100%" stop-color="#e09560" />
			</linearGradient>
		</defs>
		<g id="cookie">
			<circle fill="url(#backing)" cx="-3" cy="-3" r="5" />
			<circle fill="url(#in-border)" cx="-3" cy="-3" r="4"/>
			<circle fill="url(#center)" cx="-3" cy="-3" r="3" />
		</g>
		<circle fill="#774c15" r="0.5" cx="-4.5" cy="-4.5" />
		<circle fill="#774c15" r="0.5" cx="-3.5" cy="-1.5" />
		<circle fill="#774c15" r="0.5" cx="-2.5" cy="-3.5" />
		<circle fill="#774c15" r="0.5" cx="-1.5" cy="-5.5" />
		<use xlink:href="#cookie" transform="translate(-2,2) rotate(135)" />
		<circle fill="#774c15" r="0.5" cx="2.5" cy="3.5" />
		<circle fill="#774c15" r="0.5" cx="0.5" cy="1.5" />
		<circle fill="#774c15" r="0.5" cx="3.5" cy="0.5" />
	</g>
	<g id="link-icon" transform="translate(9.5,12)">
		<defs>
			<linearGradient id="link-border" x1="0%" y1="0%" x2="100%"
				y2="0%">
				<stop offset="0%" stop-color="#858585" />
				<stop offset="100%" stop-color="#4a4a4a" />
			</linearGradient>
			<linearGradient id="link-inner" x1="0%" y1="0%" x2="100%" y2="0%">
				<stop offset="0%" stop-color="#dddddd" />
				<stop offset="100%" stop-color="#aeaeae" />
			</linearGradient>
			<radialGradient id="link-center-link" cx="50%" cy="0%" r="70%">
				<stop offset="0%" stop-color="#929292" />
				<stop offset="100%" stop-color="#414141" />
			</radialGradient>
			<radialGradient id="link-center-link-center" cx="50%" cy="50%"
				r="70%">
				<stop offset="0%" stop-color="#cecece" />
				<stop offset="100%" stop-color="#bdbdbd" />
			</radialGradient>
		</defs>
		<g id="link">
			<path fill="url(#link-border)"
				d="M-1.5,-3 l-1.5,0 a3.5,3.5 0 0,0 0,7 l1.5,0 a1.5,1.5 0 0,0 0,-3 h-2 a0.5,0.5 0 0,1 0,-1 h2 a1.5,1.5 0 0,0 0,-3   Z" />
			<path fill="url(#link-inner)"
				d="M-1.5,-2 l-1.5,0 a2.5,2.5 0 0,0 0,5 l1.5,0 a0.5,0.5 0 0,0 0,-1 l-1.5,0 a1.5,1.5 0 0,1 0,-3 l1.5,0 a0.5,0.5 0 0,0 0,-1 Z" />
		</g>
		<use xlink:href="#link" transform="rotate(180) translate(0,-1)" />
		<rect width="6" height="3" x="-3.25" y="-1" fill="url(#link-center-link)" />
		<rect width="4" height="1" x="-2.25" y="-0" fill="url(#link-center-link-center)" />
	</g>
</svg>
