<?xml version="1.0" encoding="utf-8" standalone="yes"?>
<!DOCTYPE svg PUBLIC "-//W3C//DTD SVG 1.1//EN" "http://www.w3.org/Graphics/SVG/1.1/DTD/svg11.dtd">
<svg xmlns="http://www.w3.org/2000/svg" xmlns:xlink="http://www.w3.org/1999/xlink"
	width="16" height="16" version="1.1">
	<title>Cross</title>
	<desc>Cross</desc>
	<g id="icon" transform="translate(8,8)">
		<defs>
			<linearGradient id="backing" x1="0%" y1="0%" x2="100%" y2="100%">
				<stop offset="0%" stop-color="#ff777a" />
				<stop offset="100%" stop-color="#ea2f31" />
			</linearGradient>
			<linearGradient id="inner" x1="0%" y1="0%" x2="100%" y2="100%">
				<stop offset="0%" stop-color="#ff878a" />
				<stop offset="50%" stop-color="#ff7679" />
				<stop offset="100%" stop-color="#ff6263" />
			</linearGradient>
			<linearGradient id="center" x1="0%" y1="0%" x2="100%" y2="100%">
				<stop offset="0%" stop-color="#ff5b5e" />
				<stop offset="100%" stop-color="#ff5457" />
			</linearGradient>
		</defs>
		<path fill="url(#backing)"
			d="M-3,0 l-4,4 l3,3 l4,-4 l4,4 l3,-3 l-4,-4 l4,-4 l-3,-3 l-4,4 l-4,-4 l-3,3 l4,4" />
		<path fill="url(#inner)"
			d="M-2,0 v1 l-3,3 l1,1 l3,-3 h2 l3,3 l1,-1 l-3,-3 v-2 l3,-3 l-1,-1 l-3,3 h-2 l-3,-3 l-1,1 l3,3 v1" />
		<rect width="2" height="2" y="-1" x="-1" fill="url(#center)" />
	</g>
</svg>
