<?xml version="1.0" encoding="utf-8" standalone="yes"?>
<!DOCTYPE svg PUBLIC "-//W3C//DTD SVG 1.1//EN" "http://www.w3.org/Graphics/SVG/1.1/DTD/svg11.dtd">
<svg xmlns="http://www.w3.org/2000/svg" xmlns:xlink="http://www.w3.org/1999/xlink"
	width="16" height="16" version="1.1">
	<title>CSS</title>
	<desc>CSS</desc>
	<g id="icon" transform="translate(8,8)">
		<defs>
			<linearGradient id="backing" x1="0%" y1="0%" x2="100%" y2="100%">
				<stop offset="0%" stop-color="#c4c499" />
				<stop offset="40%" stop-color="#a7a769" />
				<stop offset="100%" stop-color="#8e8e3c" />
			</linearGradient>
			<linearGradient id="inner" x1="0%" y1="0%" x2="100%" y2="100%">
				<stop offset="0%" stop-color="#dedec6" />
				<stop offset="40%" stop-color="#d0d0ac" />
				<stop offset="100%" stop-color="#c0c091" />
			</linearGradient>
			<linearGradient id="center" x1="0%" y1="0%" x2="100%" y2="100%">
				<stop offset="0%" stop-color="#d7d7b9" />
				<stop offset="40%" stop-color="#c7c79e" />
				<stop offset="100%" stop-color="#b4b47e" />
			</linearGradient>
		</defs>
		<rect width="16" height="11" x="-8" y="-5" fill="url(#backing)" />
		<rect width="14" height="9" x="-7" y="-4" fill="url(#inner)" />
		<rect width="12" height="7" x="-6" y="-3" fill="url(#center)" />
		<g fill="#fff">
			<path transform="translate(-5.25,3.15) scale(0.0025,-0.0035)"
				d="M1087 539L1374 448Q1308 208 1155 92T765 -25Q473 -25 285 174T97 720Q97 1086 286 1288T783 1491Q1052 1491 1220 1332Q1320 1238 1370 1062L1077 992Q1051 1106 969 1172T768 1238Q605 1238 504 1121T402
	742Q402 464 502 346T762 228Q880 228 965 303T1087 539Z" />
			<path transform="translate(-1.5,3.15) scale(0.0025,-0.0035)"
				d="M74 477L362 505Q388 360 467 292T682 224Q825 224 897 284T970 426Q970 478 940 514T833 578Q781 596 596 642Q358 701 262 787Q127 908 127 1082Q127 1194 190 1291T373 1440T662 1491Q938 1491 1077
	1370T1224 1047L928 1034Q909 1147 847 1196T659 1246Q530 1246 457 1193Q410 1159 410 1102Q410 1050 454 1013Q510 966 726 915T1045 810T1207 661T1266 427Q1266 301 1196 191T998 28T679 -26Q401 -26 252 102T74 477Z" />
			<path transform="translate(1.75,3.15) scale(0.0025,-0.0035)"
				d="M74 477L362 505Q388 360 467 292T682 224Q825 224 897 284T970 426Q970 478 940 514T833 578Q781 596 596 642Q358 701 262 787Q127 908 127 1082Q127 1194 190 1291T373 1440T662 1491Q938 1491 1077
	1370T1224 1047L928 1034Q909 1147 847 1196T659 1246Q530 1246 457 1193Q410 1159 410 1102Q410 1050 454 1013Q510 966 726 915T1045 810T1207 661T1266 427Q1266 301 1196 191T998 28T679 -26Q401 -26 252 102T74 477Z" />
		</g>
	</g>
</svg>
