<?xml version="1.0" encoding="utf-8" standalone="yes"?>
<!DOCTYPE svg PUBLIC "-//W3C//DTD SVG 1.1//EN" "http://www.w3.org/Graphics/SVG/1.1/DTD/svg11.dtd">
<svg xmlns="http://www.w3.org/2000/svg" xmlns:xlink="http://www.w3.org/1999/xlink"
	width="16" height="16" version="1.1">
	<title>Cup Key</title>
	<desc>Cup Key Security</desc>
	<g id="icon" transform="translate(8,8)">
		<defs>
			<linearGradient id="backing" x1="0%" y1="0%" x2="100%" y2="100%">
				<stop offset="0%" stop-color="#d9d9d9" />
				<stop offset="100%" stop-color="#bebebe" />
			</linearGradient>
			<linearGradient id="java" x1="0%" y1="0%" x2="0%" y2="100%">
				<stop offset="0%" stop-color="#9d654c" />
				<stop offset="100%" stop-color="#915238" />
			</linearGradient>
			<linearGradient id="center" x1="0%" y1="0%" x2="100%" y2="0%">
				<stop offset="0%" stop-color="#e3e3e3" />
				<stop offset="70%" stop-color="#d8d8d8" />
				<stop offset="100%" stop-color="#c4c4c4" />
			</linearGradient>
		</defs>
		<path fill="url(#backing)"
			d="M-8,-2 c0,-5 16,-5 16,0 c0,3 -2,8 -6,9 h-4 c-4,-1 -6,-6 -6,-9" />
		<path fill="#fff"
			d="M-7,-2 c0,-4 14,-4 14,0 c0,3 -2,7 -5,8 h-4 c-3,-1 -5,-5 -5,-8" />
		<ellipse cx="0" cy="-2.5" rx="5" ry="1.5" fill="url(#java)" />
		<path fill="url(#center)"
			d="M-6,-2 c0,3 12,3 12,0 c0,3 -2,6 -4,7 h-4 c-2,-1 -4,-4 -4,-7" />
		<path fill="url(#backing)" d="M-7,-2 c-1.5,1.5 -2,7 3,8 l1,-0.5 c-1.5,-1.5 -2,-4 -1,-5.5" />
		<path fill="#fff" d="M-6,-2 c-1.5,1.5 -2,6 2,7 c-1.5,-1.5 -2,-4 -1,-6" />
	</g>
	<g id="key-icon" transform="translate(11,11)">
		<defs>
			<linearGradient id="key-backing" x1="0%" y1="0%" x2="100%"
				y2="0%">
				<stop offset="0%" stop-color="#e3b044" />
				<stop offset="100%" stop-color="#d67d29" />
			</linearGradient>
			<linearGradient id="key-center" x1="0%" y1="0%" x2="100%" y2="0%">
				<stop offset="0%" stop-color="#f9eea9" />
				<stop offset="100%" stop-color="#f5d855" />
			</linearGradient>
			<linearGradient id="key-line" x1="0%" y1="0%" x2="0%" y2="100%">
				<stop offset="0%" stop-color="#eec528" stop-opacity="0" />
				<stop offset="100%" stop-color="#eec528" />
			</linearGradient>
			<linearGradient id="key-top" x1="0%" y1="0%" x2="100%" y2="100%">
				<stop offset="0%" stop-color="#eec528" stop-opacity="0" />
				<stop offset="100%" stop-color="#eec528" />
			</linearGradient>
		</defs>
		<g id="key-tick" transform="scale(0.625)">
			<path fill="url(#key-backing)"
				d="M-8,8 v-6 h2 v-2 h3 l1,-1 a3,3 0 0,1 -1,-3.5 l3,-3 a3,3 0 0,1 3.5,0 l3,3 a3,3 0 0,1 1,3.5 l-3,3 a3,3 0 0,1 -3,0 l-6,6 Z" />
			<path fill="url(#key-center)" d="M-7,7 v-4 h2 v-2 l2.5,0 l3,-3 l1.8,1.8 l-7.2,7.2 Z" />
			<path transform="scale(0.8)"
				d="M-1.5,-2 a3,3 0 0,1 -1,-3.5 l3,-3 a3,3 0 0,1 3.5,0 l3.3,3.3 a3,3 0 0,1 1,3.5 l-3,3 a3,3 0 0,1 -3,0 Z"
				fill="url(#key-center)" />
			<path transform="scale(0.6)"
				d="M-0.4,-3.2 a3,3 0 0,1 -1,-3.5 l3,-3 a3,3 0 0,1 3.5,0 l3.3,3.3 a3,3 0 0,1 1,3.5 l-3,3 a3,3 0 0,1 -3,0 Z"
				fill="url(#key-top)" />
			<path fill="url(#key-line)" d="M-6,6 v-1 l6,-6 l1,1 l-6,6 Z" />
			<rect width="2" height="1" transform="translate(3,-5) rotate(45)" fill="url(#key-backing)" />
		</g>
	</g>
</svg>
