<?xml version="1.0" encoding="utf-8" standalone="yes"?>
<!DOCTYPE svg PUBLIC "-//W3C//DTD SVG 1.1//EN" "http://www.w3.org/Graphics/SVG/1.1/DTD/svg11.dtd">
<svg xmlns="http://www.w3.org/2000/svg" xmlns:xlink="http://www.w3.org/1999/xlink"
	width="16" height="16" version="1.1">
	<title>Cup Error</title>
	<desc>Cup Error</desc>
	<g id="icon" transform="translate(8,8)">
		<defs>
			<linearGradient id="backing" x1="0%" y1="0%" x2="100%" y2="100%">
				<stop offset="0%" stop-color="#d9d9d9" />
				<stop offset="100%" stop-color="#bebebe" />
			</linearGradient>
			<linearGradient id="java" x1="0%" y1="0%" x2="0%" y2="100%">
				<stop offset="0%" stop-color="#9d654c" />
				<stop offset="100%" stop-color="#915238" />
			</linearGradient>
			<linearGradient id="center" x1="0%" y1="0%" x2="100%" y2="0%">
				<stop offset="0%" stop-color="#e3e3e3" />
				<stop offset="70%" stop-color="#d8d8d8" />
				<stop offset="100%" stop-color="#c4c4c4" />
			</linearGradient>
		</defs>
		<path fill="url(#backing)"
			d="M-8,-2 c0,-5 16,-5 16,0 c0,3 -2,8 -6,9 h-4 c-4,-1 -6,-6 -6,-9" />
		<path fill="#fff"
			d="M-7,-2 c0,-4 14,-4 14,0 c0,3 -2,7 -5,8 h-4 c-3,-1 -5,-5 -5,-8" />
		<ellipse cx="0" cy="-2.5" rx="5" ry="1.5" fill="url(#java)" />
		<path fill="url(#center)"
			d="M-6,-2 c0,3 12,3 12,0 c0,3 -2,6 -4,7 h-4 c-2,-1 -4,-4 -4,-7" />
		<path fill="url(#backing)" d="M-7,-2 c-1.5,1.5 -2,7 3,8 l1,-0.5 c-1.5,-1.5 -2,-4 -1,-5.5" />
		<path fill="#fff" d="M-6,-2 c-1.5,1.5 -2,6 2,7 c-1.5,-1.5 -2,-4 -1,-6" />
	</g>
	<g id="error" transform="translate(10,11)">
		<defs>
			<linearGradient id="error-backing" x1="0%" y1="0%" x2="100%"
				y2="0%">
				<stop offset="0%" stop-color="#debd5c" />
				<stop offset="100%" stop-color="#bd7723" />
			</linearGradient>
			<linearGradient id="error-center" x1="0%" y1="0%" x2="100%"
				y2="0%">
				<stop offset="0%" stop-color="#fbf4dc" />
				<stop offset="100%" stop-color="#f8eaab" />
			</linearGradient>
			<linearGradient id="error-in-border" x1="0%" y1="0%" x2="100%"
				y2="0%">
				<stop offset="0%" stop-color="#f5da58" />
				<stop offset="100%" stop-color="#f6de6a" />
			</linearGradient>
		</defs>
		<path fill="url(#error-backing)" d="M0.5,-5 l5.5,10 h-11 l5.5,-10 Z" />
		<path fill="url(#error-center)" d="M0.5,-3.5 l4,7.5 h-8 l4,-7.5 Z" />
		<path fill="url(#error-in-border)" d="M0.5,-2 l2.5,5 h-5 l2.5,-5 Z" />
		<rect width="1" height="2" y="-1" fill="#c28832" />
		<rect width="1" height="1" y="2" fill="#c28832" />
	</g>
</svg>
