<?xml version="1.0" encoding="utf-8" standalone="yes"?>
<!DOCTYPE svg PUBLIC "-//W3C//DTD SVG 1.1//EN" "http://www.w3.org/Graphics/SVG/1.1/DTD/svg11.dtd">
<svg xmlns="http://www.w3.org/2000/svg" xmlns:xlink="http://www.w3.org/1999/xlink"
	version="1.1">
	<title>Database Table</title>
	<desc>Database Table</desc>
	<g id="table" transform="translate(9,8)">
		<defs>
			<linearGradient id="table-backing" x1="0%" y1="0%" x2="100%"
				y2="100%">
				<stop offset="0%" stop-color="#a3c2ef" />
				<stop offset="100%" stop-color="#4277bb" />
			</linearGradient>
			<linearGradient id="table-inner" x1="0%" y1="0%" x2="100%" y2="100%">
				<stop offset="0%" stop-color="#f4f7fb" />
				<stop offset="100%" stop-color="#d8e2f0" />
			</linearGradient>
			<linearGradient id="table-lines" x1="0%" y1="0%" x2="100%" y2="100%">
				<stop offset="0%" stop-color="#a6c3e9" />
				<stop offset="100%" stop-color="#b5cdea" />
			</linearGradient>
			<linearGradient id="table-title" x1="0%" y1="0%" x2="100%" y2="100%">
				<stop offset="0%" stop-color="#a5d59c" />
				<stop offset="100%" stop-color="#7cbe76" />
			</linearGradient>
		</defs>
		<rect width="14" height="14" rx="1" ry="1" x="-7" y="-7" fill="url(#table-backing)" />
		<rect width="12" height="12" x="-6" y="-6" fill="url(#table-inner)" />
		<rect width="10" height="10" x="-5" y="-5" fill="#fff" />
		<rect width="10" height="8" x="-5" y="-3" fill="url(#table-lines)" />
		<path fill="#fff"
			d="M-4,-2 h1 v1 h-1 m0,1 h1 v1 h-1 m0,1 h1 v1 h-1 m0,1 h1 v1 h-1 m2,-7 h3 v1 h-3 m0,1 h3 v1 h-3 m0,1 h3 v1 h-3 m0,1 h3 v1 h-3 m4,-7 h3 v1 h-3 m0,1 h3 v1 h-3 m0,1 h3 v1 h-3 m0,1 h3 v1 h-3 " />
		<rect width="10" height="1" x="-5" y="-5" fill="url(#table-title)" />
		<g id="database" transform="translate(0,0.5)">
			<defs>
				<linearGradient id="backing" x1="0%" y1="0%" x2="100%" y2="100%">
					<stop offset="0%" stop-color="#bababa" />
					<stop offset="100%" stop-color="#939393" />
				</linearGradient>
				<linearGradient id="inner" x1="0%" y1="0%" x2="100%" y2="100%">
					<stop offset="0%" stop-color="#fff" />
					<stop offset="50%" stop-color="#fff" />
					<stop offset="100%" stop-color="#dedede" />
				</linearGradient>
				<linearGradient id="center" x1="0%" y1="0%" x2="100%" y2="0%">
					<stop offset="0%" stop-color="#eaeaea" />
					<stop offset="25%" stop-color="#d9d9d9" />
					<stop offset="50%" stop-color="#e3e3e3" />
					<stop offset="75%" stop-color="#bfbfbf" />
					<stop offset="100%" stop-color="#bfbfbf" />
				</linearGradient>
			</defs>
			<g transform="translate(-7,-2)">
				<path fill="url(#backing)" d="M6,-5 v7 a6,6 0 0,1 -8,0 v-7 a6,6 0 0,1 8,0 " />
				<path fill="url(#inner)" d="M5,-4.25 v5.5 a4,4 0 0,1 -6,0 v-5.5 a4,4 0 0,1 6,0 " />
				<path fill="url(#center)" d="M4,-3.75 v5 a3,3 0 0,1 -4,0 v-5 a3,3 0 0,0 4,0 " />
				<path fill="#000" opacity="0.1"
					d="M4,-3.75 v1 a3,3 0 0,1 -4,0 v-1 a3,3 0 0,0 4,0 " />
			</g>
		</g>
	</g>
</svg>
