<?xml version="1.0" encoding="utf-8" standalone="yes"?>
<!DOCTYPE svg PUBLIC "-//W3C//DTD SVG 1.1//EN" "http://www.w3.org/Graphics/SVG/1.1/DTD/svg11.dtd">
<svg xmlns="http://www.w3.org/2000/svg" xmlns:xlink="http://www.w3.org/1999/xlink"
	width="16" height="16" version="1.1">
	<title>Database Connect</title>
	<desc>Database Connect</desc>
	<g id="icon" transform="translate(8,8)">
		<defs>
			<linearGradient id="backing" x1="0%" y1="0%" x2="100%" y2="100%">
				<stop offset="0%" stop-color="#000" stop-opacity="0.28" />
				<stop offset="100%" stop-color="#000" stop-opacity="0.46" />
			</linearGradient>
			<linearGradient id="inner" x1="0%" y1="0%" x2="100%" y2="100%">
				<stop offset="0%" stop-color="#fff" />
				<stop offset="50%" stop-color="#fff" />
				<stop offset="100%" stop-color="#dedede" />
			</linearGradient>
			<linearGradient id="center" x1="0%" y1="0%" x2="100%" y2="0%">
				<stop offset="0%" stop-color="#eaeaea" />
				<stop offset="25%" stop-color="#d9d9d9" />
				<stop offset="50%" stop-color="#e3e3e3" />
				<stop offset="75%" stop-color="#bfbfbf" />
				<stop offset="100%" stop-color="#bfbfbf" />
			</linearGradient>
		</defs>
		<g transform="translate(2,0)">
			<path fill="url(#backing)" d="M6,-5 v10 a10,10 0 0,1 -12,0 v-10 a10,10 0 0,1 12,0 " />
			<path fill="url(#inner)" d="M5,-4.25 v8.5 a8,8 0 0,1 -10,0 v-8.5 a8,8 0 0,1 10,0 " />
			<path fill="url(#center)" d="M4,-3.25 v7 a7,7 0 0,1 -8,0 v-7 a7,7 0 0,0 8,0 " />
			<path fill="#000" opacity="0.1"
				d="M4,-3.25 v1 a7,7 0 0,1 -8,0 v-1 a7,7 0 0,0 8,0 " />
		</g>
		<g id="plug">
			<defs>
				<linearGradient id="plug-backing" x1="0%" y1="0%" x2="100%"
					y2="100%">
					<stop offset="0%" stop-color="#9cbbe7" />
					<stop offset="100%" stop-color="#35529c" />
				</linearGradient>
				<linearGradient id="plug-inner" x1="0%" y1="0%" x2="100%" y2="100%">
					<stop offset="0%" stop-color="#c0d6f4" />
					<stop offset="100%" stop-color="#6c92c3" />
				</linearGradient>
				<linearGradient id="plug-center" x1="0%" y1="0%" x2="100%"
					y2="100%">
					<stop offset="0%" stop-color="#89abd8" />
					<stop offset="100%" stop-color="#5c88bd" />
				</linearGradient>
				<linearGradient id="plug-prong-inner" x1="0%" y1="0%" x2="100%"
					y2="100%">
					<stop offset="0%" stop-color="#ccc" />
					<stop offset="100%" stop-color="#bbb" />
				</linearGradient>
				<linearGradient id="plug-prong" x1="0%" y1="0%" x2="100%" y2="100%">
					<stop offset="0%" stop-color="#aaa" />
					<stop offset="100%" stop-color="#555" />
				</linearGradient>
			</defs>
			<path fill="url(#plug-backing)"
				d="M-4,-2 l6,6 c-2,2 -2,2 -4,2 h-1 l-2.5,2.5 l-2.5,-2.5 l2.5,-2.5 v-1 c0,-2 0,-2 2,-4 " />
			<path fill="url(#plug-inner)"
				d="M-4,-0.5 l4.5,4.5 c-1,1 -1,1 -2,1 h-2 l-2,2 l-1,-1 l2,-2 v-2 c0,-1 0,-1 1,-2 " />
			<path fill="url(#plug-center)" d="M-4,0.5 l3.5,3.5 h-3 v-3  " />

			<path fill="url(#plug-prong)"
				d="M-3,-1 l1.5,-1.5 l1.75,1.75 l-1.5,1.5 l1,1 l1.5,-1.5 l1.75,1.75 l-1.5,1.5" />
			<path fill="url(#plug-prong-inner)"
				d="M-2.5,-0.5 l1.25,-1.25 l0.75,0.75 l-1.25,1.25 l2,2 l1.25,-1.25 l0.75,0.75 l-1.25,1.25 " />
		</g>
	</g>
</svg>
