<?xml version="1.0" encoding="utf-8" standalone="yes"?>
<!DOCTYPE svg PUBLIC "-//W3C//DTD SVG 1.1//EN" "http://www.w3.org/Graphics/SVG/1.1/DTD/svg11.dtd">
<svg xmlns="http://www.w3.org/2000/svg" xmlns:xlink="http://www.w3.org/1999/xlink"
	width="16" height="16" version="1.1">
	<title>Database Network</title>
	<desc>Database Network</desc>
	<g id="icon" transform="translate(8,7)">
		<defs>
			<linearGradient id="backing" x1="0%" y1="0%" x2="100%" y2="100%">
				<stop offset="0%" stop-color="#000" stop-opacity="0.28" />
				<stop offset="100%" stop-color="#000" stop-opacity="0.46" />
			</linearGradient>
			<linearGradient id="inner" x1="0%" y1="0%" x2="100%" y2="100%">
				<stop offset="0%" stop-color="#fff" />
				<stop offset="50%" stop-color="#fff" />
				<stop offset="100%" stop-color="#dedede" />
			</linearGradient>
			<linearGradient id="center" x1="0%" y1="0%" x2="100%" y2="0%">
				<stop offset="0%" stop-color="#eaeaea" />
				<stop offset="25%" stop-color="#d9d9d9" />
				<stop offset="50%" stop-color="#e3e3e3" />
				<stop offset="75%" stop-color="#bfbfbf" />
				<stop offset="100%" stop-color="#bfbfbf" />
			</linearGradient>
		</defs>
		<path fill="url(#backing)" d="M6,-5 v8 a10,10 0 0,1 -12,0 v-8 a10,10 0 0,1 12,0 " />
		<path fill="url(#inner)" d="M5,-4.25 v6.5 a8,8 0 0,1 -10,0 v-6.5 a8,8 0 0,1 10,0 " />
		<path fill="url(#center)" d="M4,-3.25 v5 a7,7 0 0,1 -8,0 v-5 a7,7 0 0,0 8,0 " />
		<path fill="#000" opacity="0.1"
			d="M4,-3.25 v1 a7,7 0 0,1 -8,0 v-1 a7,7 0 0,0 8,0 " />
		<g id="network" transform="translate(0,-2)">
			<defs>
				<linearGradient id="network-center" x1="0%" y1="25%" x2="0%"
					y2="75%">
					<stop offset="0%" stop-color="#8ab8ff" />
					<stop offset="100%" stop-color="#7bafff" />
				</linearGradient>
			</defs>
			<path fill="#6a6a6a" d="M-2,6 h4 v1 h6 v3 h-16 v-3 h6 v-1" />
			<path fill="#8d8d8d"
				d="M-1,6 h2 v1 h-2 v-1 m-1,2 h-5 v1 h5 m9,0 h-5 v-1 h5" />
			<rect width="2" height="2" x="-1" y="7.8" fill="url(#network-center)" />
			<path fill="#0054f8" d="M-2,9.8 a1,1 0 0,0 1,1 h2 a1,1 0 0,0 1,-1 h-4" />
		</g>
	</g>
</svg>
