<?xml version="1.0" encoding="utf-8" standalone="yes"?>
<!DOCTYPE svg PUBLIC "-//W3C//DTD SVG 1.1//EN" "http://www.w3.org/Graphics/SVG/1.1/DTD/svg11.dtd">
<svg xmlns="http://www.w3.org/2000/svg" xmlns:xlink="http://www.w3.org/1999/xlink"
	width="16" height="16" version="1.1">
	<title>Database Save</title>
	<desc>Database Save</desc>
	<g id="icon" transform="translate(6,7)">
		<defs>
			<linearGradient id="backing" x1="0%" y1="0%" x2="100%" y2="100%">
				<stop offset="0%" stop-color="#000" stop-opacity="0.28" />
				<stop offset="100%" stop-color="#000" stop-opacity="0.46" />
			</linearGradient>
			<linearGradient id="inner" x1="0%" y1="0%" x2="100%" y2="100%">
				<stop offset="0%" stop-color="#fff" />
				<stop offset="50%" stop-color="#fff" />
				<stop offset="100%" stop-color="#dedede" />
			</linearGradient>
			<linearGradient id="center" x1="0%" y1="0%" x2="100%" y2="0%">
				<stop offset="0%" stop-color="#eaeaea" />
				<stop offset="25%" stop-color="#d9d9d9" />
				<stop offset="50%" stop-color="#e3e3e3" />
				<stop offset="75%" stop-color="#bfbfbf" />
				<stop offset="100%" stop-color="#bfbfbf" />
			</linearGradient>
		</defs>
		<path fill="url(#backing)" d="M6,-5 v10 a10,10 0 0,1 -12,0 v-10 a10,10 0 0,1 12,0 " />
		<path fill="url(#inner)" d="M5,-4.25 v8.5 a8,8 0 0,1 -10,0 v-8.5 a8,8 0 0,1 10,0 " />
		<path fill="url(#center)" d="M4,-3.25 v7 a7,7 0 0,1 -8,0 v-7 a7,7 0 0,0 8,0 " />
		<path fill="#000" opacity="0.1"
			d="M4,-3.25 v1 a7,7 0 0,1 -8,0 v-1 a7,7 0 0,0 8,0 " />
		<g id="save" transform="translate(6,4)">
			<defs>
				<linearGradient id="backing_disk" x1="0%" y1="0%" x2="0%" y2="100%">
					<stop offset="0%" stop-color="#6e97d4" />
					<stop offset="100%" stop-color="#5884c3" />
				</linearGradient>
				<linearGradient id="center_disk" x1="0%" y1="0%" x2="100%"
					y2="100%">
					<stop offset="0%" stop-color="#b0cdf3" />
					<stop offset="100%" stop-color="#85a2dd" />
				</linearGradient>
				<linearGradient id="label_disk" x1="0%" y1="0%" x2="100%" y2="0%">
					<stop offset="0%" stop-color="#a8d782" />
					<stop offset="100%" stop-color="#d7f4a2" />
				</linearGradient>
			</defs>
			<path fill="url(#backing_disk)"
				d="M0,-5 h-5 a1,1 0 0,0 -1,1 v8 a1,1 0 0,0 1,1 h8 a1,1 0 0,0 1,-1 v-7 l-2,-2  z" />
			<rect x="-5" y="-4" width="8" height="8" fill="url(#center_disk)" />
			<rect x="-4" y="-4" width="6" height="3" fill="#fff" />
			<rect x="-3" y="-4" width="1" height="2" fill="url(#center_disk)" />
			<rect x="-4" y="1" width="6" height="3" fill="#fff" />
			<rect id="label_disk_part" x="-3" y="2" width="2" height="2"
				fill="url(#label_disk)" />
			<use xlink:href="#label_disk_part" transform="rotate(180) translate(2,-6)" />
			<rect x="-6" y="-3" width="10" height="6" fill="#000"
				opacity="0.05" />
		</g>
	</g>
</svg>