<?xml version="1.0" encoding="utf-8" standalone="yes"?>
<!DOCTYPE svg PUBLIC "-//W3C//DTD SVG 1.1//EN" "http://www.w3.org/Graphics/SVG/1.1/DTD/svg11.dtd">
<svg xmlns="http://www.w3.org/2000/svg" xmlns:xlink="http://www.w3.org/1999/xlink"
	width="16" height="16" version="1.1">
	<title>Database Refresh</title>
	<desc>Database Refresh</desc>
	<g id="icon" transform="translate(6,8)">
		<defs>
			<linearGradient id="backing" x1="0%" y1="0%" x2="100%" y2="100%">
				<stop offset="0%" stop-color="#000" stop-opacity="0.28" />
				<stop offset="100%" stop-color="#000" stop-opacity="0.46" />
			</linearGradient>
			<linearGradient id="inner" x1="0%" y1="0%" x2="100%" y2="100%">
				<stop offset="0%" stop-color="#fff" />
				<stop offset="50%" stop-color="#fff" />
				<stop offset="100%" stop-color="#dedede" />
			</linearGradient>
			<linearGradient id="center" x1="0%" y1="0%" x2="100%" y2="0%">
				<stop offset="0%" stop-color="#eaeaea" />
				<stop offset="25%" stop-color="#d9d9d9" />
				<stop offset="50%" stop-color="#e3e3e3" />
				<stop offset="75%" stop-color="#bfbfbf" />
				<stop offset="100%" stop-color="#bfbfbf" />
			</linearGradient>
		</defs>
		<path fill="url(#backing)" d="M6,-5 v10 a10,10 0 0,1 -12,0 v-10 a10,10 0 0,1 12,0 " />
		<path fill="url(#inner)" d="M5,-4.25 v8.5 a8,8 0 0,1 -10,0 v-8.5 a8,8 0 0,1 10,0 " />
		<path fill="url(#center)" d="M4,-3.25 v7 a7,7 0 0,1 -8,0 v-7 a7,7 0 0,0 8,0 " />
		<path fill="#000" opacity="0.1"
			d="M4,-3.25 v1 a7,7 0 0,1 -8,0 v-1 a7,7 0 0,0 8,0 " />
		<g id="icon" transform="translate(6,1)">
			<defs>
				<linearGradient id="arrow-backing" x1="0%" y1="0%" x2="100%"
					y2="100%">
					<stop offset="0%" stop-color="#7ccb72" />
					<stop offset="100%" stop-color="#22601e" />
				</linearGradient>
				<linearGradient id="arrow-center" x1="0%" y1="0%" x2="100%"
					y2="100%">
					<stop offset="0%" stop-color="#a7d69e" />
					<stop offset="100%" stop-color="#78bd72" />
				</linearGradient>
			</defs>
			<path fill="url(#arrow-backing)"
				d="M-6,0 a4,4 0 0,1 4,-4 h2 v-2 l3.5,3.5 l-3.5,3.5 v-2 h-2 a1,1 0 0,0 -1,1 h-4 m7,1 h4 a4,4 0 0,1 -4,4 h-2 v2 l-3.5,-3.5 l3.5,-3.5 v2 h2 a1,1 0 0,0 1,-1 z" />
			<path fill="url(#arrow-center)"
				d="M-5,-1 a3,3 0 0,1 3,-2 l2.5,0 v-1.5 l2,2 l-2,2 v-1.5 l-2.5,0 a1.5,1.5 0 0,0 -1.5,1 h-2 m6.5,3 h2 a3,3 0 0,1 -3,2 l-2.5,0 v1.5 l-2,-2 l2,-2 v1.5 l2.5,0 a1.5,1.5 0 0,0 1.5,-1 h2  z" />
		</g>
	</g>
</svg>
