<?xml version="1.0" encoding="utf-8" standalone="yes"?>
<!DOCTYPE svg PUBLIC "-//W3C//DTD SVG 1.1//EN" "http://www.w3.org/Graphics/SVG/1.1/DTD/svg11.dtd">
<svg xmlns="http://www.w3.org/2000/svg" xmlns:xlink="http://www.w3.org/1999/xlink"
	width="16" height="16" version="1.1">
	<title>Database Go</title>
	<desc>Database Go</desc>
	<g id="icon" transform="translate(8,8)">
		<defs>
			<linearGradient id="backing" x1="0%" y1="0%" x2="100%" y2="100%">
				<stop offset="0%" stop-color="#000" stop-opacity="0.28" />
				<stop offset="100%" stop-color="#000" stop-opacity="0.46" />
			</linearGradient>
			<linearGradient id="inner" x1="0%" y1="0%" x2="100%" y2="100%">
				<stop offset="0%" stop-color="#fff" />
				<stop offset="50%" stop-color="#fff" />
				<stop offset="100%" stop-color="#dedede" />
			</linearGradient>
			<linearGradient id="center" x1="0%" y1="0%" x2="100%" y2="0%">
				<stop offset="0%" stop-color="#eaeaea" />
				<stop offset="25%" stop-color="#d9d9d9" />
				<stop offset="50%" stop-color="#e3e3e3" />
				<stop offset="75%" stop-color="#bfbfbf" />
				<stop offset="100%" stop-color="#bfbfbf" />
			</linearGradient>
		</defs>
		<path fill="url(#backing)" d="M6,-5 v10 a10,10 0 0,1 -12,0 v-10 a10,10 0 0,1 12,0 " />
		<path fill="url(#inner)" d="M5,-4.25 v8.5 a8,8 0 0,1 -10,0 v-8.5 a8,8 0 0,1 10,0 " />
		<path fill="url(#center)" d="M4,-3.25 v7 a7,7 0 0,1 -8,0 v-7 a7,7 0 0,0 8,0 " />
		<path fill="#000" opacity="0.1"
			d="M4,-3.25 v1 a7,7 0 0,1 -8,0 v-1 a7,7 0 0,0 8,0 " />
		<g id="go" transform="translate(3,3)">
			<defs>
				<linearGradient id="border_go" x1="0%" y1="0%" x2="100%" y2="100%">
					<stop offset="0%" stop-color="#6fa53d" />
					<stop offset="100%" stop-color="#1e7b03" />
				</linearGradient>
				<linearGradient id="inner_go" x1="0%" y1="0%" x2="100%" y2="100%">
					<stop offset="0%" stop-color="#b0ce96" />
					<stop offset="100%" stop-color="#96c180" />
				</linearGradient>
			</defs>
			<path fill="url(#border_go)"
				d="M-1,-2 v-2 h1 l4.5,4.5 l-4.5,4.5 h-1 v-2 h-4 v-5 Z" />
			<path fill="url(#inner_go)" d="M0,-1 v-1.5 l3,3 l-3,3 v-1.5 h-4 v-3 Z" />
			<path fill="#8eba6f" d="M0.5,0 v-0.5 l1,1 l-1,1 v-0.5 l-3.5,0 v-1 Z" />
		</g>
	</g>
</svg>