<?xml version="1.0" encoding="utf-8" standalone="yes"?>
<!DOCTYPE svg PUBLIC "-//W3C//DTD SVG 1.1//EN" "http://www.w3.org/Graphics/SVG/1.1/DTD/svg11.dtd">
<svg xmlns="http://www.w3.org/2000/svg" xmlns:xlink="http://www.w3.org/1999/xlink"
	width="16" height="16" version="1.1">
	<title>Database Key</title>
	<desc>Database Key Security</desc>
	<g id="icon" transform="translate(8,8)">
		<defs>
			<linearGradient id="backing" x1="0%" y1="0%" x2="100%" y2="100%">
				<stop offset="0%" stop-color="#000" stop-opacity="0.28" />
				<stop offset="100%" stop-color="#000" stop-opacity="0.46" />
			</linearGradient>
			<linearGradient id="inner" x1="0%" y1="0%" x2="100%" y2="100%">
				<stop offset="0%" stop-color="#fff" />
				<stop offset="50%" stop-color="#fff" />
				<stop offset="100%" stop-color="#dedede" />
			</linearGradient>
			<linearGradient id="center" x1="0%" y1="0%" x2="100%" y2="0%">
				<stop offset="0%" stop-color="#eaeaea" />
				<stop offset="25%" stop-color="#d9d9d9" />
				<stop offset="50%" stop-color="#e3e3e3" />
				<stop offset="75%" stop-color="#bfbfbf" />
				<stop offset="100%" stop-color="#bfbfbf" />
			</linearGradient>
		</defs>
		<path fill="url(#backing)" d="M6,-5 v10 a10,10 0 0,1 -12,0 v-10 a10,10 0 0,1 12,0 " />
		<path fill="url(#inner)" d="M5,-4.25 v8.5 a8,8 0 0,1 -10,0 v-8.5 a8,8 0 0,1 10,0 " />
		<path fill="url(#center)" d="M4,-3.25 v7 a7,7 0 0,1 -8,0 v-7 a7,7 0 0,0 8,0 " />
		<path fill="#000" opacity="0.1"
			d="M4,-3.25 v1 a7,7 0 0,1 -8,0 v-1 a7,7 0 0,0 8,0 " />
		<g id="key-icon" transform="translate(3,3)">
			<defs>
				<linearGradient id="key-backing" x1="0%" y1="0%" x2="100%"
					y2="0%">
					<stop offset="0%" stop-color="#e3b044" />
					<stop offset="100%" stop-color="#d67d29" />
				</linearGradient>
				<linearGradient id="key-center" x1="0%" y1="0%" x2="100%" y2="0%">
					<stop offset="0%" stop-color="#f9eea9" />
					<stop offset="100%" stop-color="#f5d855" />
				</linearGradient>
				<linearGradient id="key-line" x1="0%" y1="0%" x2="0%" y2="100%">
					<stop offset="0%" stop-color="#eec528" stop-opacity="0" />
					<stop offset="100%" stop-color="#eec528" />
				</linearGradient>
				<linearGradient id="key-top" x1="0%" y1="0%" x2="100%" y2="100%">
					<stop offset="0%" stop-color="#eec528" stop-opacity="0" />
					<stop offset="100%" stop-color="#eec528" />
				</linearGradient>
			</defs>
			<g id="key-tick" transform="scale(0.625)">
				<path fill="url(#key-backing)"
					d="M-8,8 v-6 h2 v-2 h3 l1,-1 a3,3 0 0,1 -1,-3.5 l3,-3 a3,3 0 0,1 3.5,0 l3,3 a3,3 0 0,1 1,3.5 l-3,3 a3,3 0 0,1 -3,0 l-6,6 Z" />
				<path fill="url(#key-center)" d="M-7,7 v-4 h2 v-2 l2.5,0 l3,-3 l1.8,1.8 l-7.2,7.2 Z" />
				<path transform="scale(0.8)"
					d="M-1.5,-2 a3,3 0 0,1 -1,-3.5 l3,-3 a3,3 0 0,1 3.5,0 l3.3,3.3 a3,3 0 0,1 1,3.5 l-3,3 a3,3 0 0,1 -3,0 Z"
					fill="url(#key-center)" />
				<path transform="scale(0.6)"
					d="M-0.4,-3.2 a3,3 0 0,1 -1,-3.5 l3,-3 a3,3 0 0,1 3.5,0 l3.3,3.3 a3,3 0 0,1 1,3.5 l-3,3 a3,3 0 0,1 -3,0 Z"
					fill="url(#key-top)" />
				<path fill="url(#key-line)" d="M-6,6 v-1 l6,-6 l1,1 l-6,6 Z" />
				<rect width="2" height="1" transform="translate(3,-5) rotate(45)" fill="url(#key-backing)" />
			</g>
		</g>
	</g>
</svg>
