<?xml version="1.0" encoding="utf-8" standalone="yes"?>
<!DOCTYPE svg PUBLIC "-//W3C//DTD SVG 1.1//EN" "http://www.w3.org/Graphics/SVG/1.1/DTD/svg11.dtd">
<svg xmlns="http://www.w3.org/2000/svg" xmlns:xlink="http://www.w3.org/1999/xlink"
	width="16" height="16" version="1.1">
	<title>Disconnect</title>
	<desc>Disconnect</desc>
	<g id="icon" transform="translate(8,8)">
		<defs>
			<linearGradient id="compress-backing" x1="0%" y1="0%" x2="100%"
				y2="100%">
				<stop offset="0%" stop-color="#9cbbe7" />
				<stop offset="50%" stop-color="#5c87bf" />
				<stop offset="100%" stop-color="#2c4491" />
			</linearGradient>
			<linearGradient id="compress-inner" x1="0%" y1="0%" x2="100%"
				y2="100%">
				<stop offset="0%" stop-color="#adc6e8" />
				<stop offset="50%" stop-color="#80a2cd" />
				<stop offset="100%" stop-color="#5c88bd" />
			</linearGradient>
			<linearGradient id="compress-center" x1="0%" y1="0%" x2="100%"
				y2="100%">
				<stop offset="0%" stop-color="#8bacd8" />
				<stop offset="50%" stop-color="#779dce" />
				<stop offset="100%" stop-color="#5985bc" />
			</linearGradient>
			<linearGradient id="compress-connector" x1="0%" y1="0%" x2="100%"
				y2="100%">
				<stop offset="0%" stop-color="#9e9e9e" />
				<stop offset="100%" stop-color="#4e4e4e" />
			</linearGradient>
			<linearGradient id="compress-connect" x1="0%" y1="0%" x2="100%"
				y2="100%">
				<stop offset="0%" stop-color="#aaaaaa" />
				<stop offset="100%" stop-color="#999999" />
			</linearGradient>
		</defs>
		<path fill="url(#compress-connector)"
			d="M-1.75,0.75 l-2,-2 l1.75,-1.75 l2,2 m1.25,4.75 l-2,-2 l1.75,-1.75 l2,2" />
		<path fill="url(#compress-connect)"
			d="M-1.75,-0.25 l-1,-1 l0.75,-0.75 l1,1 m2.25,3.75 l-1,-1 l0.75,-0.75 l1,1" />
		<path fill="url(#compress-backing)"
			d="M-0.5,-4 l5.5,5.5 l2,-1.5 l0.5,-5 l0.5,-1 l-2,-2 h-1.5 h-5.5 l-1.5,2" />
		<path fill="url(#compress-backing)"
			d="M-1.5,1 l3.5,3.5 l-1.5,2 h-5.5 l-1.5,1 l-2,-2 l1,-1.5 l0.5,-5 l2,-1.5" />
		<path fill="url(#compress-inner)"
			d="M0.5,-4.5 l4.5,4.5 l1,-0.75 l0.5,-5 l0.25,-0.25 l-0.75,-0.75 l-0.25,0.25 h-5.5 l-0.75,1" />
		<path fill="url(#compress-inner)"
			d="M-4,0 l4.5,4.5 l-0.75,1 h-5.5 l-0.75,0.75 l-0.75,-0.75 l0.75,-0.75 l0.5,-5 l1,-0.75" />
		<path fill="url(#compress-center)" d="M1.5,-5 l3.5,3.5 l0.25,-3.75 z" />
		<path fill="url(#compress-center)" d="M-4.5,1 l3.5,3.5 l-3.75,0.25 z" />
	</g>
</svg>
