<?xml version="1.0" encoding="utf-8" standalone="yes"?>
<!DOCTYPE svg PUBLIC "-//W3C//DTD SVG 1.1//EN" "http://www.w3.org/Graphics/SVG/1.1/DTD/svg11.dtd">
<svg xmlns="http://www.w3.org/2000/svg" xmlns:xlink="http://www.w3.org/1999/xlink"
	version="1.1">
	<title>Disk</title>
	<desc>Disk</desc>
	<g id="icon" transform="translate(8,8)">
		<defs>
			<linearGradient id="backing_disk" x1="0%" y1="0%" x2="100%"
				y2="100%">
				<stop offset="0%" stop-color="#366bbc" />
				<stop offset="100%" stop-color="#3160a6" />
			</linearGradient>
			<linearGradient id="center_disk" x1="0%" y1="0%" x2="100%" y2="100%">
				<stop offset="0%" stop-color="#d1e0f6" />
				<stop offset="100%" stop-color="#7998c7" />
			</linearGradient>
			<linearGradient id="center" x1="0%" y1="0%" x2="100%" y2="100%">
				<stop offset="0%" stop-color="#80aae9" />
				<stop offset="100%" stop-color="#658dca" />
			</linearGradient>
			<linearGradient id="label" x1="0%" y1="0%" x2="100%" y2="20%">
				<stop offset="0%" stop-color="#f8fbfe" />
				<stop offset="50%" stop-color="#eaf1fb" />
				<stop offset="65%" stop-color="#f6f9fd" />
				<stop offset="80%" stop-color="#eaf1fb" />
				<stop offset="100%" stop-color="#d8e5f6" />
			</linearGradient>
			<linearGradient id="bar" x1="0%" y1="0%" x2="100%" y2="100%">
				<stop offset="0%" stop-color="#648cc8" />
				<stop offset="100%" stop-color="#668dc9" />
			</linearGradient>
		</defs>
		<path fill="url(#backing_disk)"
			d="M-7,-8 h13 l2,2 v13 a1,1 0 0,1 -1,1 h-14 a1,1 0 0,1 -1,-1 v-14 a1,1 0 0,1 1,-1 " />
		<path fill="url(#center_disk)" d="M-7,-7 l12.5,0 l1.5,1.5 v12.5 h-14 v-14" />
		<path fill="url(#center)" d="M-6,-6 l10.5,0 l1.5,1.5 v10.5 h-12 v-12" />
		<rect fill="#fff" width="10" height="5" x="-5" y="2" />
		<path fill="#88c062" d="M-4,3 h8 v1.25 h-8 m0,0.5 h8 v1.25 h-8" />
		<rect fill="#000" opacity="0.1" width="10" height="6" x="-5" y="-7" />
		<rect fill="url(#label)" width="10" height="5" x="-5" y="-7" />
		<rect fill="url(#bar)" width="1" height="3" x="-3" y="-6" />
	</g>
</svg>