<?xml version="1.0" encoding="utf-8" standalone="yes"?>
<!DOCTYPE svg PUBLIC "-//W3C//DTD SVG 1.1//EN" "http://www.w3.org/Graphics/SVG/1.1/DTD/svg11.dtd">
<svg xmlns="http://www.w3.org/2000/svg" xmlns:xlink="http://www.w3.org/1999/xlink"
	height="16" width="16" version="1.1">
	<title>Drive</title>
	<desc>Drive</desc>
	<g id="icon" transform="translate(8,9)">
		<defs>
			<linearGradient id="backing" x1="0%" y1="0%" x2="60%" y2="100%">
				<stop offset="0%" stop-color="#d8d8d8" />
				<stop offset="70%" stop-color="#a0a0a0" />
				<stop offset="100%" stop-color="#5b5b5b" />
			</linearGradient>
			<linearGradient id="inner" x1="0%" y1="0%" x2="100%" y2="100%">
				<stop offset="0%" stop-color="#f3f3f3" />
				<stop offset="100%" stop-color="#e2e2e2" />
			</linearGradient>
			<linearGradient id="center" x1="0%" y1="0%" x2="100%" y2="100%">
				<stop offset="0%" stop-color="#000000" stop-opacity="0.05" />
				<stop offset="100%" stop-color="#000000" stop-opacity="0.125" />
			</linearGradient>
		</defs>
		<path fill="url(#backing)"
			d="M-5.5,-5 h11 l2.5,4 v6 a1,1 1 0,1 -1,1 h-14 a1,1 1 0,1 -1,-1 v-6 l2.5,-4 z" />
		<path fill="url(#inner)" d="M-5,-4 h10 l2,3.2 v5.8 h-14 v-5.8 " />
		<path fill="url(#center)" d="M-4.5,-3 h9 l1.5,2.4 v6.6 h-12 v-6.6 " />
		<rect width="16" height="4" x="-8" y="0" fill="url(#center)" />
		<rect width="8" height="2" x="-4" y="1" opacity="0.2" />
		<path d="M-4.5,-2.8 a7.5,7.5 1 0,0 9,0" fill="none" stroke="url(#center)"
			stroke-width="1" />
	</g>
	<g id="brush-icon" transform="translate(8,6)">
		<defs>
			<linearGradient id="brush-backing" x1="0%" y1="0%" x2="0%" y2="100%">
				<stop offset="0%" stop-color="#dbc174" />
				<stop offset="100%" stop-color="#ae7b1a" />
			</linearGradient>
			<linearGradient id="brush-center" x1="0%" y1="0%" x2="0%" y2="100%">
				<stop offset="0%" stop-color="#f3e8be" />
				<stop offset="100%" stop-color="#f8e87e" />
			</linearGradient>
			<linearGradient id="brush" x1="0%" y1="0%" x2="0%" y2="100%">
				<stop offset="0%" stop-color="#c4ab5d" />
				<stop offset="100%" stop-color="#ae7b1a" />
			</linearGradient>
		</defs>
		<g transform="rotate(-45)">
			<path fill="url(#brush-backing)" d="M-0.25,-0.5 l8.5,0.5 c1.5,0.125 1.5,2.375 0,2.5 l-8.5,0.5" />
			<path fill="url(#brush-center)" d="M0.5,0.5 h7.4 c1.5,0.125 1.5,0.655 0,0.75 h-7.4" />
			<path fill="url(#brush)" d="M-0.25,-1.5 v5.5 l-2,-1 h-1 l-5,1.5 v-6.5 l5,1.5 h1" />
			<path fill="url(#brush-center)"
				d="M-1.25,-0 v2.5 l-1,-0.5 h-1 l-4,1.2 v-1 l1,-1 l-1,-1 v-1 l4,1.2 h1" />
			<rect fill="#dd6401" height="3.5" width="1" x="-3" y="-0.5" />
		</g>
	</g>
</svg>
