<?xml version="1.0" encoding="utf-8" standalone="yes"?>
<!DOCTYPE svg PUBLIC "-//W3C//DTD SVG 1.1//EN" "http://www.w3.org/Graphics/SVG/1.1/DTD/svg11.dtd">
<svg xmlns="http://www.w3.org/2000/svg" xmlns:xlink="http://www.w3.org/1999/xlink"
	height="16" width="16" version="1.1">
	<title>Drive Go</title>
	<desc>Drive Go</desc>
	<g id="icon" transform="translate(8,8)">
		<defs>
			<linearGradient id="backing" x1="0%" y1="0%" x2="60%" y2="100%">
				<stop offset="0%" stop-color="#d8d8d8" />
				<stop offset="70%" stop-color="#a0a0a0" />
				<stop offset="100%" stop-color="#5b5b5b" />
			</linearGradient>
			<linearGradient id="inner" x1="0%" y1="0%" x2="100%" y2="100%">
				<stop offset="0%" stop-color="#f3f3f3" />
				<stop offset="100%" stop-color="#e2e2e2" />
			</linearGradient>
			<linearGradient id="center" x1="0%" y1="0%" x2="100%" y2="100%">
				<stop offset="0%" stop-color="#000000" stop-opacity="0.05" />
				<stop offset="100%" stop-color="#000000" stop-opacity="0.125" />
			</linearGradient>
		</defs>
		<path fill="url(#backing)"
			d="M-5.5,-5 h11 l2.5,4 v6 a1,1 1 0,1 -1,1 h-14 a1,1 1 0,1 -1,-1 v-6 l2.5,-4 z" />
		<path fill="url(#inner)" d="M-5,-4 h10 l2,3.2 v5.8 h-14 v-5.8 " />
		<path fill="url(#center)" d="M-4.5,-3 h9 l1.5,2.4 v6.6 h-12 v-6.6 " />
		<rect width="16" height="4" x="-8" y="0" fill="url(#center)" />
		<rect width="8" height="2" x="-4" y="1" opacity="0.2" />
		<path d="M-4.5,-2.8 a7.5,7.5 1 0,0 9,0" fill="none" stroke="url(#center)"
			stroke-width="1" />
		<g id="go" transform="translate(3,3)">
			<defs>
				<linearGradient id="border_go" x1="0%" y1="0%" x2="100%" y2="100%">
					<stop offset="0%" stop-color="#6fa53d" />
					<stop offset="100%" stop-color="#1e7b03" />
				</linearGradient>
				<linearGradient id="inner_go" x1="0%" y1="0%" x2="100%" y2="100%">
					<stop offset="0%" stop-color="#b0ce96" />
					<stop offset="100%" stop-color="#96c180" />
				</linearGradient>
			</defs>
			<path fill="url(#border_go)"
				d="M-1,-2 v-2 h1 l4.5,4.5 l-4.5,4.5 h-1 v-2 h-4 v-5 Z" />
			<path fill="url(#inner_go)" d="M0,-1 v-1.5 l3,3 l-3,3 v-1.5 h-4 v-3 Z" />
			<path fill="#8eba6f" d="M0.5,0 v-0.5 l1,1 l-1,1 v-0.5 l-3.5,0 v-1 Z" />
		</g>
	</g>
</svg>
