<?xml version="1.0" encoding="utf-8" standalone="yes"?>
<!DOCTYPE svg PUBLIC "-//W3C//DTD SVG 1.1//EN" "http://www.w3.org/Graphics/SVG/1.1/DTD/svg11.dtd">
<svg xmlns="http://www.w3.org/2000/svg" xmlns:xlink="http://www.w3.org/1999/xlink"
	width="16" height="16" version="1.1">
	<title>eBay</title>
	<desc>eBay</desc>
	<g id="icon" transform="translate(8,8)">
		<use xlink:href="#ebay" stroke="#fff" stroke-width="571" />
		<g id="ebay">
			<path fill="#1233b4" id="ebay-b" transform="translate(-3.75,4.65) scale(0.0035,-0.0055)"
				d="M877 570Q877 738 826 810T669 882Q622 882 576 867T484 822V258Q519 244 554 239T625 234Q752 234 814 318T877 570ZM1235 577Q1235 309 1099 144T762 -22Q678 -22 616 -3T484 56L469 0H134V1556H484V1006Q561
	1072 641 1113T826 1154Q1022 1154 1128 1001T1235 577Z" />
			<path fill="#539447" id="ebay-y" transform="translate(2.25,1.15) scale(0.0035,-0.0045)"
				d="M1182 1123L615 -412H239L409 27L-3 1123H365L601 419L822 1123H1182Z" />
			<path fill="#fc3e31" id="ebay-e" transform="translate(-7,3.15) scale(0.0035,-0.0045)"
				d="M709 -30Q391 -30 222 122T52 555Q52 830 210 994T652 1158Q910 1158 1040 1019T1170 621V495H403Q408 417 436 365T510 281Q555 250 615 237T746 223Q807 223 866 236T974 272Q1017 291 1053 313T1113
	352H1150V63Q1107 46 1072 32T974 2Q917 -13 857 -21T709 -30ZM825 706Q822 817 774 875T625 933Q523 933 466 872T402 706H825Z" />
			<path fill="#e4b706" id="ebay-a" transform="translate(-0.5,2.15) scale(0.0035,-0.0045)"
				d="M753 293V527Q664 518 609 512T501 486Q455 470 430 438T404 351Q404 272 446 243T572 213Q618 213 666 234T753 293ZM753 119Q717 89 689 65T612 17Q565 -6 521 -18T396 -30Q247 -30 149 70T50 322Q50
	447 100 524T244 646Q339 692 471 710T755 738V744Q755 837 687 872T481 908Q419 908 336 886T174 828H144V1099Q196 1114 312 1134T546 1155Q836 1155 968 1059T1101 764V0H753V119Z" />
		</g>
	</g>
</svg>
