<?xml version="1.0" encoding="utf-8" standalone="yes"?>
<!DOCTYPE svg PUBLIC "-//W3C//DTD SVG 1.1//EN" "http://www.w3.org/Graphics/SVG/1.1/DTD/svg11.dtd">
<svg xmlns="http://www.w3.org/2000/svg" xmlns:xlink="http://www.w3.org/1999/xlink"
	width="16" height="16" version="1.1">
	<title>Email</title>
	<desc>Email</desc>
	<g id="icon" transform="translate(8,8)">
		<defs>
			<linearGradient id="backing" x1="0%" y1="0%" x2="100%" y2="100%">
				<stop offset="0%" stop-color="#84a4d5" />
				<stop offset="100%" stop-color="#4983bd" />
			</linearGradient>
			<linearGradient id="center" x1="0%" y1="0%" x2="0%" y2="100%">
				<stop offset="0%" stop-color="#a7cdf8" />
				<stop offset="100%" stop-color="#dbeafd" />
			</linearGradient>
			<linearGradient id="flap" x1="0%" y1="0%" x2="0%" y2="100%">
				<stop offset="0%" stop-color="#dae9fd" />
				<stop offset="100%" stop-color="#eaf3fe" />
			</linearGradient>
			<linearGradient id="bottom" x1="0%" y1="0%" x2="0%" y2="100%">
				<stop offset="0%" stop-color="#c5ddfa" />
				<stop offset="100%" stop-color="#dae9fc" />
			</linearGradient>
		</defs>
		<rect width="16" height="11" x="-8" y="-6" rx="1" ry="1" fill="url(#backing)" />
		<rect width="14" height="9" x="-7" y="-5" fill="#fff" />
		<rect width="12" height="7" x="-6" y="-4" fill="url(#center)" />
		<path fill="#89aadc"
			d="M-6,2.5 h0.5 l0.5,0 l5.5,-5.5 l5.5,5.5 l0.5,0 v-0.5 l-6,-6 l-6,6" />
		<path fill="url(#bottom)" d="M-5.5,3 l4,-4 c1.5,1.5 1.5,1.5 3,0 l4,4  " />
		<path fill="#89aadc" 
			d="M-6,-3.5 l3.5,3.5 c2.5,2.5 2.5,2.5 5,0 l3.5,-3.5 v-0.5 h-12" />
		<path fill="#fff" d="M-5.5,-4 l4,4 c1.5,1.5 1.5,1.5 3,0 l4,-4 h-11" />
		<path fill="url(#flap)" d="M-4,-4 l4,4 l4,-4 h-10" />
	</g>
	<g id="find-icon" transform="translate(5,5)">
		<defs>
			<linearGradient id="find-backing" x1="0%" y1="0%" x2="100%" y2="100%">
				<stop offset="0%" stop-color="#767a80" />
				<stop offset="100%" stop-color="#000000" />
			</linearGradient>
			<linearGradient id="find-block" x1="0%" y1="0%" x2="100%" y2="0%">
				<stop offset="0%" stop-color="#86929f" />
				<stop offset="33%" stop-color="#bac3cc" />
				<stop offset="100%" stop-color="#8b98a6" />
			</linearGradient>
			<linearGradient id="find-shade" x1="0%" y1="0%" x2="100%" y2="0%">
				<stop offset="0%" stop-color="#000" stop-opacity="0" />
				<stop offset="20%" stop-color="#000" stop-opacity="0.7" />
				<stop offset="100%" stop-color="#000" />
			</linearGradient>
			<linearGradient id="find-shade2" x1="0%" y1="0%" x2="100%" y2="0%">
				<stop offset="0%" stop-color="#000" />
				<stop offset="80%" stop-color="#000" stop-opacity="0.7" />
				<stop offset="100%" stop-color="#000" stop-opacity="0" />
			</linearGradient>
			<linearGradient id="find-swivel-shade" x1="0%" y1="0%" x2="0%" y2="100%">
				<stop offset="0%" stop-color="#000" stop-opacity="0.4" />
				<stop offset="100%" stop-color="#000" stop-opacity="0" />
			</linearGradient>
			<linearGradient id="find-swivel" x1="0%" y1="0%" x2="100%" y2="0%">
				<stop offset="0%" stop-color="#7b91aa" />
				<stop offset="33%" stop-color="#94a7ba" />
				<stop offset="100%" stop-color="#7d8d9f" />
			</linearGradient>
			<linearGradient id="find-top-left" x1="0%" y1="0%" x2="100%" y2="100%">
				<stop offset="0%" stop-color="#7d8a96" />
				<stop offset="100%" stop-color="#484f56" />
			</linearGradient>
			<linearGradient id="find-top-right" x1="0%" y1="0%" x2="100%" y2="100%">
				<stop offset="0%" stop-color="#93a0ae" />
				<stop offset="100%" stop-color="#010101" />
			</linearGradient>
			<linearGradient id="find-top-center" x1="0%" y1="0%" x2="100%" y2="100%">
				<stop offset="0%" stop-color="#9aa0a6" />
				<stop offset="100%" stop-color="#5e6770" />
			</linearGradient>
		</defs>
		<path fill="url(#find-backing)"
			d="M0,0 h4 v4.5 a0.5,0.5 0 0,1 -0.5,0.5 h-3 a0.5,0.5 0 0,1 -0.5,-0.5 v-4.5 m-1,0 h-4 v4.5 a0.5,0.5 0 0,0 0.5,0.5 h3 a0.5,0.5 0 0,0 0.5,-0.5 v-4.5 z" />
		<rect width="1" height="1" x="-1" y="0" fill="url(#find-backing)" />
		<rect width="2" height="3" x="1" y="1" fill="url(#find-block)" />
		<rect width="2" height="3" x="-4" y="1" fill="url(#find-block)" />
		<rect width="1" height="2" x="-5" y="2" fill="url(#find-shade2)" opacity="0.3" />
		<rect width="1" height="2" x="0" y="2" fill="url(#find-shade2)" opacity="0.3" />
		<rect width="2" height="2" x="-3" y="2" fill="url(#find-shade)" opacity="0.3" />
		<rect width="2" height="2" x="2" y="2" fill="url(#find-shade)" opacity="0.3" />
		<path fill="url(#find-top-right)" d="M0,0 v-4 h2 v1 c0,1 2,1 2,3 " />
		<path fill="url(#find-top-center)" d="M1,0 v-3 l0.5,0 c0,1.5 1.5,1 1.5,3" />
		<path fill="url(#find-top-left)" d="M-1,0 v-4 h-2 v1 c0,1 -2,1 -2,3 " />
		<path fill="url(#find-top-center)" d="M-2,0 v-3 l-0.5,0 c0,1.5 -1.5,1 -1.5,3 " />
		<rect width="5" height="1" x="-3" y="-1" fill="url(#find-swivel)" />
		<rect width="5" height="1" x="-3" y="-1" fill="url(#find-wivel-shade)" />
	</g>
</svg>
