<?xml version="1.0" encoding="utf-8" standalone="yes"?>
<!DOCTYPE svg PUBLIC "-//W3C//DTD SVG 1.1//EN" "http://www.w3.org/Graphics/SVG/1.1/DTD/svg11.dtd">
<svg xmlns="http://www.w3.org/2000/svg" xmlns:xlink="http://www.w3.org/1999/xlink"
	width="16" height="16" version="1.1">
	<title>Email Open</title>
	<desc>Email Open</desc>
	<g id="icon" transform="translate(8,8)">
		<defs>
			<linearGradient id="backing" x1="0%" y1="0%" x2="100%" y2="100%">
				<stop offset="0%" stop-color="#84a4d5" />
				<stop offset="100%" stop-color="#4983bd" />
			</linearGradient>
			<linearGradient id="back" x1="0%" y1="0%" x2="100%" y2="100%">
				<stop offset="0%" stop-color="#a0bfe9" />
				<stop offset="100%" stop-color="#4983bd" />
			</linearGradient>
			<linearGradient id="center" x1="0%" y1="0%" x2="0%" y2="100%">
				<stop offset="0%" stop-color="#a7cdf8" />
				<stop offset="100%" stop-color="#dbeafd" />
			</linearGradient>
			<linearGradient id="flap" x1="0%" y1="0%" x2="0%" y2="100%">
				<stop offset="0%" stop-color="#dae9fd" />
				<stop offset="100%" stop-color="#eaf3fe" />
			</linearGradient>
			<linearGradient id="bottom" x1="0%" y1="0%" x2="0%" y2="100%">
				<stop offset="0%" stop-color="#c5ddfa" />
				<stop offset="100%" stop-color="#dae9fc" />
			</linearGradient>
			<linearGradient id="bar" x1="0%" y1="0%" x2="100%" y2="0%">
				<stop offset="0%" stop-color="#96d6ff" />
				<stop offset="60%" stop-color="#96d6ff" />
				<stop offset="100%" stop-color="#52b3f7" />
			</linearGradient>
			<linearGradient id="box" x1="100%" y1="0%" x2="0%" y2="100%">
				<stop offset="0%" stop-color="#d4dfef" />
				<stop offset="40%" stop-color="#eff3f9" />
				<stop offset="100%" stop-color="#eff3f9" />
			</linearGradient>
		</defs>
		<path fill="url(#back)"
			d="M0,-8 l7.35,5 c0.65,0.45 0.65,0.45 0.65,1 v9 a1,1 0 0,1 -1,1 h-14 a1,1 0 0,1 -1,-1 v-9 c0,-0.55 0,-0.55 0.65,-1 " />
		<rect width="14" height="9" x="-7" y="-2" fill="#fff" />
		<path fill="#fff" d="M-7,-2 l7,-5 l7,5 h-14 " />
		<rect width="12" height="7" x="-6" y="-1" fill="url(#center)" />
		<path fill="#89aadc"
			d="M-6,5.5 h0.5 l0.5,0 l5.5,-5.5 l5.5,5.5 l0.5,0 v-0.5 l-6,-6 l-6,6" />
		<path fill="url(#bottom)" d="M-5.5,6 l4,-4 c1.5,1.5 1.5,1.5 3,0 l4,4  " />
		<path fill="#89aadc"
			d="M-6,-0.5 l2,2.5 c1,1 1,1 2,1 h4 c1,0 1,0 2,-1 l2,-2.5 v-0.5 l-0.5,0 l-1.75,2 c-1,1 -1,1 -2,1 l-3.5,0 c-1,0 -1,0 -2,-1 l-1.75,-2 l-0.5,0 " />
		<path fill="url(#backing)" d="M-5,-4 v4 l2,2 h6 l2,-2 v-4 h-10" />
		<path fill="#fff" d="M-4,-3 v4 l1,1 h6 l1,-1 v-4 h-8" />
		<rect width="6" height="1" y="-2" x="-3" fill="url(#bar)" />
		<rect width="6" height="3" y="-1" x="-3" fill="url(#box)" />
		<path fill="url(#backing)"
			d="M-6,-0.5 l2,2.5 c1,1 1,1 2,1 h4 c1,0 1,0 2,-1 l2,-2.5 v-0.5 l-0.5,0 l-1.75,2 c-1,1 -1,1 -2,1 l-3.5,0 c-1,0 -1,0 -2,-1 l-1.75,-2 l-0.5,0 " />
		<!--
			<path fill="#fff" d="M-6,-4 h12 v7 h-12 v-7 l-1,-1 v9 h14 v-9
			h-14" />
		-->
	</g>
</svg>
