<?xml version="1.0" encoding="utf-8" standalone="yes"?>
<!DOCTYPE svg PUBLIC "-//W3C//DTD SVG 1.1//EN" "http://www.w3.org/Graphics/SVG/1.1/DTD/svg11.dtd">
<svg xmlns="http://www.w3.org/2000/svg" xmlns:xlink="http://www.w3.org/1999/xlink"
	width="16" height="16" version="1.1">
	<title>Email Forward</title>
	<desc>Email Forward</desc>
	<g id="icon" transform="translate(8,8)">
		<defs>
			<linearGradient id="backing" x1="0%" y1="0%" x2="100%" y2="100%">
				<stop offset="0%" stop-color="#84a4d5" />
				<stop offset="100%" stop-color="#4983bd" />
			</linearGradient>
			<linearGradient id="center" x1="0%" y1="0%" x2="0%" y2="100%">
				<stop offset="0%" stop-color="#a7cdf8" />
				<stop offset="100%" stop-color="#dbeafd" />
			</linearGradient>
			<linearGradient id="bottom" x1="0%" y1="0%" x2="0%" y2="100%">
				<stop offset="0%" stop-color="#c5ddfa" />
				<stop offset="100%" stop-color="#dae9fc" />
			</linearGradient>
			<linearGradient id="stamp" x1="0%" y1="0%" x2="100%" y2="100%">
				<stop offset="0%" stop-color="#ffc980" />
				<stop offset="100%" stop-color="#ff9360" />
			</linearGradient>
			<linearGradient id="text" x1="0%" y1="0%" x2="0%" y2="100%">
				<stop offset="0%" stop-color="#75aae5" />
				<stop offset="100%" stop-color="#afcef4" />
			</linearGradient>
		</defs>
		<rect width="16" height="11" x="-8" y="-6" rx="1" ry="1" fill="url(#backing)" />
		<rect width="14" height="9" x="-7" y="-5" fill="#fff" />
		<rect width="12" height="7" x="-6" y="-4" fill="url(#center)" />
		<rect width="2" height="2" x="4" y="-4" fill="url(#backing)" />
		<path fill="url(#text)" d="M-5,-1 h7 v1 h-7 m0,1 h5 v1 h-5" />
		<g id="icon" transform="scale(-1,1) translate(6,0)">
			<defs>
				<linearGradient id="arrow-backing" x1="0%" y1="0%" x2="100%"
					y2="100%">
					<stop offset="0%" stop-color="#72c466" />
					<stop offset="100%" stop-color="#22601e" />
				</linearGradient>
				<linearGradient id="arrow-center" x1="0%" y1="0%" x2="100%"
					y2="100%">
					<stop offset="0%" stop-color="#a7d69e" />
					<stop offset="100%" stop-color="#78bd72" />
				</linearGradient>
			</defs>
			<path fill="url(#arrow-backing)"
				d="M-2,1 h4 a4,4 0 0,1 -4,4 h-2 v2 l-3.5,-3.5 l3.5,-3.5 v2 h2 a1,1 0 0,0 1,-1 z" />
			<path fill="url(#arrow-center)"
				d="M-1,2 h2 a3,3 0 0,1 -3,2 l-2.5,0 v1.5 l-2,-2 l2,-2 v1.5 l2.5,0 a1.5,1.5 0 0,0 1.5,-1 h2  z" />
		</g>
	</g>
</svg>
