<?xml version="1.0" encoding="utf-8" standalone="yes"?>
<!DOCTYPE svg PUBLIC "-//W3C//DTD SVG 1.1//EN" "http://www.w3.org/Graphics/SVG/1.1/DTD/svg11.dtd">
<svg xmlns="http://www.w3.org/2000/svg" xmlns:xlink="http://www.w3.org/1999/xlink"
	width="16" height="16" version="1.1">
	<title>Email Reply All</title>
	<desc>Email Reply All</desc>
	<g id="icon" transform="translate(8,6)">
		<defs>
			<linearGradient id="backing" x1="0%" y1="0%" x2="100%" y2="100%">
				<stop offset="0%" stop-color="#84a4d5" />
				<stop offset="100%" stop-color="#4983bd" />
			</linearGradient>
			<linearGradient id="center" x1="0%" y1="0%" x2="0%" y2="100%">
				<stop offset="0%" stop-color="#a7cdf8" />
				<stop offset="100%" stop-color="#dbeafd" />
			</linearGradient>
			<linearGradient id="flap" x1="0%" y1="0%" x2="0%" y2="100%">
				<stop offset="0%" stop-color="#dae9fd" />
				<stop offset="100%" stop-color="#eaf3fe" />
			</linearGradient>
			<linearGradient id="bottom" x1="0%" y1="0%" x2="0%" y2="100%">
				<stop offset="0%" stop-color="#c5ddfa" />
				<stop offset="100%" stop-color="#dae9fc" />
			</linearGradient>
		</defs>
		<g id="mail">
			<rect width="14" height="10" x="-8" y="-6" rx="1" ry="1" fill="url(#backing)" />
			<rect width="12" height="8" x="-7" y="-5" fill="#fff" />
			<rect width="10" height="6" x="-6" y="-4" fill="url(#center)" />
			<g transform="scale(0.8333) translate(-1,-0.777)">
				<path fill="#89aadc"
					d="M-6,2.5 h0.5 l0.5,0 l5.5,-5.5 l5.5,5.5 l0.5,0 v-0.5 l-6,-6 l-6,6" />
				<path fill="url(#bottom)" d="M-5.5,3 l4,-4 c1.5,1.5 1.5,1.5 3,0 l4,4  " />
				<path fill="#89aadc"
					d="M-6,-3.5 l3.5,3.5 c2.5,2.5 2.5,2.5 5,0 l3.5,-3.5 v-0.5 h-12" />
				<path fill="#fff" d="M-5.5,-4 l4,4 c1.5,1.5 1.5,1.5 3,0 l4,-4 h-11" />
				<path fill="url(#flap)" d="M-4,-4 l4,4 l4,-4 h-10" />
			</g>
		</g>
		<use xlink:href="#mail" transform="translate(2,4)" />
		<g id="icon" transform="translate(6,2)">
			<defs>
				<linearGradient id="arrow-backing" x1="0%" y1="0%" x2="100%"
					y2="100%">
					<stop offset="0%" stop-color="#66c4bc" />
					<stop offset="100%" stop-color="#1e605a" />
				</linearGradient>
				<linearGradient id="arrow-center" x1="0%" y1="0%" x2="100%"
					y2="100%">
					<stop offset="0%" stop-color="#9ed6d1" />
					<stop offset="100%" stop-color="#72bdb7" />
				</linearGradient>
			</defs>
			<path fill="url(#arrow-backing)"
				d="M-2,1 h4 a4,4 0 0,1 -4,4 h-2 v2 l-3.5,-3.5 l3.5,-3.5 v2 h2 a1,1 0 0,0 1,-1 z" />
			<path fill="url(#arrow-center)"
				d="M-1,2 h2 a3,3 0 0,1 -3,2 l-2.5,0 v1.5 l-2,-2 l2,-2 v1.5 l2.5,0 a1.5,1.5 0 0,0 1.5,-1 h2  z" />
		</g>
	</g>
</svg>
