<?xml version="1.0" encoding="utf-8" standalone="yes"?>
<!DOCTYPE svg PUBLIC "-//W3C//DTD SVG 1.1//EN" "http://www.w3.org/Graphics/SVG/1.1/DTD/svg11.dtd">
<svg xmlns="http://www.w3.org/2000/svg" xmlns:xlink="http://www.w3.org/1999/xlink"
	width="16" height="16" version="1.1">
	<title>Email</title>
	<desc>Email</desc>
	<g id="icon" transform="translate(8,10)">
		<defs>
			<linearGradient id="backing" x1="0%" y1="0%" x2="100%" y2="100%">
				<stop offset="0%" stop-color="#84a4d5" />
				<stop offset="100%" stop-color="#4983bd" />
			</linearGradient>
			<linearGradient id="center" x1="0%" y1="0%" x2="0%" y2="100%">
				<stop offset="0%" stop-color="#a7cdf8" />
				<stop offset="100%" stop-color="#dbeafd" />
			</linearGradient>
			<linearGradient id="flap" x1="0%" y1="0%" x2="0%" y2="100%">
				<stop offset="0%" stop-color="#dae9fd" />
				<stop offset="100%" stop-color="#eaf3fe" />
			</linearGradient>
			<linearGradient id="bottom" x1="0%" y1="0%" x2="0%" y2="100%">
				<stop offset="0%" stop-color="#c5ddfa" />
				<stop offset="100%" stop-color="#dae9fc" />
			</linearGradient>
		</defs>
		<rect width="16" height="11" x="-8" y="-6" rx="1" ry="1" fill="url(#backing)" />
		<rect width="14" height="9" x="-7" y="-5" fill="#fff" />
		<rect width="12" height="7" x="-6" y="-4" fill="url(#center)" />
		<path fill="#89aadc"
			d="M-6,2.5 h0.5 l0.5,0 l5.5,-5.5 l5.5,5.5 l0.5,0 v-0.5 l-6,-6 l-6,6" />
		<path fill="url(#bottom)" d="M-5.5,3 l4,-4 c1.5,1.5 1.5,1.5 3,0 l4,4  " />
		<path fill="#89aadc" 
			d="M-6,-3.5 l3.5,3.5 c2.5,2.5 2.5,2.5 5,0 l3.5,-3.5 v-0.5 h-12" />
		<path fill="#fff" d="M-5.5,-4 l4,4 c1.5,1.5 1.5,1.5 3,0 l4,-4 h-11" />
		<path fill="url(#flap)" d="M-4,-4 l4,4 l4,-4 h-10" />
	</g>
	<g id="comment" transform="translate(9,6)">
		<defs>
			<linearGradient id="comment-center" x1="0%" y1="0%" x2="100%" y2="100%">
				<stop offset="0%" stop-color="#e9f2fe" />
				<stop offset="50%" stop-color="#dfecfe" />
				<stop offset="100%" stop-color="#d1e4fc" />
			</linearGradient>
		</defs>
		<path fill="#5887b8"
			d="M0,-6 h4 a2,2 0 0,1 2,2 v4 a2,2 0 0,1 -2,2 h-8 a2,2 0 0,1 -2,-2 v-4 a2,2 0 0,1 2,-2 h4 m0,8 l-2,3 l6.5,-3 z" />
		<path fill="#ffffff"
			d="M0,-5 h4 a1,1 0 0,1 1,1 v4 a1,1 0 0,1 -1,1 h-8 a1,1 0 0,1 -1,-1 v-4 a1,1 0 0,1 1,-1 h4 m1.5,6 l-1.5,2.25 l4.25,-2.25 z" />
		<path fill="url(#comment-center)" d="M0,-4 h4 v4 c-5.5,4 1,0 -4,0 h-4 v-4" />
	</g>
</svg>
