<?xml version="1.0" encoding="utf-8" standalone="yes"?>
<!DOCTYPE svg PUBLIC "-//W3C//DTD SVG 1.1//EN" "http://www.w3.org/Graphics/SVG/1.1/DTD/svg11.dtd">
<svg xmlns="http://www.w3.org/2000/svg" xmlns:xlink="http://www.w3.org/1999/xlink"
	width="16" height="16" version="1.1">
	<title>Emoticon Tongue</title>
	<desc>Emoticon Tongue</desc>
	<g id="icon" transform="translate(8,8)">
		<defs>
			<linearGradient id="backing" x1="0%" y1="0%" x2="100%" y2="100%">
				<stop offset="0%" stop-color="#fbbd00" />
				<stop offset="100%" stop-color="#db9700" />
			</linearGradient>
			<linearGradient id="in-border" x1="0%" y1="0%" x2="100%" y2="100%">
				<stop offset="0%" stop-color="#fbf0bd" />
				<stop offset="100%" stop-color="#f7e19e" />
			</linearGradient>
			<linearGradient id="center" x1="0%" y1="0%" x2="100%" y2="100%">
				<stop offset="0%" stop-color="#f7e378" />
				<stop offset="100%" stop-color="#eec133" />
			</linearGradient>
			<linearGradient id="tongue" x1="0%" y1="0%" x2="100%" y2="100%">
				<stop offset="0%" stop-color="#cd6848" />
				<stop offset="100%" stop-color="#b9482c" />
			</linearGradient>
			<linearGradient id="tongue-center" x1="0%" y1="0%" x2="100%"
				y2="100%">
				<stop offset="0%" stop-color="#e16c49" />
				<stop offset="100%" stop-color="#d8563b" />
			</linearGradient>
		</defs>
		<circle id="back" r="7" fill="url(#backing)" />
		<circle id="round" r="6" fill="url(#in-border)" />
		<circle id="round" r="5" fill="url(#center)" />
		<rect fill="#755a08" rx="1" ry="1" width="1" height="3" x="-2" y="-4" />
		<rect fill="#755a08" rx="1" ry="1" width="1" height="3" x="1" y="-4" />
		<path fill="#755a08" d="M-4,1 a8.125,8.125 0 0,0 8,0 a20,20 0 0,1 -8,0 " />
		<path fill="url(#tongue)"
			d="M-1.5,1.35 a20,20 0 0,0 3,0 a0.5,0.5 0 0,1 0.5,0.5 v1.5 a2,2 0 0,1 -4,0 v-1.5 a0.5,0.5 0 0,1 0.5,-0.5" />
		<path fill="url(#tongue-center)"
			d="M-0.5,1.85 a20,20 0 0,0 1,0 a0.5,0.5 0 0,1 0.5,0.5 v1 a1,1 0 0,1 -2,0 v-1 a0.5,0.5 0 0,1 0.5,-0.5" />
	</g>
</svg>