<?xml version="1.0" encoding="utf-8" standalone="yes"?>
<!DOCTYPE svg PUBLIC "-//W3C//DTD SVG 1.1//EN" "http://www.w3.org/Graphics/SVG/1.1/DTD/svg11.dtd">
<svg xmlns="http://www.w3.org/2000/svg" xmlns:xlink="http://www.w3.org/1999/xlink"
	version="1.1">
	<title>Emoticon Cry</title>
	<desc>Emoticon Cry</desc>
	<g id="icon" transform="translate(8,8)">
		<defs>
			<linearGradient id="backing" x1="0%" y1="0%" x2="100%" y2="100%">
				<stop offset="0%" stop-color="#fbbd00" />
				<stop offset="100%" stop-color="#db9700" />
			</linearGradient>
			<linearGradient id="in-border" x1="0%" y1="0%" x2="100%" y2="100%">
				<stop offset="0%" stop-color="#fbf0bd" />
				<stop offset="100%" stop-color="#f7e19e" />
			</linearGradient>
			<linearGradient id="center" x1="0%" y1="0%" x2="100%" y2="100%">
				<stop offset="0%" stop-color="#f7e378" />
				<stop offset="100%" stop-color="#eec133" />
			</linearGradient>
		</defs>
		<circle r="7" fill="url(#backing)" />
		<circle r="6" fill="url(#in-border)" />
		<circle r="5" fill="url(#center)" />
		<path fill="#755a08" transform="scale(1,-1) translate(0,-5)"
			d="M-4,1 a4.125,4.125 0 0,0 8,0 a5,5 0 0,1 -8,0 " />
		<rect fill="#755a08" rx="1" ry="1" width="2.5" height="1" x="-3.5" y="-3" />
		<rect fill="#755a08" rx="1" ry="1" width="2.5" height="1" x="1" y="-3" />
		<path fill="#84a4d5" transform="rotate(30) translate(-4.5,-0.5)"
			d="M0,0 c0.5,1 1,1 1,1.5 a1,1 0 0,1 -2,0 c0,-0.5 0.5,-0.5 1,-1.5  " />
		<path fill="#84a4d5" transform="rotate(15) translate(-5,1) scale(1.25)"
			d="M0,0 c0.5,1 1,1 1,1.5 a1,1 0 0,1 -2,0 c0,-0.5 0.5,-0.5 1,-1.5  " />
		<path fill="#84a4d5" transform="rotate(-30) translate(4.5,-0.5)"
			d="M0,0 c0.5,1 1,1 1,1.5 a1,1 0 0,1 -2,0 c0,-0.5 0.5,-0.5 1,-1.5  " />
		<path fill="#84a4d5" transform="rotate(-15) translate(5,1) scale(1.25)"
			d="M0,0 c0.5,1 1,1 1,1.5 a1,1 0 0,1 -2,0 c0,-0.5 0.5,-0.5 1,-1.5  " />
	</g>
</svg>
