<?xml version="1.0" encoding="utf-8" standalone="yes"?>
<!DOCTYPE svg PUBLIC "-//W3C//DTD SVG 1.1//EN" "http://www.w3.org/Graphics/SVG/1.1/DTD/svg11.dtd">
<svg xmlns="http://www.w3.org/2000/svg" xmlns:xlink="http://www.w3.org/1999/xlink"
	width="16" height="16" version="1.1">
	<title>Emoticon Cool</title>
	<desc>Emoticon Cool</desc>
	<g id="icon" transform="translate(8,8)">
		<defs>
			<linearGradient id="backing" x1="0%" y1="0%" x2="100%" y2="100%">
				<stop offset="0%" stop-color="#fbbd00" />
				<stop offset="100%" stop-color="#db9700" />
			</linearGradient>
			<linearGradient id="in-border" x1="0%" y1="0%" x2="100%" y2="100%">
				<stop offset="0%" stop-color="#fbf0bd" />
				<stop offset="100%" stop-color="#f7e19e" />
			</linearGradient>
			<linearGradient id="center" x1="0%" y1="0%" x2="100%" y2="100%">
				<stop offset="0%" stop-color="#f7e378" />
				<stop offset="100%" stop-color="#eec133" />
			</linearGradient>
		</defs>
		<circle r="7" fill="url(#backing)" />
		<circle r="6" fill="url(#in-border)" />
		<circle r="5" fill="url(#center)" />
		<path fill="#755a08" d="M-4,1 a4.125,4.125 0 0,0 8,0 a5,5 0 0,1 -8,0 " />
		<circle r="1.5" cx="-2" cy="-2.5" fill="#000" opacity="0.6" />
		<circle r="1.5" cx="2" cy="-2.5" fill="#000" opacity="0.6" />
		<path fill="#000" opacity="0.6"
			d="M-1,-3 a1.5,1.5 0 0,1 2,0 l0.25,-0.25 a2,2 0 0,0 -2.5,0 " />
		<path fill="#000" opacity="0.6"
			d="M3,-2.75 a2,2 0 0,1 3,0 a0.125,0.125 0 0,0 0.25,-0.25 a2.5,2.5 0 0,0 -3.5,0" />
		<path fill="#000" opacity="0.6" transform="scale(-1,1)"
			d="M3,-2.75 a2,2 0 0,1 3,0 a0.125,0.125 0 0,0 0.25,-0.25 a2.5,2.5 0 0,0 -3.5,0" />
	</g>
</svg>
