<?xml version="1.0" encoding="utf-8" standalone="yes"?>
<!DOCTYPE svg PUBLIC "-//W3C//DTD SVG 1.1//EN" "http://www.w3.org/Graphics/SVG/1.1/DTD/svg11.dtd">
<svg xmlns="http://www.w3.org/2000/svg" xmlns:xlink="http://www.w3.org/1999/xlink"
	width="16" height="16" version="1.1">
	<title>Emoticon Money Mouth</title>
	<desc>Emoticon Money Mouth</desc>
	<g id="icon" transform="translate(8,8)">
		<defs>
			<linearGradient id="backing" x1="0%" y1="0%" x2="100%" y2="100%">
				<stop offset="0%" stop-color="#fbbd00" />
				<stop offset="100%" stop-color="#db9700" />
			</linearGradient>
			<linearGradient id="in-border" x1="0%" y1="0%" x2="100%" y2="100%">
				<stop offset="0%" stop-color="#fbf0bd" />
				<stop offset="100%" stop-color="#f7e19e" />
			</linearGradient>
			<linearGradient id="center" x1="0%" y1="0%" x2="100%" y2="100%">
				<stop offset="0%" stop-color="#f7e378" />
				<stop offset="100%" stop-color="#eec133" />
			</linearGradient>
			<linearGradient id="shade" x1="0%" y1="0%" x2="0%" y2="100%">
				<stop offset="0%" stop-color="#000" stop-opacity="0.3" />
				<stop offset="100%" stop-color="#b9482c" stop-opacity="0.0" />
			</linearGradient>
			<linearGradient id="back-money" x1="0%" y1="0%" x2="100%" y2="100%">
				<stop offset="0%" stop-color="#14200e" />
				<stop offset="100%" stop-color="#38491d" />
			</linearGradient>
		</defs>
		<circle id="back" r="7" fill="url(#backing)" />
		<circle id="round" r="6" fill="url(#in-border)" />
		<circle id="round" r="5" fill="url(#center)" />
		<path fill="url(#back-money)" d="M0,2 h3 l1.5,1.5 l-1.5,1.5 h-6 l-1.5,-1.5 l1.5,-1.5 " />
		<path fill="#566f49" d="M0,2.5 l2.5,0 l1,1 l-1,1 h-5 l-1,-1 l1,-1 " />
		<rect width="6" height="5" fill="#3d602b" x="-3" y="2" />
		<rect width="4" height="4" fill="#b3e599" x="-2" y="2" />
		<rect width="2" height="3" fill="#8bbd72" x="-1" y="2" />
		<rect width="6" height="3" fill="url(#shade)" x="-3" y="2" />
		<path fill="#755a08" d="M-4.5,1.25 a8.125,8.125 0 0,0 9,0 a20,20 0 0,1 -9,0 " />
		<path fill="#755a08"
			d="M-2.25,-4 c-1.5,0 -1.5,2 0,2.25 c0.75,0 0.75,1 0,1 h-1 h0.5 h1 c1.5,0 1.5,-2 0,-2.25 c-0.75,0 -0.75,-1 0,-1 h1 v-0.5 " />
		<rect fill="#755a08" width="0.5" height="5" x="-2.25" y="-4.5" />
		<path fill="#755a08"
			d="M2.25,-4 c-1.5,0 -1.5,2 0,2.25 c0.75,0 0.75,1 0,1 h-1 h0.5 h1 c1.5,0 1.5,-2 0,-2.25 c-0.75,0 -0.75,-1 0,-1 h1 v-0.5 " />
		<rect fill="#755a08" width="0.5" height="5" x="1.75" y="-4.5" />
	</g>
</svg>