<?xml version="1.0" encoding="utf-8" standalone="yes"?>
<!DOCTYPE svg PUBLIC "-//W3C//DTD SVG 1.1//EN" "http://www.w3.org/Graphics/SVG/1.1/DTD/svg11.dtd">
<svg xmlns="http://www.w3.org/2000/svg" xmlns:xlink="http://www.w3.org/1999/xlink"
	width="16" height="16" version="1.1">
	<title>Error Go</title>
	<desc>Error Go</desc>
	<g id="error" transform="translate(8,7)">
		<defs>
			<linearGradient id="error-backing" x1="0%" y1="0%" x2="100%"
				y2="0%">
				<stop offset="0%" stop-color="#ebbc3c" />
				<stop offset="100%" stop-color="#bf6400" />
			</linearGradient>
			<linearGradient id="error-center" x1="0%" y1="0%" x2="100%"
				y2="0%">
				<stop offset="0%" stop-color="#fdfaf1" />
				<stop offset="100%" stop-color="#fefcf2" />
			</linearGradient>
			<linearGradient id="error-in-border" x1="0%" y1="0%" x2="100%"
				y2="0%">
				<stop offset="0%" stop-color="#f4dc5e" />
				<stop offset="100%" stop-color="#f6da62" />
			</linearGradient>
		</defs>
		<path fill="url(#error-backing)"
			d="M0,7 h7 c1,0 1,0 0,-1.875 l-6,-11.25 c-1,-1.875 -1,-1.875 -2,0 l-6,11.25 c-1,1.875 -1,1.875 0,1.875 z" />
		<path fill="url(#error-center)" d="M0,6 l6.5,0 l-6.5,-12.1875 l-6.5,12.1875 z" />
		<path fill="url(#error-in-border)" d="M0,5 l4.5,0 l-4.5,-8.4375 l-4.5,8.4375" />
		<rect width="2" height="4" x="-1" y="-2" fill="#c28832" />
		<rect width="2" height="1" x="-1" y="3" fill="#c28832" />
		<g id="go" transform="translate(3,4)">
			<defs>
				<linearGradient id="border_go" x1="0%" y1="0%" x2="100%" y2="100%">
					<stop offset="0%" stop-color="#6fa53d" />
					<stop offset="100%" stop-color="#1e7b03" />
				</linearGradient>
				<linearGradient id="inner_go" x1="0%" y1="0%" x2="100%" y2="100%">
					<stop offset="0%" stop-color="#b0ce96" />
					<stop offset="100%" stop-color="#96c180" />
				</linearGradient>
			</defs>
			<path fill="url(#border_go)"
				d="M-1,-2 v-2 h1 l4.5,4.5 l-4.5,4.5 h-1 v-2 h-4 v-5 Z" />
			<path fill="url(#inner_go)" d="M0,-1 v-1.5 l3,3 l-3,3 v-1.5 h-4 v-3 Z" />
			<path fill="#8eba6f" d="M0.5,0 v-0.5 l1,1 l-1,1 v-0.5 l-3.5,0 v-1 Z" />
		</g>
	</g>
</svg>
