<?xml version="1.0" encoding="utf-8" standalone="yes"?>
<!DOCTYPE svg PUBLIC "-//W3C//DTD SVG 1.1//EN" "http://www.w3.org/Graphics/SVG/1.1/DTD/svg11.dtd">
<svg xmlns="http://www.w3.org/2000/svg" xmlns:xlink="http://www.w3.org/1999/xlink"
	width="16" height="16" version="1.1">
	<title>Feed Edit</title>
	<desc>RSS ATOM News Feed Edit Write</desc>
	<g id="icon" transform="translate(8,8)">
		<defs>
			<linearGradient id="backing" x1="0%" y1="0%" x2="100%" y2="100%">
				<stop offset="0%" stop-color="#ff8100" />
				<stop offset="100%" stop-color="#ff4b00" />
			</linearGradient>
			<linearGradient id="center" x1="0%" y1="0%" x2="100%" y2="100%">
				<stop offset="0%" stop-color="#ffc980" />
				<stop offset="100%" stop-color="#ff9360" />
			</linearGradient>
			<linearGradient id="rays" x1="0%" y1="0%" x2="100%" y2="100%">
				<stop offset="0%" stop-color="#ffb677" />
				<stop offset="100%" stop-color="#ff7b38" />
			</linearGradient>
		</defs>
		<rect width="16" height="16" x="-8" y="-8" rx="2" ry="2" fill="url(#backing)" />
		<rect width="14" height="14" x="-7" y="-7" rx="1" ry="1" fill="url(#center)" />
		<path fill="url(#rays)"
			d="M-6,5 a1,1 0 0,1 2,0 a1,1 0 0,1 -2,0 m0,-2 v-3 a6,6 0 0,1 6,6 h-3 a3,3 0 0,0 -3,-3 m0,-5 v-2 a10,10 0 0,1 10,10 h-2 a8,8 0 0,0 -8,-8 m0,-3 h1  a10,10 0 0,1 10,10 v1 h1 v-11 a1,1 0 0,0 -1,-1 h-11 z" />
		<path fill="#fff"
			d="M-5,3.5 a1.5,1.5 0 0,1 3,0 a1.5,1.5 0 0,1 -3,0 m0,-3 v-2 a6.5,6.5 0 0,1 6.5,6.5 h-2 a4.5,4.5 0 0,0 -4.5,-4.5 m0,-3.5 v-2 a10,10 0 0,1 10,10 h-2 a8,8 0 0,0 -8,-8 z" />
		<g id="pencil" transform="translate(2,2)">
			<defs>
				<linearGradient id="top_center" x1="0%" y1="0%" x2="100%" y2="0%">
					<stop offset="0%" stop-color="#f7e1c9" />
					<stop offset="100%" stop-color="#f4cfa5" />
				</linearGradient>
				<linearGradient id="pencil-back" x1="100%" y1="0%" x2="0%"
					y2="100%">
					<stop offset="0%" stop-color="#ca9350" stop-opacity="1.0" />
					<stop offset="20%" stop-color="#ca9350" stop-opacity="0.5" />
					<stop offset="30%" stop-color="#ca9350" stop-opacity="0.0" />
					<stop offset="55%" stop-color="#936d1e" stop-opacity="0.0" />
					<stop offset="65%" stop-color="#936d1e" stop-opacity="0.3" />
					<stop offset="80%" stop-color="#936d1e" stop-opacity="0.9" />
					<stop offset="92%" stop-color="#936d1e" stop-opacity="1.0" />
					<stop offset="94%" stop-color="#594212" stop-opacity="1.0" />
				</linearGradient>
				<linearGradient id="pencil-cross" x1="37%" y1="37%" x2="63%"
					y2="63%">
					<stop offset="0%" stop-color="#e4ba2f" />
					<stop offset="100%" stop-color="#d98f3b" />
				</linearGradient>
				<linearGradient id="pencil-nib" x1="100%" y1="0%" x2="0%" y2="100%">
					<stop offset="0%" stop-color="#fae7d1" stop-opacity="1.0" />
					<stop offset="75%" stop-color="#fae7d1" stop-opacity="0.9" />
					<stop offset="100%" stop-color="#fae7d1" stop-opacity="0.0" />
				</linearGradient>
				<linearGradient id="pencil-outer" x1="37%" y1="37%" x2="63%"
					y2="63%">
					<stop offset="0%" stop-color="#f8edc3" />
					<stop offset="10%" stop-color="#fcf4b3" />
					<stop offset="45%" stop-color="#f4d644" />
					<stop offset="55%" stop-color="#f4d644" />
					<stop offset="90%" stop-color="#fcf4b3" />
					<stop offset="100%" stop-color="#faee8e" />
				</linearGradient>
				<linearGradient id="pencil-nib-shadow" x1="0%" y1="0%" x2="100%"
					y2="100%">
					<stop offset="0%" stop-color="#e07500" stop-opacity="0.0" />
					<stop offset="40%" stop-color="#e07500" stop-opacity="0.2" />
					<stop offset="50%" stop-color="#e07500" stop-opacity="0.45" />
					<stop offset="60%" stop-color="#e07500" stop-opacity="0.4" />
					<stop offset="100%" stop-color="#e07500" stop-opacity="0.0" />
				</linearGradient>
			</defs>
			<path fill="url(#pencil-cross)" d="M2,-5 l-8,8 v3 h3 l8,-8 a2,1.25 45 0,0 -3,-3" />
			<path fill="url(#pencil-back)" d="M2,-5 l-8,8 v3 h3 l8,-8 a2,1.25 45 0,0 -3,-3" />
			<ellipse transform="translate(3.5,-3.5) rotate(45)" cx="0" cy="0" rx="1.25"
				ry="0.75" fill="url(#top_center)" />
			<path fill="url(#pencil-nib)" d="M-5,5 h2 l1,-1 a1.41,0.75 45 0,1 -2,-2 l-1,1 v2" />
			<path fill="url(#pencil-nib-shadow)" d="M-5,5 h2 l1,-1 a1.41,0.75 45 0,1 -2,-2 l-1,1 v2" />
			<path fill="url(#pencil-outer)"
				d="M2,-4 l-5.5,5.5 a1.41,0.75 45 0,0 2,2 l5.5,-5.5 a1.41,0.75 45 0,1 -2,-2" />
		</g>
	</g>
</svg>
