<?xml version="1.0" encoding="utf-8" standalone="yes"?>
<!DOCTYPE svg PUBLIC "-//W3C//DTD SVG 1.1//EN" "http://www.w3.org/Graphics/SVG/1.1/DTD/svg11.dtd">
<svg xmlns="http://www.w3.org/2000/svg" xmlns:xlink="http://www.w3.org/1999/xlink"
	width="16" height="16" version="1.1">
	<title>Feed Disk</title>
	<desc>RSS ATOM News Feed Disk Save</desc>
	<g id="icon" transform="translate(8,8)">
		<defs>
			<linearGradient id="backing" x1="0%" y1="0%" x2="100%" y2="100%">
				<stop offset="0%" stop-color="#ff8100" />
				<stop offset="100%" stop-color="#ff4b00" />
			</linearGradient>
			<linearGradient id="center" x1="0%" y1="0%" x2="100%" y2="100%">
				<stop offset="0%" stop-color="#ffc980" />
				<stop offset="100%" stop-color="#ff9360" />
			</linearGradient>
			<linearGradient id="rays" x1="0%" y1="0%" x2="100%" y2="100%">
				<stop offset="0%" stop-color="#ffb677" />
				<stop offset="100%" stop-color="#ff7b38" />
			</linearGradient>
		</defs>
		<rect width="16" height="16" x="-8" y="-8" rx="2" ry="2" fill="url(#backing)" />
		<rect width="14" height="14" x="-7" y="-7" rx="1" ry="1" fill="url(#center)" />
		<path fill="url(#rays)"
			d="M-6,5 a1,1 0 0,1 2,0 a1,1 0 0,1 -2,0 m0,-2 v-3 a6,6 0 0,1 6,6 h-3 a3,3 0 0,0 -3,-3 m0,-5 v-2 a10,10 0 0,1 10,10 h-2 a8,8 0 0,0 -8,-8 m0,-3 h1  a10,10 0 0,1 10,10 v1 h1 v-11 a1,1 0 0,0 -1,-1 h-11 z" />
		<path fill="#fff"
			d="M-5,3.5 a1.5,1.5 0 0,1 3,0 a1.5,1.5 0 0,1 -3,0 m0,-3 v-2 a6.5,6.5 0 0,1 6.5,6.5 h-2 a4.5,4.5 0 0,0 -4.5,-4.5 m0,-3.5 v-2 a10,10 0 0,1 10,10 h-2 a8,8 0 0,0 -8,-8 z" />
		<g id="save" transform="translate(4,3)">
			<defs>
				<linearGradient id="backing_disk" x1="0%" y1="0%" x2="0%" y2="100%">
					<stop offset="0%" stop-color="#6e97d4" />
					<stop offset="100%" stop-color="#5884c3" />
				</linearGradient>
				<linearGradient id="center_disk" x1="0%" y1="0%" x2="100%"
					y2="100%">
					<stop offset="0%" stop-color="#b0cdf3" />
					<stop offset="100%" stop-color="#85a2dd" />
				</linearGradient>
				<linearGradient id="label_disk" x1="0%" y1="0%" x2="100%" y2="0%">
					<stop offset="0%" stop-color="#a8d782" />
					<stop offset="100%" stop-color="#d7f4a2" />
				</linearGradient>
			</defs>
			<path fill="url(#backing_disk)"
				d="M0,-5 h-5 a1,1 0 0,0 -1,1 v8 a1,1 0 0,0 1,1 h8 a1,1 0 0,0 1,-1 v-7 l-2,-2  z" />
			<rect x="-5" y="-4" width="8" height="8" fill="url(#center_disk)" />
			<rect x="-4" y="-4" width="6" height="3" fill="#fff" />
			<rect x="-3" y="-4" width="1" height="2" fill="url(#center_disk)" />
			<rect x="-4" y="1" width="6" height="3" fill="#fff" />
			<rect id="label_disk_part" x="-3" y="2" width="2" height="2"
				fill="url(#label_disk)" />
			<use xlink:href="#label_disk_part" transform="rotate(180) translate(2,-6)" />
			<rect x="-6" y="-3" width="10" height="6" fill="#000"
				opacity="0.05" />
		</g>
	</g>
</svg>