<?xml version="1.0" encoding="utf-8" standalone="yes"?>
<!DOCTYPE svg PUBLIC "-//W3C//DTD SVG 1.1//EN" "http://www.w3.org/Graphics/SVG/1.1/DTD/svg11.dtd">
<svg xmlns="http://www.w3.org/2000/svg" xmlns:xlink="http://www.w3.org/1999/xlink"
	width="16" height="16" version="1.1">
	<title>Feed Key</title>
	<desc>RSS ATOM News Feed Key</desc>
	<g id="icon" transform="translate(8,8)">
		<defs>
			<linearGradient id="backing" x1="0%" y1="0%" x2="100%" y2="100%">
				<stop offset="0%" stop-color="#ff8100" />
				<stop offset="100%" stop-color="#ff4b00" />
			</linearGradient>
			<linearGradient id="center" x1="0%" y1="0%" x2="100%" y2="100%">
				<stop offset="0%" stop-color="#ffc980" />
				<stop offset="100%" stop-color="#ff9360" />
			</linearGradient>
			<linearGradient id="rays" x1="0%" y1="0%" x2="100%" y2="100%">
				<stop offset="0%" stop-color="#ffb677" />
				<stop offset="100%" stop-color="#ff7b38" />
			</linearGradient>
		</defs>
		<rect width="16" height="16" x="-8" y="-8" rx="2" ry="2" fill="url(#backing)" />
		<rect width="14" height="14" x="-7" y="-7" rx="1" ry="1" fill="url(#center)" />
		<path fill="url(#rays)"
			d="M-6,5 a1,1 0 0,1 2,0 a1,1 0 0,1 -2,0 m0,-2 v-3 a6,6 0 0,1 6,6 h-3 a3,3 0 0,0 -3,-3 m0,-5 v-2 a10,10 0 0,1 10,10 h-2 a8,8 0 0,0 -8,-8 m0,-3 h1  a10,10 0 0,1 10,10 v1 h1 v-11 a1,1 0 0,0 -1,-1 h-11 z" />
		<path fill="#fff"
			d="M-5,3.5 a1.5,1.5 0 0,1 3,0 a1.5,1.5 0 0,1 -3,0 m0,-3 v-2 a6.5,6.5 0 0,1 6.5,6.5 h-2 a4.5,4.5 0 0,0 -4.5,-4.5 m0,-3.5 v-2 a10,10 0 0,1 10,10 h-2 a8,8 0 0,0 -8,-8 z" />
		<g id="key-icon" transform="translate(3,3)">
			<defs>
				<linearGradient id="key-backing" x1="0%" y1="0%" x2="100%"
					y2="0%">
					<stop offset="0%" stop-color="#e3b044" />
					<stop offset="100%" stop-color="#d67d29" />
				</linearGradient>
				<linearGradient id="key-center" x1="0%" y1="0%" x2="100%" y2="0%">
					<stop offset="0%" stop-color="#f9eea9" />
					<stop offset="100%" stop-color="#f5d855" />
				</linearGradient>
				<linearGradient id="key-line" x1="0%" y1="0%" x2="0%" y2="100%">
					<stop offset="0%" stop-color="#eec528" stop-opacity="0" />
					<stop offset="100%" stop-color="#eec528" />
				</linearGradient>
				<linearGradient id="key-top" x1="0%" y1="0%" x2="100%" y2="100%">
					<stop offset="0%" stop-color="#eec528" stop-opacity="0" />
					<stop offset="100%" stop-color="#eec528" />
				</linearGradient>
			</defs>
			<g id="key-tick" transform="scale(0.625)">
				<path fill="url(#key-backing)"
					d="M-8,8 v-6 h2 v-2 h3 l1,-1 a3,3 0 0,1 -1,-3.5 l3,-3 a3,3 0 0,1 3.5,0 l3,3 a3,3 0 0,1 1,3.5 l-3,3 a3,3 0 0,1 -3,0 l-6,6 Z" />
				<path fill="url(#key-center)" d="M-7,7 v-4 h2 v-2 l2.5,0 l3,-3 l1.8,1.8 l-7.2,7.2 Z" />
				<path transform="scale(0.8)"
					d="M-1.5,-2 a3,3 0 0,1 -1,-3.5 l3,-3 a3,3 0 0,1 3.5,0 l3.3,3.3 a3,3 0 0,1 1,3.5 l-3,3 a3,3 0 0,1 -3,0 Z"
					fill="url(#key-center)" />
				<path transform="scale(0.6)"
					d="M-0.4,-3.2 a3,3 0 0,1 -1,-3.5 l3,-3 a3,3 0 0,1 3.5,0 l3.3,3.3 a3,3 0 0,1 1,3.5 l-3,3 a3,3 0 0,1 -3,0 Z"
					fill="url(#key-top)" />
				<path fill="url(#key-line)" d="M-6,6 v-1 l6,-6 l1,1 l-6,6 Z" />
				<rect width="2" height="1" transform="translate(3,-5) rotate(45)" fill="url(#key-backing)" />
			</g>
		</g>
	</g>
</svg>