<?xml version="1.0" encoding="utf-8" standalone="yes"?>
<!DOCTYPE svg PUBLIC "-//W3C//DTD SVG 1.1//EN" "http://www.w3.org/Graphics/SVG/1.1/DTD/svg11.dtd">
<svg xmlns="http://www.w3.org/2000/svg" xmlns:xlink="http://www.w3.org/1999/xlink"
	width="16" height="16" version="1.1">
	<title>Feed Magnify</title>
	<desc>RSS ATOM News Feed Magnify Find</desc>
	<g id="icon" transform="translate(8,8)">
		<defs>
			<linearGradient id="backing" x1="0%" y1="0%" x2="100%" y2="100%">
				<stop offset="0%" stop-color="#ff8100" />
				<stop offset="100%" stop-color="#ff4b00" />
			</linearGradient>
			<linearGradient id="center" x1="0%" y1="0%" x2="100%" y2="100%">
				<stop offset="0%" stop-color="#ffc980" />
				<stop offset="100%" stop-color="#ff9360" />
			</linearGradient>
			<linearGradient id="rays" x1="0%" y1="0%" x2="100%" y2="100%">
				<stop offset="0%" stop-color="#ffb677" />
				<stop offset="100%" stop-color="#ff7b38" />
			</linearGradient>
		</defs>
		<rect width="16" height="16" x="-8" y="-8" rx="2" ry="2" fill="url(#backing)" />
		<rect width="14" height="14" x="-7" y="-7" rx="1" ry="1" fill="url(#center)" />
		<path fill="url(#rays)"
			d="M-6,5 a1,1 0 0,1 2,0 a1,1 0 0,1 -2,0 m0,-2 v-3 a6,6 0 0,1 6,6 h-3 a3,3 0 0,0 -3,-3 m0,-5 v-2 a10,10 0 0,1 10,10 h-2 a8,8 0 0,0 -8,-8 m0,-3 h1  a10,10 0 0,1 10,10 v1 h1 v-11 a1,1 0 0,0 -1,-1 h-11 z" />
		<path fill="#fff"
			d="M-5,3.5 a1.5,1.5 0 0,1 3,0 a1.5,1.5 0 0,1 -3,0 m0,-3 v-2 a6.5,6.5 0 0,1 6.5,6.5 h-2 a4.5,4.5 0 0,0 -4.5,-4.5 m0,-3.5 v-2 a10,10 0 0,1 10,10 h-2 a8,8 0 0,0 -8,-8 z" />
		<g id="find-icon" transform="translate(3.5,3.5)">
			<defs>
				<linearGradient id="find-border" x1="0%" y1="0%" x2="100%"
					y2="100%">
					<stop offset="0%" stop-color="#bedbfa" />
					<stop offset="100%" stop-color="#769ccd" />
				</linearGradient>
				<linearGradient id="find-in-border" x1="0%" y1="0%" x2="100%"
					y2="100%">
					<stop offset="0%" stop-color="#e3eefa" />
					<stop offset="100%" stop-color="#d2e4f7" />
				</linearGradient>
				<linearGradient id="find-center" x1="0%" y1="0%" x2="100%"
					y2="100%">
					<stop offset="0%" stop-color="#cce1f6" />
					<stop offset="100%" stop-color="#bbd6f3" />
				</linearGradient>
				<linearGradient id="find-handel" x1="0%" y1="0%" x2="100%"
					y2="0%">
					<stop offset="0%" stop-color="#b57d41" />
					<stop offset="100%" stop-color="#9d6722" />
				</linearGradient>
				<linearGradient id="find-hold" x1="0%" y1="0%" x2="100%" y2="0%">
					<stop offset="0%" stop-color="#e8cbab" />
					<stop offset="100%" stop-color="#ddb589" />
				</linearGradient>
			</defs>
			<g>
				<path transform="rotate(45)" d="M0,-1 h4 a1,1 0 0,1 0,2 h-4" fill="url(#find-handel)" />
				<path transform="rotate(45)" d="M0,-0.5 h4 a0.5,0.5 0 0,1 0,1 h-4"
					fill="url(#find-hold)" />
			</g>
			<circle r="3.5" cx="-2" cy="-2" fill="url(#find-border)" />
			<circle r="2.5" cx="-2" cy="-2" fill="url(#find-in-border)" />
			<circle r="1.5" cx="-2" cy="-2" fill="url(#find-center)" />
		</g>
	</g>
</svg>