<?xml version="1.0" encoding="utf-8" standalone="yes"?>
<!DOCTYPE svg PUBLIC "-//W3C//DTD SVG 1.1//EN" "http://www.w3.org/Graphics/SVG/1.1/DTD/svg11.dtd">
<svg xmlns="http://www.w3.org/2000/svg" xmlns:xlink="http://www.w3.org/1999/xlink"
	width="16" height="16" version="1.1">
	<title>Film Edit</title>
	<desc>Film Edit</desc>
	<g id="icon" transform="translate(6,8)">
		<defs>
			<linearGradient id="backing" x1="0%" y1="0%" x2="00%" y2="100%">
				<stop offset="0%" stop-color="#717171" />
				<stop offset="40%" stop-color="#515151" />
				<stop offset="80%" stop-color="#404040" />
				<stop offset="100%" stop-color="#050505" />
			</linearGradient>
			<linearGradient id="sky" x1="0%" y1="0%" x2="100%" y2="100%">
				<stop offset="0%" stop-color="#76c8ff" />
				<stop offset="50%" stop-color="#68beff" />
				<stop offset="80%" stop-color="#60b9ff" />
				<stop offset="100%" stop-color="#2e9cff" />
			</linearGradient>
			<linearGradient id="grass" x1="0%" y1="0%" x2="0%" y2="100%">
				<stop offset="0%" stop-color="#80da4f" />
				<stop offset="100%" stop-color="#9be26e" />
			</linearGradient>
			<linearGradient id="bush" x1="0%" y1="0%" x2="100%" y2="100%">
				<stop offset="0%" stop-color="#2bbe3f" />
				<stop offset="100%" stop-color="#6ad142" />
			</linearGradient>
			<linearGradient id="plague" x1="0%" y1="0%" x2="100%" y2="0%">
				<stop offset="0%" stop-color="#e8d462" />
				<stop offset="100%" stop-color="#e9d461" />
			</linearGradient>
			<mask id="grips">
				<rect width="16" height="16" x="-8" y="-8" fill="#ffffff" />
				<g id="side">
					<g id="dashes">
						<rect width="1" height="0.75" x="4" y="1.5" fill="#818181" />
						<rect width="1" height="0.75" x="4" y="3.75" fill="#5a5a5a" />
						<rect width="1" height="0.75" x="4" y="6" fill="#4d4d4d" />
					</g>
					<use xlink:href="#dashes" transform="scale(1,-1) translate(0,-1)" />
				</g>
				<use xlink:href="#side" transform="scale(-1,1)" />
			</mask>
		</defs>
		<path fill="url(#backing)" mask="url(#grips)"
			d="M0,-6 h3 a1,1 0 0,1 1,-1 h1 a1,1 0 0,1 1,1 v13 a1,1 0 0,1 -1,1 h-1 a1,1 0 0,1 -1,-1 h-6 a1,1 0 0,1 -1,1 h-1 a1,1 0 0,1 -1,-1 v-13 a1,1 0 0,1 1,-1 h1 a1,1 0 0,1 1,1 h3 z" />
		<g id="picture">
			<rect width="6" height="4" x="-3" y="1" fill="url(#sky)" />
			<path fill="#f8de60" d="M3,1 v2 a2,2 0 0,1 -2,-2" />
			<path fill="#fae78c" d="M3,1 v1 a1,1 0 0,1 -1,-1" />
			<rect width="6" height="1" x="-3" y="5" fill="url(#grass)" />
			<path fill="url(#bush)" d="M-3,2 c2.5,0 2.5,2 3.5,2 a1,1 0 0,1 1,1 l-4.5,0" />
			<path fill="#60cb70" d="M-3,2 a1.5,1.5 0 0,1 0,3" />
		</g>
		<use xlink:href="#picture" transform="translate(0,-6)" />
		<g id="pencil" transform="translate(4,2)">
			<defs>
				<linearGradient id="top_center" x1="0%" y1="0%" x2="100%" y2="0%">
					<stop offset="0%" stop-color="#f7e1c9" />
					<stop offset="100%" stop-color="#f4cfa5" />
				</linearGradient>
				<linearGradient id="pencil-back" x1="100%" y1="0%" x2="0%"
					y2="100%">
					<stop offset="0%" stop-color="#ca9350" stop-opacity="1.0" />
					<stop offset="20%" stop-color="#ca9350" stop-opacity="0.5" />
					<stop offset="30%" stop-color="#ca9350" stop-opacity="0.0" />
					<stop offset="55%" stop-color="#936d1e" stop-opacity="0.0" />
					<stop offset="65%" stop-color="#936d1e" stop-opacity="0.3" />
					<stop offset="80%" stop-color="#936d1e" stop-opacity="0.9" />
					<stop offset="92%" stop-color="#936d1e" stop-opacity="1.0" />
					<stop offset="94%" stop-color="#594212" stop-opacity="1.0" />
				</linearGradient>
				<linearGradient id="pencil-cross" x1="37%" y1="37%" x2="63%"
					y2="63%">
					<stop offset="0%" stop-color="#e4ba2f" />
					<stop offset="100%" stop-color="#d98f3b" />
				</linearGradient>
				<linearGradient id="pencil-nib" x1="100%" y1="0%" x2="0%" y2="100%">
					<stop offset="0%" stop-color="#fae7d1" stop-opacity="1.0" />
					<stop offset="75%" stop-color="#fae7d1" stop-opacity="0.9" />
					<stop offset="100%" stop-color="#fae7d1" stop-opacity="0.0" />
				</linearGradient>
				<linearGradient id="pencil-outer" x1="37%" y1="37%" x2="63%"
					y2="63%">
					<stop offset="0%" stop-color="#f8edc3" />
					<stop offset="10%" stop-color="#fcf4b3" />
					<stop offset="45%" stop-color="#f4d644" />
					<stop offset="55%" stop-color="#f4d644" />
					<stop offset="90%" stop-color="#fcf4b3" />
					<stop offset="100%" stop-color="#faee8e" />
				</linearGradient>
				<linearGradient id="pencil-nib-shadow" x1="0%" y1="0%" x2="100%"
					y2="100%">
					<stop offset="0%" stop-color="#e07500" stop-opacity="0.0" />
					<stop offset="40%" stop-color="#e07500" stop-opacity="0.2" />
					<stop offset="50%" stop-color="#e07500" stop-opacity="0.45" />
					<stop offset="60%" stop-color="#e07500" stop-opacity="0.4" />
					<stop offset="100%" stop-color="#e07500" stop-opacity="0.0" />
				</linearGradient>
			</defs>
			<path fill="url(#pencil-cross)" d="M2,-5 l-8,8 v3 h3 l8,-8 a2,1.25 45 0,0 -3,-3" />
			<path fill="url(#pencil-back)" d="M2,-5 l-8,8 v3 h3 l8,-8 a2,1.25 45 0,0 -3,-3" />
			<ellipse transform="translate(3.5,-3.5) rotate(45)" cx="0" cy="0" rx="1.25"
				ry="0.75" fill="url(#top_center)" />
			<path fill="url(#pencil-nib)" d="M-5,5 h2 l1,-1 a1.41,0.75 45 0,1 -2,-2 l-1,1 v2" />
			<path fill="url(#pencil-nib-shadow)" d="M-5,5 h2 l1,-1 a1.41,0.75 45 0,1 -2,-2 l-1,1 v2" />
			<path fill="url(#pencil-outer)"
				d="M2,-4 l-5.5,5.5 a1.41,0.75 45 0,0 2,2 l5.5,-5.5 a1.41,0.75 45 0,1 -2,-2" />
		</g>
	</g>
</svg>
