<?xml version="1.0" encoding="utf-8" standalone="yes"?>
<!DOCTYPE svg PUBLIC "-//W3C//DTD SVG 1.1//EN" "http://www.w3.org/Graphics/SVG/1.1/DTD/svg11.dtd">
<svg xmlns="http://www.w3.org/2000/svg" xmlns:xlink="http://www.w3.org/1999/xlink"
	width="16" height="16" version="1.1">
	<title>Find Previous</title>
	<desc>Find Previous</desc>
	<g id="icon" transform="translate(8,8)">
		<defs>
			<linearGradient id="backing" x1="0%" y1="0%" x2="100%" y2="100%">
				<stop offset="0%" stop-color="#767a80" />
				<stop offset="100%" stop-color="#000000" />
			</linearGradient>
			<linearGradient id="block" x1="0%" y1="0%" x2="100%" y2="0%">
				<stop offset="0%" stop-color="#86929f" />
				<stop offset="33%" stop-color="#bac3cc" />
				<stop offset="100%" stop-color="#8b98a6" />
			</linearGradient>
			<linearGradient id="shade" x1="0%" y1="0%" x2="100%" y2="0%">
				<stop offset="0%" stop-color="#000" stop-opacity="0" />
				<stop offset="20%" stop-color="#000" stop-opacity="0.7" />
				<stop offset="100%" stop-color="#000" />
			</linearGradient>
			<linearGradient id="shade2" x1="0%" y1="0%" x2="100%" y2="0%">
				<stop offset="0%" stop-color="#000" />
				<stop offset="80%" stop-color="#000" stop-opacity="0.7" />
				<stop offset="100%" stop-color="#000" stop-opacity="0" />
			</linearGradient>
			<linearGradient id="swivel-shade" x1="0%" y1="0%" x2="0%" y2="100%">
				<stop offset="0%" stop-color="#000" stop-opacity="0.4" />
				<stop offset="100%" stop-color="#000" stop-opacity="0" />
			</linearGradient>
			<linearGradient id="swivel" x1="0%" y1="0%" x2="100%" y2="0%">
				<stop offset="0%" stop-color="#7b91aa" />
				<stop offset="33%" stop-color="#94a7ba" />
				<stop offset="100%" stop-color="#7d8d9f" />
			</linearGradient>
			<linearGradient id="top-left" x1="0%" y1="0%" x2="100%" y2="100%">
				<stop offset="0%" stop-color="#7d8a96" />
				<stop offset="100%" stop-color="#484f56" />
			</linearGradient>
			<linearGradient id="top-right" x1="0%" y1="0%" x2="100%" y2="100%">
				<stop offset="0%" stop-color="#93a0ae" />
				<stop offset="100%" stop-color="#010101" />
			</linearGradient>
			<linearGradient id="top-center" x1="0%" y1="0%" x2="100%" y2="100%">
				<stop offset="0%" stop-color="#aeb8c3" />
				<stop offset="100%" stop-color="#5e6770" />
			</linearGradient>
		</defs>
		<path fill="url(#backing)"
			d="M0,0 h6 v5.5 a0.5,0.5 0 0,1 -.5,0.5 h-5 a0.5,0.5 0 0,1 -.5,-.5 v-5.5 m-1,0 h-6 v5.5 a0.5,0.5 0 0,0 0.5,0.5 h5 a0.5,0.5 0 0,0 0.5,-.5 l0-5.5 z" />
		<rect width="1" height="1.5" x="-1" y="-1" fill="url(#backing)" />
		<rect width="4" height="4" x="1" y="1" fill="url(#block)" />
		<rect width="4" height="4" x="-6" y="1" fill="url(#block)" />
		<rect width="2" height="3" x="-7" y="2" fill="url(#shade2)" opacity="0.3" />
		<rect width="2" height="3" x="0" y="2" fill="url(#shade2)" opacity="0.3" />
		<rect width="3" height="3" x="-4" y="2" fill="url(#shade)" opacity="0.3" />
		<rect width="3" height="3" x="3" y="2" fill="url(#shade)" opacity="0.3" />
		<path fill="url(#top-right)"
			d="M0,0 v-6 h3 v1.5 a0.5,0.5 0 0,0 0.5,0.5 l0.5,0 a2,2 0 0,1 2,2 v2 " />
		<path fill="url(#top-center)"
			d="M1,0 v-5 h1 v1.5 a0.5,0.5 0 0,0 0.5,0.5 l0.5,0 a2,2 0 0,1 2,2 v1 " />
		<path fill="url(#top-left)"
			d="M-1,0 v-6 h-3 v1.5 a0.5,0.5 0 0,1 -.5,0.5 l-0.5,0 a2,2 0 0,0 -2,2 v2 " />
		<path fill="url(#top-center)"
			d="M-2,0 v-5 h-1 v1.5 a0.5,0.5 0 0,1 -.5,0.5 l-0.5,0 a2,2 0 0,0 -2,2 v1 " />
		<rect width="5" height="2" x="-3" y="-3" fill="url(#swivel)" />
		<rect width="5" height="1.5" x="-3" y="-3" fill="url(#swivel-shade)" />
		<g id="left" transform="translate(-1,3)">
			<g transform="rotate(-90)">
				<defs>
					<linearGradient id="arrow-backing" x1="100%" y1="0%" x2="0%"
						y2="100%">
						<stop offset="0%" stop-color="#72c466" />
						<stop offset="100%" stop-color="#22601e" />
					</linearGradient>
					<linearGradient id="arrow-center" x1="100%" y1="0%" x2="0%"
						y2="100%">
						<stop offset="0%" stop-color="#a7d69e" />
						<stop offset="100%" stop-color="#78bd72" />
					</linearGradient>
				</defs>
				<path fill="url(#arrow-backing)" d="M-2,-3 h-2 l4,-4 l4,4 h-2 v5 h-4 v-5 z" />
				<path fill="url(#arrow-center)"
					d="M-1,-3.5 l-1.5,0 l2.5,-2.5 l2.5,2.5 l-1.5,0 v4.5 h-2 v-4.5 z" />
			</g>
		</g>
	</g>
</svg>
