<?xml version="1.0" encoding="utf-8" standalone="yes"?>
<!DOCTYPE svg PUBLIC "-//W3C//DTD SVG 1.1//EN" "http://www.w3.org/Graphics/SVG/1.1/DTD/svg11.dtd">
<svg xmlns="http://www.w3.org/2000/svg" xmlns:xlink="http://www.w3.org/1999/xlink"
	width="16" height="16" version="1.1">
	<title>Firefox</title>
	<desc>Firefox</desc>
	<!--<image width="16" height="16" xlink:href="../firefox-16.png" />-->
	<g id="icon" transform="scale(0.9375) translate(8.5,8)">
		<defs>
			<linearGradient id="backing" x1="0%" y1="0%" x2="100%" y2="100%">
				<stop offset="0%" stop-color="#6ec461" />
				<stop offset="100%" stop-color="#327a2f" />
			</linearGradient>
			<linearGradient id="in-border" x1="0%" y1="0%" x2="100%" y2="100%">
				<stop offset="0%" stop-color="#e2f3c0" />
				<stop offset="100%" stop-color="#bcdaa0" />
			</linearGradient>
			<radialGradient id="gloss" cx="50%" cy="30%" r="50%">
				<stop offset="0%" stop-color="#fff" stop-opacity="0.6" />
				<stop offset="100%" stop-color="#fff" stop-opacity="0.0" />
			</radialGradient>
			<linearGradient id="amer-fill" x1="0%" y1="0%" x2="100%" y2="100%">
				<stop offset="0%" stop-color="#6ddb77" />
				<stop offset="100%" stop-color="#80c079" />
			</linearGradient>
			<linearGradient id="sand" x1="0%" y1="0%" x2="100%" y2="100%">
				<stop offset="0%" stop-color="#f5db82" />
				<stop offset="100%" stop-color="#f4df90" />
			</linearGradient>
			<mask id="Mask">
				<rect width="16" height="16" x="-8" y="-8" fill="#000" />
				<circle r="6.4" fill="#fff" />
			</mask>
			<mask id="Masksand">
				<rect width="16" height="16" x="-8" y="-8" fill="#000" />
				<circle r="3" cx="-7" cy="1.5" fill="#fff" filter="url(#Gaussian_Blur05)" />
			</mask>
			<filter id="Gaussian_Blur">
				<feGaussianBlur in="SourceGraphic" stdDeviation="1" />
			</filter>
			<filter id="Gaussian_Blur025">
				<feGaussianBlur in="SourceGraphic" stdDeviation="0.25" />
			</filter>
			<filter id="Gaussian_Blur05">
				<feGaussianBlur in="SourceGraphic" stdDeviation="0.5" />
			</filter>
			<path id="amer"
				d="M-2,6 c1,-2 0,-3 -1,-3 c-3,0 0,-3 0,-3 c2,-2 2,-3 1,-4 c-1,-1 -1,0 -2,-1 h-3 v14 M0,10 v1 h1" />
			<path id="afra"
				d="M4.5,5 c-0.5,-1 -0.5,-2 -1,-2.5 c-3,0 -4,-4 1.5,-4 c2,0 2,-1.5 0,-1.5 c-0.5,0 -3.5,0 -3.5,2 c0,0.5 -1,-0.5 0,-1.75 c1,-0.5 3,-3 2,-3 h4 v10 M-12,0 h-1 v1 " />
		</defs>
		<circle r="8" fill="url(#backing)" />
		<circle r="7" fill="url(#in-border)" />
		<g id="map" mask="url(#Mask)">
			<circle r="7" fill="#5eb0d3" />
			<use xlink:href="#amer" fill="#206aa2" filter="url(#Gaussian_Blur)" />
			<use xlink:href="#amer" fill="#8adcbf" filter="url(#Gaussian_Blur025)" />
			<use xlink:href="#amer" fill="url(#amer-fill)" />
			<use xlink:href="#afra" fill="#206aa2" filter="url(#Gaussian_Blur)" />
			<use xlink:href="#afra" fill="#8adcbf" filter="url(#Gaussian_Blur025)" />
			<use xlink:href="#afra" fill="url(#amer-fill)" />
			<rect width="16" height="16" x="-8" y="-8" fill="url(#gloss)" />
		</g>
	</g>
	<g id="firefox" transform="translate(8,8)">
		<defs>
			<linearGradient id="fox-backing" x1="0%" y1="0%" x2="100%" y2="100%">
				<stop offset="0%" stop-color="#ff8100" />
				<stop offset="100%" stop-color="#ff4b00" />
			</linearGradient>
			<linearGradient id="fox-inner" x1="0%" y1="0%" x2="100%" y2="0%">
				<stop offset="0%" stop-color="#ffc980" />
				<stop offset="70%" stop-color="#ff9360" />
				<stop offset="100%" stop-color="#f7e378" />
			</linearGradient>
			<linearGradient id="fox-center" x1="0%" y1="0%" x2="100%" y2="100%">
				<stop offset="0%" stop-color="#ffb677" />
				<stop offset="100%" stop-color="#ff7b38" />
			</linearGradient>
		</defs>
		<path fill="url(#fox-backing)"
			d="M8,0 a8,8 0 1,1 -16,0 c0,-5 1,-4 1,-8 l2.5,2 l3.5,-2 v3 h2 v2 h-1 v2 l-0.5,0 a0.5,0.5 0 1,0 0.5,0.5 h2 a2,2 0 0,1 -1,3 c -1,1 -1,-2 0.5,0.5 a5.5,5.5 0 0,0 0,-10 a7,7 0 0,1 6.5,7" />
		<path fill="url(#fox-inner)"
			d="M7,0 a7,7 0 1,1 -14,0 c0,-5 1,-4 1,-6 l1.5,1 l2.5,-1 v2 h2 h0.5 l-1,1 v1 h-1.5 a1.25,1.25 0 1,0 2,1 l1.5,0 a2,2 0 0,1 -1,2 c-1,1 -1,3 2,2 a5,5 0 0,0 3,-4 a5,5 0 0,0 -2.5,-6 a6,6 0 0,1 4,6" />
		<path fill="url(#fox-center)"
			d="M0,6 a6,6 0 0,1 -6,-6 c0,-3 0.5,-3 0.5,-4.5 l1,1 l1.5,-1 v1.5 l1.5,0 l-2,2 a5,5 0 0,0 3.5,6 a5,5 0 0,0 6,-5 a6,6 0 0,1 -6,6" />
		<rect width="1" height="2" x="0" y="-5" fill="#914e00" />
		<g id="palette" transform="translate(2,3) scale(0.65)">
			<defs>
				<linearGradient id="palette-backing" x1="0%" y1="0%" x2="100%"
					y2="100%">
					<stop offset="0%" stop-color="#d79662" />
					<stop offset="100%" stop-color="#9a6016" />
				</linearGradient>
				<linearGradient id="palette-in-border" x1="0%" y1="0%" x2="100%"
					y2="100%">
					<stop offset="0%" stop-color="#fdf2e7" />
					<stop offset="100%" stop-color="#f3d7ba" />
				</linearGradient>
				<linearGradient id="palette-center" x1="0%" y1="0%" x2="100%"
					y2="100%">
					<stop offset="0%" stop-color="#ebbc91" />
					<stop offset="100%" stop-color="#e09560" />
				</linearGradient>
			</defs>
			<path fill="url(#palette-backing)"
				d="M-1.25,1.25 a0.75,0.75 0 0,0 1.5,-1.5 a0.75,0.75 0 0,0 -1.5,1.5 l-2,2 c-2,-2 -4.75,-1 -4.75,-3.25 c0,-3 4,-8 9,-8 c5,0 7,2 7,7 c0,3 -4,8 -9,8 c-2.25,0 -1.25,-2.75 -3.25,-4.75 Z" />
			<path fill="url(#palette-in-border)"
				d="M-2,2 a1.5,1.5 0 0,0 3,-3 a1.5,1.5 0 0,0 -3,3 l-0.5,0.5 c-2,-2 -4.5,-1 -4.5,-3 c0,-3 4,-6.5 7.5,-6.5 c4.75,0 6.5,2.25 6.5,6.5 c0,3 -4,6.5 -7.5,6.5 c-2.25,0 -1.25,-2.75 -3.25,-4.75 Z" />
			<path
				d="M-2.75,2.75 a2.25,2.25 0 0,0 4.5,-4.5 a2.25,2.25 0 0,0 -4.5,4.5 c-2,-3.5 -4.5,-1 -3,-4.5 c1.25,-3 4,-4.5 6.5,-4.5 c4,0 5.5,3 5.5,5.5 c0,3 -4,6 -6.5,6.25 c-2.25,0 -1.25,-2.75 -3,-3.5
 Z"
				fill="url(#palette-center)" />
			<g fill="#f04141">
				<path id="blob"
					d="M-5.5,-2 c-0.5,1 0.5,1 1.25,1.25 c1,0.5 2,-0.5 1.25,-1 c-1,-1 0,-1.25 0.25,-1.5 c0.5,-0.5 -0.75,-1 -1.75,-0.5 c-0.75,0.25 -0.5,1 -1,1.75 " />
				<use xlink:href="#blob" id="splot" transform="scale(0.5) rotate(30) translate(-6,2)"
					fill="#fff" opacity="0.5" />
			</g>
			<g fill="#fbaa41" transform="rotate(40)">
				<use xlink:href="#blob" />
				<use xlink:href="#splot" />
			</g>
			<g fill="#fbd142" transform="rotate(90)">
				<use xlink:href="#blob" />
				<use xlink:href="#splot" />
			</g>
			<g fill="#7ab83c" transform="rotate(130)">
				<use xlink:href="#blob" />
				<use xlink:href="#splot" />
			</g>
			<g fill="#2798ae" transform="rotate(220) translate(0,3)">
				<use xlink:href="#blob" />
				<use xlink:href="#splot" />
			</g>
		</g>
	</g>
</svg>
