<?xml version="1.0" encoding="utf-8" standalone="yes"?>
<!DOCTYPE svg PUBLIC "-//W3C//DTD SVG 1.1//EN" "http://www.w3.org/Graphics/SVG/1.1/DTD/svg11.dtd">
<svg xmlns="http://www.w3.org/2000/svg" xmlns:xlink="http://www.w3.org/1999/xlink"
	width="16" height="16" version="1.1">
	<title>Flame Add</title>
	<desc>Flame Add</desc>
	<g id="icon" transform="translate(8,8)">
		<defs>
			<linearGradient id="backing" x1="0%" y1="0%" x2="100%" y2="100%">
				<stop offset="0%" stop-color="#e34100" />
				<stop offset="100%" stop-color="#e72603" />
			</linearGradient>
			<linearGradient id="backing-right" x1="0%" y1="0%" x2="100%" y2="100%">
				<stop offset="0%" stop-color="#ff9d14" />
				<stop offset="100%" stop-color="#ff3716" />
			</linearGradient>
			<linearGradient id="inner" x1="0%" y1="0%" x2="100%" y2="100%">
				<stop offset="0%" stop-color="#ff9c27" />
				<stop offset="100%" stop-color="#ff9a22" />
			</linearGradient>
			<linearGradient id="center" x1="0%" y1="0%" x2="100%" y2="100%">
				<stop offset="0%" stop-color="#ffc11d" />
				<stop offset="100%" stop-color="#ffd928" />
			</linearGradient>
		</defs>
		<use xlink:href="#small" transform="scale(-1,1) translate(-5,-2)" />
		<g id="small">
			<path fill="url(#backing-right)" d="M4,6 c5,0 3,-7 -1,-11 c2,4 1,6 -2,7 c-3,1 0,4 3,4" />
			<path fill="url(#center)" d="M3.5,5 c4,0 3,-4 1,-6 c1,2 1,2 -2,3 c-2,2 -1,3 3,3" />
		</g>
		<path fill="url(#backing)" d="M-3,7 c-6,0 -5,-9 1,-14 c-3,5 -2,7 2,8 c3,1 2,6 -2,6" />
		<path fill="url(#inner)" d="M-3,6 c-4,0 -4,-5 -1.5,-8 c0,2 0,3 3.5,3.5 c3,1 2,5 -1,4.5" />
		<path fill="url(#center)" d="M-3,5 c-2,0 -3,-2 -2,-4.5 c0,1 0,1.5 4,2 c1,1 1,2.5 -1,2.5" />
	</g>
	<g id="add" transform="translate(12.5,12.5)">
		<defs>
			<linearGradient id="backing_add" x1="0%" y1="0%" x2="100%"
				y2="100%">
				<stop offset="0%" stop-color="#6e9458" />
				<stop offset="100%" stop-color="#376b19" />
			</linearGradient>
			<linearGradient id="center_add" x1="0%" y1="0%" x2="100%" y2="100%">
				<stop offset="0%" stop-color="#b1d390" />
				<stop offset="100%" stop-color="#8fbc67" />
			</linearGradient>
		</defs>
		<circle id="back" r="3.5" fill="url(#backing_add)" />
		<circle id="center-dot" r="2.5" fill="url(#center_add)" />
		<path fill="#fff"
			d="M-0.5,-0.5 v-1 h1 v1 h1 v1 h-1 v1 h-1 v-1 h-1 v-1 h1 z " />
	</g>
</svg>
