<?xml version="1.0" encoding="utf-8" standalone="yes"?>
<!DOCTYPE svg PUBLIC "-//W3C//DTD SVG 1.1//EN" "http://www.w3.org/Graphics/SVG/1.1/DTD/svg11.dtd">
<svg xmlns="http://www.w3.org/2000/svg" xmlns:xlink="http://www.w3.org/1999/xlink"
	width="16" height="16" version="1.1">
	<title>Folder Key</title>
	<desc>Folder Key</desc>
	<g id="icon" transform="translate(7,10)">
		<defs>
			<linearGradient id="backing" x1="0%" y1="0%" x2="0%" y2="100%">
				<stop offset="0%" stop-color="#d9b434" />
				<stop offset="100%" stop-color="#d8862c" />
			</linearGradient>
			<linearGradient id="center" x1="0%" y1="0%" x2="100%" y2="100%">
				<stop offset="0%" stop-color="#ffffff" />
				<stop offset="100%" stop-color="#fbf2ca" />
			</linearGradient>
			<linearGradient id="label-end" x1="0%" y1="0%" x2="100%" y2="100%">
				<stop offset="0%" stop-color="#f8e48e" />
				<stop offset="100%" stop-color="#e9c173" />
			</linearGradient>
			<linearGradient id="label" x1="100%" y1="0%" x2="0%" y2="0%">
				<stop offset="0%" stop-color="#f8e48e" />
				<stop offset="100%" stop-color="#e9c173" />
			</linearGradient>
			<linearGradient id="base" x1="0%" y1="0%" x2="100%" y2="100%">
				<stop offset="0%" stop-color="#fcf2c8" />
				<stop offset="100%" stop-color="#f0cb26" />
			</linearGradient>
		</defs>
		<path fill="url(#backing)"
			d="M0,-4 h6 a1,1 0 0,1 1,1 v8 a1,1 0 0,1 -1,1 h-12 a1,1 0 0,1 -1,-1 v-9.5 a0.5,0.5 0 0,1 0.5,-0.5 h6  a0.5,0.5 0 0,1 0.5,0.5  a0.5,0.5 0 0,0 0.5,0.5 z" />
		<path fill="url(#center)" d="M0,-3 h6 v8 h-12 v-9 h6 z" />
		<rect width="7" height="1" x="-2" y="-2" fill="url(#label)" />
		<path fill="url(#label-end)" d="M-5,-3 h4 v2 l-1,1 h-3 z" />
		<path fill="url(#base)" d="M0,0 h5 v5 h-10 v-4 h4 l1,-1 z" />
		<rect width="12" height="1" x="-6" y="4" fill="#000" opacity="0.05" />
		<g id="key-icon" transform="translate(4,-5)">
			<defs>
				<linearGradient id="key-backing" x1="0%" y1="0%" x2="100%"
					y2="0%">
					<stop offset="0%" stop-color="#e3b044" />
					<stop offset="100%" stop-color="#d67d29" />
				</linearGradient>
				<linearGradient id="key-center" x1="0%" y1="0%" x2="100%" y2="0%">
					<stop offset="0%" stop-color="#f9eea9" />
					<stop offset="100%" stop-color="#f5d855" />
				</linearGradient>
				<linearGradient id="key-line" x1="0%" y1="0%" x2="0%" y2="100%">
					<stop offset="0%" stop-color="#eec528" stop-opacity="0" />
					<stop offset="100%" stop-color="#eec528" />
				</linearGradient>
				<linearGradient id="key-top" x1="0%" y1="0%" x2="100%" y2="100%">
					<stop offset="0%" stop-color="#eec528" stop-opacity="0" />
					<stop offset="100%" stop-color="#eec528" />
				</linearGradient>
			</defs>
			<g id="key-tick" transform="scale(0.625)">
				<path fill="url(#key-backing)"
					d="M-8,8 v-6 h2 v-2 h3 l1,-1 a3,3 0 0,1 -1,-3.5 l3,-3 a3,3 0 0,1 3.5,0 l3,3 a3,3 0 0,1 1,3.5 l-3,3 a3,3 0 0,1 -3,0 l-6,6 Z" />
				<path fill="url(#key-center)" d="M-7,7 v-4 h2 v-2 l2.5,0 l3,-3 l1.8,1.8 l-7.2,7.2 Z" />
				<path transform="scale(0.8)"
					d="M-1.5,-2 a3,3 0 0,1 -1,-3.5 l3,-3 a3,3 0 0,1 3.5,0 l3.3,3.3 a3,3 0 0,1 1,3.5 l-3,3 a3,3 0 0,1 -3,0 Z"
					fill="url(#key-center)" />
				<path transform="scale(0.6)"
					d="M-0.4,-3.2 a3,3 0 0,1 -1,-3.5 l3,-3 a3,3 0 0,1 3.5,0 l3.3,3.3 a3,3 0 0,1 1,3.5 l-3,3 a3,3 0 0,1 -3,0 Z"
					fill="url(#key-top)" />
				<path fill="url(#key-line)" d="M-6,6 v-1 l6,-6 l1,1 l-6,6 Z" />
				<rect width="2" height="1" transform="translate(3,-5) rotate(45)" fill="url(#key-backing)" />
			</g>
		</g>
		<defs>
			<linearGradient id="mask-grad" x1="0%" y1="0%" x2="100%" y2="0%">
				<stop offset="0%" stop-color="#fff" />
				<stop offset="100%" stop-color="#999" />
			</linearGradient>
			<mask id="Mask">
				<rect width="12" height="6" x="-6" y="-1" fill="url(#mask-grad)" />
			</mask>
		</defs>
		<path fill="url(#backing)"
			d="M-7,-4 v9 a1,1 0 0,1 1,1 h12 a1,1 0 0,1 1,-1 v-6 a1,1 0 0,0 -1,-1 h-7 l-1,1 h-4 v1 l4.5,0 l1,-1 l6.5,0 v6 h-12 v-9 " />
		<g id="folder-flap" mask="url(#Mask)">
			<path fill="url(#center)" d="M0,-1 h6 v6 h-12 v-5 l4.5,0 l1,-1 z" />
			<path fill="url(#base)" d="M0,0 h5 v5 h-10 v-4 h4 l1,-1 z" />
		</g>
	</g>
</svg>
