<?xml version="1.0" encoding="utf-8" standalone="yes"?>
<!DOCTYPE svg PUBLIC "-//W3C//DTD SVG 1.1//EN" "http://www.w3.org/Graphics/SVG/1.1/DTD/svg11.dtd">
<svg xmlns="http://www.w3.org/2000/svg" xmlns:xlink="http://www.w3.org/1999/xlink"
	width="16" height="16" version="1.1">
	<title>Folder Database</title>
	<desc>Folder Database</desc>
	<g id="icon" transform="translate(7,10)">
		<defs>
			<linearGradient id="backing" x1="0%" y1="0%" x2="0%" y2="100%">
				<stop offset="0%" stop-color="#d9b434" />
				<stop offset="100%" stop-color="#d8862c" />
			</linearGradient>
			<linearGradient id="center" x1="0%" y1="0%" x2="100%" y2="100%">
				<stop offset="0%" stop-color="#ffffff" />
				<stop offset="100%" stop-color="#fbf2ca" />
			</linearGradient>
			<linearGradient id="label-end" x1="0%" y1="0%" x2="100%" y2="100%">
				<stop offset="0%" stop-color="#f8e48e" />
				<stop offset="100%" stop-color="#e9c173" />
			</linearGradient>
			<linearGradient id="label" x1="100%" y1="0%" x2="0%" y2="0%">
				<stop offset="0%" stop-color="#f8e48e" />
				<stop offset="100%" stop-color="#e9c173" />
			</linearGradient>
			<linearGradient id="base" x1="0%" y1="0%" x2="100%" y2="100%">
				<stop offset="0%" stop-color="#fcf2c8" />
				<stop offset="100%" stop-color="#f0cb26" />
			</linearGradient>
		</defs>
		<path fill="url(#backing)"
			d="M0,-4 h6 a1,1 0 0,1 1,1 v8 a1,1 0 0,1 -1,1 h-12 a1,1 0 0,1 -1,-1 v-9.5 a0.5,0.5 0 0,1 0.5,-0.5 h6  a0.5,0.5 0 0,1 0.5,0.5  a0.5,0.5 0 0,0 0.5,0.5 z" />
		<path fill="url(#center)" d="M0,-3 h6 v8 h-12 v-9 h6 z" />
		<rect width="7" height="1" x="-2" y="-2" fill="url(#label)" />
		<path fill="url(#label-end)" d="M-5,-3 h4 v2 l-1,1 h-3 z" />
		<path fill="url(#base)" d="M0,0 h5 v5 h-10 v-4 h4 l1,-1 z" />
		<g id="database" transform="translate(8,-3.5)">
			<defs>
				<linearGradient id="database-backing" x1="0%" y1="0%" x2="100%"
					y2="100%">
					<stop offset="0%" stop-color="#bababa" />
					<stop offset="100%" stop-color="#939393" />
				</linearGradient>
				<linearGradient id="database-inner" x1="0%" y1="0%" x2="100%"
					y2="100%">
					<stop offset="0%" stop-color="#fff" />
					<stop offset="50%" stop-color="#fff" />
					<stop offset="100%" stop-color="#dedede" />
				</linearGradient>
				<linearGradient id="database-center" x1="0%" y1="0%" x2="100%"
					y2="0%">
					<stop offset="0%" stop-color="#eaeaea" />
					<stop offset="25%" stop-color="#d9d9d9" />
					<stop offset="50%" stop-color="#e3e3e3" />
					<stop offset="75%" stop-color="#bfbfbf" />
					<stop offset="100%" stop-color="#bfbfbf" />
				</linearGradient>
			</defs>
			<g transform="translate(-6,1)">
				<path fill="url(#database-backing)" d="M6,-5 v7 a6,6 0 0,1 -8,0 v-7 a6,6 0 0,1 8,0 " />
				<path fill="url(#database-inner)" d="M5,-4.25 v5.5 a4,4 0 0,1 -6,0 v-5.5 a4,4 0 0,1 6,0 " />
				<path fill="url(#database-center)" d="M4,-3.75 v5 a3,3 0 0,1 -4,0 v-5 a3,3 0 0,0 4,0 " />
				<path fill="#000" opacity="0.1"
					d="M4,-3.75 v1 a3,3 0 0,1 -4,0 v-1 a3,3 0 0,0 4,0 " />
			</g>
		</g>
		<defs>
			<linearGradient id="mask-grad" x1="0%" y1="0%" x2="100%" y2="0%">
				<stop offset="0%" stop-color="#fff" />
				<stop offset="100%" stop-color="#999" />
			</linearGradient>
			<mask id="Mask">
				<rect width="12" height="6" x="-6" y="-1" fill="url(#mask-grad)" />
			</mask>
		</defs>
		<path fill="url(#backing)"
			d="M-7,-4 v9 a1,1 0 0,0 1,1 h12 a1,1 0 0,0 1,-1 v-6 a1,1 0 0,0 -1,-1 h-7 l-1,1 h-4 v1 l4.5,0 l1,-1 l6.5,0 v6 h-12 v-9 " />
		<g id="folder-flap" mask="url(#Mask)">
			<path fill="url(#center)" d="M0,-1 h6 v6 h-12 v-5 l4.5,0 l1,-1 z" />
			<path fill="url(#base)" d="M0,0 h5 v5 h-10 v-4 h4 l1,-1 z" />
		</g>
		<rect width="12" height="1" x="-6" y="4" fill="#000" opacity="0.05" />
	</g>
</svg>
