<?xml version="1.0" encoding="utf-8" standalone="yes"?>
<!DOCTYPE svg PUBLIC "-//W3C//DTD SVG 1.1//EN" "http://www.w3.org/Graphics/SVG/1.1/DTD/svg11.dtd">
<svg xmlns="http://www.w3.org/2000/svg" xmlns:xlink="http://www.w3.org/1999/xlink"
	width="16" height="16" version="1.1">
	<title>Folder Disk</title>
	<desc>Folder Disk Save</desc>
	<g id="icon" transform="translate(8,8)">
		<defs>
			<linearGradient id="backing" x1="0%" y1="0%" x2="0%" y2="100%">
				<stop offset="0%" stop-color="#d9b434" />
				<stop offset="100%" stop-color="#d8862c" />
			</linearGradient>
			<linearGradient id="center" x1="0%" y1="0%" x2="100%" y2="100%">
				<stop offset="0%" stop-color="#ffffff" />
				<stop offset="100%" stop-color="#fbf2ca" />
			</linearGradient>
			<linearGradient id="label-end" x1="0%" y1="0%" x2="100%" y2="100%">
				<stop offset="0%" stop-color="#f8e48e" />
				<stop offset="100%" stop-color="#e9c173" />
			</linearGradient>
			<linearGradient id="label" x1="100%" y1="0%" x2="0%" y2="0%">
				<stop offset="0%" stop-color="#f8e48e" />
				<stop offset="100%" stop-color="#e9c173" />
			</linearGradient>
			<linearGradient id="base" x1="0%" y1="0%" x2="100%" y2="100%">
				<stop offset="0%" stop-color="#fcf2c8" />
				<stop offset="100%" stop-color="#f0cb26" />
			</linearGradient>
		</defs>
		<path fill="url(#backing)"
			d="M0,-4 h6 a1,1 0 0,1 1,1 v8 a1,1 0 0,1 -1,1 h-12 a1,1 0 0,1 -1,-1 v-9.5 a0.5,0.5 0 0,1 0.5,-0.5 h6  a0.5,0.5 0 0,1 0.5,0.5  a0.5,0.5 0 0,0 0.5,0.5 z" />
		<path fill="url(#center)" d="M0,-3 h6 v8 h-12 v-9 h6 z" />
		<rect width="7" height="1" x="-2" y="-2" fill="url(#label)" />
		<path fill="url(#label-end)" d="M-5,-3 h4 v2 l-1,1 h-3 z" />
		<path fill="url(#base)" d="M0,0 h5 v5 h-10 v-4 h4 l1,-1 z" />
		<rect width="12" height="1" x="-6" y="4" fill="#000" opacity="0.05" />
		<g id="save" transform="translate(4,3)">
			<defs>
				<linearGradient id="backing_disk" x1="0%" y1="0%" x2="0%" y2="100%">
					<stop offset="0%" stop-color="#6e97d4" />
					<stop offset="100%" stop-color="#5884c3" />
				</linearGradient>
				<linearGradient id="center_disk" x1="0%" y1="0%" x2="100%"
					y2="100%">
					<stop offset="0%" stop-color="#b0cdf3" />
					<stop offset="100%" stop-color="#85a2dd" />
				</linearGradient>
				<linearGradient id="label_disk" x1="0%" y1="0%" x2="100%" y2="0%">
					<stop offset="0%" stop-color="#a8d782" />
					<stop offset="100%" stop-color="#d7f4a2" />
				</linearGradient>
			</defs>
			<path fill="url(#backing_disk)"
				d="M0,-5 h-5 a1,1 0 0,0 -1,1 v8 a1,1 0 0,0 1,1 h8 a1,1 0 0,0 1,-1 v-7 l-2,-2  z" />
			<rect x="-5" y="-4" width="8" height="8" fill="url(#center_disk)" />
			<rect x="-4" y="-4" width="6" height="3" fill="#fff" />
			<rect x="-3" y="-4" width="1" height="2" fill="url(#center_disk)" />
			<rect x="-4" y="1" width="6" height="3" fill="#fff" />
			<rect id="label_disk_part" x="-3" y="2" width="2" height="2"
				fill="url(#label_disk)" />
			<use xlink:href="#label_disk_part" transform="rotate(180) translate(2,-6)" />
			<rect x="-6" y="-3" width="10" height="6" fill="#000"
				opacity="0.05" />
		</g>
	</g>
</svg>