<?xml version="1.0" encoding="utf-8" standalone="yes"?>
<!DOCTYPE svg PUBLIC "-//W3C//DTD SVG 1.1//EN" "http://www.w3.org/Graphics/SVG/1.1/DTD/svg11.dtd">
<svg xmlns="http://www.w3.org/2000/svg" xmlns:xlink="http://www.w3.org/1999/xlink"
	width="16" height="16" version="1.1">
	<title>Folder</title>
	<desc>Folder</desc>
	<g id="icon" transform="translate(7,10)">
		<defs>
			<linearGradient id="backing" x1="0%" y1="0%" x2="0%" y2="100%">
				<stop offset="0%" stop-color="#d9b434" />
				<stop offset="100%" stop-color="#d8862c" />
			</linearGradient>
			<linearGradient id="center" x1="0%" y1="0%" x2="100%" y2="100%">
				<stop offset="0%" stop-color="#ffffff" />
				<stop offset="100%" stop-color="#fbf2ca" />
			</linearGradient>
			<linearGradient id="label-end" x1="0%" y1="0%" x2="100%" y2="100%">
				<stop offset="0%" stop-color="#f8e48e" />
				<stop offset="100%" stop-color="#e9c173" />
			</linearGradient>
			<linearGradient id="label" x1="100%" y1="0%" x2="0%" y2="0%">
				<stop offset="0%" stop-color="#f8e48e" />
				<stop offset="100%" stop-color="#e9c173" />
			</linearGradient>
			<linearGradient id="base" x1="0%" y1="0%" x2="100%" y2="100%">
				<stop offset="0%" stop-color="#fcf2c8" />
				<stop offset="100%" stop-color="#f0cb26" />
			</linearGradient>
		</defs>
		<path fill="url(#backing)"
			d="M0,-4 h6 a1,1 0 0,1 1,1 v8 a1,1 0 0,1 -1,1 h-12 a1,1 0 0,1 -1,-1 v-9.5 a0.5,0.5 0 0,1 0.5,-0.5 h6  a0.5,0.5 0 0,1 0.5,0.5  a0.5,0.5 0 0,0 0.5,0.5 z" />
		<path fill="url(#center)" d="M0,-3 h6 v8 h-12 v-9 h6 z" />
		<rect width="7" height="1" x="-2" y="-2" fill="url(#label)" />
		<path fill="url(#label-end)" d="M-5,-3 h4 v2 l-1,1 h-3 z" />
		<path fill="url(#base)" d="M0,0 h5 v5 h-10 v-4 h4 l1,-1 z" />
		<rect width="12" height="1" x="-6" y="4" fill="#000" opacity="0.05" />
	</g>
	<g id="brush-icon" transform="translate(9,5)">
		<defs>
			<linearGradient id="backing" x1="0%" y1="0%" x2="0%" y2="100%">
				<stop offset="0%" stop-color="#dbc174" />
				<stop offset="100%" stop-color="#ae7b1a" />
			</linearGradient>
			<linearGradient id="center" x1="0%" y1="0%" x2="0%" y2="100%">
				<stop offset="0%" stop-color="#f3e8be" />
				<stop offset="100%" stop-color="#f8e87e" />
			</linearGradient>
			<linearGradient id="brush" x1="0%" y1="0%" x2="0%" y2="100%">
				<stop offset="0%" stop-color="#c4ab5d" />
				<stop offset="100%" stop-color="#ae7b1a" />
			</linearGradient>
		</defs>
		<g transform="rotate(-45)">
			<path fill="url(#backing)" d="M-0.25,-0.5 l6.5,0.5 c1.5,0.125 1.5,2.375 0,2.5 l-6.5,0.5" />
			<path fill="url(#center)" d="M0.5,0.5 h5.4 c1.5,0.125 1.5,0.655 0,0.75 h-5.4" />
			<path fill="url(#brush)" d="M-0.25,-1.5 v5.5 l-2,-1 h-1 l-5,1.5 v-6.5 l5,1.5 h1" />
			<path fill="url(#center)"
				d="M-1.25,-0 v2.5 l-1,-0.5 h-1 l-4,1.2 v-1 l1,-1 l-1,-1 v-1 l4,1.2 h1" />
			<rect fill="#dd6401" height="3.5" width="1" x="-3" y="-0.5" />
		</g>
	</g>
</svg>
