<?xml version="1.0" encoding="utf-8" standalone="yes"?>
<!DOCTYPE svg PUBLIC "-//W3C//DTD SVG 1.1//EN" "http://www.w3.org/Graphics/SVG/1.1/DTD/svg11.dtd">
<svg xmlns="http://www.w3.org/2000/svg" xmlns:xlink="http://www.w3.org/1999/xlink"
	width="16" height="16" version="1.1">
	<title>Folder Film</title>
	<desc>Folder Film Movie</desc>
	<g id="icon" transform="translate(7,10)">
		<defs>
			<linearGradient id="backing" x1="0%" y1="0%" x2="0%" y2="100%">
				<stop offset="0%" stop-color="#d9b434" />
				<stop offset="100%" stop-color="#d8862c" />
			</linearGradient>
			<linearGradient id="center" x1="0%" y1="0%" x2="100%" y2="100%">
				<stop offset="0%" stop-color="#ffffff" />
				<stop offset="100%" stop-color="#fbf2ca" />
			</linearGradient>
			<linearGradient id="label-end" x1="0%" y1="0%" x2="100%" y2="100%">
				<stop offset="0%" stop-color="#f8e48e" />
				<stop offset="100%" stop-color="#e9c173" />
			</linearGradient>
			<linearGradient id="label" x1="100%" y1="0%" x2="0%" y2="0%">
				<stop offset="0%" stop-color="#f8e48e" />
				<stop offset="100%" stop-color="#e9c173" />
			</linearGradient>
			<linearGradient id="base" x1="0%" y1="0%" x2="100%" y2="100%">
				<stop offset="0%" stop-color="#fcf2c8" />
				<stop offset="100%" stop-color="#f0cb26" />
			</linearGradient>
		</defs>
		<path fill="url(#backing)"
			d="M0,-4 h6 a1,1 0 0,1 1,1 v8 a1,1 0 0,1 -1,1 h-12 a1,1 0 0,1 -1,-1 v-9.5 a0.5,0.5 0 0,1 0.5,-0.5 h6  a0.5,0.5 0 0,1 0.5,0.5  a0.5,0.5 0 0,0 0.5,0.5 z" />
		<path fill="url(#center)" d="M0,-3 h6 v8 h-12 v-9 h6 z" />
		<rect width="7" height="1" x="-2" y="-2" fill="url(#label)" />
		<path fill="url(#label-end)" d="M-5,-3 h4 v2 l-1,1 h-3 z" />
		<path fill="url(#base)" d="M0,0 h5 v5 h-10 v-4 h4 l1,-1 z" />
		<g id="film" transform="translate(4,-4)">
			<defs>
				<linearGradient id="film-backing" x1="0%" y1="0%" x2="00%"
					y2="100%">
					<stop offset="0%" stop-color="#717171" />
					<stop offset="40%" stop-color="#515151" />
					<stop offset="80%" stop-color="#404040" />
					<stop offset="100%" stop-color="#050505" />
				</linearGradient>
				<linearGradient id="film-sky" x1="0%" y1="0%" x2="100%" y2="100%">
					<stop offset="0%" stop-color="#76c8ff" />
					<stop offset="50%" stop-color="#68beff" />
					<stop offset="80%" stop-color="#60b9ff" />
					<stop offset="100%" stop-color="#2e9cff" />
				</linearGradient>
				<linearGradient id="film-grass" x1="0%" y1="0%" x2="0%" y2="100%">
					<stop offset="0%" stop-color="#80da4f" />
					<stop offset="100%" stop-color="#9be26e" />
				</linearGradient>
				<linearGradient id="film-bush" x1="0%" y1="0%" x2="100%" y2="100%">
					<stop offset="0%" stop-color="#2bbe3f" />
					<stop offset="100%" stop-color="#6ad142" />
				</linearGradient>
				<linearGradient id="film-plague" x1="0%" y1="0%" x2="100%"
					y2="0%">
					<stop offset="0%" stop-color="#e8d462" />
					<stop offset="100%" stop-color="#e9d461" />
				</linearGradient>
				<mask id="film-grips">
					<rect width="16" height="16" x="-8" y="-8" fill="#ffffff" />
					<g id="film-side">
						<g id="film-dashes">
							<rect width="0.5" height="0.75" x="2.75" y="1" fill="#818181" />
							<rect width="0.5" height="0.75" x="2.75" y="3" fill="#5a5a5a" />
							<rect width="0.5" height="0.75" x="2.75" y="5" fill="#4d4d4d" />
						</g>
						<use xlink:href="#film-dashes" transform="scale(1,-1) translate(0,-1)" />
					</g>
					<use xlink:href="#film-side" transform="scale(-1,1) translate(1,0)" />
				</mask>
			</defs>
			<path fill="url(#film-backing)" mask="url(#film-grips)"
				d="M0,-5 h2 v-0.5 a0.5,0.5 0 0,1 0.5,-0.5 h1 a0.5,0.5 0 0,1 0.5,0.5 v12 a0.5,0.5 0 0,1 -0.5,0.5 h-1 a0.5,0.5 0 0,1 -0.5,-0.5 v-0.5 h-5 h0.5 a0.5,0.5 0 0,1 -0.5,0.5 h-1 a1,1 0 0,1 -0.5,-0.5 v-12 a1,1 0 0,1 0.5,-0.5 h1 a1,1 0 0,1 0.5,0.5 h0.5 h3 z" />
			<g id="picture" transform="translate(-0.5, 0.25) scale(0.833, 0.75)">
				<rect width="6" height="4" x="-3" y="1" fill="url(#film-sky)" />
				<path fill="#f8de60" d="M3,1 v2 a2,2 0 0,1 -2,-2" />
				<path fill="#fae78c" d="M3,1 v1 a1,1 0 0,1 -1,-1" />
				<rect width="6" height="1" x="-3" y="5" fill="url(#film-grass)" />
				<path fill="url(#film-bush)" d="M-3,2 c2.5,0 2.5,2 3.5,2 a1,1 0 0,1 1,1 l-4.5,0" />
				<path fill="#60cb70" d="M-3,2 a1.5,1.5 0 0,1 0,3" />
			</g>
			<use xlink:href="#picture" transform="translate(0,-5)" />
		</g>
		<defs>
			<linearGradient id="mask-grad" x1="0%" y1="0%" x2="100%" y2="0%">
				<stop offset="0%" stop-color="#fff" />
				<stop offset="100%" stop-color="#999" />
			</linearGradient>
			<mask id="Mask">
				<rect width="12" height="6" x="-6" y="-1" fill="url(#mask-grad)" />
			</mask>
		</defs>
		<path fill="url(#backing)"
			d="M-7,-4 v9 a1,1 0 0,0 1,1 h12 a1,1 0 0,0 1,-1 v-6 a1,1 0 0,0 -1,-1 h-7 l-1,1 h-4 v1 l4.5,0 l1,-1 l6.5,0 v6 h-12 v-9 " />
		<g id="folder-flap" mask="url(#Mask)">
			<path fill="url(#center)" d="M0,-1 h6 v6 h-12 v-5 l4.5,0 l1,-1 z" />
			<path fill="url(#base)" d="M0,0 h5 v5 h-10 v-4 h4 l1,-1 z" />
		</g>
		<rect width="12" height="1" x="-6" y="4" fill="#000" opacity="0.05" />
	</g>
</svg>
