<?xml version="1.0" encoding="utf-8" standalone="yes"?>
<!DOCTYPE svg PUBLIC "-//W3C//DTD SVG 1.1//EN" "http://www.w3.org/Graphics/SVG/1.1/DTD/svg11.dtd">
<svg xmlns="http://www.w3.org/2000/svg" xmlns:xlink="http://www.w3.org/1999/xlink"
	width="16" height="16" version="1.1">
	<title>Font Go</title>
	<desc>Font Go</desc>
	<g id="icon" transform="translate(6,7)">
		<defs>
			<linearGradient id="backing" x1="0%" y1="0%" x2="100%" y2="100%">
				<stop offset="0%" stop-color="#438bd8" />
				<stop offset="100%" stop-color="#3155c6" />
			</linearGradient>
			<linearGradient id="center" x1="0%" y1="0%" x2="100%" y2="100%">
				<stop offset="0%" stop-color="#91bce9" />
				<stop offset="100%" stop-color="#6b96dc" />
			</linearGradient>
		</defs>
		<path fill="url(#backing)"
			d="M1,-6 l4.5,0 v2 h-1 v7 a2,2 0 0,0 2,2 h-6 a2,2 0 0,0 2,-2 v-1 l-2.6666,0 l-0.6666,1 a2,2 0 0,0 2,2 h-7 a2.7,2.7 0 0,0 2,-1 l5,-8 h-1 v-2 h2 m0.333,4 l-2,3 h2 v-3 Z" />
		<path fill="url(#center)"
			d="M1,-5.5 h4 v1 h-1 v8 a1,1 0 0,0 1,1 h-3 a1,1 0 0,0 1,-1 v-7 l-4.3333,6.5 h0.5 a1,1 0 0,0 1,1 l-3.5,0 a2,2 0 0,0 1,-1 l4.8,-8 l-1.5,0 v-1 h2 Z" />
	</g>
	<g id="icon" transform="translate(11,11)">
		<defs>
			<linearGradient id="border_go" x1="0%" y1="0%" x2="100%" y2="100%">
				<stop offset="0%" stop-color="#6fa53d" />
				<stop offset="100%" stop-color="#1e7b03" />
			</linearGradient>
			<linearGradient id="inner_go" x1="0%" y1="0%" x2="100%" y2="100%">
				<stop offset="0%" stop-color="#b0ce96" />
				<stop offset="100%" stop-color="#96c180" />
			</linearGradient>
		</defs>
		<path fill="url(#border_go)"
			d="M-1,-2 v-2 h1 l4.5,4.5 l-4.5,4.5 h-1 v-2 h-4 v-5 Z" />
		<path fill="url(#inner_go)" d="M0,-1 v-1.5 l3,3 l-3,3 v-1.5 h-4 v-3 Z" />
		<path fill="#8eba6f" d="M0.5,0 v-0.5 l1,1 l-1,1 v-0.5 l-3.5,0 v-1 Z" />
	</g>
</svg>
