<?xml version="1.0" encoding="utf-8" standalone="yes"?>
<!DOCTYPE svg PUBLIC "-//W3C//DTD SVG 1.1//EN" "http://www.w3.org/Graphics/SVG/1.1/DTD/svg11.dtd">
<svg xmlns="http://www.w3.org/2000/svg" xmlns:xlink="http://www.w3.org/1999/xlink"
	width="16" height="16" version="1.1">
	<title>Font Disk</title>
	<desc>Font Disk Save</desc>
	<g id="icon" transform="translate(6,6)">
		<defs>
			<linearGradient id="font_backing" x1="0%" y1="0%" x2="100%"
				y2="100%">
				<stop offset="0%" stop-color="#438bd8" />
				<stop offset="100%" stop-color="#3155c6" />
			</linearGradient>
			<linearGradient id="font_center" x1="0%" y1="0%" x2="100%" y2="100%">
				<stop offset="0%" stop-color="#91bce9" />
				<stop offset="100%" stop-color="#6b96dc" />
			</linearGradient>
		</defs>
		<path fill="url(#font_backing)"
			d="M1,-6 l4.5,0 v2 h-1 v7 a2,2 0 0,0 2,2 h-6 a2,2 0 0,0 2,-2 v-1 l-2.6666,0 l-0.6666,1 a2,2 0 0,0 2,2 h-7 a2.7,2.7 0 0,0 2,-1 l5,-8 h-1 v-2 h2 m0.333,4 l-2,3 h2 v-3 Z" />
		<path fill="url(#font_center)"
			d="M1,-5.5 h4 v1 h-1 v8 a1,1 0 0,0 1,1 h-3 a1,1 0 0,0 1,-1 v-7 l-4.3333,6.5 h0.5 a1,1 0 0,0 1,1 l-3.5,0 a2,2 0 0,0 1,-1 l4.8,-8 l-1.5,0 v-1 h2 Z" />
		<g id="save" transform="translate(6,5)">
			<defs>
				<linearGradient id="backing_disk" x1="0%" y1="0%" x2="0%" y2="100%">
					<stop offset="0%" stop-color="#6e97d4" />
					<stop offset="100%" stop-color="#5884c3" />
				</linearGradient>
				<linearGradient id="center_disk" x1="0%" y1="0%" x2="100%"
					y2="100%">
					<stop offset="0%" stop-color="#b0cdf3" />
					<stop offset="100%" stop-color="#85a2dd" />
				</linearGradient>
				<linearGradient id="label_disk" x1="0%" y1="0%" x2="100%" y2="0%">
					<stop offset="0%" stop-color="#a8d782" />
					<stop offset="100%" stop-color="#d7f4a2" />
				</linearGradient>
			</defs>
			<path fill="url(#backing_disk)"
				d="M0,-5 h-5 a1,1 0 0,0 -1,1 v8 a1,1 0 0,0 1,1 h8 a1,1 0 0,0 1,-1 v-7 l-2,-2  z" />
			<rect x="-5" y="-4" width="8" height="8" fill="url(#center_disk)" />
			<rect x="-4" y="-4" width="6" height="3" fill="#fff" />
			<rect x="-3" y="-4" width="1" height="2" fill="url(#center_disk)" />
			<rect x="-4" y="1" width="6" height="3" fill="#fff" />
			<rect id="label_disk_part" x="-3" y="2" width="2" height="2"
				fill="url(#label_disk)" />
			<use xlink:href="#label_disk_part" transform="rotate(180) translate(2,-6)" />
			<rect x="-6" y="-3" width="10" height="6" fill="#000"
				opacity="0.05" />
		</g>
	</g>
</svg>