<?xml version="1.0" encoding="utf-8" standalone="yes"?>
<!DOCTYPE svg PUBLIC "-//W3C//DTD SVG 1.1//EN" "http://www.w3.org/Graphics/SVG/1.1/DTD/svg11.dtd">
<svg xmlns="http://www.w3.org/2000/svg" xmlns:xlink="http://www.w3.org/1999/xlink"
	width="16" height="16" version="1.1">
	<title>Google</title>
	<desc>Google</desc>
	<g id="icon" transform="translate(8,8)">
		<defs>
			<linearGradient id="backing-blue" x1="0%" y1="0%" x2="100%"
				y2="100%">
				<stop offset="0%" stop-color="#4783c1" />
				<stop offset="100%" stop-color="#2a5ea2" />
			</linearGradient>
			<linearGradient id="inner-blue" x1="0%" y1="0%" x2="100%" y2="100%">
				<stop offset="0%" stop-color="#a8d1e5" />
				<stop offset="100%" stop-color="#9dc4dd" />
			</linearGradient>
			<linearGradient id="center-blue" x1="0%" y1="0%" x2="100%" y2="100%">
				<stop offset="0%" stop-color="#6fb2d3" />
				<stop offset="100%" stop-color="#5693c3" />
			</linearGradient>
			<linearGradient id="backing-red" x1="0%" y1="0%" x2="100%" y2="100%">
				<stop offset="0%" stop-color="#fc6d6b" />
				<stop offset="100%" stop-color="#ef2a31" />
			</linearGradient>
			<linearGradient id="inner-red" x1="0%" y1="0%" x2="100%" y2="100%">
				<stop offset="0%" stop-color="#ffbbbb" />
				<stop offset="100%" stop-color="#fc9797" />
			</linearGradient>
			<linearGradient id="center-red" x1="0%" y1="0%" x2="100%" y2="100%">
				<stop offset="0%" stop-color="#f85252" />
				<stop offset="100%" stop-color="#ea2d2d" />
			</linearGradient>
			<linearGradient id="backing-green" x1="0%" y1="0%" x2="100%"
				y2="100%">
				<stop offset="0%" stop-color="#6bbc60" />
				<stop offset="100%" stop-color="#377b31" />
			</linearGradient>
			<linearGradient id="inner-green" x1="0%" y1="0%" x2="100%" y2="100%">
				<stop offset="0%" stop-color="#b5e5a9" />
				<stop offset="100%" stop-color="#a8de9d" />
			</linearGradient>
			<linearGradient id="center-green" x1="0%" y1="0%" x2="100%"
				y2="100%">
				<stop offset="0%" stop-color="#83d36f" />
				<stop offset="100%" stop-color="#66c357" />
			</linearGradient>
			<linearGradient id="backing-yellow" x1="0%" y1="0%" x2="100%"
				y2="100%">
				<stop offset="0%" stop-color="#f8ca41" />
				<stop offset="50%" stop-color="#ecba39" />
				<stop offset="100%" stop-color="#bd5b00" />
			</linearGradient>
			<linearGradient id="inner-yellow" x1="0%" y1="0%" x2="100%"
				y2="100%">
				<stop offset="0%" stop-color="#fdf6dd" />
				<stop offset="100%" stop-color="#fbe59a" />
			</linearGradient>
			<linearGradient id="center-yellow" x1="0%" y1="0%" x2="100%"
				y2="100%">
				<stop offset="0%" stop-color="#f8e7ac" />
				<stop offset="100%" stop-color="#f1cc50" />
			</linearGradient>
			<mask id="blue-mask">
				<rect width="16" height="16" x="-8" y="-8" fill="#fff" />
				<rect width="1" height="1" x="6" y="-7" fill="#000" />
			</mask>
			<mask id="red-mask">
				<rect width="16" height="16" x="-8" y="-8" fill="#fff" />
				<path id="blue-shape" d="M-1,-7 l2,3 l-3,4 v1.5 l-5,1.5 v-10" fill="#000" />
				<rect width="1" height="1" x="6" y="6" fill="#000" />
			</mask>
			<mask id="green-mask">
				<rect width="16" height="16" x="-8" y="-8" fill="#fff" />
				<use xlink:href="#blue-shape" />
				<path id="green-shape" d="M-1,-7 h8 v5 a5,5 0 0,0 -7,0" fill="#000" />
			</mask>
			<mask id="yellow-mask">
				<rect width="16" height="16" x="-8" y="-8" fill="#fff" />
				<use xlink:href="#blue-shape" />
				<use xlink:href="#green-shape" />
				<path d="M7,-3 v10 h-8 l2,-1 v-2 l-3,-3 v-3 l2,-2" fill="#000" />
			</mask>
		</defs>
		<g mask="url(#blue-mask)">
			<rect width="14" height="14" x="-7" y="-7" rx="1" ry="1"
				fill="url(#backing-blue)" />
			<rect width="12" height="12" x="-6" y="-6" fill="url(#inner-blue)" />
			<rect width="10" height="10" x="-5" y="-5" fill="url(#center-blue)" />
		</g>
		<g mask="url(#red-mask)">
			<rect width="14" height="14" x="-7" y="-7" rx="1" ry="1" fill="url(#backing-red)" />
			<rect width="12" height="12" x="-6" y="-6" fill="url(#inner-red)" />
			<rect width="10" height="10" x="-5" y="-5" fill="url(#center-red)" />
		</g>
		<g mask="url(#green-mask)">
			<rect width="14" height="14" x="-7" y="-7" rx="1" ry="1"
				fill="url(#backing-green)" />
			<rect width="12" height="12" x="-6" y="-6" fill="url(#inner-green)" />
			<rect width="10" height="10" x="-5" y="-5" fill="url(#center-green)" />
		</g>
		<g mask="url(#yellow-mask)">
			<rect width="14" height="14" x="-7" y="-7" rx="1" ry="1"
				fill="url(#backing-yellow)" />
			<rect width="12" height="12" x="-6" y="-6" fill="url(#inner-yellow)" />
			<rect width="10" height="10" x="-5" y="-5" fill="url(#center-yellow)" />
		</g>
		<path fill="#fff" transform="translate(-7.5,1.5) scale(0.021,-0.021)"
			d="M349 417Q358 410 370 399T393 371T412 332T420 282Q420 254 413 233T394 196T367 166T336 140Q326 130 317 119T308 91Q308 74 317 65T334 48L370 20Q386 6 401 -8T428 -38T447 -74T454 -120Q454 -155
437 -189T387 -249T305 -292T191 -309Q137 -309 97 -297T29 -265T-11 -220T-24 -166Q-24 -139 -8 -105T53 -44Q76 -30 102 -22T155 -8T204 -1T244 2Q233 16 224 31T214 70Q214 83 217 91T224 109Q216 108 208 108T192 107Q152 107 121 120T69 156T37 206T26 264Q26
299 42 334T90 398Q133 433 180 443T269 453H475L411 417H349ZM239 135Q258 135 276 143T307 163Q324 180 328 201T332 236Q332 263 324 295T300 355T261 401T206 420Q186 420 167 411T136 387Q123 371 119 352T114 313Q114 288 121 257T144 199T183 154T239 135ZM387
-159Q387 -140 381 -125T361 -94T327 -63T278 -27Q272 -26 268 -26T255 -26Q252 -26 241 -26T215 -28T183 -33T150 -42Q142 -45 128 -51T99 -70T75 -100T64 -145Q64 -199 111 -233T240 -267Q312 -267 349 -237T387 -159Z" />
	</g>
</svg>
