<?xml version="1.0" encoding="utf-8" standalone="yes"?>
<!DOCTYPE svg PUBLIC "-//W3C//DTD SVG 1.1//EN" "http://www.w3.org/Graphics/SVG/1.1/DTD/svg11.dtd">
<svg xmlns="http://www.w3.org/2000/svg" xmlns:xlink="http://www.w3.org/1999/xlink"
	width="16" height="16" version="1.1">
	<title>Group Link</title>
	<desc>Group Link</desc>
	<g id="icon" transform="translate(8,8)">
		<defs>
			<linearGradient id="user1-backing" x1="0%" y1="0%" x2="100%"
				y2="100%">
				<stop offset="0%" stop-color="#1c48bc" />
				<stop offset="100%" stop-color="#1f3d9f" />
			</linearGradient>
			<linearGradient id="user1-in-border" x1="0%" y1="0%" x2="0%"
				y2="100%">
				<stop offset="0%" stop-color="#fff" />
				<stop offset="50%" stop-color="#d6e4f6" />
				<stop offset="100%" stop-color="#61b9fe" />
			</linearGradient>
			<linearGradient id="user1-center" x1="0%" y1="0%" x2="100%"
				y2="100%">
				<stop offset="0%" stop-color="#6dc7fe" />
				<stop offset="50%" stop-color="#64b9fe" />
				<stop offset="100%" stop-color="#438dff" />
			</linearGradient>
			<linearGradient id="user1-hair" x1="0%" y1="0%" x2="100%" y2="100%">
				<stop offset="0%" stop-color="#9b5812" />
				<stop offset="100%" stop-color="#5c330f" />
			</linearGradient>
			<linearGradient id="user2-backing" x1="0%" y1="0%" x2="100%"
				y2="100%">
				<stop offset="0%" stop-color="#5d9437" />
				<stop offset="100%" stop-color="#538a2d" />
			</linearGradient>
			<linearGradient id="user2-in-border" x1="0%" y1="0%" x2="0%"
				y2="100%">
				<stop offset="0%" stop-color="#fff" />
				<stop offset="50%" stop-color="#c8f5b3" />
				<stop offset="100%" stop-color="#8ac163" />
			</linearGradient>
			<linearGradient id="user2-center" x1="0%" y1="0%" x2="100%"
				y2="100%">
				<stop offset="20%" stop-color="#b8ef91" />
				<stop offset="50%" stop-color="#8bc264" />
				<stop offset="100%" stop-color="#70a749" />
			</linearGradient>
			<linearGradient id="user2-hair" x1="0%" y1="0%" x2="100%" y2="100%">
				<stop offset="0%" stop-color="#e5b528" />
				<stop offset="100%" stop-color="#ed9f1c" />
			</linearGradient>
			<linearGradient id="user-head" x1="0%" y1="0%" x2="100%" y2="100%">
				<stop offset="0%" stop-color="#9b5e1f" />
				<stop offset="50%" stop-color="#94591c" />
				<stop offset="100%" stop-color="#ae7434" />
			</linearGradient>
			<linearGradient id="user-head-in" x1="0%" y1="0%" x2="100%"
				y2="100%">
				<stop offset="0%" stop-color="#e4b78a" />
				<stop offset="50%" stop-color="#e5bb8e" />
				<stop offset="100%" stop-color="#f6cfa5" />
			</linearGradient>
			<linearGradient id="user-hand-fill" x1="0%" y1="0%" x2="100%"
				y2="100%">
				<stop offset="0%" stop-color="#c77429" />
				<stop offset="100%" stop-color="#ce7e2e" />
			</linearGradient>
		</defs>
		<linearGradient id="user-hand-in-fill" x1="0%" y1="0%" x2="100%"
			y2="100%">
			<stop offset="0%" stop-color="#edb87e" />
			<stop offset="100%" stop-color="#efbc83" />
		</linearGradient>
		<g transform="translate(3,-2)">
			<path fill="url(#user2-backing)" d="M-5.75,2 a5.25,3 0 0,0 10.5,0 l-5.25,-5.25 l-5.25,5.25 " />
			<path fill="url(#user2-in-border)" d="M-4.5,2 a4,2 0 0,0 8,0 l-4,-4 l-4,4 " />
			<path fill="url(#user2-center)" d="M-3.25,2 a2.25,1 0 0,0 5.5,0 l-2.75,-2.75 l-2.75,2.75 " />
			<circle r="3.5" cy="-2.5" cx="-0.5" fill="url(#user-head)" />
			<circle r="2.5" cy="-2.5" cx="-0.5" fill="url(#user-head-in)" />
			<path fill="url(#user2-hair)"
				d="M-4,-2.5 a3.5,3.5 0 0,1 7,0 c-1.75,0 -3.5,0 -3.5,-0.875 c0,-0.875 -3.5,0 -3.5,0.875 " />
			<use xlink:href="#user-hand" />
			<use xlink:href="#user-hand" transform="scale(-1,1) translate(1,0)" />
		</g>
		<g transform="translate(-2,3)">
			<path fill="url(#user1-backing)" d="M-5.75,2 a5.25,3 0 0,0 10.5,0 l-5.25,-5.25 l-5.25,5.25 " />
			<path fill="url(#user1-in-border)" d="M-4.5,2 a4,2 0 0,0 8,0 l-4,-4 l-4,4 " />
			<path fill="url(#user1-center)" d="M-3.25,2 a2.25,1 0 0,0 5.5,0 l-2.75,-2.75 l-2.75,2.75 " />
			<circle r="3.5" cy="-2.5" cx="-0.5" fill="url(#user-head)" />
			<circle r="2.5" cy="-2.5" cx="-0.5" fill="url(#user-head-in)" />
			<path fill="url(#user1-hair)"
				d="M-4,-2.5 a3.5,3.5 0 0,1 7,0 c-1.75,0 -3.5,0 -3.5,-0.875 c0,-0.875 -3.5,0 -3.5,0.875 " />
			<g id="user-hand">
				<path fill="url(#user-hand-fill)"
					d="M3.5,2 l1.5,0 v1.25 a1,1 0 0,1 -1,1 l-0.5,0 a0.5,0.5 0 0,1 -0.5,-0.5 v-1.25 a0.5,0.5 0 0,1 0.5,-0.5" />
				<rect fill="url(#user-hand-in-fill)" width="1" height="1" rx="0.25" ry="0.25"
					x="3" y="2" />
			</g>
			<use xlink:href="#user-hand" transform="scale(-1,1) translate(1,0)" />
		</g>
		<g id="link-icon" transform="translate(1.5,4)">
			<defs>
				<linearGradient id="link-border" x1="0%" y1="0%" x2="100%"
					y2="0%">
					<stop offset="0%" stop-color="#858585" />
					<stop offset="100%" stop-color="#4a4a4a" />
				</linearGradient>
				<linearGradient id="link-inner" x1="0%" y1="0%" x2="100%" y2="0%">
					<stop offset="0%" stop-color="#dddddd" />
					<stop offset="100%" stop-color="#aeaeae" />
				</linearGradient>
				<radialGradient id="link-center-link" cx="50%" cy="0%" r="70%">
					<stop offset="0%" stop-color="#929292" />
					<stop offset="100%" stop-color="#414141" />
				</radialGradient>
				<radialGradient id="link-center-link-center" cx="50%" cy="50%"
					r="70%">
					<stop offset="0%" stop-color="#cecece" />
					<stop offset="100%" stop-color="#bdbdbd" />
				</radialGradient>
			</defs>
			<g id="link">
				<path fill="url(#link-border)"
					d="M-1.5,-3 l-1.5,0 a3.5,3.5 0 0,0 0,7 l1.5,0 a1.5,1.5 0 0,0 0,-3 h-2 a0.5,0.5 0 0,1 0,-1 h2 a1.5,1.5 0 0,0 0,-3   Z" />
				<path fill="url(#link-inner)"
					d="M-1.5,-2 l-1.5,0 a2.5,2.5 0 0,0 0,5 l1.5,0 a0.5,0.5 0 0,0 0,-1 l-1.5,0 a1.5,1.5 0 0,1 0,-3 l1.5,0 a0.5,0.5 0 0,0 0,-1 Z" />
			</g>
			<use xlink:href="#link" transform="rotate(180) translate(0,-1)" />
			<rect width="6" height="3" x="-3.25" y="-1" fill="url(#link-center-link)" />
			<rect width="4" height="1" x="-2.25" y="-0" fill="url(#link-center-link-center)" />
		</g>
	</g>
</svg>
