<?xml version="1.0" encoding="utf-8" standalone="yes"?>
<!DOCTYPE svg PUBLIC "-//W3C//DTD SVG 1.1//EN" "http://www.w3.org/Graphics/SVG/1.1/DTD/svg11.dtd">
<svg xmlns="http://www.w3.org/2000/svg" xmlns:xlink="http://www.w3.org/1999/xlink"
	width="16" height="16" version="1.1">
	<title>Help Go</title>
	<desc>Help Go</desc>
	<g id="icon" transform="translate(8,8)">
		<defs>
			<linearGradient id="backing" x1="0%" y1="0%" x2="100%" y2="0%">
				<stop offset="0%" stop-color="#bed7f6" />
				<stop offset="100%" stop-color="#3769a5" />
			</linearGradient>
			<linearGradient id="in-border" x1="0%" y1="0%" x2="100%" y2="0%">
				<stop offset="0%" stop-color="#dae5f3" />
				<stop offset="100%" stop-color="#d1e0ec" />
			</linearGradient>
			<linearGradient id="center" x1="0%" y1="0%" x2="100%" y2="0%">
				<stop offset="0%" stop-color="#7ea8d5" />
				<stop offset="100%" stop-color="#6187b2" />
			</linearGradient>
		</defs>
		<circle id="back" r="7" transform="rotate(45)" fill="url(#backing)" />
		<circle id="round" r="6" transform="rotate(45)" fill="url(#in-border)" />
		<circle id="round" r="5" fill="url(#center)" />
		<path fill="#ffffff"
			d="M-1,0.5 h0.5 h2 v-0.5 a2.3,2.3 0 1,0 -3,-3 v1  a0.5,0.5 0 1,0 1,0  a1,1 0 0,1 1,-1 a1,1 0 0,1 1,1 a1,1 0 0,1 -1,1 a1,1 0 0,0 -1,1 z" />
		<rect width="2" height="1.5" x="-1" y="2" fill="#ffffff" />
		<g id="go" transform="translate(3,3)">
			<defs>
				<linearGradient id="border_go" x1="0%" y1="0%" x2="100%" y2="100%">
					<stop offset="0%" stop-color="#6fa53d" />
					<stop offset="100%" stop-color="#1e7b03" />
				</linearGradient>
				<linearGradient id="inner_go" x1="0%" y1="0%" x2="100%" y2="100%">
					<stop offset="0%" stop-color="#b0ce96" />
					<stop offset="100%" stop-color="#96c180" />
				</linearGradient>
			</defs>
			<path fill="url(#border_go)"
				d="M-1,-2 v-2 h1 l4.5,4.5 l-4.5,4.5 h-1 v-2 h-4 v-5 Z" />
			<path fill="url(#inner_go)" d="M0,-1 v-1.5 l3,3 l-3,3 v-1.5 h-4 v-3 Z" />
			<path fill="#8eba6f" d="M0.5,0 v-0.5 l1,1 l-1,1 v-0.5 l-3.5,0 v-1 Z" />
		</g>
	</g>
</svg>
