<?xml version="1.0" encoding="utf-8" standalone="yes"?>
<!DOCTYPE svg PUBLIC "-//W3C//DTD SVG 1.1//EN" "http://www.w3.org/Graphics/SVG/1.1/DTD/svg11.dtd">
<svg xmlns="http://www.w3.org/2000/svg" xmlns:xlink="http://www.w3.org/1999/xlink"
	width="16" height="16" version="1.1">
	<title>House Add</title>
	<desc>House Home Add</desc>
	<g id="icon" transform="translate(8,8)">
		<defs>
			<linearGradient id="backing" x1="0%" y1="0%" x2="100%" y2="100%">
				<stop offset="0%" stop-color="#bbb" />
				<stop offset="100%" stop-color="#555" />
			</linearGradient>
			<linearGradient id="center" x1="0%" y1="0%" x2="100%" y2="100%">
				<stop offset="0%" stop-color="#eee" />
				<stop offset="100%" stop-color="#fff" />
			</linearGradient>
			<linearGradient id="door" x1="0%" y1="0%" x2="100%" y2="100%">
				<stop offset="0%" stop-color="#777" />
				<stop offset="100%" stop-color="#999" />
			</linearGradient>
			<linearGradient id="door-inner" x1="0%" y1="0%" x2="100%" y2="100%">
				<stop offset="0%" stop-color="#999" />
				<stop offset="100%" stop-color="#aaa" />
			</linearGradient>
			<linearGradient id="roof" x1="0%" y1="0%" x2="100%" y2="100%">
				<stop offset="0%" stop-color="#b87931" />
				<stop offset="100%" stop-color="#793e25" />
			</linearGradient>
			<linearGradient id="top" x1="0%" y1="0%" x2="100%" y2="100%">
				<stop offset="0%" stop-color="#d3ad76" />
				<stop offset="100%" stop-color="#b18c5c" />
			</linearGradient>
			<linearGradient id="bush" x1="0%" y1="0%" x2="100%" y2="100%">
				<stop offset="0%" stop-color="#a8d6a1" />
				<stop offset="100%" stop-color="#246321" />
			</linearGradient>
			<linearGradient id="bush-inner" x1="0%" y1="0%" x2="100%" y2="100%">
				<stop offset="0%" stop-color="#8fca84" />
				<stop offset="100%" stop-color="#80c174" />
			</linearGradient>
		</defs>
		<path fill="url(#backing)" d="M-5,7 h10 v-7 l-5,-5 l-5,5 v7 z" />
		<path fill="url(#center)" d="M-4,6 h8 v-7 l-4,-4 l-4,4 v7 z" />
		<rect width="4" height="6" x="-2" y="1" fill="url(#door)" />
		<rect width="2" height="4" x="-1" y="2" fill="url(#door-inner)" />
		<path fill="url(#roof)"
			d="M-5.5,2 l-2.5,-2.5 l6.5,-6.5 h3 l6.5,6.5 l-2.5,2.5 l-5.5,-5.5 l-5.5,5.5 z" />
		<path fill="url(#top)"
			d="M-5.5,1 l-1.5,-1.5 l5.5,-5.5 h3 l5.5,5.5 l-1.5,1.5 l-5.5,-5.5 l-5.5,5.5 z" />
		<g id="bushs">
			<path fill="url(#bush)"
				d="M3.5,7 h4 a0.5,0.5 0 0,0 0.5,-0.5 v-0.5 a0.5,0.5 0 0,0 -0.5,-0.5 a1,1 0 0,1 -1,-1 a0.5,0.5 0 0,0 -0.5,-0.5 l-1.5,0 a0.5,0.5 0 0,0 -0.5,0.5 a0.5,0.5 0 0,1 -0.5,0.5 a0.5,0.5 0 0,0 -0.5,0.5 v1 a0.5,0.5 0 0,0 0.5,0.5 z" />
			<path fill="url(#bush-inner)"
				d="M4,6.5 l2.5,0 a0.5,0.5 0 0,0 0.5,-0.5 a0.5,0.5 0 0,0 -0.5,-0.5 a0.5,0.5 0 0,1 -0.5,-0.5 a0.5,0.5 0 0,0 -0.5,-0.5 l-0.5,0 a0.5,0.5 0 0,0 -0.5,0.5 a0.5,0.5 0 0,1 -0.5,0.5 a0.5,0.5 0 0,0 -0.5,0.5 a0.5,0.5 0 0,0 0.5,0.5 z" />
		</g>
		<use xlink:href="#bushs" transform="scale(-1, 1)" />
		<g id="add" transform="translate(4.5,4.5)">
			<defs>
				<linearGradient id="backing_add" x1="0%" y1="0%" x2="100%"
					y2="100%">
					<stop offset="0%" stop-color="#6e9458" />
					<stop offset="100%" stop-color="#376b19" />
				</linearGradient>
				<linearGradient id="center_add" x1="0%" y1="0%" x2="100%" y2="100%">
					<stop offset="0%" stop-color="#b1d390" />
					<stop offset="100%" stop-color="#8fbc67" />
				</linearGradient>
			</defs>
			<circle id="back" r="3.5" fill="url(#backing_add)" />
			<circle id="center-dot" r="2.5" fill="url(#center_add)" />
			<path fill="#fff"
				d="M-0.5,-0.5 v-1 h1 v1 h1 v1 h-1 v1 h-1 v-1 h-1 v-1 h1 z " />
		</g>
	</g>
</svg>
