<?xml version="1.0" encoding="utf-8" standalone="yes"?>
<!DOCTYPE svg PUBLIC "-//W3C//DTD SVG 1.1//EN" "http://www.w3.org/Graphics/SVG/1.1/DTD/svg11.dtd">
<svg xmlns="http://www.w3.org/2000/svg" xmlns:xlink="http://www.w3.org/1999/xlink"
	width="16" height="16" version="1.1">
	<title>Images</title>
	<desc>Images</desc>
	<g id="icon" transform="translate(8,8)">
		<defs>
			<linearGradient id="image-backing" x1="0%" y1="0%" x2="100%"
				y2="100%">
				<stop offset="0%" stop-color="#5877ab" />
				<stop offset="50%" stop-color="#3a64a6" />
				<stop offset="100%" stop-color="#4a70aa" />
			</linearGradient>
			<linearGradient id="image-inner" x1="0%" y1="0%" x2="100%" y2="100%">
				<stop offset="0%" stop-color="#f2f3f3" />
				<stop offset="100%" stop-color="#eaeef1" />
			</linearGradient>
			<linearGradient id="image-center" x1="0%" y1="0%" x2="0%" y2="100%">
				<stop offset="0%" stop-color="#addcf2" />
				<stop offset="100%" stop-color="#d7e8fe" />
			</linearGradient>
			<linearGradient id="image-hill" x1="0%" y1="0%" x2="0%" y2="100%">
				<stop offset="0%" stop-color="#83bae4" />
				<stop offset="50%" stop-color="#75ade5" />
			</linearGradient>
			<linearGradient id="image-center2" x1="0%" y1="0%" x2="0%" y2="100%">
				<stop offset="0%" stop-color="#a0d192" />
				<stop offset="100%" stop-color="#9dca8e" />
			</linearGradient>
			<linearGradient id="image-hill2" x1="0%" y1="0%" x2="0%" y2="100%">
				<stop offset="0%" stop-color="#65b55d" />
				<stop offset="50%" stop-color="#5ea257" />
			</linearGradient>
			<linearGradient id="image-center1" x1="0%" y1="0%" x2="0%" y2="100%">
				<stop offset="0%" stop-color="#ffb7c4" />
				<stop offset="30%" stop-color="#ffc6cf" />
				<stop offset="100%" stop-color="#ffc6cf" />
			</linearGradient>
			<linearGradient id="image-hill1" x1="0%" y1="0%" x2="0%" y2="100%">
				<stop offset="0%" stop-color="#dd7e89" />
				<stop offset="30%" stop-color="#e58691" />
				<stop offset="100%" stop-color="#e58f9a" />
			</linearGradient>
		</defs>
		<g transform="translate(-3,-5)">
			<rect width="10" height="11" x="-5" y="-3" rx="1" ry="1"
				fill="url(#image-backing)" />
			<rect width="8" height="9" x="-4" y="-2" fill="url(#image-inner)" />
			<rect width="6" height="6" x="-3" y="-1" fill="url(#image-center2)" />
			<path fill="url(#image-hill2)" d="M-3,2 v3 h6 v-3" />
			<rect width="1" height="6" x="-3" y="-1" fill="#000" opacity="0.3" />
			<rect width="6" height="1" x="-3" y="-1" fill="#000" opacity="0.3" />
			<rect width="1" height="6" x="2" y="-1" fill="#000" opacity="0.3" />
			<rect width="6" height="1" x="-3" y="4" fill="#000" opacity="0.3" />
			<rect width="6" height="1" x="-3" y="5" fill="#d7e8fe" />
		</g>
		<g transform="translate(3,-3)">
			<rect width="10" height="11" x="-5" y="-3" rx="1" ry="1"
				fill="url(#image-backing)" />
			<rect width="8" height="9" x="-4" y="-2" fill="url(#image-inner)" />
			<rect width="6" height="6" x="-3" y="-1" fill="url(#image-center1)" />
			<path fill="url(#image-hill1)" d="M-3,2 v3 h6 v-3" />
			<rect width="1" height="6" x="-3" y="-1" fill="#000" opacity="0.3" />
			<rect width="6" height="1" x="-3" y="-1" fill="#000" opacity="0.3" />
			<rect width="1" height="6" x="2" y="-1" fill="#000" opacity="0.3" />
			<rect width="6" height="1" x="-3" y="4" fill="#000" opacity="0.3" />
			<rect width="6" height="1" x="-3" y="5" fill="#d7e8fe" />
		</g>
		<g>
			<rect width="10" height="11" x="-5" y="-3" rx="1" ry="1"
				fill="url(#image-backing)" />
			<rect width="8" height="9" x="-4" y="-2" fill="url(#image-inner)" />
			<rect width="6" height="6" x="-3" y="-1" fill="url(#image-center)" />
			<path fill="url(#image-hill)" d="M-3,2 v3 h6 v-3" />
			<rect width="1" height="6" x="-3" y="-1" fill="#000" opacity="0.3" />
			<rect width="6" height="1" x="-3" y="-1" fill="#000" opacity="0.3" />
			<rect width="1" height="6" x="2" y="-1" fill="#000" opacity="0.3" />
			<rect width="6" height="1" x="-3" y="4" fill="#000" opacity="0.3" />
			<rect width="6" height="1" x="-3" y="5" fill="#d7e8fe" />
		</g>
	</g>
</svg>
