<?xml version="1.0" encoding="utf-8" standalone="yes"?>
<!DOCTYPE svg PUBLIC "-//W3C//DTD SVG 1.1//EN" "http://www.w3.org/Graphics/SVG/1.1/DTD/svg11.dtd">
<svg xmlns="http://www.w3.org/2000/svg" xmlns:xlink="http://www.w3.org/1999/xlink"
	width="16" height="16" version="1.1">
	<title>Inbox Images</title>
	<desc>Inbox Images</desc>
	<g id="icon" transform="translate(8,9)">
		<defs>
			<linearGradient id="backing" x1="0%" y1="0%" x2="100%" y2="100%">
				<stop offset="0%" stop-color="#96621f" />
				<stop offset="100%" stop-color="#774c15" />
			</linearGradient>
			<linearGradient id="in-border" x1="0%" y1="0%" x2="100%" y2="100%">
				<stop offset="0%" stop-color="#eecc8f" />
				<stop offset="100%" stop-color="#da9874" />
			</linearGradient>
			<linearGradient id="center" x1="0%" y1="0%" x2="100%" y2="100%">
				<stop offset="0%" stop-color="#ebb865" />
				<stop offset="100%" stop-color="#c86530" />
			</linearGradient>
			<linearGradient id="top" x1="0%" y1="0%" x2="100%" y2="100%">
				<stop offset="0%" stop-color="#bc9360" />
				<stop offset="100%" stop-color="#b08e67" />
			</linearGradient>
			<linearGradient id="inner" x1="0%" y1="0%" x2="100%" y2="100%">
				<stop offset="0%" stop-color="#a66f2b" />
				<stop offset="100%" stop-color="#7a4c12" />
			</linearGradient>
		</defs>
		<path fill="url(#backing)"
			d="M0,-6 h5 l3,5 v6 a1,1 0 0,1 -1,1 h-14 a1,1 0 0,1 -1,-1 v-6 l3,-5 z" />
		<path fill="url(#in-border)" d="M-7,0 v-0.4 l2.8,-4.6 l8.4,0 l2.8,4.6 h0.4z" />
		<path fill="url(#center)" d="M-6,0 l2.4,-4 l7.2,0 l2.4,4 v2 h-10 z" />
		<rect fill="url(#inner)" width="6" height="3" x="-3" y="-4" opacity="0.2" />
		<path fill="url(#inner)" opacity="0.7"
			d="M-3,-4 l-0.6,0 l-0.4,0.6 v3.4 l2,2 h4 l2,-2 v-3.4 l-0.4,-0.6 l-0.6,0 v3.4 l-1.6,1.6 l-2.8,0 l-1.6,-1.6" />
	<g id="icon" transform="translate(-1,-3)">
		<defs>
			<linearGradient id="image-backing" x1="0%" y1="0%" x2="100%"
				y2="100%">
				<stop offset="0%" stop-color="#5877ab" />
				<stop offset="50%" stop-color="#3a64a6" />
				<stop offset="100%" stop-color="#4a70aa" />
			</linearGradient>
			<linearGradient id="image-inner" x1="0%" y1="0%" x2="100%" y2="100%">
				<stop offset="0%" stop-color="#f2f3f3" />
				<stop offset="100%" stop-color="#eaeef1" />
			</linearGradient>
			<linearGradient id="image-center" x1="0%" y1="0%" x2="0%" y2="100%">
				<stop offset="0%" stop-color="#addcf2" />
				<stop offset="100%" stop-color="#d7e8fe" />
			</linearGradient>
			<linearGradient id="image-hill" x1="0%" y1="0%" x2="0%" y2="100%">
				<stop offset="0%" stop-color="#83bae4" />
				<stop offset="50%" stop-color="#75ade5" />
			</linearGradient>
			<linearGradient id="image-center2" x1="0%" y1="0%" x2="0%" y2="100%">
				<stop offset="0%" stop-color="#a0d192" />
				<stop offset="100%" stop-color="#9dca8e" />
			</linearGradient>
			<linearGradient id="image-hill2" x1="0%" y1="0%" x2="0%" y2="100%">
				<stop offset="0%" stop-color="#65b55d" />
				<stop offset="50%" stop-color="#5ea257" />
			</linearGradient>
			<linearGradient id="image-center1" x1="0%" y1="0%" x2="0%" y2="100%">
				<stop offset="0%" stop-color="#ffb7c4" />
				<stop offset="30%" stop-color="#ffc6cf" />
				<stop offset="100%" stop-color="#ffc6cf" />
			</linearGradient>
			<linearGradient id="image-hill1" x1="0%" y1="0%" x2="0%" y2="100%">
				<stop offset="0%" stop-color="#dd7e89" />
				<stop offset="30%" stop-color="#e58691" />
				<stop offset="100%" stop-color="#e58f9a" />
			</linearGradient>
		</defs>
		<g transform="translate(3,-3)">
			<rect width="9" height="11" x="-5" y="-3" rx="1" ry="1"
				fill="url(#image-backing)" />
			<rect width="7" height="9" x="-4" y="-2" fill="url(#image-inner)" />
			<rect width="5" height="6" x="-3" y="-1" fill="url(#image-center2)" />
			<path fill="url(#image-hill2)" d="M-3,2 v3 h5 v-3" />
			<rect width="1" height="6" x="-3" y="-1" fill="#000" opacity="0.3" />
			<rect width="5" height="1" x="-3" y="-1" fill="#000" opacity="0.3" />
			<rect width="1" height="6" x="1" y="-1" fill="#000" opacity="0.3" />
			<rect width="5" height="1" x="-3" y="4" fill="#000" opacity="0.3" />
			<rect width="5" height="1" x="-3" y="5" fill="#d7e8fe" />
		</g>
		<g>
			<rect width="9" height="11" x="-5" y="-3" rx="1" ry="1"
				fill="url(#image-backing)" />
			<rect width="7" height="9" x="-4" y="-2" fill="url(#image-inner)" />
			<rect width="5" height="6" x="-3" y="-1" fill="url(#image-center)" />
			<path fill="url(#image-hill)" d="M-3,2 v3 h5 v-3" />
			<rect width="1" height="6" x="-3" y="-1" fill="#000" opacity="0.3" />
			<rect width="5" height="1" x="-3" y="-1" fill="#000" opacity="0.3" />
			<rect width="1" height="6" x="1" y="-1" fill="#000" opacity="0.3" />
			<rect width="5" height="1" x="-3" y="4" fill="#000" opacity="0.3" />
			<rect width="5" height="1" x="-3" y="5" fill="#d7e8fe" />
		</g>
	</g>
		<path fill="url(#inner)" d="M-6,-1 h2 a2,2 0 0,1 2,2 h4 a2,2 0 0,1 2,-2 h2 v3 h-12" />
		<path fill="url(#in-border)" 
			d="M-7,0 v5 h14 v-5 h-3 a1,1 0 0,0 -1,1 v1 h-6 v-1 a1,1 0 0,0 -1,-1" />
		<path fill="url(#center)" 
			d="M-6,1 v3 h12 v-3 h-2 v2 h-8 v-2" />
	</g>
</svg>
