<?xml version="1.0" encoding="utf-8" standalone="yes"?>
<!DOCTYPE svg PUBLIC "-//W3C//DTD SVG 1.1//EN" "http://www.w3.org/Graphics/SVG/1.1/DTD/svg11.dtd">
<svg xmlns="http://www.w3.org/2000/svg" xmlns:xlink="http://www.w3.org/1999/xlink"
	width="16" height="16" version="1.1">
	<title>Key Go</title>
	<desc>Key Go</desc>
	<g id="icon" transform="translate(8,8)">
		<defs>
			<linearGradient id="backing" x1="0%" y1="0%" x2="100%" y2="0%">
				<stop offset="0%" stop-color="#e3b044" />
				<stop offset="100%" stop-color="#d67d29" />
			</linearGradient>
			<linearGradient id="center" x1="0%" y1="0%" x2="100%" y2="0%">
				<stop offset="0%" stop-color="#fefcf1" />
				<stop offset="100%" stop-color="#f7e289" />
			</linearGradient>
			<linearGradient id="line" x1="0%" y1="0%" x2="0%" y2="100%">
				<stop offset="0%" stop-color="#eec528" stop-opacity="0" />
				<stop offset="100%" stop-color="#eec528" />
			</linearGradient>
			<linearGradient id="top" x1="0%" y1="0%" x2="100%" y2="100%">
				<stop offset="0%" stop-color="#eec528" stop-opacity="0" />
				<stop offset="100%" stop-color="#eec528" />
			</linearGradient>
		</defs>
		<g id="tick">
			<path fill="url(#backing)"
				d="M-8,8 v-6 h2 v-2 h3 l1,-1 a3,3 0 0,1 -1,-3.5 l3,-3 a3,3 0 0,1 3.5,0 l3,3 a3,3 0 0,1 1,3.5 l-3,3 a3,3 0 0,1 -3,0 l-6,6 Z" />
			<path fill="url(#center)" d="M-7,7 v-4 h2 v-2 l2.5,0 l3,-3 l1.8,1.8 l-7.2,7.2 Z" />
			<path transform="scale(0.8)"
				d="M-1.5,-2 a3,3 0 0,1 -1,-3.5 l3,-3 a3,3 0 0,1 3.5,0 l3.3,3.3 a3,3 0 0,1 1,3.5 l-3,3 a3,3 0 0,1 -3,0 Z"
				fill="url(#center)" />
			<path transform="scale(0.6)"
				d="M-0.4,-3.2 a3,3 0 0,1 -1,-3.5 l3,-3 a3,3 0 0,1 3.5,0 l3.3,3.3 a3,3 0 0,1 1,3.5 l-3,3 a3,3 0 0,1 -3,0 Z"
				fill="url(#top)" />
			<path fill="url(#line)" d="M-6,6 v-1 l6,-6 l1,1 l-6,6 Z" />
			<rect width="2" height="1" transform="translate(3,-5) rotate(45)" fill="url(#backing)" />
		</g>
	</g>
	<g id="go" transform="translate(11,11)">
		<defs>
			<linearGradient id="border_go" x1="0%" y1="0%" x2="100%" y2="100%">
				<stop offset="0%" stop-color="#6fa53d" />
				<stop offset="100%" stop-color="#1e7b03" />
			</linearGradient>
			<linearGradient id="inner_go" x1="0%" y1="0%" x2="100%" y2="100%">
				<stop offset="0%" stop-color="#b0ce96" />
				<stop offset="100%" stop-color="#96c180" />
			</linearGradient>
		</defs>
		<path fill="url(#border_go)"
			d="M-1,-2 v-2 h1 l4.5,4.5 l-4.5,4.5 h-1 v-2 h-4 v-5 Z" />
		<path fill="url(#inner_go)" d="M0,-1 v-1.5 l3,3 l-3,3 v-1.5 h-4 v-3 Z" />
		<path fill="#8eba6f" d="M0.5,0 v-0.5 l1,1 l-1,1 v-0.5 l-3.5,0 v-1 Z" />
	</g>
</svg>
