<?xml version="1.0" encoding="utf-8" standalone="yes"?>
<!DOCTYPE svg PUBLIC "-//W3C//DTD SVG 1.1//EN" "http://www.w3.org/Graphics/SVG/1.1/DTD/svg11.dtd">
<svg xmlns="http://www.w3.org/2000/svg" xmlns:xlink="http://www.w3.org/1999/xlink"
	width="16" height="16" version="1.1">
	<title>Layout Header</title>
	<desc>Layout Header</desc>
	<g id="icon" transform="translate(8,8)">
		<defs>
			<linearGradient id="backing" x1="0%" y1="0%" x2="100%" y2="100%">
				<stop offset="0%" stop-color="#5f93ce" />
				<stop offset="100%" stop-color="#4d6ea6" />
			</linearGradient>
			<linearGradient id="header" x1="0%" y1="0%" x2="100%" y2="100%">
				<stop offset="0%" stop-color="#59a853" />
				<stop offset="100%" stop-color="#459440" />
			</linearGradient>
			<linearGradient id="header-inner" x1="0%" y1="0%" x2="100%"
				y2="100%">
				<stop offset="0%" stop-color="#7dcb73" />
				<stop offset="100%" stop-color="#78c76e" />
			</linearGradient>
			<linearGradient id="sidebar" x1="0%" y1="0%" x2="0%" y2="100%">
				<stop offset="0%" stop-color="#4c7dba" />
				<stop offset="50%" stop-color="#2c67af" />
			</linearGradient>
			<linearGradient id="sidebar-inner" x1="0%" y1="0%" x2="0%" y2="100%">
				<stop offset="0%" stop-color="#83a6d1" />
				<stop offset="50%" stop-color="#75a0cd" />
			</linearGradient>
		</defs>
		<rect width="14" height="14" x="-7" y="-7" rx="1" ry="1" fill="url(#backing)" />
		<rect width="12" height="12" x="-6" y="-6" fill="#ffffff" />
		<rect width="10" height="3" x="-5" y="-5" fill="url(#header)" />
		<rect width="8" height="1" x="-4" y="-4" fill="url(#header-inner)" />
		<rect height="6" width="3" x="-5" y="-1" fill="url(#sidebar)" />
		<rect height="4" width="1" x="-4" y="0" fill="url(#sidebar-inner)" />
		<rect height="6" width="6" x="-1" y="-1" fill="#dee5f0" />
		<rect height="4" width="4" x="0" y="0" fill="#ebeff6" />
		<rect height="2" width="2" x="1" y="1" fill="#e6ecf5" />
	</g>
</svg>
