<?xml version="1.0" encoding="utf-8" standalone="yes"?>
<!DOCTYPE svg PUBLIC "-//W3C//DTD SVG 1.1//EN" "http://www.w3.org/Graphics/SVG/1.1/DTD/svg11.dtd">
<svg xmlns="http://www.w3.org/2000/svg" xmlns:xlink="http://www.w3.org/1999/xlink"
	width="16" height="16" version="1.1">
	<title>Layout Link</title>
	<desc>Layout Link</desc>
	<g id="icon" transform="translate(8,8)">
		<defs>
			<linearGradient id="backing" x1="0%" y1="0%" x2="100%" y2="100%">
				<stop offset="0%" stop-color="#5f93ce" />
				<stop offset="100%" stop-color="#4d6ea6" />
			</linearGradient>
			<linearGradient id="header" x1="0%" y1="0%" x2="100%" y2="100%">
				<stop offset="0%" stop-color="#9cc4ed" />
				<stop offset="100%" stop-color="#9bc4ed" />
			</linearGradient>
			<linearGradient id="header-inner" x1="0%" y1="0%" x2="100%"
				y2="100%">
				<stop offset="0%" stop-color="#c1daf4" />
				<stop offset="100%" stop-color="#c2dbf4" />
			</linearGradient>
			<linearGradient id="sidebar" x1="0%" y1="0%" x2="0%" y2="100%">
				<stop offset="0%" stop-color="#4c7dba" />
				<stop offset="50%" stop-color="#2c67af" />
			</linearGradient>
			<linearGradient id="sidebar-inner" x1="0%" y1="0%" x2="0%" y2="100%">
				<stop offset="0%" stop-color="#83a6d1" />
				<stop offset="50%" stop-color="#75a0cd" />
			</linearGradient>
		</defs>
		<rect width="14" height="14" x="-7" y="-7" rx="1" ry="1" fill="url(#backing)" />
		<rect width="12" height="12" x="-6" y="-6" fill="#ffffff" />
		<rect width="10" height="3" x="-5" y="-5" fill="url(#header)" />
		<rect width="8" height="1" x="-4" y="-4" fill="url(#header-inner)" />
		<rect height="6" width="3" x="-5" y="-1" fill="url(#sidebar)" />
		<rect height="4" width="1" x="-4" y="0" fill="url(#sidebar-inner)" />
		<rect height="6" width="6" x="-1" y="-1" fill="#dee5f0" />
		<rect height="4" width="4" x="0" y="0" fill="#ebeff6" />
		<rect height="2" width="2" x="1" y="1" fill="#e6ecf5" />
		<g id="link-icon" transform="translate(1.5,4)">
			<defs>
				<linearGradient id="link-border" x1="0%" y1="0%" x2="100%"
					y2="0%">
					<stop offset="0%" stop-color="#858585" />
					<stop offset="100%" stop-color="#4a4a4a" />
				</linearGradient>
				<linearGradient id="link-inner" x1="0%" y1="0%" x2="100%" y2="0%">
					<stop offset="0%" stop-color="#dddddd" />
					<stop offset="100%" stop-color="#aeaeae" />
				</linearGradient>
				<radialGradient id="link-center-link" cx="50%" cy="0%" r="70%">
					<stop offset="0%" stop-color="#929292" />
					<stop offset="100%" stop-color="#414141" />
				</radialGradient>
				<radialGradient id="link-center-link-center" cx="50%" cy="50%"
					r="70%">
					<stop offset="0%" stop-color="#cecece" />
					<stop offset="100%" stop-color="#bdbdbd" />
				</radialGradient>
			</defs>
			<g id="link">
				<path fill="url(#link-border)"
					d="M-1.5,-3 l-1.5,0 a3.5,3.5 0 0,0 0,7 l1.5,0 a1.5,1.5 0 0,0 0,-3 h-2 a0.5,0.5 0 0,1 0,-1 h2 a1.5,1.5 0 0,0 0,-3   Z" />
				<path fill="url(#link-inner)"
					d="M-1.5,-2 l-1.5,0 a2.5,2.5 0 0,0 0,5 l1.5,0 a0.5,0.5 0 0,0 0,-1 l-1.5,0 a1.5,1.5 0 0,1 0,-3 l1.5,0 a0.5,0.5 0 0,0 0,-1 Z" />
			</g>
			<use xlink:href="#link" transform="rotate(180) translate(0,-1)" />
			<rect width="6" height="3" x="-3.25" y="-1" fill="url(#link-center-link)" />
			<rect width="4" height="1" x="-2.25" y="-0" fill="url(#link-center-link-center)" />
		</g>
	</g>
</svg>
