<?xml version="1.0" encoding="utf-8" standalone="yes"?>
<!DOCTYPE svg PUBLIC "-//W3C//DTD SVG 1.1//EN" "http://www.w3.org/Graphics/SVG/1.1/DTD/svg11.dtd">
<svg xmlns="http://www.w3.org/2000/svg" xmlns:xlink="http://www.w3.org/1999/xlink"
	width="16" height="16" version="1.1">
	<title>Lightning Go</title>
	<desc>Lightning Go</desc>
	<g id="icon" transform="translate(8,8)">
		<defs>
			<linearGradient id="backing" x1="0%" y1="0%" x2="100%" y2="100%">
				<stop offset="0%" stop-color="#ecce40" />
				<stop offset="100%" stop-color="#daa323" />
			</linearGradient>
			<linearGradient id="center" x1="0%" y1="0%" x2="100%" y2="100%">
				<stop offset="0%" stop-color="#faed9a" />
				<stop offset="100%" stop-color="#f2d384" />
			</linearGradient>
			<linearGradient id="inner" x1="0%" y1="0%" x2="100%" y2="100%">
				<stop offset="0%" stop-color="#f4d848" />
				<stop offset="100%" stop-color="#ebb62f" />
			</linearGradient>
		</defs>
		<path fill="url(#backing)" d="M-5,-7 h11 l-5,6 h6 l-12,9 l3,-6 h-6 l3,-9 z" />
		<path fill="url(#center)" d="M-4,-6 h8 l-5,6 h5 l-6.5,5 l2,-4 h-6 l2.5,-7 z" />
		<path fill="url(#inner)" d="M-3,-5 h5 l-4,5 h-3 m5,1 l1.5,0 l-2.25,1.5  z" />
		<g id="go" transform="translate(3,3)">
			<defs>
				<linearGradient id="border_go" x1="0%" y1="0%" x2="100%" y2="100%">
					<stop offset="0%" stop-color="#6fa53d" />
					<stop offset="100%" stop-color="#1e7b03" />
				</linearGradient>
				<linearGradient id="inner_go" x1="0%" y1="0%" x2="100%" y2="100%">
					<stop offset="0%" stop-color="#b0ce96" />
					<stop offset="100%" stop-color="#96c180" />
				</linearGradient>
			</defs>
			<path fill="url(#border_go)"
				d="M-1,-2 v-2 h1 l4.5,4.5 l-4.5,4.5 h-1 v-2 h-4 v-5 Z" />
			<path fill="url(#inner_go)" d="M0,-1 v-1.5 l3,3 l-3,3 v-1.5 h-4 v-3 Z" />
			<path fill="#8eba6f" d="M0.5,0 v-0.5 l1,1 l-1,1 v-0.5 l-3.5,0 v-1 Z" />
		</g>
	</g>
</svg>