<?xml version="1.0" encoding="utf-8" standalone="yes"?>
<!DOCTYPE svg PUBLIC "-//W3C//DTD SVG 1.1//EN" "http://www.w3.org/Graphics/SVG/1.1/DTD/svg11.dtd">
<svg xmlns="http://www.w3.org/2000/svg" xmlns:xlink="http://www.w3.org/1999/xlink"
	width="16" height="16" version="1.1">
	<title>Link Error</title>
	<desc>Link Error</desc>
	<g id="link-icon" transform="translate(8,8)">
		<defs>
			<linearGradient id="link-border" x1="0%" y1="0%" x2="100%" y2="0%">
				<stop offset="0%" stop-color="#858585" />
				<stop offset="100%" stop-color="#4a4a4a" />
			</linearGradient>
			<linearGradient id="link-inner" x1="0%" y1="0%" x2="100%" y2="0%">
				<stop offset="0%" stop-color="#dddddd" />
				<stop offset="100%" stop-color="#aeaeae" />
			</linearGradient>
			<radialGradient id="link-center-link" cx="50%" cy="0%" r="70%">
				<stop offset="0%" stop-color="#929292" />
				<stop offset="100%" stop-color="#414141" />
			</radialGradient>
			<radialGradient id="link-center-link-center" cx="50%" cy="50%"
				r="70%">
				<stop offset="0%" stop-color="#cecece" />
				<stop offset="100%" stop-color="#bdbdbd" />
			</radialGradient>
		</defs>
		<g id="link">
			<path fill="url(#link-border)"
				d="M-1,-3 l-2.5,0 a3.5,3.5 0 0,0 -3.5,3.5 a3.5,3.5 0 0,0 3.5,3.5 l2.5,0 a1,1.5 0 0,0 0,-3 l-2.5,0 a0.5,0.5 0 0,1 0,-1 l2.5,0 a1,1.5 0 0,0 0,-3  Z" />
			<path fill="url(#link-inner)"
				d="M-1.75,-2 l-1.5,0 a2.5,2.5 0 0,0 -2.5,2.5 a2.5,2.5 0 0,0 2.5,2.5 l1.5,0 a0.5,0.5 0 0,0 0,-1 l-1.5,0 a1.5,1.5 0 0,1 -1.5,-1.5 a1.5,1.5 0 0,1 1.5,-1.5 l1.5,0 a0.5,0.5 0 0,0 0,-1 Z" />
		</g>
		<use xlink:href="#link" transform="rotate(180) translate(0,-1)" />
		<rect width="6" height="3" x="-3" y="-1" fill="url(#link-center-link)" />
		<rect width="4" height="1" x="-2" y="-0" fill="url(#link-center-link-center)" />
		<g id="error" transform="translate(2,2)">
			<defs>
				<linearGradient id="error-backing" x1="0%" y1="0%" x2="100%"
					y2="0%">
					<stop offset="0%" stop-color="#debd5c" />
					<stop offset="100%" stop-color="#bd7723" />
				</linearGradient>
				<linearGradient id="error-center" x1="0%" y1="0%" x2="100%"
					y2="0%">
					<stop offset="0%" stop-color="#fbf4dc" />
					<stop offset="100%" stop-color="#f8eaab" />
				</linearGradient>
				<linearGradient id="error-in-border" x1="0%" y1="0%" x2="100%"
					y2="0%">
					<stop offset="0%" stop-color="#f5da58" />
					<stop offset="100%" stop-color="#f6de6a" />
				</linearGradient>
			</defs>
			<path fill="url(#error-backing)" d="M0.5,-5 l5.5,10 h-11 l5.5,-10 Z" />
			<path fill="url(#error-center)" d="M0.5,-3.5 l4,7.5 h-8 l4,-7.5 Z" />
			<path fill="url(#error-in-border)" d="M0.5,-2 l2.5,5 h-5 l2.5,-5 Z" />
			<rect width="1" height="2" y="-1" fill="#c28832" />
			<rect width="1" height="1" y="2" fill="#c28832" />
		</g>
	</g>
</svg>
