<?xml version="1.0" encoding="utf-8" standalone="yes"?>
<!DOCTYPE svg PUBLIC "-//W3C//DTD SVG 1.1//EN" "http://www.w3.org/Graphics/SVG/1.1/DTD/svg11.dtd">
<svg xmlns="http://www.w3.org/2000/svg" xmlns:xlink="http://www.w3.org/1999/xlink"
	width="16" height="16" version="1.1">
	<title>Link Save</title>
	<desc>Link Save</desc>
	<g id="icon" transform="translate(8,8)">
		<defs>
			<linearGradient id="link-border" x1="0%" y1="0%" x2="100%" y2="0%">
				<stop offset="0%" stop-color="#858585" />
				<stop offset="100%" stop-color="#4a4a4a" />
			</linearGradient>
			<linearGradient id="link-inner" x1="0%" y1="0%" x2="100%" y2="0%">
				<stop offset="0%" stop-color="#dddddd" />
				<stop offset="100%" stop-color="#aeaeae" />
			</linearGradient>
			<radialGradient id="link-center-link" cx="50%" cy="0%" r="70%">
				<stop offset="0%" stop-color="#929292" />
				<stop offset="100%" stop-color="#414141" />
			</radialGradient>
			<radialGradient id="link-center-link-center" cx="50%" cy="50%"
				r="70%">
				<stop offset="0%" stop-color="#cecece" />
				<stop offset="100%" stop-color="#bdbdbd" />
			</radialGradient>
		</defs>
		<g id="link">
			<path fill="url(#link-border)"
				d="M-1,-3 l-2.5,0 a3.5,3.5 0 0,0 -3.5,3.5 a3.5,3.5 0 0,0 3.5,3.5 l2.5,0 a1,1.5 0 0,0 0,-3 l-2.5,0 a0.5,0.5 0 0,1 0,-1 l2.5,0 a1,1.5 0 0,0 0,-3  Z" />
			<path fill="url(#link-inner)"
				d="M-1.75,-2 l-1.5,0 a2.5,2.5 0 0,0 -2.5,2.5 a2.5,2.5 0 0,0 2.5,2.5 l1.5,0 a0.5,0.5 0 0,0 0,-1 l-1.5,0 a1.5,1.5 0 0,1 -1.5,-1.5 a1.5,1.5 0 0,1 1.5,-1.5 l1.5,0 a0.5,0.5 0 0,0 0,-1 Z" />
		</g>
		<use xlink:href="#link" transform="rotate(180) translate(0,-1)" />
		<rect width="6" height="3" x="-3" y="-1" fill="url(#link-center-link)" />
		<rect width="4" height="1" x="-2" y="-0" fill="url(#link-center-link-center)" />
		<g id="save" transform="translate(4,3)">
			<defs>
				<linearGradient id="backing_disk" x1="0%" y1="0%" x2="0%" y2="100%">
					<stop offset="0%" stop-color="#6e97d4" />
					<stop offset="100%" stop-color="#5884c3" />
				</linearGradient>
				<linearGradient id="center_disk" x1="0%" y1="0%" x2="100%"
					y2="100%">
					<stop offset="0%" stop-color="#b0cdf3" />
					<stop offset="100%" stop-color="#85a2dd" />
				</linearGradient>
				<linearGradient id="label_disk" x1="0%" y1="0%" x2="100%" y2="0%">
					<stop offset="0%" stop-color="#a8d782" />
					<stop offset="100%" stop-color="#d7f4a2" />
				</linearGradient>
			</defs>
			<path fill="url(#backing_disk)"
				d="M0,-5 h-5 a1,1 0 0,0 -1,1 v8 a1,1 0 0,0 1,1 h8 a1,1 0 0,0 1,-1 v-7 l-2,-2  z" />
			<rect x="-5" y="-4" width="8" height="8" fill="url(#center_disk)" />
			<rect x="-4" y="-4" width="6" height="3" fill="#fff" />
			<rect x="-3" y="-4" width="1" height="2" fill="url(#center_disk)" />
			<rect x="-4" y="1" width="6" height="3" fill="#fff" />
			<rect id="label_disk_part" x="-3" y="2" width="2" height="2"
				fill="url(#label_disk)" />
			<use xlink:href="#label_disk_part" transform="rotate(180) translate(2,-6)" />
			<rect x="-6" y="-3" width="10" height="6" fill="#000"
				opacity="0.05" />
		</g>
	</g>
</svg>
