<?xml version="1.0" encoding="utf-8" standalone="yes"?>
<!DOCTYPE svg PUBLIC "-//W3C//DTD SVG 1.1//EN" "http://www.w3.org/Graphics/SVG/1.1/DTD/svg11.dtd">
<svg xmlns="http://www.w3.org/2000/svg" xmlns:xlink="http://www.w3.org/1999/xlink"
	width="16" height="16" version="1.1">
	<title>Link Break</title>
	<desc>Link Break</desc>
	<g id="link-icon" transform="translate(8,8)">
		<defs>
			<linearGradient id="link-border" x1="0%" y1="0%" x2="100%" y2="0%">
				<stop offset="0%" stop-color="#858585" />
				<stop offset="100%" stop-color="#4a4a4a" />
			</linearGradient>
			<linearGradient id="link-inner" x1="0%" y1="0%" x2="100%" y2="0%">
				<stop offset="0%" stop-color="#dddddd" />
				<stop offset="100%" stop-color="#aeaeae" />
			</linearGradient>
			<linearGradient id="link-break" x1="0%" y1="0%" x2="100%" y2="100%">
				<stop offset="0%" stop-color="#5494e1" />
				<stop offset="100%" stop-color="#3259cd" />
			</linearGradient>
		</defs>
		<g id="link">
			<path fill="url(#link-border)"
				d="M-2,-3 l-2.5,0 a3.5,3.5 0 0,0 -3.5,3.5 a3.5,3.5 0 0,0 3.5,3.5 l2.5,0 a1,1.5 0 0,0 0,-3 l-2.5,0 a0.5,0.5 0 0,1 0,-1 l2.5,0 a1,1.5 0 0,0 0,-3  Z" />
			<path fill="url(#link-inner)"
				d="M-3,-2 l-1.5,0 a2.5,2.5 0 0,0 -2.5,2.5 a2.5,2.5 0 0,0 2.5,2.5 l1.5,0 a0.5,0.5 0 0,0 0,-1 l-1.5,0 a1.5,1.5 0 0,1 -1.5,-1.5 a1.5,1.5 0 0,1 1.5,-1.5 l1.5,0 a0.5,0.5 0 0,0 0,-1 Z" />
		</g>
		<use xlink:href="#link" transform="rotate(180) translate(1,-1)" />
		<path fill="url(#link-break)"
			d="M-2,-3 l-3,-3 h1 l3,3 m0,-1 v-2 h1 v2 h-1 m1,1 l3,-3 h1 l-3,3 h-1 m0,7 h1 l3,3 h-1 l-3,-3 m0,1 v2 h-1 v-2 h1 m-1,-1 l-3,3 h-1 l3,-3 h1 z" />
	</g>
</svg>