<?xml version="1.0" encoding="utf-8" standalone="yes"?>
<!DOCTYPE svg PUBLIC "-//W3C//DTD SVG 1.1//EN" "http://www.w3.org/Graphics/SVG/1.1/DTD/svg11.dtd">
<svg xmlns="http://www.w3.org/2000/svg" xmlns:xlink="http://www.w3.org/1999/xlink"
	width="16" height="16" version="1.1">
	<title>Lock Open</title>
	<desc>Lock Padlock Security Open Broken</desc>
	<g id="icon" transform="translate(8,8)">
		<defs>
			<linearGradient id="backing" x1="0%" y1="0%" x2="100%" y2="100%">
				<stop offset="0%" stop-color="#e1c361" />
				<stop offset="100%" stop-color="#ce6e01" />
			</linearGradient>
			<linearGradient id="in-border" x1="0%" y1="0%" x2="100%" y2="100%">
				<stop offset="0%" stop-color="#fcf3c9" />
				<stop offset="100%" stop-color="#f8e2b0" />
			</linearGradient>
			<linearGradient id="center" x1="0%" y1="0%" x2="100%" y2="0%">
				<stop offset="0%" stop-color="#f9df75" />
				<stop offset="50%" stop-color="#ffeda8" />
				<stop offset="100%" stop-color="#f1c84f" />
			</linearGradient>
			<linearGradient id="straps" x1="0%" y1="0%" x2="100%" y2="0%">
				<stop offset="0%" stop-color="#ecb041" />
				<stop offset="50%" stop-color="#efc45c" />
				<stop offset="100%" stop-color="#e19a2a" />
			</linearGradient>
			<linearGradient id="key-hole" x1="100%" y1="0%" x2="0%" y2="100%">
				<stop offset="0%" stop-color="#e1a44b" />
				<stop offset="100%" stop-color="#dd9730" />
			</linearGradient>
			<linearGradient id="loop" x1="0%" y1="0%" x2="100%" y2="100%">
				<stop offset="0%" stop-color="#b7b7b7" />
				<stop offset="100%" stop-color="#767676" />
			</linearGradient>
			<linearGradient id="loop-in" x1="0%" y1="0%" x2="100%" y2="100%">
				<stop offset="0%" stop-color="#e5e5e5" />
				<stop offset="100%" stop-color="#ababab" />
			</linearGradient>
		</defs>
		<path fill="url(#backing)"
			d="M-7,-2 h9 a1,1 0 0,0 1,1 h1 a1,1 0 0,0 1,-1 h2 v10 h-14 v-10" />
		<path fill="url(#in-border)" d="M-6,-1 h8 v1 h3 v-1 h1 v8 h-12 v-8" />
		<rect width="10" height="6" x="-5" y="0" fill="url(#center)" />
		<path fill="url(#straps)"
			d="M-4,1 h2 v1 h-2 v-1 m0,2 h2 v1 h-2 v-1 m0,2 h8 v1 h-8 v-1 m6,-2 h2 v1 h-2 v-1 m0,-2 h2 v1 h-2 v-1" />
		<rect width="2" height="3" x="-1" y="1" fill="url(#key-hole)" />
		<rect width="1" height="2" x="0" y="2" fill="#000" opacity="0.15" />
		<path transform="scale(0.9,0.8) rotate(-15) translate(0.2,-2)"
			d="M-5,-1 a1,1 0 0,1 -1,-1 a6,6 0 0,1 12,0 a1,1 0 0,1 -1,1 h-1 a1,1 0 0,1 -1,-1 a3,3 0 0,0 -6,0 a1,1 0 0,1 -1,1 z"
			fill="url(#loop)" />
		<path transform="scale(0.9,0.8) rotate(-15) translate(0.2,-2)"
			d="M-5,-2 a5,5 0 0,1 10,0 a0.5,0.5 0 0,1 -1,0 a4,4 0 0,0 -8,0 a0.5,0.5 0 0,1 -1,0 z"
			fill="url(#loop-in)" />
	</g>
</svg>