<?xml version="1.0" encoding="utf-8" standalone="yes"?>
<!DOCTYPE svg PUBLIC "-//W3C//DTD SVG 1.1//EN" "http://www.w3.org/Graphics/SVG/1.1/DTD/svg11.dtd">
<svg xmlns="http://www.w3.org/2000/svg" xmlns:xlink="http://www.w3.org/1999/xlink"
	width="16" height="16" version="1.1">
	<title>Lock Break</title>
	<desc>Lock Padlock Security Break</desc>
	<g id="icon" transform="translate(8,8)">
		<defs>
			<linearGradient id="backing" x1="0%" y1="0%" x2="100%" y2="100%">
				<stop offset="0%" stop-color="#e1c361" />
				<stop offset="100%" stop-color="#ce6e01" />
			</linearGradient>
			<linearGradient id="in-border" x1="0%" y1="0%" x2="100%" y2="100%">
				<stop offset="0%" stop-color="#fcf3c9" />
				<stop offset="100%" stop-color="#f8e2b0" />
			</linearGradient>
			<linearGradient id="center" x1="0%" y1="0%" x2="100%" y2="0%">
				<stop offset="0%" stop-color="#f9df75" />
				<stop offset="50%" stop-color="#ffeda8" />
				<stop offset="100%" stop-color="#f1c84f" />
			</linearGradient>
			<linearGradient id="straps" x1="0%" y1="0%" x2="100%" y2="0%">
				<stop offset="0%" stop-color="#ecb041" />
				<stop offset="50%" stop-color="#efc45c" />
				<stop offset="100%" stop-color="#e19a2a" />
			</linearGradient>
			<linearGradient id="key-hole" x1="100%" y1="0%" x2="0%" y2="100%">
				<stop offset="0%" stop-color="#e1a44b" />
				<stop offset="100%" stop-color="#dd9730" />
			</linearGradient>
			<linearGradient id="loop" x1="0%" y1="0%" x2="100%" y2="100%">
				<stop offset="0%" stop-color="#b7b7b7" />
				<stop offset="100%" stop-color="#767676" />
			</linearGradient>
			<linearGradient id="loop-in" x1="0%" y1="0%" x2="100%" y2="100%">
				<stop offset="0%" stop-color="#e5e5e5" />
				<stop offset="100%" stop-color="#ababab" />
			</linearGradient>
			<linearGradient id="break" x1="0%" y1="0%" x2="0%" y2="100%">
				<stop offset="0%" stop-color="#f84600" />
				<stop offset="100%" stop-color="#f84600" />
			</linearGradient>
		</defs>
		<rect width="14" height="10" x="-7" y="-2" fill="url(#backing)" />
		<rect width="12" height="8" x="-6" y="-1" fill="url(#in-border)" />
		<rect width="10" height="6" x="-5" y="0" fill="url(#center)" />
		<path fill="url(#straps)"
			d="M-4,1 h2 v1 h-2 v-1 m0,2 h2 v1 h-2 v-1 m0,2 h8 v1 h-8 v-1 m6,-2 h2 v1 h-2 v-1 m0,-2 h2 v1 h-2 v-1" />
		<rect width="2" height="3" x="-1" y="1" fill="url(#key-hole)" />
		<rect width="1" height="2" x="0" y="2" fill="#000" opacity="0.15" />
		<path fill="url(#loop)"
			d="M-5,-1 a1,1 0 0,1 -1,-1 a6,6 0 0,1 9.1,-5.15 l-2.4,2.25  a3,3 0 0,0 -3.7,2.9 a1,1 0 0,1 -1,1 m9.2,-4   a6,6 0 0,1 0.8,3 a1,1 0 0,1 -1,1 h-1 a1,1 0 0,1 -1,-1 a3,3 0 0,0 -0.2,-1.1 z" />
		<rect width="1.5" height="6" transform="rotate(50)" x="-2.75" y="-8.5"
			fill="url(#break)" />
		<path fill="url(#loop-in)"
			d="M-5,-2 a5,5 0 0,1 6.4,-4.8 l-.9,.83 a4,4 0 0,0 -4.5,3.97 a0.5,0.5 0 0,1 -1,0 m9.73,-1.6 a5,5 0 0,1 0.27,1.6 a0.5,0.5 0 0,1 -1,0 a4,4 0 0,0 -0.12,-1 z" />
	</g>
</svg>