<?xml version="1.0" encoding="utf-8" standalone="yes"?>
<!DOCTYPE svg PUBLIC "-//W3C//DTD SVG 1.1//EN" "http://www.w3.org/Graphics/SVG/1.1/DTD/svg11.dtd">
<svg xmlns="http://www.w3.org/2000/svg" xmlns:xlink="http://www.w3.org/1999/xlink"
	width="16" height="16" version="1.1">
	<title>Lock Edit</title>
	<desc>Lock Padlock Security Edit</desc>
	<g id="icon" transform="translate(8,8)">
		<defs>
			<linearGradient id="backing" x1="0%" y1="0%" x2="100%" y2="100%">
				<stop offset="0%" stop-color="#e1c361" />
				<stop offset="100%" stop-color="#ce6e01" />
			</linearGradient>
			<linearGradient id="in-border" x1="0%" y1="0%" x2="100%" y2="100%">
				<stop offset="0%" stop-color="#fcf3c9" />
				<stop offset="100%" stop-color="#f8e2b0" />
			</linearGradient>
			<linearGradient id="center" x1="0%" y1="0%" x2="100%" y2="0%">
				<stop offset="0%" stop-color="#f9df75" />
				<stop offset="50%" stop-color="#ffeda8" />
				<stop offset="100%" stop-color="#f1c84f" />
			</linearGradient>
			<linearGradient id="straps" x1="0%" y1="0%" x2="100%" y2="0%">
				<stop offset="0%" stop-color="#ecb041" />
				<stop offset="50%" stop-color="#efc45c" />
				<stop offset="100%" stop-color="#e19a2a" />
			</linearGradient>
			<linearGradient id="key-hole" x1="100%" y1="0%" x2="0%" y2="100%">
				<stop offset="0%" stop-color="#e1a44b" />
				<stop offset="100%" stop-color="#dd9730" />
			</linearGradient>
			<linearGradient id="loop" x1="0%" y1="0%" x2="100%" y2="100%">
				<stop offset="0%" stop-color="#b7b7b7" />
				<stop offset="100%" stop-color="#767676" />
			</linearGradient>
			<linearGradient id="loop-in" x1="0%" y1="0%" x2="100%" y2="100%">
				<stop offset="0%" stop-color="#e5e5e5" />
				<stop offset="100%" stop-color="#ababab" />
			</linearGradient>
		</defs>
		<rect width="14" height="10" x="-7" y="-2" fill="url(#backing)" />
		<rect width="12" height="8" x="-6" y="-1" fill="url(#in-border)" />
		<rect width="10" height="6" x="-5" y="0" fill="url(#center)" />
		<path fill="url(#straps)"
			d="M-4,1 h2 v1 h-2 v-1 m0,2 h2 v1 h-2 v-1 m0,2 h8 v1 h-8 v-1 m6,-2 h2 v1 h-2 v-1 m0,-2 h2 v1 h-2 v-1" />
		<rect width="2" height="3" x="-1" y="1" fill="url(#key-hole)" />
		<rect width="1" height="2" x="0" y="2" fill="#000" opacity="0.15" />
		<path fill="url(#loop)"
			d="M-5,-1 a1,1 0 0,1 -1,-1 a6,6 0 0,1 12,0 a1,1 0 0,1 -1,1 h-1 a1,1 0 0,1 -1,-1 a3,3 0 0,0 -6,0 a1,1 0 0,1 -1,1 z" />
		<path fill="url(#loop-in)"
			d="M-5,-2 a5,5 0 0,1 10,0 a0.5,0.5 0 0,1 -1,0 a4,4 0 0,0 -8,0 a0.5,0.5 0 0,1 -1,0 z" />
		<g id="pencil" transform="translate(3,0)">
			<defs>
				<linearGradient id="top_center" x1="0%" y1="0%" x2="100%" y2="0%">
					<stop offset="0%" stop-color="#f7e1c9" />
					<stop offset="100%" stop-color="#f4cfa5" />
				</linearGradient>
				<linearGradient id="pencil-back" x1="100%" y1="0%" x2="0%"
					y2="100%">
					<stop offset="0%" stop-color="#ca9350" stop-opacity="1.0" />
					<stop offset="20%" stop-color="#ca9350" stop-opacity="0.5" />
					<stop offset="30%" stop-color="#ca9350" stop-opacity="0.0" />
					<stop offset="55%" stop-color="#936d1e" stop-opacity="0.0" />
					<stop offset="65%" stop-color="#936d1e" stop-opacity="0.3" />
					<stop offset="80%" stop-color="#936d1e" stop-opacity="0.9" />
					<stop offset="92%" stop-color="#936d1e" stop-opacity="1.0" />
					<stop offset="94%" stop-color="#594212" stop-opacity="1.0" />
				</linearGradient>
				<linearGradient id="pencil-cross" x1="37%" y1="37%" x2="63%"
					y2="63%">
					<stop offset="0%" stop-color="#e4ba2f" />
					<stop offset="100%" stop-color="#d98f3b" />
				</linearGradient>
				<linearGradient id="pencil-nib" x1="100%" y1="0%" x2="0%" y2="100%">
					<stop offset="0%" stop-color="#fae7d1" stop-opacity="1.0" />
					<stop offset="75%" stop-color="#fae7d1" stop-opacity="0.9" />
					<stop offset="100%" stop-color="#fae7d1" stop-opacity="0.0" />
				</linearGradient>
				<linearGradient id="pencil-outer" x1="37%" y1="37%" x2="63%"
					y2="63%">
					<stop offset="0%" stop-color="#f8edc3" />
					<stop offset="10%" stop-color="#fcf4b3" />
					<stop offset="45%" stop-color="#f4d644" />
					<stop offset="55%" stop-color="#f4d644" />
					<stop offset="90%" stop-color="#fcf4b3" />
					<stop offset="100%" stop-color="#faee8e" />
				</linearGradient>
				<linearGradient id="pencil-nib-shadow" x1="0%" y1="0%" x2="100%"
					y2="100%">
					<stop offset="0%" stop-color="#e07500" stop-opacity="0.0" />
					<stop offset="40%" stop-color="#e07500" stop-opacity="0.2" />
					<stop offset="50%" stop-color="#e07500" stop-opacity="0.45" />
					<stop offset="60%" stop-color="#e07500" stop-opacity="0.4" />
					<stop offset="100%" stop-color="#e07500" stop-opacity="0.0" />
				</linearGradient>
			</defs>
			<path fill="url(#pencil-cross)" d="M2,-5 l-8,8 v3 h3 l8,-8 a2,1.25 45 0,0 -3,-3" />
			<path fill="url(#pencil-back)" d="M2,-5 l-8,8 v3 h3 l8,-8 a2,1.25 45 0,0 -3,-3" />
			<ellipse transform="translate(3.5,-3.5) rotate(45)" cx="0" cy="0" rx="1.25"
				ry="0.75" fill="url(#top_center)" />
			<path fill="url(#pencil-nib)" d="M-5,5 h2 l1,-1 a1.41,0.75 45 0,1 -2,-2 l-1,1 v2" />
			<path fill="url(#pencil-nib-shadow)" d="M-5,5 h2 l1,-1 a1.41,0.75 45 0,1 -2,-2 l-1,1 v2" />
			<path fill="url(#pencil-outer)"
				d="M2,-4 l-5.5,5.5 a1.41,0.75 45 0,0 2,2 l5.5,-5.5 a1.41,0.75 45 0,1 -2,-2" />
		</g>
	</g>
</svg>
