<?xml version="1.0" encoding="utf-8" standalone="yes"?>
<!DOCTYPE svg PUBLIC "-//W3C//DTD SVG 1.1//EN" "http://www.w3.org/Graphics/SVG/1.1/DTD/svg11.dtd">
<svg xmlns="http://www.w3.org/2000/svg" xmlns:xlink="http://www.w3.org/1999/xlink"
	width="16" height="16" version="1.1">
	<title>Lorry Flatbed</title>
	<desc>Lorry Flatbed Empty</desc>
	<g id="icon" transform="translate(8,8)">
		<defs>
			<linearGradient id="backing-trailer" x1="0%" y1="0%" x2="100%"
				y2="100%">
				<stop offset="0%" stop-color="#d79f70" />
				<stop offset="100%" stop-color="#9e6621" />
			</linearGradient>
			<linearGradient id="inner-trailer" x1="0%" y1="0%" x2="100%"
				y2="100%">
				<stop offset="0%" stop-color="#ead7b6" />
				<stop offset="100%" stop-color="#d3a975" />
			</linearGradient>
			<linearGradient id="cabin" x1="0%" y1="0%" x2="100%" y2="100%">
				<stop offset="0%" stop-color="#4783c1" />
				<stop offset="100%" stop-color="#24569c" />
			</linearGradient>
			<linearGradient id="cabin-center" x1="0%" y1="0%" x2="100%"
				y2="100%">
				<stop offset="0%" stop-color="#c2d7ef" />
				<stop offset="100%" stop-color="#bad1ea" />
			</linearGradient>
			<linearGradient id="wind-screen" x1="0%" y1="0%" x2="100%" y2="0%">
				<stop offset="0%" stop-color="#e7f2ff" />
				<stop offset="100%" stop-color="#f0f6ff" />
			</linearGradient>
		</defs>
		<rect width="11" x="-8" y="0" height="2" rx="1" ry="1"
			fill="url(#backing-trailer)" />
		<rect width="9" x="-7" y="1" height="1" fill="url(#inner-trailer)" />
		<path fill="url(#cabin)" d="M2,-4 h3 a2,2 0 0,1 2,2 v5 h-5 v-7 z" />
		<path fill="url(#cabin-center)" d="M3,-3 h2 a1,1 0 0,1 1,1 v4 h-3 v-5 z" />
		<rect x="4" y="0" width="1" height="1" fill="#9bbce1" />
		<path fill="url(#wind-screen)" d="M4,-2 h2 v2 h-1 v-1 h-1 v-1" />
		<path fill="#000" opacity="0.4" d="M-8,2 h15 v1 h-14 a1,1 0 0,1 -1,-1 z" />
		<path fill="#292929"
			d="M-7,3 a2,2 0 0,0 4,0 h-4 m3,0 a2,2 0 0,0 4,0 h-4 m7,0 a2,2 0 0,0 4,0 h-4 z" />
		<path fill="#878787"
			d="M-6,3 a1,1 0 0,0 2,0 h-2 m3,0 a1,1 0 0,0 2,0 h-2 m7,0 a1,1 0 0,0 2,0 h-2 z" />
	</g>
</svg>
