<?xml version="1.0" encoding="utf-8" standalone="yes"?>
<!DOCTYPE svg PUBLIC "-//W3C//DTD SVG 1.1//EN" "http://www.w3.org/Graphics/SVG/1.1/DTD/svg11.dtd">
<svg xmlns="http://www.w3.org/2000/svg" xmlns:xlink="http://www.w3.org/1999/xlink"
	width="16" height="16" version="1.1">
	<title>Lorry Go</title>
	<desc>Lorry Go</desc>
	<g id="icon" transform="translate(8,8)">
		<defs>
			<linearGradient id="backing-trailer" x1="0%" y1="0%" x2="100%"
				y2="100%">
				<stop offset="0%" stop-color="#d79f70" />
				<stop offset="100%" stop-color="#9e6621" />
			</linearGradient>
			<linearGradient id="inner-trailer" x1="0%" y1="0%" x2="100%"
				y2="100%">
				<stop offset="0%" stop-color="#ead7b6" />
				<stop offset="100%" stop-color="#d3a975" />
			</linearGradient>
			<linearGradient id="center-trailer" x1="0%" y1="0%" x2="100%"
				y2="100%">
				<stop offset="0%" stop-color="#e1c698" />
				<stop offset="100%" stop-color="#ca9958" />
			</linearGradient>
			<linearGradient id="bar" x1="0%" y1="0%" x2="100%" y2="0%">
				<stop offset="0%" stop-color="#7cb4dd" />
				<stop offset="100%" stop-color="#678fcb" />
			</linearGradient>
			<linearGradient id="bar-center" x1="0%" y1="0%" x2="100%" y2="0%">
				<stop offset="0%" stop-color="#549ad0" />
				<stop offset="100%" stop-color="#3f75c0" />
			</linearGradient>
			<linearGradient id="cabin" x1="0%" y1="0%" x2="100%" y2="100%">
				<stop offset="0%" stop-color="#4783c1" />
				<stop offset="100%" stop-color="#24569c" />
			</linearGradient>
			<linearGradient id="cabin-center" x1="0%" y1="0%" x2="100%"
				y2="100%">
				<stop offset="0%" stop-color="#c2d7ef" />
				<stop offset="100%" stop-color="#bad1ea" />
			</linearGradient>
			<linearGradient id="wind-screen" x1="0%" y1="0%" x2="100%" y2="0%">
				<stop offset="0%" stop-color="#e7f2ff" />
				<stop offset="100%" stop-color="#f0f6ff" />
			</linearGradient>
		</defs>
		<rect width="11" x="-8" y="-6" height="9" rx="1" ry="1"
			fill="url(#backing-trailer)" />
		<rect width="9" x="-7" y="-5" height="7" fill="url(#inner-trailer)" />
		<rect width="7" x="-6" y="-4" height="5" fill="url(#center-trailer)" />
		<rect width="9" x="-7" y="-3" height="1" fill="#ffffff" />
		<rect width="9" x="-7" y="-2" height="1" fill="url(#bar)" />
		<rect width="7" x="-6" y="-2" height="1" fill="url(#bar-center)" />
		<path fill="url(#cabin)" d="M2,-4 h3 a2,2 0 0,1 2,2 v5 h-5 v-7 z" />
		<path fill="url(#cabin-center)" d="M3,-3 h2 a1,1 0 0,1 1,1 v4 h-3 v-5 z" />
		<rect x="4" y="0" width="1" height="1" fill="#9bbce1" />
		<path fill="url(#wind-screen)" d="M4,-2 h2 v2 h-1 v-1 h-1 v-1" />
		<path fill="#000" opacity="0.4" d="M-8,2 h15 v1 h-14 a1,1 0 0,1 -1,-1 z" />
		<path fill="#292929"
			d="M-7,3 a2,2 0 0,0 4,0 h-4 m3,0 a2,2 0 0,0 4,0 h-4 m7,0 a2,2 0 0,0 4,0 h-4 z" />
		<path fill="#878787"
			d="M-6,3 a1,1 0 0,0 2,0 h-2 m3,0 a1,1 0 0,0 2,0 h-2 m7,0 a1,1 0 0,0 2,0 h-2 z" />
		<g id="go" transform="translate(3,3)">
			<defs>
				<linearGradient id="border_go" x1="0%" y1="0%" x2="100%" y2="100%">
					<stop offset="0%" stop-color="#6fa53d" />
					<stop offset="100%" stop-color="#1e7b03" />
				</linearGradient>
				<linearGradient id="inner_go" x1="0%" y1="0%" x2="100%" y2="100%">
					<stop offset="0%" stop-color="#b0ce96" />
					<stop offset="100%" stop-color="#96c180" />
				</linearGradient>
			</defs>
			<path fill="url(#border_go)"
				d="M-1,-2 v-2 h1 l4.5,4.5 l-4.5,4.5 h-1 v-2 h-4 v-5 Z" />
			<path fill="url(#inner_go)" d="M0,-1 v-1.5 l3,3 l-3,3 v-1.5 h-4 v-3 Z" />
			<path fill="#8eba6f" d="M0.5,0 v-0.5 l1,1 l-1,1 v-0.5 l-3.5,0 v-1 Z" />
		</g>
	</g>
</svg>
