<?xml version="1.0" encoding="utf-8" standalone="yes"?>
<!DOCTYPE svg PUBLIC "-//W3C//DTD SVG 1.1//EN" "http://www.w3.org/Graphics/SVG/1.1/DTD/svg11.dtd">
<svg xmlns="http://www.w3.org/2000/svg" xmlns:xlink="http://www.w3.org/1999/xlink"
	width="16" height="16" version="1.1">
	<title>Lorry Link</title>
	<desc>Lorry Link</desc>
	<g id="icon" transform="translate(8,8)">
		<defs>
			<linearGradient id="backing-trailer" x1="0%" y1="0%" x2="100%"
				y2="100%">
				<stop offset="0%" stop-color="#d79f70" />
				<stop offset="100%" stop-color="#9e6621" />
			</linearGradient>
			<linearGradient id="inner-trailer" x1="0%" y1="0%" x2="100%"
				y2="100%">
				<stop offset="0%" stop-color="#ead7b6" />
				<stop offset="100%" stop-color="#d3a975" />
			</linearGradient>
			<linearGradient id="center-trailer" x1="0%" y1="0%" x2="100%"
				y2="100%">
				<stop offset="0%" stop-color="#e1c698" />
				<stop offset="100%" stop-color="#ca9958" />
			</linearGradient>
			<linearGradient id="bar" x1="0%" y1="0%" x2="100%" y2="0%">
				<stop offset="0%" stop-color="#7cb4dd" />
				<stop offset="100%" stop-color="#678fcb" />
			</linearGradient>
			<linearGradient id="bar-center" x1="0%" y1="0%" x2="100%" y2="0%">
				<stop offset="0%" stop-color="#549ad0" />
				<stop offset="100%" stop-color="#3f75c0" />
			</linearGradient>
			<linearGradient id="cabin" x1="0%" y1="0%" x2="100%" y2="100%">
				<stop offset="0%" stop-color="#4783c1" />
				<stop offset="100%" stop-color="#24569c" />
			</linearGradient>
			<linearGradient id="cabin-center" x1="0%" y1="0%" x2="100%"
				y2="100%">
				<stop offset="0%" stop-color="#c2d7ef" />
				<stop offset="100%" stop-color="#bad1ea" />
			</linearGradient>
			<linearGradient id="wind-screen" x1="0%" y1="0%" x2="100%" y2="0%">
				<stop offset="0%" stop-color="#e7f2ff" />
				<stop offset="100%" stop-color="#f0f6ff" />
			</linearGradient>
		</defs>
		<rect width="11" x="-8" y="-6" height="9" rx="1" ry="1"
			fill="url(#backing-trailer)" />
		<rect width="9" x="-7" y="-5" height="7" fill="url(#inner-trailer)" />
		<rect width="7" x="-6" y="-4" height="5" fill="url(#center-trailer)" />
		<rect width="9" x="-7" y="-3" height="1" fill="#ffffff" />
		<rect width="9" x="-7" y="-2" height="1" fill="url(#bar)" />
		<rect width="7" x="-6" y="-2" height="1" fill="url(#bar-center)" />
		<path fill="url(#cabin)" d="M2,-4 h3 a2,2 0 0,1 2,2 v5 h-5 v-7 z" />
		<path fill="url(#cabin-center)" d="M3,-3 h2 a1,1 0 0,1 1,1 v4 h-3 v-5 z" />
		<rect x="4" y="0" width="1" height="1" fill="#9bbce1" />
		<path fill="url(#wind-screen)" d="M4,-2 h2 v2 h-1 v-1 h-1 v-1" />
		<path fill="#000" opacity="0.4" d="M-8,2 h15 v1 h-14 a1,1 0 0,1 -1,-1 z" />
		<path fill="#292929"
			d="M-7,3 a2,2 0 0,0 4,0 h-4 m3,0 a2,2 0 0,0 4,0 h-4 m7,0 a2,2 0 0,0 4,0 h-4 z" />
		<path fill="#878787"
			d="M-6,3 a1,1 0 0,0 2,0 h-2 m3,0 a1,1 0 0,0 2,0 h-2 m7,0 a1,1 0 0,0 2,0 h-2 z" />
		<g id="link-icon" transform="translate(1.5,4)">
			<defs>
				<linearGradient id="link-border" x1="0%" y1="0%" x2="100%"
					y2="0%">
					<stop offset="0%" stop-color="#858585" />
					<stop offset="100%" stop-color="#4a4a4a" />
				</linearGradient>
				<linearGradient id="link-inner" x1="0%" y1="0%" x2="100%" y2="0%">
					<stop offset="0%" stop-color="#dddddd" />
					<stop offset="100%" stop-color="#aeaeae" />
				</linearGradient>
				<radialGradient id="link-center-link" cx="50%" cy="0%" r="70%">
					<stop offset="0%" stop-color="#929292" />
					<stop offset="100%" stop-color="#414141" />
				</radialGradient>
				<radialGradient id="link-center-link-center" cx="50%" cy="50%"
					r="70%">
					<stop offset="0%" stop-color="#cecece" />
					<stop offset="100%" stop-color="#bdbdbd" />
				</radialGradient>
			</defs>
			<g id="link">
				<path fill="url(#link-border)"
					d="M-1.5,-3 l-1.5,0 a3.5,3.5 0 0,0 0,7 l1.5,0 a1.5,1.5 0 0,0 0,-3 h-2 a0.5,0.5 0 0,1 0,-1 h2 a1.5,1.5 0 0,0 0,-3   Z" />
				<path fill="url(#link-inner)"
					d="M-1.5,-2 l-1.5,0 a2.5,2.5 0 0,0 0,5 l1.5,0 a0.5,0.5 0 0,0 0,-1 l-1.5,0 a1.5,1.5 0 0,1 0,-3 l1.5,0 a0.5,0.5 0 0,0 0,-1 Z" />
			</g>
			<use xlink:href="#link" transform="rotate(180) translate(0,-1)" />
			<rect width="6" height="3" x="-3.25" y="-1" fill="url(#link-center-link)" />
			<rect width="4" height="1" x="-2.25" y="-0" fill="url(#link-center-link-center)" />
		</g>
	</g>
</svg>
