<?xml version="1.0" encoding="utf-8" standalone="yes"?>
<!DOCTYPE svg PUBLIC "-//W3C//DTD SVG 1.1//EN" "http://www.w3.org/Graphics/SVG/1.1/DTD/svg11.dtd">
<svg xmlns="http://www.w3.org/2000/svg" xmlns:xlink="http://www.w3.org/1999/xlink"
	width="16" height="16" version="1.1">
	<title>Magnifier Zoom Out</title>
	<desc>Magnifier Zoom Out</desc>
	<g id="find-icon" transform="translate(8,8)">
		<defs>
			<linearGradient id="find-border" x1="0%" y1="0%" x2="100%" y2="100%">
				<stop offset="0%" stop-color="#bedbfa" />
				<stop offset="100%" stop-color="#769ccd" />
			</linearGradient>
			<linearGradient id="find-in-border" x1="0%" y1="0%" x2="100%"
				y2="100%">
				<stop offset="0%" stop-color="#e3eefa" />
				<stop offset="100%" stop-color="#d2e4f7" />
			</linearGradient>
			<linearGradient id="find-center" x1="0%" y1="0%" x2="100%" y2="100%">
				<stop offset="0%" stop-color="#cce1f6" />
				<stop offset="100%" stop-color="#bbd6f3" />
			</linearGradient>
			<linearGradient id="find-handel" x1="0%" y1="0%" x2="100%" y2="0%">
				<stop offset="0%" stop-color="#b57d41" />
				<stop offset="100%" stop-color="#9d6722" />
			</linearGradient>
			<linearGradient id="find-hold" x1="0%" y1="0%" x2="100%" y2="0%">
				<stop offset="0%" stop-color="#e8cbab" />
				<stop offset="100%" stop-color="#ddb589" />
			</linearGradient>
		</defs>
		<g transform="translate(1,1)">
			<path transform="rotate(45)" d="M0,-1.5 h5 a1.5,1.5 0 0,1 0,3 h-5"
				fill="url(#find-handel)" />
			<path transform="rotate(45)" d="M0,-0.5 h5 a0.5,0.5 0 0,1 0,1 h-5"
				fill="url(#find-hold)" />
		</g>
		<circle r="5" cx="-2" cy="-2" fill="url(#find-border)" />
		<circle r="4" cx="-2" cy="-2" fill="url(#find-in-border)" />
		<circle r="3" cx="-2" cy="-2" fill="url(#find-center)" />
		<g id="minus-icon">
			<defs>
				<linearGradient id="minus-backing" x1="0%" y1="0%" x2="100%"
					y2="100%">
					<stop offset="0%" stop-color="#fc6f6d" />
					<stop offset="100%" stop-color="#ea111c" />
				</linearGradient>
				<linearGradient id="minus-center" x1="0%" y1="0%" x2="100%"
					y2="0%">
					<stop offset="0%" stop-color="#f2b5a6" />
					<stop offset="100%" stop-color="#e88c82" />
				</linearGradient>
			</defs>
			<rect x="-1" y="-3" width="7" height="3" fill="url(#minus-backing)" />
			<rect x="0" y="-2" width="5" height="1" fill="url(#minus-center)" />
		</g>
	</g>
</svg>
