<?xml version="1.0" encoding="utf-8" standalone="yes"?>
<!DOCTYPE svg PUBLIC "-//W3C//DTD SVG 1.1//EN" "http://www.w3.org/Graphics/SVG/1.1/DTD/svg11.dtd">
<svg xmlns="http://www.w3.org/2000/svg" xmlns:xlink="http://www.w3.org/1999/xlink"
	width="16" height="16" version="1.1">
	<title>Male</title>
	<desc>Male</desc>
	<g id="icon" transform="translate(8,8)">
		<defs>
			<linearGradient id="backing" x1="0%" y1="0%" x2="100%" y2="100%">
				<stop offset="25%" stop-color="#96baee" />
				<stop offset="75%" stop-color="#5478ae" />
			</linearGradient>
			<linearGradient id="center" x1="0%" y1="0%" x2="100%" y2="100%">
				<stop offset="25%" stop-color="#ddecfd" />
				<stop offset="75%" stop-color="#ccdef6" />
			</linearGradient>
		</defs>
		<path fill="url(#backing)"
			d="M-3,2 a1,1 0 0,0 2,0 a1,1 0 0,0 -2,0 h-4 a5,5 0 0,1 10,0 a5,5 0 0,1 -10,0 M0,-7 h7 v7 h-2 l-1.5,-1.5 l-1.5,1.5 h-2 v-2 l1.5,-1.5 l-1.5,-1.5 v-2 z" />
		<path fill="url(#center)"
			d="M-4,2 a2,2 0 0,0 4,0 a2,2 0 0,0 -4,0 h-2 a4,4 0 0,1 8,0 a4,4 0 0,1 -8,0 M1,-6 h5 v5 h-1 l-1.5,-1.5 l-2.5,2.5 l-1,-1 l2.5,-2.5 l-1.5,-1.5 v-1 z" />
	</g>
</svg>
