<?xml version="1.0" encoding="utf-8" standalone="yes"?>
<!DOCTYPE svg PUBLIC "-//W3C//DTD SVG 1.1//EN" "http://www.w3.org/Graphics/SVG/1.1/DTD/svg11.dtd">
<svg xmlns="http://www.w3.org/2000/svg" xmlns:xlink="http://www.w3.org/1999/xlink"
	width="16" height="16" version="1.1">
	<title>Medal Bronze Delete</title>
	<desc>Medal Bronze Award Delete</desc>
	<g id="icon" transform="translate(8,8)">
		<defs>
			<linearGradient id="backing" x1="0%" y1="0%" x2="100%" y2="100%">
				<stop offset="0%" stop-color="#ffaf50" />
				<stop offset="100%" stop-color="#ef6424" />
			</linearGradient>
			<linearGradient id="in-border" x1="0%" y1="0%" x2="100%" y2="100%">
				<stop offset="0%" stop-color="#f9d9c6" />
				<stop offset="100%" stop-color="#e7a57b" />
			</linearGradient>
			<linearGradient id="center" x1="0%" y1="0%" x2="100%" y2="100%">
				<stop offset="0%" stop-color="#eec3aa" />
				<stop offset="100%" stop-color="#de8e60" />
			</linearGradient>
			<linearGradient id="ribbon-backing" x1="0%" y1="0%" x2="100%"
				y2="100%">
				<stop offset="0%" stop-color="#fc6d6b" />
				<stop offset="100%" stop-color="#ef2a31" />
			</linearGradient>
			<linearGradient id="ribbon-in-border" x1="0%" y1="0%" x2="100%"
				y2="100%">
				<stop offset="0%" stop-color="#ffbbbb" />
				<stop offset="100%" stop-color="#fc9797" />
			</linearGradient>
			<linearGradient id="ribbon-center" x1="0%" y1="0%" x2="100%"
				y2="100%">
				<stop offset="0%" stop-color="#f85252" />
				<stop offset="100%" stop-color="#ea2d2d" />
			</linearGradient>
		</defs>
		<path fill="url(#ribbon-backing)" d="M-5,-8 v2 a5,5 0 0,0 10,0 v-2 " />
		<path fill="url(#ribbon-in-border)" d="M-4,-8 v2 a4,4 0 0,0 8,0 v-2 " />
		<path fill="url(#ribbon-center)" d="M-3,-8 v2 a3,3 0 0,0 6,0 v-2 " />
		<circle id="back" r="6" cy="2" fill="url(#backing)" />
		<circle id="round" r="5" cy="2" fill="url(#in-border)" />
		<circle id="round" r="4" cy="2" fill="url(#center)" />
		<g id="delete" transform="translate(4.5,4.5)">
			<defs>
				<linearGradient id="backing_delete" x1="0%" y1="0%" x2="100%"
					y2="100%">
					<stop offset="0%" stop-color="#c4581e" />
					<stop offset="100%" stop-color="#b84503" />
				</linearGradient>
				<linearGradient id="center_delete" x1="0%" y1="0%" x2="100%"
					y2="100%">
					<stop offset="0%" stop-color="#fed6b8" />
					<stop offset="100%" stop-color="#dd6401" />
				</linearGradient>
			</defs>
			<circle id="back" r="3.5" fill="url(#backing_delete)" />
			<circle id="center-dot" r="2.5" fill="url(#center_delete)" />
			<path fill="#fff" d="M-1.5,-0.5 h3 v1 h-3 v-1 z " />
		</g>
	</g>
</svg>
