<?xml version="1.0" encoding="utf-8" standalone="yes"?>
<!DOCTYPE svg PUBLIC "-//W3C//DTD SVG 1.1//EN" "http://www.w3.org/Graphics/SVG/1.1/DTD/svg11.dtd">
<svg xmlns="http://www.w3.org/2000/svg" xmlns:xlink="http://www.w3.org/1999/xlink"
	width="16" height="16" version="1.1">
	<title>Memory</title>
	<desc>Memory</desc>
	<g id="icon" transform="translate(8,8)">
		<defs>
			<linearGradient id="memory-backing" x1="0%" y1="0%" x2="100%"
				y2="100%">
				<stop offset="0%" stop-color="#6fa53d" />
				<stop offset="100%" stop-color="#1e7b03" />
			</linearGradient>
			<linearGradient id="memory-inner" x1="0%" y1="0%" x2="100%"
				y2="100%">
				<stop offset="0%" stop-color="#b0ce96" />
				<stop offset="100%" stop-color="#96c180" />
			</linearGradient>
			<linearGradient id="memory-center" x1="0%" y1="0%" x2="100%"
				y2="100%">
				<stop offset="0%" stop-color="#8eba6f" />
				<stop offset="100%" stop-color="#6c9f45" />
			</linearGradient>
			<linearGradient id="chip" x1="0%" y1="0%" x2="100%" y2="100%">
				<stop offset="0%" stop-color="#5f5f5f" />
				<stop offset="100%" stop-color="#252525" />
			</linearGradient>
			<linearGradient id="gold" x1="0%" y1="0%" x2="0%" y2="100%">
				<stop offset="0%" stop-color="#d9b434" />
				<stop offset="100%" stop-color="#d8862c" />
			</linearGradient>
			<linearGradient id="pluger-center" x1="0%" y1="0%" x2="100%"
				y2="100%">
				<stop offset="0%" stop-color="#fcf2c8" />
				<stop offset="100%" stop-color="#f0cb26" />
			</linearGradient>
		</defs>
		<rect rx="1" ry="1" x="-5" y="-8" height="16" width="10"
			fill="url(#memory-backing)" />
		<rect width="8" height="14" x="-4" y="-7" fill="url(#memory-inner)" />
		<rect width="6" height="12" x="-3" y="-6" fill="url(#memory-center)" />
		<rect width="5" height="3" x="-2" y="-5" fill="url(#chip)" />
		<rect width="3" height="1" x="-1" y="-4" fill="#252525" />
		<rect width="5" height="3" x="-2" y="1" fill="url(#chip)" />
		<rect width="3" height="1" x="-1" y="2" fill="#252525" />
		<path fill="url(#gold)"
			d="M-1,-6 h1 v1 h-1 v-1 m2,0 h1 v1 h-1 v-1 m-2,4 h1 v1 h-1 v-1 m2,0 h1 v1 h-1 v-1 m-2,2 h1 v1 h-1 v-1 m2,0 h1 v1 h-1 v-1 m-2,4 h1 v1 h-1 v-1 m2,0 h1 v1 h-1 v-1" />
		<path fill="url(#gold)" d="M-5,-7 v14 h-2 v-4 h1 v-1 h-1 v-9 h2 z" />
		<path fill="url(#pluger-center)" d="M-5,-6 v12 h-1 v-2 h1 v-3 h-1 v-7 h1 z" />
	</g>
</svg>
