<?xml version="1.0" encoding="utf-8" standalone="yes"?>
<!DOCTYPE svg PUBLIC "-//W3C//DTD SVG 1.1//EN" "http://www.w3.org/Graphics/SVG/1.1/DTD/svg11.dtd">
<svg xmlns="http://www.w3.org/2000/svg" xmlns:xlink="http://www.w3.org/1999/xlink"
	width="16" height="16" version="1.1">
	<title>Menu Page</title>
	<desc>Menu Page File</desc>
	<g id="icon" transform="translate(8,8)">
		<defs>
			<linearGradient id="center" x1="0%" y1="0%" x2="100%" y2="100%">
				<stop offset="0%" stop-color="#c1c1c1" />
				<stop offset="100%" stop-color="#f5f5f5" />
			</linearGradient>
			<linearGradient id="item" x1="0%" y1="0%" x2="100%" y2="100%">
				<stop offset="0%" stop-color="#799ed7" />
				<stop offset="100%" stop-color="#a0bce7" />
			</linearGradient>
		</defs>
		<rect width="12" height="15" rx="1" ry="1" x="-8" y="-7" fill="#000"
			opacity="0.21" />
		<rect width="10" height="13" x="-7" y="-6" fill="#fff" />
		<path fill="url(#center)"
			d="M-6,-5 h8 v2 h-8 m0,4 h8 v2 h-8 m0,1 h8 v2 h-8 " />
		<rect width="8" height="2" x="-6" y="-2" fill="url(#item)" />
		<rect width="9" height="9" rx="1" ry="1" x="-1" y="-4" fill="#000"
			opacity="0.21" />
		<rect width="7" height="7" x="0" y="-3" fill="#fff" />
		<rect width="5" height="2" x="1" y="-2" fill="url(#center)" />
		<rect width="5" height="2" x="1" y="1" fill="url(#item)" />
		<g id="icon" transform="translate(0,0)">
			<defs>
				<linearGradient id="page-backing" x1="100%" y1="0%" x2="0%"
					y2="100%">
					<stop offset="0%" stop-color="#4f8cc8" />
					<stop offset="100%" stop-color="#2e62b7" />
				</linearGradient>
				<linearGradient id="page-inner" x1="100%" y1="0%" x2="0%" y2="100%">
					<stop offset="0%" stop-color="#fff" />
					<stop offset="100%" stop-color="#eaf1f8" />
				</linearGradient>
				<linearGradient id="page-center" x1="100%" y1="0%" x2="0%"
					y2="100%">
					<stop offset="0%" stop-color="#a0bedc" />
					<stop offset="10%" stop-color="#b3d2f1" />
					<stop offset="50%" stop-color="#d5e5fe" />
				</linearGradient>
				<linearGradient id="page-corner" x1="0%" y1="100%" x2="100%"
					y2="0%">
					<stop offset="0%" stop-color="#cde6fc" />
					<stop offset="100%" stop-color="#7db2e2" />
				</linearGradient>
			</defs>
			<g id="page" transform="translate(1,4)">
				<path fill="url(#page-backing)"
					d="M0,-8 h-2 a1,1 0 0,0 -1,1 v10 a1,1 0 0,0 1,1 h8 a1,1 0 0,0 1,-1 v-8.5 l-2.5,-2.5 l-4.5,0 Z" />
				<path fill="url(#page-inner)" d="M0,-7 h-2 v10 h8 v-8 l-2,-2 h-3 Z" />
				<path fill="url(#page-center)" d="M0,-6 h-1 v8 h6 v-6.5 l-1.5,-1.5 h-2 Z" />
				<path fill="#fff" d="M3,-7 h1 l2,2 v1 h-3 v-3 Z" />
			</g>
		</g>
	</g>
</svg>
