<?xml version="1.0" encoding="utf-8" standalone="yes"?>
<!DOCTYPE svg PUBLIC "-//W3C//DTD SVG 1.1//EN" "http://www.w3.org/Graphics/SVG/1.1/DTD/svg11.dtd">
<svg xmlns="http://www.w3.org/2000/svg" xmlns:xlink="http://www.w3.org/1999/xlink"
	width="16" height="16" version="1.1">
	<title>Menu Delete</title>
	<desc>Menu Delete</desc>
	<g id="icon" transform="translate(8,8)">
		<defs>
			<linearGradient id="center" x1="0%" y1="0%" x2="100%" y2="100%">
				<stop offset="0%" stop-color="#c1c1c1" />
				<stop offset="100%" stop-color="#f5f5f5" />
			</linearGradient>
			<linearGradient id="item" x1="0%" y1="0%" x2="100%" y2="100%">
				<stop offset="0%" stop-color="#799ed7" />
				<stop offset="100%" stop-color="#a0bce7" />
			</linearGradient>
		</defs>
		<rect width="12" height="15" rx="1" ry="1" x="-8" y="-7" fill="#000"
			opacity="0.21" />
		<rect width="10" height="13" x="-7" y="-6" fill="#fff" />
		<path fill="url(#center)"
			d="M-6,-5 h8 v2 h-8 m0,4 h8 v2 h-8 m0,1 h8 v2 h-8 " />
		<rect width="8" height="2" x="-6" y="-2" fill="url(#item)" />
		<rect width="9" height="9" rx="1" ry="1" x="-1" y="-4" fill="#000"
			opacity="0.21" />
		<rect width="7" height="7" x="0" y="-3" fill="#fff" />
		<rect width="5" height="2" x="1" y="-2" fill="url(#center)" />
		<rect width="5" height="2" x="1" y="1" fill="url(#item)" />
		<g id="delete" transform="translate(4.5,4.5)">
			<defs>
				<linearGradient id="backing_delete" x1="0%" y1="0%" x2="100%"
					y2="100%">
					<stop offset="0%" stop-color="#c4581e" />
					<stop offset="100%" stop-color="#b84503" />
				</linearGradient>
				<linearGradient id="center_delete" x1="0%" y1="0%" x2="100%"
					y2="100%">
					<stop offset="0%" stop-color="#fed6b8" />
					<stop offset="100%" stop-color="#dd6401" />
				</linearGradient>
			</defs>
			<circle id="back" r="3.5" fill="url(#backing_delete)" />
			<circle id="center-dot" r="2.5" fill="url(#center_delete)" />
			<path fill="#fff" d="M-1.5,-0.5 h3 v1 h-3 v-1 z " />
		</g>
	</g>
</svg>
