<?xml version="1.0" encoding="utf-8" standalone="yes"?>
<!DOCTYPE svg PUBLIC "-//W3C//DTD SVG 1.1//EN" "http://www.w3.org/Graphics/SVG/1.1/DTD/svg11.dtd">
<svg xmlns="http://www.w3.org/2000/svg" xmlns:xlink="http://www.w3.org/1999/xlink"
	version="1.1">
	<title>Mine Explode</title>
	<desc>Mine Explode</desc>
	<g id="icon" transform="translate(8,8)">
		<defs>
			<linearGradient id="backing" x1="0%" y1="0%" x2="100%" y2="100%">
				<stop offset="0%" stop-color="#555" />
				<stop offset="100%" stop-color="#222" />
			</linearGradient>
			<radialGradient id="inner" cx="40%" cy="40%" r="50%">
				<stop offset="0%" stop-color="#666" />
				<stop offset="100%" stop-color="#999" />
			</radialGradient>
			<radialGradient id="in" cx="50%" cy="50%" r="50%">
				<stop offset="0%" stop-color="#777" />
				<stop offset="100%" stop-color="#444" />
			</radialGradient>
		</defs>
		<path id="branch"
			d="M5,-2 h3 l2.44921e-16,4 h-3 v0 l2.12132,2.12132 l-2.82843,2.82843 l-2.12132,-2.12132 h0 l1.83691e-16,3 l-4,4.89843e-16 l-1.83691e-16,-3 h0 l-2.12132,2.12132 l-2.82843,-2.82843 l2.12132,-2.12132 h0 l-3,3.67382e-16 l-7.34764e-16,-4 l3,-3.67382e-16 h0 l-2.12132,-2.12132 l2.82843,-2.82843 l2.12132,2.12132 h0 l-5.51073e-16,-3 l4,-9.79685e-16 l5.51073e-16,3 h0 l2.12132,-2.12132 l2.82843,2.82843 l-2.12132,2.12132 h0 z"
			fill="url(#backing)" />
		<path id="inner-branch"
			d="M5,-1 h2 l1.22461e-16,2 h-2 l-0.727099,1.75537 l1.41421,1.41421 l-1.41421,1.41421 l-1.41421,-1.41421 l-1.75537,0.727099 l1.22461e-16,2 l-2,2.44921e-16 l-1.22461e-16,-2 l-1.75537,-0.727099 l-1.41421,1.41421 l-1.41421,-1.41421 l1.41421,-1.41421 l-0.727099,-1.75537 l-2,2.44921e-16 l-3.67382e-16,-2 l2,-2.44921e-16 l0.727099,-1.75537 l-1.41421,-1.41421 l1.41421,-1.41421 l1.41421,1.41421 l1.75537,-0.727099 l-3.67382e-16,-2 l2,-4.89843e-16 l3.67382e-16,2 l1.75537,0.727099 l1.41421,-1.41421 l1.41421,1.41421 l-1.41421,1.41421 l0.727099,1.75537 z"
			fill="url(#inner)" />
		<circle r="4" fill="url(#in)" />
		<g transform="scale(0.8) rotate(10)">
			<defs>
				<linearGradient id="e-backing" x1="0%" y1="0%" x2="100%" y2="100%">
					<stop offset="0%" stop-color="#e9c73b" />
					<stop offset="50%" stop-color="#dfaf2b" />
					<stop offset="100%" stop-color="#cc810c" />
				</linearGradient>
				<linearGradient id="e-inner" x1="0%" y1="0%" x2="100%" y2="100%">
					<stop offset="0%" stop-color="#f5de5e" />
					<stop offset="50%" stop-color="#f1ce54" />
					<stop offset="100%" stop-color="#e5ae39" />
				</linearGradient>
				<linearGradient id="e-center" x1="0%" y1="0%" x2="100%" y2="100%">
					<stop offset="0%" stop-color="#efc62a" />
					<stop offset="100%" stop-color="#e9b31b" />
				</linearGradient>
			</defs>
			<path id="branch" fill="url(#e-backing)"
				d="M-8,-2.18766 l5.41743,-0.95524 l2.58257,-4.8571 l2.58257,4.8571 l5.41743,0.95524 l-3.82132,3.95709 l0.765592,5.44747 l-4.94427,-2.41148 l-4.94427,2.41148 l0.765592,-5.44747 l-3.82132,-3.95709 z" />
			<path id="branch-inner" fill="url(#e-inner)"
				d="M-6,-1.64074 l4.06308,-0.71643 l1.93692,-3.64283 l1.93692,3.64283 l4.06308,0.71643 l-2.86599,2.96782 l0.574194,4.0856 l-3.7082,-1.80861 l-3.7082,1.80861 l0.574194,-4.0856 l-2.86599,-2.96782 z" />
			<path id="branch-center" fill="url(#e-center)"
				d="M-4,-1.09383 l2.70872,-0.47762 l1.29128,-2.42855 l1.29128,2.42855 l2.70872,0.47762 l-1.91066,1.97855 l0.382796,2.72374 l-2.47214,-1.20574 l-2.47214,1.20574 l0.382796,-2.72374 l-1.91066,-1.97855 z" />
		</g>
		<path fill="url(#in)" d="M-3.5,-1 a4,4 0 0,1 4,-2.5 l-1,3" />
		<path transform="scale(0.8) rotate(135)" fill="url(#in)"
			d="M-3.5,-1 a4,4 0 0,1 4,-2.5 l-1,3" />
		<path transform="translate(-1,1) scale(0.6) rotate(255) " fill="url(#in)"
			d="M-3.5,-1 a4,4 0 0,1 4,-2.5 l-1,3" />
	</g>
</svg>
