<?xml version="1.0" encoding="utf-8" standalone="yes"?>
<!DOCTYPE svg PUBLIC "-//W3C//DTD SVG 1.1//EN" "http://www.w3.org/Graphics/SVG/1.1/DTD/svg11.dtd">
<svg xmlns="http://www.w3.org/2000/svg" xmlns:xlink="http://www.w3.org/1999/xlink"
	width="16" height="16" version="1.1">
	<title>Mine</title>
	<desc>Mine</desc>
	<g id="icon" transform="translate(8,8)">
		<defs>
			<linearGradient id="backing" x1="0%" y1="0%" x2="100%" y2="100%">
				<stop offset="0%" stop-color="#555" />
				<stop offset="100%" stop-color="#222" />
			</linearGradient>
			<radialGradient id="inner" cx="40%" cy="40%" r="50%">
				<stop offset="0%" stop-color="#666" />
				<stop offset="100%" stop-color="#999" />
			</radialGradient>
			<radialGradient id="in" cx="50%" cy="50%" r="50%">
				<stop offset="0%" stop-color="#777" />
				<stop offset="100%" stop-color="#444" />
			</radialGradient>
		</defs>
		<path id="branch"
			d="M5,-2 h3 l2.44921e-16,4 h-3 v0 l2.12132,2.12132 l-2.82843,2.82843 l-2.12132,-2.12132 h0 l1.83691e-16,3 l-4,4.89843e-16 l-1.83691e-16,-3 h0 l-2.12132,2.12132 l-2.82843,-2.82843 l2.12132,-2.12132 h0 l-3,3.67382e-16 l-7.34764e-16,-4 l3,-3.67382e-16 h0 l-2.12132,-2.12132 l2.82843,-2.82843 l2.12132,2.12132 h0 l-5.51073e-16,-3 l4,-9.79685e-16 l5.51073e-16,3 h0 l2.12132,-2.12132 l2.82843,2.82843 l-2.12132,2.12132 h0 z"
			fill="url(#backing)" />
		<path id="inner-branch"
			d="M5,-1 h2 l1.22461e-16,2 h-2 l-0.727099,1.75537 l1.41421,1.41421 l-1.41421,1.41421 l-1.41421,-1.41421 l-1.75537,0.727099 l1.22461e-16,2 l-2,2.44921e-16 l-1.22461e-16,-2 l-1.75537,-0.727099 l-1.41421,1.41421 l-1.41421,-1.41421 l1.41421,-1.41421 l-0.727099,-1.75537 l-2,2.44921e-16 l-3.67382e-16,-2 l2,-2.44921e-16 l0.727099,-1.75537 l-1.41421,-1.41421 l1.41421,-1.41421 l1.41421,1.41421 l1.75537,-0.727099 l-3.67382e-16,-2 l2,-4.89843e-16 l3.67382e-16,2 l1.75537,0.727099 l1.41421,-1.41421 l1.41421,1.41421 l-1.41421,1.41421 l0.727099,1.75537 z"
			fill="url(#inner)" />
		<circle r="4" fill="url(#in)" />

	</g>
</svg>
