<?xml version="1.0" encoding="utf-8" standalone="yes"?>
<!DOCTYPE svg PUBLIC "-//W3C//DTD SVG 1.1//EN" "http://www.w3.org/Graphics/SVG/1.1/DTD/svg11.dtd">
<svg xmlns="http://www.w3.org/2000/svg" xmlns:xlink="http://www.w3.org/1999/xlink"
	width="16" height="16" version="1.1">
	<title>Monitor Link</title>
	<desc>Monitor Window Link</desc>
	<g id="icon" transform="translate(8,8)">
		<defs>
			<linearGradient id="backing" x1="0%" y1="0%" x2="100%" y2="100%">
				<stop offset="0%" stop-color="#d8d8d8" />
				<stop offset="50%" stop-color="#a9a9a9" />
				<stop offset="100%" stop-color="#727272" />
			</linearGradient>
			<linearGradient id="edge" x1="0%" y1="0%" x2="100%" y2="100%">
				<stop offset="0%" stop-color="#dfe1e3" />
				<stop offset="100%" stop-color="#d6d6d8" />
			</linearGradient>
			<linearGradient id="monitor" x1="0%" y1="0%" x2="100%" y2="0%">
				<stop offset="0%" stop-color="#4d72a7" />
				<stop offset="100%" stop-color="#4d72a7" />
			</linearGradient>
			<linearGradient id="monitor-center" x1="0%" y1="0%" x2="100%"
				y2="0%">
				<stop offset="0%" stop-color="#698fc5" />
				<stop offset="100%" stop-color="#759ed4" />
			</linearGradient>
			<linearGradient id="monitor-gloss" x1="0%" y1="0%" x2="100%"
				y2="100%">
				<stop offset="0%" stop-color="#92aed6" stop-opacity="0.7" />
				<stop offset="100%" stop-color="#92aed6" stop-opacity="0.1" />
			</linearGradient>
			<linearGradient id="base" x1="0%" y1="0%" x2="100%" y2="100%">
				<stop offset="0%" stop-color="#8d8d8d" />
				<stop offset="100%" stop-color="#666" />
			</linearGradient>
			<linearGradient id="base-center" x1="0%" y1="0%" x2="100%" y2="100%">
				<stop offset="0%" stop-color="#c5c6c8" />
				<stop offset="100%" stop-color="#c7c8cd" />
			</linearGradient>
		</defs>
		<rect width="14" height="11" x="-7" y="-8" rx="1" ry="1" fill="url(#backing)" />
		<rect width="12" height="9" x="-6" y="-7" fill="url(#edge)" />
		<rect width="10" height="7" x="-5" y="-6" fill="url(#monitor)" />
		<rect width="8" height="5" x="-4" y="-5" fill="url(#monitor-center)" />
		<path fill="url(#monitor-gloss)" d="M-5,-6 h10 v7" />
		<path fill="url(#base)"
			d="M2,3 a1,1 0 0,0 1,1 l0.5,0  a1.5,1.5 0 0,1 0,3 h-7 a1.5,1.5 0 0,1 0,-3 l0.5,0 a1,1 0 0,0 1,-1 " />
		<path fill="url(#base-center)"
			d="M1,3 a1,1 0 0,0 1,1 l0.5,0 a1.5,1.5 0 0,1 1,1 h-7 a1.5,1.5 0 0,1 1,-1 l0.5,0 a1,1 0 0,0 1,-1 " />
		<rect width="7" height="1" x="-3.5" y="5" fill="#f7f7f7" />
		<g id="link-icon" transform="translate(1.5,4)">
			<defs>
				<linearGradient id="link-border" x1="0%" y1="0%" x2="100%"
					y2="0%">
					<stop offset="0%" stop-color="#858585" />
					<stop offset="100%" stop-color="#4a4a4a" />
				</linearGradient>
				<linearGradient id="link-inner" x1="0%" y1="0%" x2="100%" y2="0%">
					<stop offset="0%" stop-color="#dddddd" />
					<stop offset="100%" stop-color="#aeaeae" />
				</linearGradient>
				<radialGradient id="link-center-link" cx="50%" cy="0%" r="70%">
					<stop offset="0%" stop-color="#929292" />
					<stop offset="100%" stop-color="#414141" />
				</radialGradient>
				<radialGradient id="link-center-link-center" cx="50%" cy="50%"
					r="70%">
					<stop offset="0%" stop-color="#cecece" />
					<stop offset="100%" stop-color="#bdbdbd" />
				</radialGradient>
			</defs>
			<g id="link">
				<path fill="url(#link-border)"
					d="M-1.5,-3 l-1.5,0 a3.5,3.5 0 0,0 0,7 l1.5,0 a1.5,1.5 0 0,0 0,-3 h-2 a0.5,0.5 0 0,1 0,-1 h2 a1.5,1.5 0 0,0 0,-3   Z" />
				<path fill="url(#link-inner)"
					d="M-1.5,-2 l-1.5,0 a2.5,2.5 0 0,0 0,5 l1.5,0 a0.5,0.5 0 0,0 0,-1 l-1.5,0 a1.5,1.5 0 0,1 0,-3 l1.5,0 a0.5,0.5 0 0,0 0,-1 Z" />
			</g>
			<use xlink:href="#link" transform="rotate(180) translate(0,-1)" />
			<rect width="6" height="3" x="-3.25" y="-1" fill="url(#link-center-link)" />
			<rect width="4" height="1" x="-2.25" y="-0" fill="url(#link-center-link-center)" />
		</g>
	</g>
</svg>
