<?xml version="1.0" encoding="utf-8" standalone="yes"?>
<!DOCTYPE svg PUBLIC "-//W3C//DTD SVG 1.1//EN" "http://www.w3.org/Graphics/SVG/1.1/DTD/svg11.dtd">
<svg xmlns="http://www.w3.org/2000/svg" xmlns:xlink="http://www.w3.org/1999/xlink"
	width="16" height="16" version="1.1">
	<title>Monitor Network</title>
	<desc>Monitor Window Network</desc>
	<g id="icon" transform="translate(8,8)">
		<defs>
			<linearGradient id="backing" x1="0%" y1="0%" x2="100%" y2="100%">
				<stop offset="0%" stop-color="#d8d8d8" />
				<stop offset="50%" stop-color="#a9a9a9" />
				<stop offset="100%" stop-color="#727272" />
			</linearGradient>
			<linearGradient id="edge" x1="0%" y1="0%" x2="100%" y2="100%">
				<stop offset="0%" stop-color="#dfe1e3" />
				<stop offset="100%" stop-color="#d6d6d8" />
			</linearGradient>
			<linearGradient id="monitor" x1="0%" y1="0%" x2="100%" y2="0%">
				<stop offset="0%" stop-color="#4d72a7" />
				<stop offset="100%" stop-color="#4d72a7" />
			</linearGradient>
			<linearGradient id="monitor-center" x1="0%" y1="0%" x2="100%"
				y2="0%">
				<stop offset="0%" stop-color="#698fc5" />
				<stop offset="100%" stop-color="#759ed4" />
			</linearGradient>
			<linearGradient id="monitor-gloss" x1="0%" y1="0%" x2="100%"
				y2="100%">
				<stop offset="0%" stop-color="#92aed6" stop-opacity="0.7" />
				<stop offset="100%" stop-color="#92aed6" stop-opacity="0.1" />
			</linearGradient>
			<linearGradient id="base" x1="0%" y1="0%" x2="100%" y2="100%">
				<stop offset="0%" stop-color="#8d8d8d" />
				<stop offset="100%" stop-color="#666" />
			</linearGradient>
			<linearGradient id="base-center" x1="0%" y1="0%" x2="100%" y2="100%">
				<stop offset="0%" stop-color="#c5c6c8" />
				<stop offset="100%" stop-color="#c7c8cd" />
			</linearGradient>
		</defs>
		<rect width="14" height="11" x="-7" y="-8" rx="1" ry="1" fill="url(#backing)" />
		<rect width="12" height="9" x="-6" y="-7" fill="url(#edge)" />
		<rect width="10" height="7" x="-5" y="-6" fill="url(#monitor)" />
		<rect width="8" height="5" x="-4" y="-5" fill="url(#monitor-center)" />
		<path fill="url(#monitor-gloss)" d="M-5,-6 h10 v7" />
		<g id="network" transform="translate(0,-3)">
			<defs>
				<linearGradient id="network-center" x1="0%" y1="25%" x2="0%"
					y2="75%">
					<stop offset="0%" stop-color="#8ab8ff" />
					<stop offset="100%" stop-color="#7bafff" />
				</linearGradient>
			</defs>
			<path fill="#6a6a6a" d="M-2,6 h4 v1 h6 v3 h-16 v-3 h6 v-1" />
			<path fill="#8d8d8d"
				d="M-1,6 h2 v1 h-2 v-1 m-1,2 h-5 v1 h5 m9,0 h-5 v-1 h5" />
			<rect width="2" height="2" x="-1" y="7.8" fill="url(#network-center)" />
			<path fill="#0054f8" d="M-2,9.8 a1,1 0 0,0 1,1 h2 a1,1 0 0,0 1,-1 h-4" />
		</g>
	</g>
</svg>
