<?xml version="1.0" encoding="utf-8" standalone="yes"?>
<!DOCTYPE svg PUBLIC "-//W3C//DTD SVG 1.1//EN" "http://www.w3.org/Graphics/SVG/1.1/DTD/svg11.dtd">
<svg xmlns="http://www.w3.org/2000/svg" xmlns:xlink="http://www.w3.org/1999/xlink"
	width="16" height="16" version="1.1">
	<title>Note Go</title>
	<desc>Note Go</desc>
	<g id="icon" transform="translate(8,8)">
		<defs>
			<linearGradient id="backing" x1="0%" y1="0%" x2="100%" y2="100%">
				<stop offset="0%" stop-color="#fedfb6" />
				<stop offset="30%" stop-color="#f0ad5d" />
				<stop offset="100%" stop-color="#df7900" />
			</linearGradient>
			<linearGradient id="inner" x1="0%" y1="0%" x2="0%" y2="100%">
				<stop offset="0%" stop-color="#fffdfa" />
				<stop offset="100%" stop-color="#fcf6db" />
			</linearGradient>
			<linearGradient id="center" x1="0%" y1="0%" x2="100%" y2="100%">
				<stop offset="0%" stop-color="#f9eaaa" />
				<stop offset="50%" stop-color="#f5dd77" />
				<stop offset="100%" stop-color="#f2d142" />
			</linearGradient>
			<linearGradient id="flap" x1="0%" y1="0%" x2="0%" y2="100%">
				<stop offset="0%" stop-color="#ebad5e" />
				<stop offset="100%" stop-color="#e69f32" />
			</linearGradient>
			<linearGradient id="flap-center" x1="0%" y1="0%" x2="0%" y2="100%">
				<stop offset="0%" stop-color="#fcf3d3" />
				<stop offset="100%" stop-color="#f8e9a8" />
			</linearGradient>
		</defs>
		<rect width="12" height="12" x="-6" y="-6" fill="url(#backing)" />
		<rect width="10" height="10" x="-5" y="-5" fill="url(#inner)" />
		<rect width="8.2" height="7.1" x="-4.1" y="-3" fill="url(#center)" />
		<path fill="url(#flap)" d="M-5,0 h5 v5 l-2.5,0 l-2.5,-2.5 v-2.5" />
		<path fill="url(#flap-center)" d="M-4.5,1 l3.5,0 v3.5" />
		<g id="go" transform="translate(3,3)">
			<defs>
				<linearGradient id="border_go" x1="0%" y1="0%" x2="100%" y2="100%">
					<stop offset="0%" stop-color="#6fa53d" />
					<stop offset="100%" stop-color="#1e7b03" />
				</linearGradient>
				<linearGradient id="inner_go" x1="0%" y1="0%" x2="100%" y2="100%">
					<stop offset="0%" stop-color="#b0ce96" />
					<stop offset="100%" stop-color="#96c180" />
				</linearGradient>
			</defs>
			<path fill="url(#border_go)"
				d="M-1,-2 v-2 h1 l4.5,4.5 l-4.5,4.5 h-1 v-2 h-4 v-5 Z" />
			<path fill="url(#inner_go)" d="M0,-1 v-1.5 l3,3 l-3,3 v-1.5 h-4 v-3 Z" />
			<path fill="#8eba6f" d="M0.5,0 v-0.5 l1,1 l-1,1 v-0.5 l-3.5,0 v-1 Z" />
		</g>
	</g>
</svg>
