<?xml version="1.0" encoding="utf-8" standalone="yes"?>
<!DOCTYPE svg PUBLIC "-//W3C//DTD SVG 1.1//EN" "http://www.w3.org/Graphics/SVG/1.1/DTD/svg11.dtd">
<svg xmlns="http://www.w3.org/2000/svg" xmlns:xlink="http://www.w3.org/1999/xlink"
	width="16" height="16" version="1.1">
	<title>Note Error</title>
	<desc>Note Error</desc>
	<g id="icon" transform="translate(8,8)">
		<defs>
			<linearGradient id="backing" x1="0%" y1="0%" x2="100%" y2="100%">
				<stop offset="0%" stop-color="#fedfb6" />
				<stop offset="30%" stop-color="#f0ad5d" />
				<stop offset="100%" stop-color="#df7900" />
			</linearGradient>
			<linearGradient id="inner" x1="0%" y1="0%" x2="0%" y2="100%">
				<stop offset="0%" stop-color="#fffdfa" />
				<stop offset="100%" stop-color="#fcf6db" />
			</linearGradient>
			<linearGradient id="center" x1="0%" y1="0%" x2="100%" y2="100%">
				<stop offset="0%" stop-color="#f9eaaa" />
				<stop offset="50%" stop-color="#f5dd77" />
				<stop offset="100%" stop-color="#f2d142" />
			</linearGradient>
			<linearGradient id="flap" x1="0%" y1="0%" x2="0%" y2="100%">
				<stop offset="0%" stop-color="#ebad5e" />
				<stop offset="100%" stop-color="#e69f32" />
			</linearGradient>
			<linearGradient id="flap-center" x1="0%" y1="0%" x2="0%" y2="100%">
				<stop offset="0%" stop-color="#fcf3d3" />
				<stop offset="100%" stop-color="#f8e9a8" />
			</linearGradient>
		</defs>
		<rect width="12" height="12" x="-6" y="-6" fill="url(#backing)" />
		<rect width="10" height="10" x="-5" y="-5" fill="url(#inner)" />
		<rect width="8.2" height="7.1" x="-4.1" y="-3" fill="url(#center)" />
		<path fill="url(#flap)" d="M-5,0 h5 v5 l-2.5,0 l-2.5,-2.5 v-2.5" />
		<path fill="url(#flap-center)" d="M-4.5,1 l3.5,0 v3.5" />
		<g id="error" transform="translate(2,3)">
			<defs>
				<linearGradient id="error-backing" x1="0%" y1="0%" x2="100%"
					y2="0%">
					<stop offset="0%" stop-color="#debd5c" />
					<stop offset="100%" stop-color="#bd7723" />
				</linearGradient>
				<linearGradient id="error-center" x1="0%" y1="0%" x2="100%"
					y2="0%">
					<stop offset="0%" stop-color="#fbf4dc" />
					<stop offset="100%" stop-color="#f8eaab" />
				</linearGradient>
				<linearGradient id="error-in-border" x1="0%" y1="0%" x2="100%"
					y2="0%">
					<stop offset="0%" stop-color="#f5da58" />
					<stop offset="100%" stop-color="#f6de6a" />
				</linearGradient>
			</defs>
			<path fill="url(#error-backing)" d="M0.5,-5 l5.5,10 h-11 l5.5,-10 Z" />
			<path fill="url(#error-center)" d="M0.5,-3.5 l4,7.5 h-8 l4,-7.5 Z" />
			<path fill="url(#error-in-border)" d="M0.5,-2 l2.5,5 h-5 l2.5,-5 Z" />
			<rect width="1" height="2" y="-1" fill="#c28832" />
			<rect width="1" height="1" y="2" fill="#c28832" />
		</g>
	</g>
</svg>
