<?xml version="1.0" encoding="utf-8" standalone="yes"?>
<!DOCTYPE svg PUBLIC "-//W3C//DTD SVG 1.1//EN" "http://www.w3.org/Graphics/SVG/1.1/DTD/svg11.dtd">
<svg xmlns="http://www.w3.org/2000/svg" xmlns:xlink="http://www.w3.org/1999/xlink"
	width="16" height="16" version="1.1">
	<title>Options Wrench</title>
	<desc>Options Wrench Configure</desc>
	<g id="add" transform="translate(7,7)">
		<defs>
			<linearGradient id="backing" x1="0%" y1="0%" x2="100%" y2="100%">
				<stop offset="0%" stop-color="#a8a8a8" />
				<stop offset="100%" stop-color="#7a7a7a" />
			</linearGradient>
			<linearGradient id="center" x1="0%" y1="0%" x2="100%" y2="100%">
				<stop offset="0%" stop-color="#e5e5e5" />
				<stop offset="100%" stop-color="#b5b5b5" />
			</linearGradient>
			<linearGradient id="dial" x1="0%" y1="0%" x2="100%" y2="0%">
				<stop offset="0%" stop-color="#b2b2b2" />
				<stop offset="100%" stop-color="#949494" />
			</linearGradient>
		</defs>
		<rect width="14" height="14" x="-7" y="-7" rx="1" ry="1" fill="url(#backing)" />
		<rect width="12" height="12" x="-6" y="-6" fill="#fff" />
		<rect width="10" height="10" x="-5" y="-5" fill="url(#center)" />
		<rect width="1" height="12" x="-3" y="-6" fill="#fff" opacity="0.85" />
		<rect width="1" height="12" x="-2" y="-6" fill="#000" opacity="0.2" />
		<rect width="4" height="3" x="-4" y="-4" fill="url(#dial)" />
		<rect width="2" height="1" x="-3" y="-3" fill="url(#center)" />
		<g id="wrench" transform="scale(-1,1) translate(-4,3)">
			<defs>
				<linearGradient id="wrench-backing" x1="0%" y1="0%" x2="100%"
					y2="100%">
					<stop offset="0%" stop-color="#9d9d9d" />
					<stop offset="100%" stop-color="#848484" />
				</linearGradient>
				<linearGradient id="wrench-center" x1="0%" y1="0%" x2="100%"
					y2="100%">
					<stop offset="0%" stop-color="#e1e1e1" />
					<stop offset="100%" stop-color="#c6c6c6" />
				</linearGradient>
				<linearGradient id="wrench-handel" x1="100%" y1="0%" x2="0%"
					y2="100%">
					<stop offset="0%" stop-color="#91b0e3" />
					<stop offset="100%" stop-color="#497dd1" />
				</linearGradient>
				<linearGradient id="wrench-handel-c" x1="100%" y1="0%" x2="0%"
					y2="100%">
					<stop offset="0%" stop-color="#b0c7eb" />
					<stop offset="100%" stop-color="#a5bfe9" />
				</linearGradient>
			</defs>
			<path transform="rotate(-45)"
				d="M0,-1.5 l1.4,0 l1.45,-1.45 a1.7,1.7 0 0,1 2.7,0 l1.2,1.2 l-1.75,1.75 l1.75,1.75 l-1.2,1.2 a1.7,1.7 0 0,1 -2.7,0  l-1.45,-1.45 l-1.4,0 "
				fill="url(#wrench-backing)" />
			<path transform="rotate(-45)"
				d="M0,-0.75 l2.4,0 l2,-2 l1.414,1.414 l-0.707,0.707 l-0.707,-0.707 l-1.414,1.414 l1.414,1.414 l0.707,-0.707 l0.707,0.707 l-1.414,1.414 l-2,-2 l-2.4,0 z"
				fill="url(#wrench-center)" />
			<path transform="rotate(-45)" d="M0,-1.5 l-1,-.5 l-3.5,0 a2,2 0 0,0 0,4 l3.5,0 l1,-.5 "
				fill="url(#wrench-handel)" />
			<path transform="rotate(-45)" d="M-1,-1 l-3.5,0 a1,1 0 0,0 0,2 l3.5,0   "
				fill="url(#wrench-handel-c)" />
		</g>
	</g>
</svg>
