<?xml version="1.0" encoding="utf-8" standalone="yes"?>
<!DOCTYPE svg PUBLIC "-//W3C//DTD SVG 1.1//EN" "http://www.w3.org/Graphics/SVG/1.1/DTD/svg11.dtd">
<svg xmlns="http://www.w3.org/2000/svg" xmlns:xlink="http://www.w3.org/1999/xlink"
	width="16" height="16" version="1.1">
	<title>Package Link</title>
	<desc>Package Software Link</desc>
	<g id="icon" transform="translate(8,8)">
		<defs>
			<linearGradient id="backing-right" x1="0%" y1="0%" x2="100%"
				y2="100%">
				<stop offset="0%" stop-color="#d9b74f" />
				<stop offset="100%" stop-color="#c88e2c" />
			</linearGradient>
			<linearGradient id="backing-left" x1="0%" y1="0%" x2="100%"
				y2="100%">
				<stop offset="0%" stop-color="#d7b04a" />
				<stop offset="100%" stop-color="#c58726" />
			</linearGradient>
			<linearGradient id="inner-right" x1="0%" y1="0%" x2="100%" y2="100%">
				<stop offset="0%" stop-color="#fef8e1" />
				<stop offset="100%" stop-color="#e8e8e8" />
			</linearGradient>
			<linearGradient id="inner-left" x1="0%" y1="0%" x2="100%" y2="100%">
				<stop offset="0%" stop-color="#f7e4b2" />
				<stop offset="100%" stop-color="#ecc483" />
			</linearGradient>
			<linearGradient id="center-right" x1="0%" y1="0%" x2="100%"
				y2="100%">
				<stop offset="20%" stop-color="#fff3d4" />
				<stop offset="100%" stop-color="#fee094" />
			</linearGradient>
			<linearGradient id="center-left" x1="0%" y1="0%" x2="100%" y2="100%">
				<stop offset="20%" stop-color="#efc748" />
				<stop offset="100%" stop-color="#de9f32" />
			</linearGradient>
			<linearGradient id="top" x1="0%" y1="100%" x2="100%" y2="0%">
				<stop offset="0%" stop-color="#f7d589" />
				<stop offset="100%" stop-color="#f5cf7f" />
			</linearGradient>
			<linearGradient id="lower-flap" x1="0%" y1="0%" x2="100%" y2="100%">
				<stop offset="0%" stop-color="#fef8e1" stop-opacity="1.0" />
				<stop offset="100%" stop-color="#fef8e1" stop-opacity="0.0" />
			</linearGradient>
			<linearGradient id="upper-flap" x1="0%" y1="0%" x2="100%" y2="100%">
				<stop offset="0%" stop-color="#fef8e1" stop-opacity="0.0" />
				<stop offset="100%" stop-color="#fef8e1" stop-opacity="1.0" />
			</linearGradient>
		</defs>
		<path fill="url(#backing-right)" d="M0,-8 l-8,4 v8 l8,4 z" />
		<path fill="url(#backing-left)" d="M0,-8 l8,4 v8 l-8,4 z" />
		<path fill="url(#inner-right)" d="M0,-7 l-7,3.5 v7 l7,3.5 z" />
		<path fill="url(#inner-left)" d="M0,-7 l7,3.5 v7 l-7,3.5 z" />
		<path fill="url(#center-right)" d="M-6,-2.5 v5.5 l6,3 v-5.5" />
		<path fill="url(#center-left)" d="M6,-2.5 v5.5 l-6,3 v-5.5" />
		<path fill="url(#top)" d="M-6,-3 l6,3 l6,-3 l-6,-3 l-6,3" />
		<path fill="url(#lower-flap)" d="M0,0 v-3.5 h6.5" />
		<path fill="url(#upper-flap)" d="M-6,-3 l6,-1 v-2" />
		<path fill="#765219" opacity="0.5"
			d="M-6,-3 h5 l1,3 v-4 v-2 l1,2.5 h-1 v-0.5" />
		<g id="link-icon" transform="translate(1.5,4)">
			<defs>
				<linearGradient id="link-border" x1="0%" y1="0%" x2="100%"
					y2="0%">
					<stop offset="0%" stop-color="#858585" />
					<stop offset="100%" stop-color="#4a4a4a" />
				</linearGradient>
				<linearGradient id="link-inner" x1="0%" y1="0%" x2="100%" y2="0%">
					<stop offset="0%" stop-color="#dddddd" />
					<stop offset="100%" stop-color="#aeaeae" />
				</linearGradient>
				<radialGradient id="link-center-link" cx="50%" cy="0%" r="70%">
					<stop offset="0%" stop-color="#929292" />
					<stop offset="100%" stop-color="#414141" />
				</radialGradient>
				<radialGradient id="link-center-link-center" cx="50%" cy="50%"
					r="70%">
					<stop offset="0%" stop-color="#cecece" />
					<stop offset="100%" stop-color="#bdbdbd" />
				</radialGradient>
			</defs>
			<g id="link">
				<path fill="url(#link-border)"
					d="M-1.5,-3 l-1.5,0 a3.5,3.5 0 0,0 0,7 l1.5,0 a1.5,1.5 0 0,0 0,-3 h-2 a0.5,0.5 0 0,1 0,-1 h2 a1.5,1.5 0 0,0 0,-3   Z" />
				<path fill="url(#link-inner)"
					d="M-1.5,-2 l-1.5,0 a2.5,2.5 0 0,0 0,5 l1.5,0 a0.5,0.5 0 0,0 0,-1 l-1.5,0 a1.5,1.5 0 0,1 0,-3 l1.5,0 a0.5,0.5 0 0,0 0,-1 Z" />
			</g>
			<use xlink:href="#link" transform="rotate(180) translate(0,-1)" />
			<rect width="6" height="3" x="-3.25" y="-1" fill="url(#link-center-link)" />
			<rect width="4" height="1" x="-2.25" y="-0" fill="url(#link-center-link-center)" />
		</g>
	</g>
</svg>
