<?xml version="1.0" encoding="utf-8" standalone="yes"?>
<!DOCTYPE svg PUBLIC "-//W3C//DTD SVG 1.1//EN" "http://www.w3.org/Graphics/SVG/1.1/DTD/svg11.dtd">
<svg xmlns="http://www.w3.org/2000/svg" xmlns:xlink="http://www.w3.org/1999/xlink"
	width="16" height="16" version="1.1">
	<title>Package Refresh</title>
	<desc>Package Software Refresh Update</desc>
	<g id="icon" transform="translate(8,8)">
		<defs>
			<linearGradient id="backing-right" x1="0%" y1="0%" x2="100%"
				y2="100%">
				<stop offset="0%" stop-color="#d9b74f" />
				<stop offset="100%" stop-color="#c88e2c" />
			</linearGradient>
			<linearGradient id="backing-left" x1="0%" y1="0%" x2="100%"
				y2="100%">
				<stop offset="0%" stop-color="#d7b04a" />
				<stop offset="100%" stop-color="#c58726" />
			</linearGradient>
			<linearGradient id="inner-right" x1="0%" y1="0%" x2="100%" y2="100%">
				<stop offset="0%" stop-color="#fef8e1" />
				<stop offset="100%" stop-color="#e8e8e8" />
			</linearGradient>
			<linearGradient id="inner-left" x1="0%" y1="0%" x2="100%" y2="100%">
				<stop offset="0%" stop-color="#f7e4b2" />
				<stop offset="100%" stop-color="#ecc483" />
			</linearGradient>
			<linearGradient id="center-right" x1="0%" y1="0%" x2="100%"
				y2="100%">
				<stop offset="20%" stop-color="#fff3d4" />
				<stop offset="100%" stop-color="#fee094" />
			</linearGradient>
			<linearGradient id="center-left" x1="0%" y1="0%" x2="100%" y2="100%">
				<stop offset="20%" stop-color="#efc748" />
				<stop offset="100%" stop-color="#de9f32" />
			</linearGradient>
			<linearGradient id="top" x1="0%" y1="100%" x2="100%" y2="0%">
				<stop offset="0%" stop-color="#f7d589" />
				<stop offset="100%" stop-color="#f5cf7f" />
			</linearGradient>
			<linearGradient id="lower-flap" x1="0%" y1="0%" x2="100%" y2="100%">
				<stop offset="0%" stop-color="#fef8e1" stop-opacity="1.0" />
				<stop offset="100%" stop-color="#fef8e1" stop-opacity="0.0" />
			</linearGradient>
			<linearGradient id="upper-flap" x1="0%" y1="0%" x2="100%" y2="100%">
				<stop offset="0%" stop-color="#fef8e1" stop-opacity="0.0" />
				<stop offset="100%" stop-color="#fef8e1" stop-opacity="1.0" />
			</linearGradient>
		</defs>
		<path fill="url(#backing-right)" d="M0,-8 l-8,4 v8 l8,4 z" />
		<path fill="url(#backing-left)" d="M0,-8 l8,4 v8 l-8,4 z" />
		<path fill="url(#inner-right)" d="M0,-7 l-7,3.5 v7 l7,3.5 z" />
		<path fill="url(#inner-left)" d="M0,-7 l7,3.5 v7 l-7,3.5 z" />
		<path fill="url(#center-right)" d="M-6,-2.5 v5.5 l6,3 v-5.5" />
		<path fill="url(#center-left)" d="M6,-2.5 v5.5 l-6,3 v-5.5" />
		<path fill="url(#top)" d="M-6,-3 l6,3 l6,-3 l-6,-3 l-6,3" />
		<path fill="url(#lower-flap)" d="M0,0 v-3.5 h6.5" />
		<path fill="url(#upper-flap)" d="M-6,-3 l6,-1 v-2" />
		<path fill="#765219" opacity="0.5"
			d="M-6,-3 h5 l1,3 v-4 v-2 l1,2.5 h-1 v-0.5" />
		<g id="icon" transform="translate(4,2)">
			<defs>
				<linearGradient id="arrow-backing" x1="0%" y1="0%" x2="100%"
					y2="100%">
					<stop offset="0%" stop-color="#7ccb72" />
					<stop offset="100%" stop-color="#22601e" />
				</linearGradient>
				<linearGradient id="arrow-center" x1="0%" y1="0%" x2="100%"
					y2="100%">
					<stop offset="0%" stop-color="#a7d69e" />
					<stop offset="100%" stop-color="#78bd72" />
				</linearGradient>
			</defs>
			<path fill="url(#arrow-backing)"
				d="M-6,-1 a4,4 0 0,1 4,-4 h2 v-2 l3.5,3.5 l-3.5,3.5 v-2 h-2 a1,1 0 0,0 -1,1 h-4 m7,1 h4 a4,4 0 0,1 -4,4 h-2 v2 l-3.5,-3.5 l3.5,-3.5 v2 h2 a1,1 0 0,0 1,-1 z" />
			<path fill="url(#arrow-center)"
				d="M-5,-2 a3,3 0 0,1 3,-2 l2.5,0 v-1.5 l2,2 l-2,2 v-1.5 l-2.5,0 a1.5,1.5 0 0,0 -1.5,1 h-2 m6.5,3 h2 a3,3 0 0,1 -3,2 l-2.5,0 v1.5 l-2,-2 l2,-2 v1.5 l2.5,0 a1.5,1.5 0 0,0 1.5,-1 h2  z" />
		</g>
	</g>
</svg>
