<?xml version="1.0" encoding="utf-8" standalone="yes"?>
<!DOCTYPE svg PUBLIC "-//W3C//DTD SVG 1.1//EN" "http://www.w3.org/Graphics/SVG/1.1/DTD/svg11.dtd">
<svg xmlns="http://www.w3.org/2000/svg" xmlns:xlink="http://www.w3.org/1999/xlink"
	width="16" height="16" version="1.1">
	<title>White Page Picture</title>
	<desc>White Page Picture</desc>
	<g id="icon" transform="translate(9,8)">
		<defs>
			<linearGradient id="center" x1="100%" y1="0%" x2="0%" y2="100%">
				<stop offset="0%" stop-color="#cacaca" />
				<stop offset="10%" stop-color="#e9e9e9" />
				<stop offset="50%" stop-color="#fff" />
			</linearGradient>
			<linearGradient id="corner" x1="0%" y1="100%" x2="100%" y2="0%">
				<stop offset="0%" stop-color="#fff" />
				<stop offset="100%" stop-color="#c1c1c1" />
			</linearGradient>
		</defs>
		<path fill="#000" opacity="0.21"
			d="M0,-8 h-6 a1,1 0 0,0 -1,1 v14 a1,1 0 0,0 1,1 h12 a1,1 0 0,0 1,-1 v-11.5 l-3.5,-3.5 l-4.5,0 Z" />
		<path fill="#fff" d="M0,-7 h-6 v14 h12 v-11 l-3,-3 h-3 Z" />
		<path fill="url(#center)" d="M0,-6 h-5 v12 h10 v-10 l-2,-2 h-2 Z" />
		<path fill="#fff" d="M2,-7 h1 l3,3 v1 h-4 v-4 Z" />
		<path fill="url(#corner)" d="M3,-7 l0.1,0 l3,3 l-3.1,0 v-3 Z" />
		<g id="page" transform="translate(-4,0)">
			<defs>
				<linearGradient id="picture-backing" x1="0%" y1="0%" x2="100%"
					y2="100%">
					<stop offset="0%" stop-color="#7694c2" />
					<stop offset="100%" stop-color="#7d98c4" />
				</linearGradient>
				<linearGradient id="picture-sky" x1="0%" y1="0%" x2="100%"
					y2="100%">
					<stop offset="0%" stop-color="#ccdbe9" />
					<stop offset="100%" stop-color="#8db2d6" />
				</linearGradient>
				<linearGradient id="picture-grass" x1="0%" y1="0%" x2="100%"
					y2="0%">
					<stop offset="0%" stop-color="#70a247" />
					<stop offset="100%" stop-color="#55862c" />
				</linearGradient>
				<linearGradient id="picture-trunk" x1="0%" y1="0%" x2="100%"
					y2="0%">
					<stop offset="0%" stop-color="#cc9e4f" />
					<stop offset="100%" stop-color="#a17831" />
				</linearGradient>
				<linearGradient id="picture-tree" x1="0%" y1="0%" x2="100%"
					y2="100%">
					<stop offset="0%" stop-color="#9fca4a" />
					<stop offset="100%" stop-color="#4e974e" />
				</linearGradient>
			</defs>
			<rect width="10" height="10" x="-5" y="-5" rx="1" ry="1"
				fill="url(#picture-backing)" />
			<rect width="8" height="8" x="-4" y="-4" fill="#f1f4f8" />
			<rect width="6" height="5" x="-3" y="-3" fill="url(#picture-sky)" />
			<rect width="6" height="1" x="-3" y="2" fill="url(#picture-grass)" />
			<rect width="2" height="2" x="-1" y="0" fill="url(#picture-trunk)" />
			<circle r="2" cx="0" cy="-1" fill="url(#picture-tree)" />
		</g>
	</g>
</svg>
