<?xml version="1.0" encoding="utf-8" standalone="yes"?>
<!DOCTYPE svg PUBLIC "-//W3C//DTD SVG 1.1//EN" "http://www.w3.org/Graphics/SVG/1.1/DTD/svg11.dtd">
<svg xmlns="http://www.w3.org/2000/svg" xmlns:xlink="http://www.w3.org/1999/xlink"
	width="16" height="16" version="1.1">
	<title>White Page Magnify</title>
	<desc>White Page Magnify</desc>
	<g id="icon" transform="translate(8,8)">
		<defs>
			<linearGradient id="center" x1="100%" y1="0%" x2="0%" y2="100%">
				<stop offset="0%" stop-color="#cacaca" />
				<stop offset="10%" stop-color="#e9e9e9" />
				<stop offset="50%" stop-color="#fff" />
			</linearGradient>
			<linearGradient id="corner" x1="0%" y1="100%" x2="100%" y2="0%">
				<stop offset="0%" stop-color="#fff" />
				<stop offset="100%" stop-color="#c1c1c1" />
			</linearGradient>
		</defs>
		<path fill="#000" opacity="0.21"
			d="M0,-8 h-6 a1,1 0 0,0 -1,1 v14 a1,1 0 0,0 1,1 h12 a1,1 0 0,0 1,-1 v-11.5 l-3.5,-3.5 l-4.5,0 Z" />
		<path fill="#fff" d="M0,-7 h-6 v14 h12 v-11 l-3,-3 h-3 Z" />
		<path fill="url(#center)" d="M0,-6 h-5 v12 h10 v-10 l-2,-2 h-2 Z" />
		<path fill="#fff" d="M2,-7 h1 l3,3 v1 h-4 v-4 Z" />
		<path fill="url(#corner)" d="M3,-7 l0.1,0 l3,3 l-3.1,0 v-3 Z" />
		<g id="find-icon" transform="translate(4,4)">
			<defs>
				<linearGradient id="find-border" x1="0%" y1="0%" x2="100%"
					y2="100%">
					<stop offset="0%" stop-color="#bedbfa" />
					<stop offset="100%" stop-color="#769ccd" />
				</linearGradient>
				<linearGradient id="find-in-border" x1="0%" y1="0%" x2="100%"
					y2="100%">
					<stop offset="0%" stop-color="#e3eefa" />
					<stop offset="100%" stop-color="#d2e4f7" />
				</linearGradient>
				<linearGradient id="find-center" x1="0%" y1="0%" x2="100%"
					y2="100%">
					<stop offset="0%" stop-color="#cce1f6" />
					<stop offset="100%" stop-color="#bbd6f3" />
				</linearGradient>
				<linearGradient id="find-handel" x1="0%" y1="0%" x2="100%"
					y2="0%">
					<stop offset="0%" stop-color="#b57d41" />
					<stop offset="100%" stop-color="#9d6722" />
				</linearGradient>
				<linearGradient id="find-hold" x1="0%" y1="0%" x2="100%" y2="0%">
					<stop offset="0%" stop-color="#e8cbab" />
					<stop offset="100%" stop-color="#ddb589" />
				</linearGradient>
			</defs>
			<g>
				<path transform="rotate(45)" d="M0,-1 h4 a1,1 0 0,1 0,2 h-4" fill="url(#find-handel)" />
				<path transform="rotate(45)" d="M0,-0.5 h4 a0.5,0.5 0 0,1 0,1 h-4"
					fill="url(#find-hold)" />
			</g>
			<circle r="3.5" cx="-1.5" cy="-1.5" fill="url(#find-border)" />
			<circle r="2.5" cx="-1.5" cy="-1.5" fill="url(#find-in-border)" />
			<circle r="1.5" cx="-1.5" cy="-1.5" fill="url(#find-center)" />
		</g>
	</g>
</svg>
