<?xml version="1.0" encoding="utf-8" standalone="yes"?>
<!DOCTYPE svg PUBLIC "-//W3C//DTD SVG 1.1//EN" "http://www.w3.org/Graphics/SVG/1.1/DTD/svg11.dtd">
<svg xmlns="http://www.w3.org/2000/svg" xmlns:xlink="http://www.w3.org/1999/xlink"
	width="16" height="16" version="1.1">
	<title>White Page Font</title>
	<desc>White Page Font</desc>
	<g id="icon" transform="translate(8,8)">
		<defs>
			<linearGradient id="center" x1="100%" y1="0%" x2="0%" y2="100%">
				<stop offset="0%" stop-color="#cacaca" />
				<stop offset="10%" stop-color="#e9e9e9" />
				<stop offset="50%" stop-color="#fff" />
			</linearGradient>
			<linearGradient id="corner" x1="0%" y1="100%" x2="100%" y2="0%">
				<stop offset="0%" stop-color="#fff" />
				<stop offset="100%" stop-color="#c1c1c1" />
			</linearGradient>
		</defs>
		<path fill="#000" opacity="0.21"
			d="M0,-8 h-6 a1,1 0 0,0 -1,1 v14 a1,1 0 0,0 1,1 h12 a1,1 0 0,0 1,-1 v-11.5 l-3.5,-3.5 l-4.5,0 Z" />
		<path fill="#fff" d="M0,-7 h-6 v14 h12 v-11 l-3,-3 h-3 Z" />
		<path fill="url(#center)" d="M0,-6 h-5 v12 h10 v-10 l-2,-2 h-2 Z" />
		<path fill="#fff" d="M2,-7 h1 l3,3 v1 h-4 v-4 Z" />
		<path fill="url(#corner)" d="M3,-7 l0.1,0 l3,3 l-3.1,0 v-3 Z" />
		<g id="font" transform="scale(.75) translate(5,5)">
			<defs>
				<linearGradient id="font_backing" x1="0%" y1="0%" x2="100%"
					y2="100%">
					<stop offset="0%" stop-color="#438bd8" />
					<stop offset="100%" stop-color="#3155c6" />
				</linearGradient>
				<linearGradient id="font_center" x1="0%" y1="0%" x2="100%"
					y2="100%">
					<stop offset="0%" stop-color="#91bce9" />
					<stop offset="100%" stop-color="#6b96dc" />
				</linearGradient>
			</defs>
			<path fill="url(#font_backing)"
				d="M1,-6 l4.5,0 v2 h-1 v7 a2,2 0 0,0 2,2 h-6 a2,2 0 0,0 2,-2 v-1 l-2.6666,0 l-0.6666,1 a2,2 0 0,0 2,2 h-7 a2.7,2.7 0 0,0 2,-1 l5,-8 h-1 v-2 h2 m0.333,4 l-2,3 h2 v-3 Z" />
			<path fill="url(#font_center)"
				d="M1,-5.5 h4 v1 h-1 v8 a1,1 0 0,0 1,1 h-3 a1,1 0 0,0 1,-1 v-7 l-4.3333,6.5 h0.5 a1,1 0 0,0 1,1 l-3.5,0 a2,2 0 0,0 1,-1 l4.8,-8 l-1.5,0 v-1 h2 Z" />
		</g>
	</g>
</svg>