<?xml version="1.0" encoding="utf-8" standalone="yes"?>
<!DOCTYPE svg PUBLIC "-//W3C//DTD SVG 1.1//EN" "http://www.w3.org/Graphics/SVG/1.1/DTD/svg11.dtd">
<svg xmlns="http://www.w3.org/2000/svg" xmlns:xlink="http://www.w3.org/1999/xlink"
	width="16" height="16" version="1.1">
	<title>Page World</title>
	<desc>Page Document World</desc>
	<g id="icon" transform="translate(9,8)">
		<defs>
			<linearGradient id="center" x1="100%" y1="0%" x2="0%" y2="100%">
				<stop offset="0%" stop-color="#a0bedc" />
				<stop offset="10%" stop-color="#b3d2f1" />
				<stop offset="50%" stop-color="#d5e5fe" />
			</linearGradient>
			<linearGradient id="corner" x1="0%" y1="100%" x2="100%" y2="0%">
				<stop offset="0%" stop-color="#cde6fc" />
				<stop offset="100%" stop-color="#7db2e2" />
			</linearGradient>
			<linearGradient id="backing" x1="0%" y1="0%" x2="100%" y2="100%">
				<stop offset="0%" stop-color="#4f8cc8" />
				<stop offset="100%" stop-color="#2e62b7" />
			</linearGradient>
			<linearGradient id="base" x1="0%" y1="100%" x2="100%" y2="0%">
				<stop offset="0%" stop-color="#68bffd" />
				<stop offset="100%" stop-color="#4fb2f7" />
			</linearGradient>
			<linearGradient id="base-center" x1="0%" y1="100%" x2="100%"
				y2="0%">
				<stop offset="0%" stop-color="#a0d8ff" />
				<stop offset="100%" stop-color="#93d4ff" />
			</linearGradient>
			<linearGradient id="line" x1="100%" y1="0%" x2="0%" y2="100%">
				<stop offset="0%" stop-color="#fff" />
				<stop offset="100%" stop-color="#eaf1f8" />
			</linearGradient>
		</defs>
		<path fill="url(#backing)"
			d="M0,-8 h-6 a1,1 0 0,0 -1,1 v14 a1,1 0 0,0 1,1 h12 a1,1 0 0,0 1,-1 v-11.5 l-3.5,-3.5 l-4.5,0 Z" />
		<path fill="url(#line)" d="M0,-7 h-6 v14 h12 v-11 l-3,-3 h-3 Z" />
		<path fill="url(#center)" d="M0,-6 h-5 v9 h10 v-7 l-2,-2 h-2 Z" />
		<path fill="#fff" d="M2,-7 h1 l3,3 v1 h-4 v-4 Z" />
		<path fill="url(#corner)" d="M3,-7 l0.1,0 l3,3 l-3.1,0 v-3 Z" />
		<rect width="10" height="3" x="-5" y="3" fill="url(#base)" />
		<rect width="8" height="1" x="-4" y="4" fill="url(#base-center)" />
		<g id="icon" transform="translate(-3.5,0.5) scale(0.6875)">
			<defs>
				<linearGradient id="backing" x1="0%" y1="0%" x2="100%" y2="100%">
					<stop offset="0%" stop-color="#6ec461" />
					<stop offset="100%" stop-color="#327a2f" />
				</linearGradient>
				<linearGradient id="in-border" x1="0%" y1="0%" x2="100%" y2="100%">
					<stop offset="0%" stop-color="#e2f3c0" />
					<stop offset="100%" stop-color="#bcdaa0" />
				</linearGradient>
				<radialGradient id="gloss" cx="50%" cy="30%" r="50%">
					<stop offset="0%" stop-color="#fff" stop-opacity="0.6" />
					<stop offset="100%" stop-color="#fff" stop-opacity="0.0" />
				</radialGradient>
				<linearGradient id="amer-fill" x1="0%" y1="0%" x2="100%" y2="100%">
					<stop offset="0%" stop-color="#6ddb77" />
					<stop offset="100%" stop-color="#80c079" />
				</linearGradient>
				<linearGradient id="sand" x1="0%" y1="0%" x2="100%" y2="100%">
					<stop offset="0%" stop-color="#f5db82" />
					<stop offset="100%" stop-color="#f4df90" />
				</linearGradient>
				<mask id="Mask">
					<rect width="16" height="16" x="-8" y="-8" fill="#000" />
					<circle r="6.4" fill="#fff" />
				</mask>
				<mask id="Masksand">
					<rect width="16" height="16" x="-8" y="-8" fill="#000" />
					<circle r="3" cx="-7" cy="1.5" fill="#fff" filter="url(#Gaussian_Blur05)" />
				</mask>
				<filter id="Gaussian_Blur">
					<feGaussianBlur in="SourceGraphic" stdDeviation="1" />
				</filter>
				<filter id="Gaussian_Blur025">
					<feGaussianBlur in="SourceGraphic" stdDeviation="0.25" />
				</filter>
				<filter id="Gaussian_Blur05">
					<feGaussianBlur in="SourceGraphic" stdDeviation="0.5" />
				</filter>
				<path id="amer"
					d="M-2,6 c1,-2 0,-3 -1,-3 c-3,0 0,-3 0,-3 c2,-2 2,-3 1,-4 c-1,-1 -1,0 -2,-1 h-3 v14 M0,10 v1 h1" />
				<path id="afra"
					d="M4.5,5 c-0.5,-1 -0.5,-2 -1,-2.5 c-3,0 -4,-4 1.5,-4 c2,0 2,-1.5 0,-1.5 c-0.5,0 -3.5,0 -3.5,2 c0,0.5 -1,-0.5 0,-1.75 c1,-0.5 3,-3 2,-3 h4 v10 M-12,0 h-1 v1 " />
			</defs>
			<circle r="8" fill="url(#backing)" />
			<circle r="7" fill="url(#in-border)" />
			<g id="map" mask="url(#Mask)">
				<circle r="7" fill="#5eb0d3" />
				<use xlink:href="#amer" fill="#206aa2" filter="url(#Gaussian_Blur)" />
				<use xlink:href="#amer" fill="#8adcbf" filter="url(#Gaussian_Blur025)" />
				<use xlink:href="#amer" fill="url(#amer-fill)" />
				<use xlink:href="#afra" fill="#206aa2" filter="url(#Gaussian_Blur)" />
				<use xlink:href="#afra" fill="#8adcbf" filter="url(#Gaussian_Blur025)" />
				<use xlink:href="#afra" fill="url(#amer-fill)" />
				<rect width="16" height="16" x="-8" y="-8" fill="url(#gloss)" />
			</g>
		</g>
	</g>
</svg>
