<?xml version="1.0" encoding="utf-8" standalone="yes"?>
<!DOCTYPE svg PUBLIC "-//W3C//DTD SVG 1.1//EN" "http://www.w3.org/Graphics/SVG/1.1/DTD/svg11.dtd">
<svg xmlns="http://www.w3.org/2000/svg" xmlns:xlink="http://www.w3.org/1999/xlink"
	width="16" height="16" version="1.1">
	<title>Page Cream Error</title>
	<desc>Page Error</desc>
	<g id="icon" transform="translate(8,8)">
		<defs>
			<linearGradient id="center" x1="100%" y1="0%" x2="0%" y2="100%">
				<stop offset="0%" stop-color="#ffc386" />
				<stop offset="10%" stop-color="#ffeac6" />
				<stop offset="60%" stop-color="#fffdf1" />
			</linearGradient>
			<linearGradient id="corner" x1="0%" y1="100%" x2="100%" y2="0%">
				<stop offset="0%" stop-color="#fffbe3" />
				<stop offset="100%" stop-color="#b77550" />
			</linearGradient>
			<linearGradient id="backing" x1="0%" y1="0%" x2="100%" y2="100%">
				<stop offset="0%" stop-color="#d2905e" />
				<stop offset="100%" stop-color="#9c5a42" />
			</linearGradient>
		</defs>
		<path fill="url(#backing)" opacity="0.75"
			d="M0,-8 h-6 a1,1 0 0,0 -1,1 v14 a1,1 0 0,0 1,1 h12 a1,1 0 0,0 1,-1 v-11.5 l-3.5,-3.5 l-4.5,0 Z" />
		<path fill="#fff" d="M0,-7 h-6 v14 h12 v-11 l-3,-3 h-3 Z" />
		<path fill="url(#center)" d="M0,-6 h-5 v12 h10 v-10 l-2,-2 h-2 Z" />
		<path fill="#fff" d="M2,-7 h1 l3,3 v1 h-4 v-4 Z" />
		<path fill="url(#corner)" d="M3,-7 l0.1,0 l3,3 l-3.1,0 v-3 Z" />
		<g id="error" transform="translate(2,3)">
			<defs>
				<linearGradient id="error-backing" x1="0%" y1="0%" x2="100%"
					y2="0%">
					<stop offset="0%" stop-color="#debd5c" />
					<stop offset="100%" stop-color="#bd7723" />
				</linearGradient>
				<linearGradient id="error-center" x1="0%" y1="0%" x2="100%"
					y2="0%">
					<stop offset="0%" stop-color="#fbf4dc" />
					<stop offset="100%" stop-color="#f8eaab" />
				</linearGradient>
				<linearGradient id="error-in-border" x1="0%" y1="0%" x2="100%"
					y2="0%">
					<stop offset="0%" stop-color="#f5da58" />
					<stop offset="100%" stop-color="#f6de6a" />
				</linearGradient>
			</defs>
			<path fill="url(#error-backing)" d="M0.5,-5 l5.5,10 h-11 l5.5,-10 Z" />
			<path fill="url(#error-center)" d="M0.5,-3.5 l4,7.5 h-8 l4,-7.5 Z" />
			<path fill="url(#error-in-border)" d="M0.5,-2 l2.5,5 h-5 l2.5,-5 Z" />
			<rect width="1" height="2" y="-1" fill="#c28832" />
			<rect width="1" height="1" y="2" fill="#c28832" />
		</g>
	</g>
</svg>