<?xml version="1.0" encoding="utf-8" standalone="yes"?>
<!DOCTYPE svg PUBLIC "-//W3C//DTD SVG 1.1//EN" "http://www.w3.org/Graphics/SVG/1.1/DTD/svg11.dtd">
<svg xmlns="http://www.w3.org/2000/svg" xmlns:xlink="http://www.w3.org/1999/xlink"
	width="16" height="16" version="1.1">
	<title>White Page Wrench</title>
	<desc>White Page Wrench Configure</desc>
	<g id="icon" transform="translate(8,8)">
		<defs>
			<linearGradient id="center" x1="100%" y1="0%" x2="0%" y2="100%">
				<stop offset="0%" stop-color="#cacaca" />
				<stop offset="10%" stop-color="#e9e9e9" />
				<stop offset="50%" stop-color="#fff" />
			</linearGradient>
			<linearGradient id="corner" x1="0%" y1="100%" x2="100%" y2="0%">
				<stop offset="0%" stop-color="#fff" />
				<stop offset="100%" stop-color="#c1c1c1" />
			</linearGradient>
		</defs>
		<path fill="#000" opacity="0.21"
			d="M0,-8 h-6 a1,1 0 0,0 -1,1 v14 a1,1 0 0,0 1,1 h12 a1,1 0 0,0 1,-1 v-11.5 l-3.5,-3.5 l-4.5,0 Z" />
		<path fill="#fff" d="M0,-7 h-6 v14 h12 v-11 l-3,-3 h-3 Z" />
		<path fill="url(#center)" d="M0,-6 h-5 v12 h10 v-10 l-2,-2 h-2 Z" />
		<path fill="#fff" d="M2,-7 h1 l3,3 v1 h-4 v-4 Z" />
		<path fill="url(#corner)" d="M3,-7 l0.1,0 l3,3 l-3.1,0 v-3 Z" />
		<g id="wrench" transform="translate(2,0)">
			<defs>
				<linearGradient id="wrench-backing" x1="0%" y1="0%" x2="100%"
					y2="100%">
					<stop offset="0%" stop-color="#9d9d9d" />
					<stop offset="100%" stop-color="#848484" />
				</linearGradient>
				<linearGradient id="wrench-center" x1="0%" y1="0%" x2="100%"
					y2="100%">
					<stop offset="0%" stop-color="#e1e1e1" />
					<stop offset="100%" stop-color="#c6c6c6" />
				</linearGradient>
				<linearGradient id="wrench-handel" x1="100%" y1="0%" x2="0%"
					y2="100%">
					<stop offset="0%" stop-color="#91b0e3" />
					<stop offset="100%" stop-color="#497dd1" />
				</linearGradient>
				<linearGradient id="wrench-handel-c" x1="100%" y1="0%" x2="0%"
					y2="100%">
					<stop offset="0%" stop-color="#b0c7eb" />
					<stop offset="100%" stop-color="#a5bfe9" />
				</linearGradient>
			</defs>
			<path transform="rotate(-45)"
				d="M0,-1.5 l1.4,0 l1.45,-1.45 a1.7,1.7 0 0,1 2.7,0 l1.2,1.2 l-1.75,1.75 l1.75,1.75 l-1.2,1.2 a1.7,1.7 0 0,1 -2.7,0  l-1.45,-1.45 l-1.4,0 "
				fill="url(#wrench-backing)" />
			<path transform="rotate(-45)"
				d="M0,-0.75 l2.4,0 l2,-2 l1.414,1.414 l-0.707,0.707 l-0.707,-0.707 l-1.414,1.414 l1.414,1.414 l0.707,-0.707 l0.707,0.707 l-1.414,1.414 l-2,-2 l-2.4,0 z"
				fill="url(#wrench-center)" />
			<path transform="rotate(-45)" d="M0,-1.5 l-1,-.5 l-3.5,0 a2,2 0 0,0 0,4 l3.5,0 l1,-.5 "
				fill="url(#wrench-handel)" />
			<path transform="rotate(-45)" d="M-1,-1 l-3.5,0 a1,1 0 0,0 0,2 l3.5,0   "
				fill="url(#wrench-handel-c)" />
		</g>
	</g>
</svg>
