<?xml version="1.0" encoding="utf-8" standalone="yes"?>
<!DOCTYPE svg PUBLIC "-//W3C//DTD SVG 1.1//EN" "http://www.w3.org/Graphics/SVG/1.1/DTD/svg11.dtd">
<svg xmlns="http://www.w3.org/2000/svg" xmlns:xlink="http://www.w3.org/1999/xlink"
	width="16" height="16" version="1.1">
	<title>White Page Link</title>
	<desc>White Page Link</desc>
	<g id="icon" transform="translate(8,8)">
		<defs>
			<linearGradient id="center" x1="100%" y1="0%" x2="0%" y2="100%">
				<stop offset="0%" stop-color="#cacaca" />
				<stop offset="10%" stop-color="#e9e9e9" />
				<stop offset="50%" stop-color="#fff" />
			</linearGradient>
			<linearGradient id="corner" x1="0%" y1="100%" x2="100%" y2="0%">
				<stop offset="0%" stop-color="#fff" />
				<stop offset="100%" stop-color="#c1c1c1" />
			</linearGradient>
		</defs>
		<path fill="#000" opacity="0.21"
			d="M0,-8 h-6 a1,1 0 0,0 -1,1 v14 a1,1 0 0,0 1,1 h12 a1,1 0 0,0 1,-1 v-11.5 l-3.5,-3.5 l-4.5,0 Z" />
		<path fill="#fff" d="M0,-7 h-6 v14 h12 v-11 l-3,-3 h-3 Z" />
		<path fill="url(#center)" d="M0,-6 h-5 v12 h10 v-10 l-2,-2 h-2 Z" />
		<path fill="#fff" d="M2,-7 h1 l3,3 v1 h-4 v-4 Z" />
		<path fill="url(#corner)" d="M3,-7 l0.1,0 l3,3 l-3.1,0 v-3 Z" />
		<g id="link-icon" transform="translate(1.5,4)">
			<defs>
				<linearGradient id="link-border" x1="0%" y1="0%" x2="100%"
					y2="0%">
					<stop offset="0%" stop-color="#858585" />
					<stop offset="100%" stop-color="#4a4a4a" />
				</linearGradient>
				<linearGradient id="link-inner" x1="0%" y1="0%" x2="100%" y2="0%">
					<stop offset="0%" stop-color="#dddddd" />
					<stop offset="100%" stop-color="#aeaeae" />
				</linearGradient>
				<radialGradient id="link-center-link" cx="50%" cy="0%" r="70%">
					<stop offset="0%" stop-color="#929292" />
					<stop offset="100%" stop-color="#414141" />
				</radialGradient>
				<radialGradient id="link-center-link-center" cx="50%" cy="50%"
					r="70%">
					<stop offset="0%" stop-color="#cecece" />
					<stop offset="100%" stop-color="#bdbdbd" />
				</radialGradient>
			</defs>
			<g id="link">
				<path fill="url(#link-border)"
					d="M-1.5,-3 l-1.5,0 a3.5,3.5 0 0,0 0,7 l1.5,0 a1.5,1.5 0 0,0 0,-3 h-2 a0.5,0.5 0 0,1 0,-1 h2 a1.5,1.5 0 0,0 0,-3   Z" />
				<path fill="url(#link-inner)"
					d="M-1.5,-2 l-1.5,0 a2.5,2.5 0 0,0 0,5 l1.5,0 a0.5,0.5 0 0,0 0,-1 l-1.5,0 a1.5,1.5 0 0,1 0,-3 l1.5,0 a0.5,0.5 0 0,0 0,-1 Z" />
			</g>
			<use xlink:href="#link" transform="rotate(180) translate(0,-1)" />
			<rect width="6" height="3" x="-3.25" y="-1" fill="url(#link-center-link)" />
			<rect width="4" height="1" x="-2.25" y="-0" fill="url(#link-center-link-center)" />
		</g>
	</g>
</svg>
