<?xml version="1.0" encoding="utf-8" standalone="yes"?>
<!DOCTYPE svg PUBLIC "-//W3C//DTD SVG 1.1//EN" "http://www.w3.org/Graphics/SVG/1.1/DTD/svg11.dtd">
<svg xmlns="http://www.w3.org/2000/svg" xmlns:xlink="http://www.w3.org/1999/xlink"
	width="16" height="16" version="1.1">
	<title>White Page Gear</title>
	<desc>White Page Gear</desc>
	<g id="icon" transform="translate(8,8)">
		<defs>
			<linearGradient id="center" x1="100%" y1="0%" x2="0%" y2="100%">
				<stop offset="0%" stop-color="#cacaca" />
				<stop offset="10%" stop-color="#e9e9e9" />
				<stop offset="50%" stop-color="#fff" />
			</linearGradient>
			<linearGradient id="corner" x1="0%" y1="100%" x2="100%" y2="0%">
				<stop offset="0%" stop-color="#fff" />
				<stop offset="100%" stop-color="#c1c1c1" />
			</linearGradient>
		</defs>
		<path fill="#000" opacity="0.21"
			d="M0,-8 h-6 a1,1 0 0,0 -1,1 v14 a1,1 0 0,0 1,1 h12 a1,1 0 0,0 1,-1 v-11.5 l-3.5,-3.5 l-4.5,0 Z" />
		<path fill="#fff" d="M0,-7 h-6 v14 h12 v-11 l-3,-3 h-3 Z" />
		<path fill="url(#center)" d="M0,-6 h-5 v12 h10 v-10 l-2,-2 h-2 Z" />
		<path fill="#fff" d="M2,-7 h1 l3,3 v1 h-4 v-4 Z" />
		<path fill="url(#corner)" d="M3,-7 l0.1,0 l3,3 l-3.1,0 v-3 Z" />
		<g id="gear">
			<defs>
				<linearGradient id="gear-backing" x1="0%" y1="0%" x2="100%"
					y2="100%">
					<stop offset="0%" stop-color="#ccc" />
					<stop offset="100%" stop-color="#222" />
				</linearGradient>
				<radialGradient id="gear-inner" cx="55%" cy="55%" r="50%">
					<stop offset="0%" stop-color="#aaa" />
					<stop offset="100%" stop-color="#eee" />
				</radialGradient>
			</defs>
			<path transform="scale(0.8)" id="branch"
				d="M4,4 a1,1 0 0,0 -2,0 a1,1 0 0,0 2,0 m2.75,-1.5 h2 l1.83691e-16,3 h-2 v0 l1.41421,1.41421 l-2.12132,2.12132 l-1.41421,-1.41421 h0 l1.22461e-16,2 l-3,3.67382e-16 l-1.22461e-16,-2 h0 l-1.41421,1.41421 l-2.12132,-2.12132 l1.41421,-1.41421 h0 l-2,2.44921e-16 l-5.51073e-16,-3 l2,-2.44921e-16 h0 l-1.41421,-1.41421 l2.12132,-2.12132 l1.41421,1.41421 h0 l-3.67382e-16,-2 l3,-7.34764e-16 l3.67382e-16,2 h0 l1.41421,-1.41421 l2.12132,2.12132 l-1.41421,1.41421 h0 z z"
				fill="url(#gear-backing)" />
			<path transform="scale(0.8)" id="inner-branch"
				d="M5,4 a2,2 0 0,0 -4,0 a2,2 0 0,0 4,0 m1.75,-0.5 h1 l6.12303e-17,1 h-1 l-0.727099,1.75537 l0.707107,0.707107 l-0.707107,0.707107 l-0.707107,-0.707107 l-1.75537,0.727099 l6.12303e-17,1 l-1,1.22461e-16 l-6.12303e-17,-1 l-1.75537,-0.727099 l-0.707107,0.707107 l-0.707107,-0.707107 l0.707107,-0.707107 l-0.727099,-1.75537 l-1,1.22461e-16 l-1.83691e-16,-1 l1,-1.22461e-16 l0.727099,-1.75537 l-0.707107,-0.707107 l0.707107,-0.707107 l0.707107,0.707107 l1.75537,-0.727099 l-1.83691e-16,-1 l1,-2.44921e-16 l1.83691e-16,1 l1.75537,0.727099 l0.707107,-0.707107 l0.707107,0.707107 l-0.707107,0.707107 l0.727099,1.75537 z"
				fill="url(#gear-inner)" />
		</g>
	</g>
</svg>
