<?xml version="1.0" encoding="utf-8" standalone="yes"?>
<!DOCTYPE svg PUBLIC "-//W3C//DTD SVG 1.1//EN" "http://www.w3.org/Graphics/SVG/1.1/DTD/svg11.dtd">
<svg xmlns="http://www.w3.org/2000/svg" xmlns:xlink="http://www.w3.org/1999/xlink"
	width="16" height="16" version="1.1">
	<title>Page White Paste</title>
	<desc>Page White Paste</desc>
	<g id="icon" transform="translate(8,8)">
		<defs>
			<linearGradient id="inner" x1="0%" y1="0%" x2="0%" y2="100%">
				<stop offset="0%" stop-color="#e4bf7e" />
				<stop offset="50%" stop-color="#deb16b" />
				<stop offset="100%" stop-color="#d19f62" />
			</linearGradient>
			<linearGradient id="center" x1="0%" y1="0%" x2="0%" y2="100%">
				<stop offset="0%" stop-color="#deb269" />
				<stop offset="50%" stop-color="#d7a053" />
				<stop offset="100%" stop-color="#cd8743" />
			</linearGradient>
			<linearGradient id="clip" x1="0%" y1="0%" x2="0%" y2="100%">
				<stop offset="0%" stop-color="#f3db80" />
				<stop offset="100%" stop-color="#f0d475" />
			</linearGradient>
		</defs>
		<path fill="#986320"
			d="M-8,-5 a2,2 0 0,1 2,-2 h1 v-1 h6 v1 h1 a2,2 0 0,1 2,2 v10 a2,2 0 0,1 -2,2 h-8 a2,2 0 0,1 -2,-2" />
		<rect width="10" height="12" x="-7" y="-6" fill="url(#inner)" />
		<rect width="8" height="10" x="-6" y="-5" fill="url(#center)" />
		<rect width="6" height="2" x="-5" y="-6" fill="#df9d4e" />
		<rect width="4" height="2" x="-4" y="-7" fill="#fdeeb5" />
		<rect width="2" height="2" x="-3" y="-7" fill="url(#clip)" />
		<g id="page" transform="translate(1,4)">
			<defs>
				<linearGradient id="page-center" x1="100%" y1="0%" x2="0%"
					y2="100%">
					<stop offset="0%" stop-color="#cacaca" />
					<stop offset="10%" stop-color="#e9e9e9" />
					<stop offset="50%" stop-color="#fff" />
				</linearGradient>
				<linearGradient id="page-corner" x1="0%" y1="100%" x2="100%"
					y2="0%">
					<stop offset="0%" stop-color="#fff" />
					<stop offset="100%" stop-color="#c1c1c1" />
				</linearGradient>
			</defs>
			<path fill="#000" opacity="0.21"
				d="M0,-8 h-2 a1,1 0 0,0 -1,1 v10 a1,1 0 0,0 1,1 h8 a1,1 0 0,0 1,-1 v-8.5 l-2.5,-2.5 l-4.5,0 Z" />
			<path fill="#fff" d="M0,-7 h-2 v10 h8 v-8 l-2,-2 h-3 Z" />
			<path fill="url(#page-center)" d="M0,-6 h-1 v8 h6 v-6.5 l-1.5,-1.5 h-2 Z" />
			<path fill="#fff" d="M3,-7 h1 l2,2 v1 h-3 v-3 Z" />
		</g>
	</g>
</svg>
