<?xml version="1.0" encoding="utf-8" standalone="yes"?>
<!DOCTYPE svg PUBLIC "-//W3C//DTD SVG 1.1//EN" "http://www.w3.org/Graphics/SVG/1.1/DTD/svg11.dtd">
<svg xmlns="http://www.w3.org/2000/svg" xmlns:xlink="http://www.w3.org/1999/xlink"
	width="16" height="16" version="1.1">
	<title>White Page</title>
	<desc>White Page</desc>
	<g id="icon" transform="translate(9,8)">
		<defs>
			<linearGradient id="center" x1="100%" y1="0%" x2="0%" y2="100%">
				<stop offset="0%" stop-color="#cacaca" />
				<stop offset="10%" stop-color="#e9e9e9" />
				<stop offset="50%" stop-color="#fff" />
			</linearGradient>
			<linearGradient id="corner" x1="0%" y1="100%" x2="100%" y2="0%">
				<stop offset="0%" stop-color="#fff" />
				<stop offset="100%" stop-color="#c1c1c1" />
			</linearGradient>
		</defs>
		<path fill="#000" opacity="0.21"
			d="M0,-8 h-6 a1,1 0 0,0 -1,1 v14 a1,1 0 0,0 1,1 h12 a1,1 0 0,0 1,-1 v-11.5 l-3.5,-3.5 l-4.5,0 Z" />
		<path fill="#fff" d="M0,-7 h-6 v14 h12 v-11 l-3,-3 h-3 Z" />
		<path fill="url(#center)" d="M0,-6 h-5 v12 h10 v-10 l-2,-2 h-2 Z" />
		<path fill="#fff" d="M2,-7 h1 l3,3 v1 h-4 v-4 Z" />
		<path fill="url(#corner)" d="M3,-7 l0.1,0 l3,3 l-3.1,0 v-3 Z" />
		<g id="home-icon" transform="translate(-2,-1)">
			<defs>
				<linearGradient id="home-backing" x1="0%" y1="0%" x2="100%"
					y2="100%">
					<stop offset="0%" stop-color="#bbb" />
					<stop offset="100%" stop-color="#555" />
				</linearGradient>
				<linearGradient id="home-center" x1="0%" y1="0%" x2="100%"
					y2="100%">
					<stop offset="0%" stop-color="#eee" />
					<stop offset="100%" stop-color="#fff" />
				</linearGradient>
				<linearGradient id="home-door" x1="0%" y1="0%" x2="100%" y2="100%">
					<stop offset="0%" stop-color="#777" />
					<stop offset="100%" stop-color="#999" />
				</linearGradient>
				<linearGradient id="home-door-inner" x1="0%" y1="0%" x2="100%"
					y2="100%">
					<stop offset="0%" stop-color="#999" />
					<stop offset="100%" stop-color="#aaa" />
				</linearGradient>
				<linearGradient id="home-roof" x1="0%" y1="0%" x2="100%" y2="100%">
					<stop offset="0%" stop-color="#b87931" />
					<stop offset="100%" stop-color="#793e25" />
				</linearGradient>
				<linearGradient id="home-top" x1="0%" y1="0%" x2="100%" y2="100%">
					<stop offset="0%" stop-color="#d3ad76" />
					<stop offset="100%" stop-color="#b18c5c" />
				</linearGradient>
				<linearGradient id="home-bush" x1="0%" y1="0%" x2="100%" y2="100%">
					<stop offset="0%" stop-color="#a8d6a1" />
					<stop offset="100%" stop-color="#246321" />
				</linearGradient>
				<linearGradient id="home-bush-inner" x1="0%" y1="0%" x2="100%"
					y2="100%">
					<stop offset="0%" stop-color="#8fca84" />
					<stop offset="100%" stop-color="#80c174" />
				</linearGradient>
			</defs>
			<path fill="url(#home-backing)" d="M-4,6 h7 v-4 l-3.5,-3.5 l-3.5,3.5 v4 z" />
			<path fill="url(#home-center)" d="M-3,5 h5 v-4 l-2.5,-2.5 l-2.5,2.5 v4 z" />
			<rect width="3" height="4" x="-2" y="2" fill="url(#home-door)" />
			<rect width="1" height="2" x="-1" y="3" fill="url(#home-door-inner)" />
			<path fill="url(#home-roof)"
				d="M-4.5,3.5 l-2,-2 l4.5,-4.5 h3 l4.5,4.5 l-2,2 l-4,-4 l-4,4 z" />
			<path fill="url(#home-top)" d="M-4.5,2.5 l-1,-1 l4,-4 h2 l4,4 l-1,1 l-4,-4 l-4,4 z" />
			<g transform="translate(-0.5,1.65)">
				<g id="home-bushs" transform="scale(.625)">
					<path fill="url(#home-bush)"
						d="M3.5,7 h4 a0.5,0.5 0 0,0 0.5,-0.5 v-0.5 a0.5,0.5 0 0,0 -0.5,-0.5 a1,1 0 0,1 -1,-1 a0.5,0.5 0 0,0 -0.5,-0.5 l-1.5,0 a0.5,0.5 0 0,0 -0.5,0.5 a0.5,0.5 0 0,1 -0.5,0.5 a0.5,0.5 0 0,0 -0.5,0.5 v1 a0.5,0.5 0 0,0 0.5,0.5 z" />
					<path fill="url(#home-bush-inner)"
						d="M4,6.5 l2.5,0 a0.5,0.5 0 0,0 0.5,-0.5 a0.5,0.5 0 0,0 -0.5,-0.5 a0.5,0.5 0 0,1 -0.5,-0.5 a0.5,0.5 0 0,0 -0.5,-0.5 l-0.5,0 a0.5,0.5 0 0,0 -0.5,0.5 a0.5,0.5 0 0,1 -0.5,0.5 a0.5,0.5 0 0,0 -0.5,0.5 a0.5,0.5 0 0,0 0.5,0.5 z" />
				</g>
				<use xlink:href="#home-bushs" transform="scale(-1, 1)" />
			</g>
		</g>
	</g>
</svg>
