<?xml version="1.0" encoding="utf-8" standalone="yes"?>
<!DOCTYPE svg PUBLIC "-//W3C//DTD SVG 1.1//EN" "http://www.w3.org/Graphics/SVG/1.1/DTD/svg11.dtd">
<svg xmlns="http://www.w3.org/2000/svg" xmlns:xlink="http://www.w3.org/1999/xlink"
	width="16" height="16" version="1.1">
	<title>Paintcan</title>
	<desc>Paintcan</desc>
	<g id="icon" transform="translate(8,8)">
		<defs>
			<linearGradient id="backing" x1="0%" y1="0%" x2="100%" y2="100%">
				<stop offset="0%" stop-color="#ccc" />
				<stop offset="100%" stop-color="#666" />
			</linearGradient>
			<linearGradient id="center" x1="0%" y1="0%" x2="100%" y2="100%">
				<stop offset="0%" stop-color="#ececec" />
				<stop offset="20%" stop-color="#ececec" />
				<stop offset="40%" stop-color="#d9d9d9" />
				<stop offset="50%" stop-color="#ececec" />
				<stop offset="60%" stop-color="#d9d9d9" />
				<stop offset="80%" stop-color="#c0c0c0" />
				<stop offset="100%" stop-color="#c0c0c0" />
			</linearGradient>
			<linearGradient id="paint" x1="0%" y1="0%" x2="100%" y2="100%">
				<stop offset="0%" stop-color="#8eb7d7" />
				<stop offset="100%" stop-color="#548eba" />
			</linearGradient>
			<linearGradient id="handel" x1="0%" y1="0%" x2="100%" y2="100%">
				<stop offset="0%" stop-color="#4c89c6" />
				<stop offset="100%" stop-color="#2757a1" />
			</linearGradient>
			<linearGradient id="handel-center" x1="0%" y1="0%" x2="0%" y2="100%">
				<stop offset="0%" stop-color="#8fb7db" />
				<stop offset="100%" stop-color="#6e96c7" />
			</linearGradient>
		</defs>
		<path fill="url(#backing)" d="M-8,1.5 l6.5,6.5 l6.5,-6.5 l-6.5,-6.5 l-6.5,6.5" />
		<path fill="url(#center)" d="M-7,1.5 l5.5,5.5 l5.5,-5.5 l-5.5,-5.5 l-5.5,5.5" />
		<path fill="url(#paint)" d="M5,1.5 c0.5,0 1,3 0.5,3.5 c5,-2 1,-8 -4.5,-7.5 " />
		<path fill="#3b6dad" opacity="0.75"
			d="M-1.5,-2 a0.75,0.75 0, 0,1 0,1.5 a0.75,0.75 0, 0,1 0,-1.5 v-0.75 l-1.5,0 v1.5 a1.5,1.5 0, 0,0 3,0 v-1.5 l-1.5,0" />
		<path fill="url(#handel)" d="M-3,-6.5 a1.5,1.5 0, 0,1 3,0 v4.5 h-3 v-4.5 " />
		<rect fill="url(#handel-center)" width="1" height="4" x="-2" y="-7" />
	</g>
</svg>