<?xml version="1.0" encoding="utf-8" standalone="yes"?>
<!DOCTYPE svg PUBLIC "-//W3C//DTD SVG 1.1//EN" "http://www.w3.org/Graphics/SVG/1.1/DTD/svg11.dtd">
<svg xmlns="http://www.w3.org/2000/svg" xmlns:xlink="http://www.w3.org/1999/xlink"
	width="16" height="16" version="1.1">
	<title>Paste Image</title>
	<desc>Paste Image</desc>
	<g id="icon" transform="translate(8,8)">
		<defs>
			<linearGradient id="inner" x1="0%" y1="0%" x2="0%" y2="100%">
				<stop offset="0%" stop-color="#e4bf7e" />
				<stop offset="50%" stop-color="#deb16b" />
				<stop offset="100%" stop-color="#d19f62" />
			</linearGradient>
			<linearGradient id="center" x1="0%" y1="0%" x2="0%" y2="100%">
				<stop offset="0%" stop-color="#deb269" />
				<stop offset="50%" stop-color="#d7a053" />
				<stop offset="100%" stop-color="#cd8743" />
			</linearGradient>
			<linearGradient id="clip" x1="0%" y1="0%" x2="0%" y2="100%">
				<stop offset="0%" stop-color="#f3db80" />
				<stop offset="100%" stop-color="#f0d475" />
			</linearGradient>
		</defs>
		<path fill="#986320"
			d="M-8,-5 a2,2 0 0,1 2,-2 h1 v-1 h6 v1 h1 a2,2 0 0,1 2,2 v10 a2,2 0 0,1 -2,2 h-8 a2,2 0 0,1 -2,-2" />
		<rect width="10" height="12" x="-7" y="-6" fill="url(#inner)" />
		<rect width="8" height="10" x="-6" y="-5" fill="url(#center)" />
		<rect width="6" height="2" x="-5" y="-6" fill="#df9d4e" />
		<rect width="4" height="2" x="-4" y="-7" fill="#fdeeb5" />
		<rect width="2" height="2" x="-3" y="-7" fill="url(#clip)" />
		<g id="image" transform="translate(2,0)">
			<defs>
				<linearGradient id="image-backing" x1="0%" y1="0%" x2="100%"
					y2="100%">
					<stop offset="0%" stop-color="#5877ab" />
					<stop offset="50%" stop-color="#3a64a6" />
					<stop offset="100%" stop-color="#4a70aa" />
				</linearGradient>
				<linearGradient id="image-inner" x1="0%" y1="0%" x2="100%"
					y2="100%">
					<stop offset="0%" stop-color="#f2f3f3" />
					<stop offset="100%" stop-color="#eaeef1" />
				</linearGradient>
				<linearGradient id="image-center" x1="0%" y1="0%" x2="0%" y2="100%">
					<stop offset="0%" stop-color="#addcf2" />
					<stop offset="100%" stop-color="#d7e8fe" />
				</linearGradient>
				<linearGradient id="image-hill" x1="0%" y1="0%" x2="0%" y2="100%">
					<stop offset="0%" stop-color="#83bae4" />
					<stop offset="50%" stop-color="#75ade5" />
				</linearGradient>
			</defs>
			<rect width="10" height="11" x="-5" y="-3" rx="1" ry="1"
				fill="url(#image-backing)" />
			<rect width="8" height="9" x="-4" y="-2" fill="url(#image-inner)" />
			<rect width="6" height="6" x="-3" y="-1" fill="url(#image-center)" />
			<path fill="url(#image-hill)" d="M-3,2 v3 h6 v-3" />
			<rect width="1" height="6" x="-3" y="-1" fill="#000" opacity="0.3" />
			<rect width="6" height="1" x="-3" y="-1" fill="#000" opacity="0.3" />
			<rect width="1" height="6" x="2" y="-1" fill="#000" opacity="0.3" />
			<rect width="6" height="1" x="-3" y="4" fill="#000" opacity="0.3" />
			<rect width="6" height="1" x="-3" y="5" fill="#d7e8fe" />
		</g>
	</g>
</svg>
