<?xml version="1.0" encoding="utf-8" standalone="yes"?>
<!DOCTYPE svg PUBLIC "-//W3C//DTD SVG 1.1//EN" "http://www.w3.org/Graphics/SVG/1.1/DTD/svg11.dtd">
<svg xmlns="http://www.w3.org/2000/svg" xmlns:xlink="http://www.w3.org/1999/xlink"
	width="16" height="16" version="1.1">
	<title>Paste Word</title>
	<desc>Paste Word</desc>
	<g id="icon" transform="translate(8,8)">
		<defs>
			<linearGradient id="inner" x1="0%" y1="0%" x2="0%" y2="100%">
				<stop offset="0%" stop-color="#e4bf7e" />
				<stop offset="50%" stop-color="#deb16b" />
				<stop offset="100%" stop-color="#d19f62" />
			</linearGradient>
			<linearGradient id="center" x1="0%" y1="0%" x2="0%" y2="100%">
				<stop offset="0%" stop-color="#deb269" />
				<stop offset="50%" stop-color="#d7a053" />
				<stop offset="100%" stop-color="#cd8743" />
			</linearGradient>
			<linearGradient id="clip" x1="0%" y1="0%" x2="0%" y2="100%">
				<stop offset="0%" stop-color="#f3db80" />
				<stop offset="100%" stop-color="#f0d475" />
			</linearGradient>
		</defs>
		<path fill="#986320"
			d="M-8,-5 a2,2 0 0,1 2,-2 h1 v-1 h6 v1 h1 a2,2 0 0,1 2,2 v10 a2,2 0 0,1 -2,2 h-8 a2,2 0 0,1 -2,-2" />
		<rect width="10" height="12" x="-7" y="-6" fill="url(#inner)" />
		<rect width="8" height="10" x="-6" y="-5" fill="url(#center)" />
		<rect width="6" height="2" x="-5" y="-6" fill="#df9d4e" />
		<rect width="4" height="2" x="-4" y="-7" fill="#fdeeb5" />
		<rect width="2" height="2" x="-3" y="-7" fill="url(#clip)" />
		<g id="word" transform="translate(0,0)">
			<defs>
				<linearGradient id="word" x1="0%" y1="0%" x2="100%" y2="0%">
					<stop offset="0%" stop-color="#5e74b6" />
					<stop offset="30%" stop-color="#6088b4" />
					<stop offset="30%" stop-color="#6d9ad4" />
					<stop offset="100%" stop-color="#6084cd" />
				</linearGradient>
				<linearGradient id="word-w" x1="0%" y1="0%" x2="100%" y2="0%">
					<stop offset="0%" stop-color="#6d9ad4" />
					<stop offset="100%" stop-color="#6084cd" />
				</linearGradient>
			</defs>
			<rect width="10" height="10" x="-2" y="-2" rx="1" ry="1" fill="url(#word)" />
			<rect width="8" height="8" x="-1" y="-1" fill="#ffffff" />
			<path fill="url(#word-w)"
				d="M0,0 v6 h1 l1.5,-1.5 l0.5,1.5 h1 l3,-6 h-1 l-2,2 v-2 h-1 l-2,2 v-2" />
		</g>
	</g>
</svg>
