<?xml version="1.0" encoding="utf-8" standalone="yes"?>
<!DOCTYPE svg PUBLIC "-//W3C//DTD SVG 1.1//EN" "http://www.w3.org/Graphics/SVG/1.1/DTD/svg11.dtd">
<svg xmlns="http://www.w3.org/2000/svg" xmlns:xlink="http://www.w3.org/1999/xlink"
	width="16" height="16" version="1.1">
	<title>Pencil Put</title>
	<desc>Pencil Edit Write Put</desc>
	<g id="pencil" transform="translate(8,8)">
		<defs>
			<linearGradient id="top_center" x1="0%" y1="0%" x2="100%" y2="0%">
				<stop offset="0%" stop-color="#f7e1c9" />
				<stop offset="100%" stop-color="#f4cfa5" />
			</linearGradient>
			<linearGradient id="pencil-back" x1="100%" y1="0%" x2="0%" y2="100%">
				<stop offset="0%" stop-color="#ca9350" stop-opacity="1.0" />
				<stop offset="20%" stop-color="#ca9350" stop-opacity="0.5" />
				<stop offset="30%" stop-color="#ca9350" stop-opacity="0.0" />
				<stop offset="55%" stop-color="#936d1e" stop-opacity="0.0" />
				<stop offset="65%" stop-color="#936d1e" stop-opacity="0.3" />
				<stop offset="80%" stop-color="#936d1e" stop-opacity="0.9" />
				<stop offset="92%" stop-color="#936d1e" stop-opacity="1.0" />
				<stop offset="94%" stop-color="#594212" stop-opacity="1.0" />
			</linearGradient>
			<linearGradient id="pencil-cross" x1="37%" y1="37%" x2="63%"
				y2="63%">
				<stop offset="0%" stop-color="#e4ba2f" />
				<stop offset="100%" stop-color="#d98f3b" />
			</linearGradient>
			<linearGradient id="pencil-nib" x1="100%" y1="0%" x2="0%" y2="100%">
				<stop offset="0%" stop-color="#fae7d1" stop-opacity="1.0" />
				<stop offset="75%" stop-color="#fae7d1" stop-opacity="0.9" />
				<stop offset="100%" stop-color="#fae7d1" stop-opacity="0.0" />
			</linearGradient>
			<linearGradient id="pencil-outer" x1="37%" y1="37%" x2="63%"
				y2="63%">
				<stop offset="0%" stop-color="#f8edc3" />
				<stop offset="10%" stop-color="#fcf4b3" />
				<stop offset="45%" stop-color="#f4d644" />
				<stop offset="55%" stop-color="#f4d644" />
				<stop offset="90%" stop-color="#fcf4b3" />
				<stop offset="100%" stop-color="#faee8e" />
			</linearGradient>
			<linearGradient id="pencil-nib-shadow" x1="0%" y1="0%" x2="100%"
				y2="100%">
				<stop offset="0%" stop-color="#e07500" stop-opacity="0.0" />
				<stop offset="30%" stop-color="#e07500" stop-opacity="0.2" />
				<stop offset="50%" stop-color="#e07500" stop-opacity="0.45" />
				<stop offset="60%" stop-color="#e07500" stop-opacity="0.4" />
				<stop offset="100%" stop-color="#e07500" stop-opacity="0.0" />
			</linearGradient>
		</defs>
		<path fill="url(#pencil-cross)" d="M3,-7 l-10,10 v4 h4 l10,-10 a2,1.25 45 0,0 -4,-4" />
		<path fill="url(#pencil-back)" d="M3,-7 l-10,10 v4 h4 l10,-10 a2,1.25 45 0,0 -4,-4" />
		<ellipse transform="translate(5,-5) rotate(45)" cx="0" cy="0" rx="2.12"
			ry="1.25" fill="url(#top_center)" />
		<!--
			<ellipse transform="translate(5,-5) rotate(45)" cx="0" cy="0" rx="1.12"
			ry="0.5" fill="#594212"/>
		-->
		<path fill="url(#pencil-nib)" d="M-6,6 h3 l1,-1 a2.5,1.25 45 0,1 -3,-3 l-1,1 v3" />
		<path fill="url(#pencil-nib-shadow)" d="M-6,6 h3 l1,-1 a2.5,1.25 45 0,1 -3,-3 l-1,1 v3" />
		<path fill="url(#pencil-outer)"
			d="M2.5,-5.5 l-7,7 a2.5,1.25 45 0,0 3,3 l7,-7 a2.5,1.25 45 0,1 -3,-3" />
		<g id="down" transform="translate(4,1) rotate(180)">
			<defs>
				<linearGradient id="arrow-backing" x1="100%" y1="100%" x2="0%"
					y2="0%">
					<stop offset="0%" stop-color="#72c466" />
					<stop offset="100%" stop-color="#22601e" />
				</linearGradient>
				<linearGradient id="arrow-center" x1="100%" y1="100%" x2="0%"
					y2="0%">
					<stop offset="0%" stop-color="#a7d69e" />
					<stop offset="100%" stop-color="#78bd72" />
				</linearGradient>
			</defs>
			<path fill="url(#arrow-backing)" d="M-2,-3 h-2 l4,-4 l4,4 h-2 v4 h-4 v-4 z" />
			<path fill="url(#arrow-center)"
				d="M-1,-3.5 l-1.5,0 l2.5,-2.5 l2.5,2.5 l-1.5,0 v3.5 h-2 v-3.5 z" />
		</g>
	</g>
</svg>
