<?xml version="1.0" encoding="utf-8" standalone="yes"?>
<!DOCTYPE svg PUBLIC "-//W3C//DTD SVG 1.1//EN" "http://www.w3.org/Graphics/SVG/1.1/DTD/svg11.dtd">
<svg xmlns="http://www.w3.org/2000/svg" xmlns:xlink="http://www.w3.org/1999/xlink"
	width="16" height="16" version="1.1">
	<title>Photo Link</title>
	<desc>Photo Link</desc>
	<g id="icon" transform="translate(8,8)">
		<defs>
			<linearGradient id="backing" x1="0%" y1="0%" x2="100%" y2="100%">
				<stop offset="0%" stop-color="#bb8436" />
				<stop offset="40%" stop-color="#a9752d" />
				<stop offset="100%" stop-color="#87581d" />
			</linearGradient>
			<linearGradient id="inner" x1="0%" y1="0%" x2="100%" y2="100%">
				<stop offset="0%" stop-color="#d6b45f" />
				<stop offset="40%" stop-color="#c79953" />
				<stop offset="100%" stop-color="#b98048" />
			</linearGradient>
			<linearGradient id="sky" x1="0%" y1="0%" x2="100%" y2="100%">
				<stop offset="0%" stop-color="#76c8ff" />
				<stop offset="50%" stop-color="#68beff" />
				<stop offset="80%" stop-color="#60b9ff" />
				<stop offset="100%" stop-color="#2e9cff" />
			</linearGradient>
			<linearGradient id="grass" x1="0%" y1="0%" x2="0%" y2="100%">
				<stop offset="0%" stop-color="#80da4f" />
				<stop offset="100%" stop-color="#9be26e" />
			</linearGradient>
			<linearGradient id="plague" x1="0%" y1="0%" x2="100%" y2="0%">
				<stop offset="0%" stop-color="#eae9c1" />
				<stop offset="100%" stop-color="#e7e1ac" />
			</linearGradient>
			<linearGradient id="plague-center" x1="0%" y1="0%" x2="100%"
				y2="0%">
				<stop offset="0%" stop-color="#dfcd78" />
				<stop offset="100%" stop-color="#dfcd76" />
			</linearGradient>
			<linearGradient id="bush" x1="0%" y1="0%" x2="100%" y2="100%">
				<stop offset="0%" stop-color="#2bbe3f" />
				<stop offset="100%" stop-color="#48c055" />
			</linearGradient>
		</defs>
		<rect width="16" height="13" x="-8" y="-7" fill="url(#backing)" />
		<path fill="url(#inner)"
			d="M-7,-6 h14 v11 h-14 v-11 l2,1 a1,1 0 0,0 -1,1 v7 a1,1 0 0,0 1,1 h10 a1,1 0 0,0 1,-1 v-7 a1,1 0 0,0 -1,-1 h-10" />
		<rect width="10" height="5" x="-5" y="-4" fill="url(#sky)" />
		<path fill="#f8de60" d="M5,-4 v3 a3,3 0 0,1 -3,-3" />
		<path fill="#fae78c" d="M5,-4 v2 a2,2 0 0,1 -2,-2" />
		<rect width="10" height="2" x="-5" y="1" fill="url(#grass)" />
		<rect width="4" height="1" x="-2" y="4" fill="url(#plague)" />
		<rect width="2" height="1" x="-1" y="4" fill="url(#plague-center)" />
		<path fill="url(#bush)" d="M-5,-2.5 c3,0 3,2.5 5,2.5 a1,1 0 0,1 1,1 h-6" />
		<path fill="#60cb70" d="M-5,-2 a1.5,1.5 0 0,1 0,3" />
		<g id="link-icon" transform="translate(1.5,4)">
			<defs>
				<linearGradient id="link-border" x1="0%" y1="0%" x2="100%"
					y2="0%">
					<stop offset="0%" stop-color="#858585" />
					<stop offset="100%" stop-color="#4a4a4a" />
				</linearGradient>
				<linearGradient id="link-inner" x1="0%" y1="0%" x2="100%" y2="0%">
					<stop offset="0%" stop-color="#dddddd" />
					<stop offset="100%" stop-color="#aeaeae" />
				</linearGradient>
				<radialGradient id="link-center-link" cx="50%" cy="0%" r="70%">
					<stop offset="0%" stop-color="#929292" />
					<stop offset="100%" stop-color="#414141" />
				</radialGradient>
				<radialGradient id="link-center-link-center" cx="50%" cy="50%"
					r="70%">
					<stop offset="0%" stop-color="#cecece" />
					<stop offset="100%" stop-color="#bdbdbd" />
				</radialGradient>
			</defs>
			<g id="link">
				<path fill="url(#link-border)"
					d="M-1.5,-3 l-1.5,0 a3.5,3.5 0 0,0 0,7 l1.5,0 a1.5,1.5 0 0,0 0,-3 h-2 a0.5,0.5 0 0,1 0,-1 h2 a1.5,1.5 0 0,0 0,-3   Z" />
				<path fill="url(#link-inner)"
					d="M-1.5,-2 l-1.5,0 a2.5,2.5 0 0,0 0,5 l1.5,0 a0.5,0.5 0 0,0 0,-1 l-1.5,0 a1.5,1.5 0 0,1 0,-3 l1.5,0 a0.5,0.5 0 0,0 0,-1 Z" />
			</g>
			<use xlink:href="#link" transform="rotate(180) translate(0,-1)" />
			<rect width="6" height="3" x="-3.25" y="-1" fill="url(#link-center-link)" />
			<rect width="4" height="1" x="-2.25" y="-0" fill="url(#link-center-link-center)" />
		</g>
	</g>
</svg>
