<?xml version="1.0" encoding="utf-8" standalone="yes"?>
<!DOCTYPE svg PUBLIC "-//W3C//DTD SVG 1.1//EN" "http://www.w3.org/Graphics/SVG/1.1/DTD/svg11.dtd">
<svg xmlns="http://www.w3.org/2000/svg" xmlns:xlink="http://www.w3.org/1999/xlink"
	width="16" height="16" version="1.1">
	<title>Photo</title>
	<desc>Photo</desc>
	<g id="icon" transform="translate(8,8)">
		<defs>
			<linearGradient id="backing" x1="0%" y1="0%" x2="100%" y2="100%">
				<stop offset="0%" stop-color="#bb8436" />
				<stop offset="40%" stop-color="#a9752d" />
				<stop offset="100%" stop-color="#87581d" />
			</linearGradient>
			<linearGradient id="inner" x1="0%" y1="0%" x2="100%" y2="100%">
				<stop offset="0%" stop-color="#d6b45f" />
				<stop offset="40%" stop-color="#c79953" />
				<stop offset="100%" stop-color="#b98048" />
			</linearGradient>
			<linearGradient id="sky" x1="0%" y1="0%" x2="100%" y2="100%">
				<stop offset="0%" stop-color="#76c8ff" />
				<stop offset="50%" stop-color="#68beff" />
				<stop offset="80%" stop-color="#60b9ff" />
				<stop offset="100%" stop-color="#2e9cff" />
			</linearGradient>
			<linearGradient id="grass" x1="0%" y1="0%" x2="0%" y2="100%">
				<stop offset="0%" stop-color="#80da4f" />
				<stop offset="100%" stop-color="#9be26e" />
			</linearGradient>
			<linearGradient id="plague" x1="0%" y1="0%" x2="100%" y2="0%">
				<stop offset="0%" stop-color="#eae9c1" />
				<stop offset="100%" stop-color="#e7e1ac" />
			</linearGradient>
			<linearGradient id="plague-center" x1="0%" y1="0%" x2="100%"
				y2="0%">
				<stop offset="0%" stop-color="#dfcd78" />
				<stop offset="100%" stop-color="#dfcd76" />
			</linearGradient>
			<linearGradient id="bush" x1="0%" y1="0%" x2="100%" y2="100%">
				<stop offset="0%" stop-color="#2bbe3f" />
				<stop offset="100%" stop-color="#48c055" />
			</linearGradient>
		</defs>
		<rect width="16" height="13" x="-8" y="-7" fill="url(#backing)" />
		<path fill="url(#inner)"
			d="M-7,-6 h14 v11 h-14 v-11 l2,1 a1,1 0 0,0 -1,1 v7 a1,1 0 0,0 1,1 h10 a1,1 0 0,0 1,-1 v-7 a1,1 0 0,0 -1,-1 h-10" />
		<rect width="10" height="5" x="-5" y="-4" fill="url(#sky)" />
		<path fill="#f8de60" d="M5,-4 v3 a3,3 0 0,1 -3,-3" />
		<path fill="#fae78c" d="M5,-4 v2 a2,2 0 0,1 -2,-2" />
		<rect width="10" height="2" x="-5" y="1" fill="url(#grass)" />
		<rect width="4" height="1" x="-2" y="4" fill="url(#plague)" />
		<rect width="2" height="1" x="-1" y="4" fill="url(#plague-center)" />
		<path fill="url(#bush)" d="M-5,-2.5 c3,0 3,2.5 5,2.5 a1,1 0 0,1 1,1 h-6" />
		<path fill="#60cb70" d="M-5,-2 a1.5,1.5 0 0,1 0,3" />
	</g>
</svg>
