<?xml version="1.0" encoding="utf-8" standalone="yes"?>
<!DOCTYPE svg PUBLIC "-//W3C//DTD SVG 1.1//EN" "http://www.w3.org/Graphics/SVG/1.1/DTD/svg11.dtd">
<svg xmlns="http://www.w3.org/2000/svg" xmlns:xlink="http://www.w3.org/1999/xlink"
	width="16" height="16" version="1.1">
	<title>Picture Link</title>
	<desc>Picture Link</desc>
	<g id="icon" transform="translate(8,8)">
		<defs>
			<linearGradient id="backing" x1="0%" y1="0%" x2="100%" y2="100%">
				<stop offset="0%" stop-color="#9fb1cf" />
				<stop offset="50%" stop-color="#8ea6cd" />
				<stop offset="100%" stop-color="#9cafce" />
			</linearGradient>
			<linearGradient id="center" x1="100%" y1="0%" x2="0%" y2="100%">
				<stop offset="0%" stop-color="#799ed7" />
				<stop offset="100%" stop-color="#a0bce7" />
			</linearGradient>
			<linearGradient id="grass" x1="0%" y1="0%" x2="0%" y2="100%">
				<stop offset="0%" stop-color="#7aaa4e" />
				<stop offset="100%" stop-color="#63963c" />
			</linearGradient>
			<radialGradient id="tree" cx="60%" cy="60%" r="50%">
				<stop offset="0%" stop-color="#7aba4f" />
				<stop offset="20%" stop-color="#7aba4f" />
				<stop offset="50%" stop-color="#87c158" />
				<stop offset="100%" stop-color="#a1cb93" />
			</radialGradient>
			<linearGradient id="trunk" x1="0%" y1="0%" x2="100%" y2="0%">
				<stop offset="0%" stop-color="#9a7b35" />
				<stop offset="35%" stop-color="#d39f54" />
				<stop offset="65%" stop-color="#d39f54" />
				<stop offset="100%" stop-color="#af863f" />
			</linearGradient>
		</defs>
		<rect rx="1" ry="1" x="-7" y="-7" width="14" height="14" fill="url(#backing)" />
		<rect x="-6" y="-6" width="12" height="12" fill="#fff" />
		<rect x="-5" y="-5" width="10" height="10" fill="url(#center)" />
		<rect width="10" height="2" x="-5" y="3" fill="#c2dcbf" />
		<rect width="10" height="1" x="-5" y="2" fill="url(#grass)" />
		<path fill="url(#trunk)" d="M-2,0 h4 v3 a3,3 0 0,1 -4,0  " />
		<circle r="3.25" cy="-1.75" fill="url(#tree)" />
		<g id="link-icon" transform="translate(1.5,4)">
			<defs>
				<linearGradient id="link-border" x1="0%" y1="0%" x2="100%"
					y2="0%">
					<stop offset="0%" stop-color="#858585" />
					<stop offset="100%" stop-color="#4a4a4a" />
				</linearGradient>
				<linearGradient id="link-inner" x1="0%" y1="0%" x2="100%" y2="0%">
					<stop offset="0%" stop-color="#dddddd" />
					<stop offset="100%" stop-color="#aeaeae" />
				</linearGradient>
				<radialGradient id="link-center-link" cx="50%" cy="0%" r="70%">
					<stop offset="0%" stop-color="#929292" />
					<stop offset="100%" stop-color="#414141" />
				</radialGradient>
				<radialGradient id="link-center-link-center" cx="50%" cy="50%"
					r="70%">
					<stop offset="0%" stop-color="#cecece" />
					<stop offset="100%" stop-color="#bdbdbd" />
				</radialGradient>
			</defs>
			<g id="link">
				<path fill="url(#link-border)"
					d="M-1.5,-3 l-1.5,0 a3.5,3.5 0 0,0 0,7 l1.5,0 a1.5,1.5 0 0,0 0,-3 h-2 a0.5,0.5 0 0,1 0,-1 h2 a1.5,1.5 0 0,0 0,-3   Z" />
				<path fill="url(#link-inner)"
					d="M-1.5,-2 l-1.5,0 a2.5,2.5 0 0,0 0,5 l1.5,0 a0.5,0.5 0 0,0 0,-1 l-1.5,0 a1.5,1.5 0 0,1 0,-3 l1.5,0 a0.5,0.5 0 0,0 0,-1 Z" />
			</g>
			<use xlink:href="#link" transform="rotate(180) translate(0,-1)" />
			<rect width="6" height="3" x="-3.25" y="-1" fill="url(#link-center-link)" />
			<rect width="4" height="1" x="-2.25" y="-0" fill="url(#link-center-link-center)" />
		</g>
	</g>
</svg>