<?xml version="1.0" encoding="utf-8" standalone="yes"?>
<!DOCTYPE svg PUBLIC "-//W3C//DTD SVG 1.1//EN" "http://www.w3.org/Graphics/SVG/1.1/DTD/svg11.dtd">
<svg xmlns="http://www.w3.org/2000/svg" xmlns:xlink="http://www.w3.org/1999/xlink"
	width="16" height="16" version="1.1">
	<title>Picture Key</title>
	<desc>Picture Key Security</desc>
	<g id="icon" transform="translate(8,8)">
		<defs>
			<linearGradient id="backing" x1="0%" y1="0%" x2="100%" y2="100%">
				<stop offset="0%" stop-color="#9fb1cf" />
				<stop offset="50%" stop-color="#8ea6cd" />
				<stop offset="100%" stop-color="#9cafce" />
			</linearGradient>
			<linearGradient id="center" x1="100%" y1="0%" x2="0%" y2="100%">
				<stop offset="0%" stop-color="#799ed7" />
				<stop offset="100%" stop-color="#a0bce7" />
			</linearGradient>
			<linearGradient id="grass" x1="0%" y1="0%" x2="0%" y2="100%">
				<stop offset="0%" stop-color="#7aaa4e" />
				<stop offset="100%" stop-color="#63963c" />
			</linearGradient>
			<radialGradient id="tree" cx="60%" cy="60%" r="50%">
				<stop offset="0%" stop-color="#7aba4f" />
				<stop offset="20%" stop-color="#7aba4f" />
				<stop offset="50%" stop-color="#87c158" />
				<stop offset="100%" stop-color="#a1cb93" />
			</radialGradient>
			<linearGradient id="trunk" x1="0%" y1="0%" x2="100%" y2="0%">
				<stop offset="0%" stop-color="#9a7b35" />
				<stop offset="35%" stop-color="#d39f54" />
				<stop offset="65%" stop-color="#d39f54" />
				<stop offset="100%" stop-color="#af863f" />
			</linearGradient>
		</defs>
		<rect rx="1" ry="1" x="-7" y="-7" width="14" height="14" fill="url(#backing)" />
		<rect x="-6" y="-6" width="12" height="12" fill="#fff" />
		<rect x="-5" y="-5" width="10" height="10" fill="url(#center)" />
		<rect width="10" height="2" x="-5" y="3" fill="#c2dcbf" />
		<rect width="10" height="1" x="-5" y="2" fill="url(#grass)" />
		<path fill="url(#trunk)" d="M-2,0 h4 v3 a3,3 0 0,1 -4,0  " />
		<circle r="3.25" cy="-1.75" fill="url(#tree)" />
		<g id="key-icon" transform="translate(3,3)">
			<defs>
				<linearGradient id="key-backing" x1="0%" y1="0%" x2="100%"
					y2="0%">
					<stop offset="0%" stop-color="#e3b044" />
					<stop offset="100%" stop-color="#d67d29" />
				</linearGradient>
				<linearGradient id="key-center" x1="0%" y1="0%" x2="100%" y2="0%">
					<stop offset="0%" stop-color="#f9eea9" />
					<stop offset="100%" stop-color="#f5d855" />
				</linearGradient>
				<linearGradient id="key-line" x1="0%" y1="0%" x2="0%" y2="100%">
					<stop offset="0%" stop-color="#eec528" stop-opacity="0" />
					<stop offset="100%" stop-color="#eec528" />
				</linearGradient>
				<linearGradient id="key-top" x1="0%" y1="0%" x2="100%" y2="100%">
					<stop offset="0%" stop-color="#eec528" stop-opacity="0" />
					<stop offset="100%" stop-color="#eec528" />
				</linearGradient>
			</defs>
			<g id="key-tick" transform="scale(0.625)">
				<path fill="url(#key-backing)"
					d="M-8,8 v-6 h2 v-2 h3 l1,-1 a3,3 0 0,1 -1,-3.5 l3,-3 a3,3 0 0,1 3.5,0 l3,3 a3,3 0 0,1 1,3.5 l-3,3 a3,3 0 0,1 -3,0 l-6,6 Z" />
				<path fill="url(#key-center)" d="M-7,7 v-4 h2 v-2 l2.5,0 l3,-3 l1.8,1.8 l-7.2,7.2 Z" />
				<path transform="scale(0.8)"
					d="M-1.5,-2 a3,3 0 0,1 -1,-3.5 l3,-3 a3,3 0 0,1 3.5,0 l3.3,3.3 a3,3 0 0,1 1,3.5 l-3,3 a3,3 0 0,1 -3,0 Z"
					fill="url(#key-center)" />
				<path transform="scale(0.6)"
					d="M-0.4,-3.2 a3,3 0 0,1 -1,-3.5 l3,-3 a3,3 0 0,1 3.5,0 l3.3,3.3 a3,3 0 0,1 1,3.5 l-3,3 a3,3 0 0,1 -3,0 Z"
					fill="url(#key-top)" />
				<path fill="url(#key-line)" d="M-6,6 v-1 l6,-6 l1,1 l-6,6 Z" />
				<rect width="2" height="1" transform="translate(3,-5) rotate(45)" fill="url(#key-backing)" />
			</g>
		</g>
	</g>
</svg>