<?xml version="1.0" encoding="utf-8" standalone="yes"?>
<!DOCTYPE svg PUBLIC "-//W3C//DTD SVG 1.1//EN" "http://www.w3.org/Graphics/SVG/1.1/DTD/svg11.dtd">
<svg xmlns="http://www.w3.org/2000/svg" xmlns:xlink="http://www.w3.org/1999/xlink"
	height="16" width="16" version="1.1">
	<title>Pipe Add</title>
	<desc>Pipe Add</desc>
	<g id="icon" transform="translate(8,8)">
		<g id="pipe">
			<path fill="#6a6a6a" d="M0,-1 l5,0 l1,-1 l1,0 l0,5 l-1,0 l-1,-1 l-10,0 l-1,1 l-1,0 l0,-5 l1,0 l1,1 " />
			<path fill="#8d8d8d" d="M0,0 l5,0 l1,-1 l0,3 l-1,-1 l-10,0 l-1,1 l0,-3 l1,1" />
		</g>
	</g>
	<g id="delete" transform="translate(12.5,11.5)">
		<defs>
			<linearGradient id="backing_delete" x1="0%" y1="0%" x2="100%"
				y2="100%">
				<stop offset="0%" stop-color="#c4581e" />
				<stop offset="100%" stop-color="#b84503" />
			</linearGradient>
			<linearGradient id="center_delete" x1="0%" y1="0%" x2="100%"
				y2="100%">
				<stop offset="0%" stop-color="#fed6b8" />
				<stop offset="100%" stop-color="#dd6401" />
			</linearGradient>
		</defs>
		<circle id="back" r="3.5" fill="url(#backing_delete)" />
		<circle id="center-dot" r="2.5" fill="url(#center_delete)" />
		<path fill="#fff" d="M-1.5,-0.5 h3 v1 h-3 v-1 z " />
	</g>
</svg>
