<?xml version="1.0" encoding="utf-8" standalone="yes"?>
<!DOCTYPE svg PUBLIC "-//W3C//DTD SVG 1.1//EN" "http://www.w3.org/Graphics/SVG/1.1/DTD/svg11.dtd">
<svg xmlns="http://www.w3.org/2000/svg" xmlns:xlink="http://www.w3.org/1999/xlink"
	height="16" width="16" version="1.1">
	<title>Pipe Add</title>
	<desc>Pipe Add</desc>
	<g id="icon" transform="translate(8,8)">
		<g id="pipe">
			<path fill="#6a6a6a" d="M0,-1 l5,0 l1,-1 l1,0 l0,5 l-1,0 l-1,-1 l-10,0 l-1,1 l-1,0 l0,-5 l1,0 l1,1 " />
			<path fill="#8d8d8d" d="M0,0 l5,0 l1,-1 l0,3 l-1,-1 l-10,0 l-1,1 l0,-3 l1,1" />
		</g>
	</g>
	<g id="error" transform="translate(10,10)">
		<defs>
			<linearGradient id="error-backing" x1="0%" y1="0%" x2="100%"
				y2="0%">
				<stop offset="0%" stop-color="#debd5c" />
				<stop offset="100%" stop-color="#bd7723" />
			</linearGradient>
			<linearGradient id="error-center" x1="0%" y1="0%" x2="100%"
				y2="0%">
				<stop offset="0%" stop-color="#fbf4dc" />
				<stop offset="100%" stop-color="#f8eaab" />
			</linearGradient>
			<linearGradient id="error-in-border" x1="0%" y1="0%" x2="100%"
				y2="0%">
				<stop offset="0%" stop-color="#f5da58" />
				<stop offset="100%" stop-color="#f6de6a" />
			</linearGradient>
		</defs>
		<path fill="url(#error-backing)" d="M0.5,-5 l5.5,10 h-11 l5.5,-10 Z" />
		<path fill="url(#error-center)" d="M0.5,-3.5 l4,7.5 h-8 l4,-7.5 Z" />
		<path fill="url(#error-in-border)" d="M0.5,-2 l2.5,5 h-5 l2.5,-5 Z" />
		<rect width="1" height="2" y="-1" fill="#c28832" />
		<rect width="1" height="1" y="2" fill="#c28832" />
	</g>
</svg>
