<?xml version="1.0" encoding="utf-8" standalone="yes"?>
<!DOCTYPE svg PUBLIC "-//W3C//DTD SVG 1.1//EN" "http://www.w3.org/Graphics/SVG/1.1/DTD/svg11.dtd">
<svg xmlns="http://www.w3.org/2000/svg" xmlns:xlink="http://www.w3.org/1999/xlink"
	width="16" height="16" version="1.1">
	<title>Plugin Error</title>
	<desc>Plugin Add-on Error</desc>
	<g id="icon" transform="translate(8,8)">
		<defs>
			<linearGradient id="backing" x1="0%" y1="0%" x2="100%" y2="100%">
				<stop offset="0%" stop-color="#83d079" />
				<stop offset="100%" stop-color="#3a8a36" />
			</linearGradient>
			<linearGradient id="in-border" x1="0%" y1="0%" x2="100%" y2="100%">
				<stop offset="0%" stop-color="#a6d99b" />
				<stop offset="100%" stop-color="#7cc376" />
			</linearGradient>
			<linearGradient id="center" x1="0%" y1="0%" x2="100%" y2="100%">
				<stop offset="0%" stop-color="#77c369" />
				<stop offset="100%" stop-color="#59b54f" />
			</linearGradient>
		</defs>
		<path fill="url(#backing)"
			d="M-7,7 h5 v-1 a1,1 0 1,1 2,0 v1 h4 v-4 h1 a2,2 0 1,0 0,-4 h-1 v-3 h-3 v-1 a2,2 0 1,0 -4,0 v1 h-4 v4 h1 a1,1 0 1,1 0,2 h-1" />
		<path fill="url(#in-border)"
			d="M-6,6 h3 a2,2 0 1,1 4,0 h2 v-4 h2 a1,1 0 1,0 0,-2 h-2 v-3 h-3 v-2 a1,1 0 1,0 -2,0 v2 h-4 v2 a2,2 0 1,1 0,4" />
		<path fill="url(#center)"
			d="M-5,5 h1 a1.8,1.5 0 0,1 6,0 v-7 h-7 a1.5,1.8 0 0,1 0,6 " />
		<g id="error" transform="translate(2,3)">
			<defs>
				<linearGradient id="error-backing" x1="0%" y1="0%" x2="100%"
					y2="0%">
					<stop offset="0%" stop-color="#debd5c" />
					<stop offset="100%" stop-color="#bd7723" />
				</linearGradient>
				<linearGradient id="error-center" x1="0%" y1="0%" x2="100%"
					y2="0%">
					<stop offset="0%" stop-color="#fbf4dc" />
					<stop offset="100%" stop-color="#f8eaab" />
				</linearGradient>
				<linearGradient id="error-in-border" x1="0%" y1="0%" x2="100%"
					y2="0%">
					<stop offset="0%" stop-color="#f5da58" />
					<stop offset="100%" stop-color="#f6de6a" />
				</linearGradient>
			</defs>
			<path fill="url(#error-backing)" d="M0.5,-5 l5.5,10 h-11 l5.5,-10 Z" />
			<path fill="url(#error-center)" d="M0.5,-3.5 l4,7.5 h-8 l4,-7.5 Z" />
			<path fill="url(#error-in-border)" d="M0.5,-2 l2.5,5 h-5 l2.5,-5 Z" />
			<rect width="1" height="2" y="-1" fill="#c28832" />
			<rect width="1" height="1" y="2" fill="#c28832" />
		</g>
	</g>
</svg>
