<?xml version="1.0" encoding="utf-8" standalone="yes"?>
<!DOCTYPE svg PUBLIC "-//W3C//DTD SVG 1.1//EN" "http://www.w3.org/Graphics/SVG/1.1/DTD/svg11.dtd">
<svg xmlns="http://www.w3.org/2000/svg" xmlns:xlink="http://www.w3.org/1999/xlink"
	width="16" height="16" version="1.1">
	<title>Plugin Add</title>
	<desc>Plugin Add-on Add</desc>
	<g id="icon" transform="translate(8,8)">
		<defs>
			<linearGradient id="backing" x1="0%" y1="0%" x2="100%" y2="100%">
				<stop offset="0%" stop-color="#83d079" />
				<stop offset="100%" stop-color="#3a8a36" />
			</linearGradient>
			<linearGradient id="in-border" x1="0%" y1="0%" x2="100%" y2="100%">
				<stop offset="0%" stop-color="#a6d99b" />
				<stop offset="100%" stop-color="#7cc376" />
			</linearGradient>
			<linearGradient id="center" x1="0%" y1="0%" x2="100%" y2="100%">
				<stop offset="0%" stop-color="#77c369" />
				<stop offset="100%" stop-color="#59b54f" />
			</linearGradient>
		</defs>
		<path fill="url(#backing)"
			d="M-7,7 h5 v-1 a1,1 0 1,1 2,0 v1 h4 v-4 h1 a2,2 0 1,0 0,-4 h-1 v-3 h-3 v-1 a2,2 0 1,0 -4,0 v1 h-4 v4 h1 a1,1 0 1,1 0,2 h-1" />
		<path fill="url(#in-border)"
			d="M-6,6 h3 a2,2 0 1,1 4,0 h2 v-4 h2 a1,1 0 1,0 0,-2 h-2 v-3 h-3 v-2 a1,1 0 1,0 -2,0 v2 h-4 v2 a2,2 0 1,1 0,4" />
		<path fill="url(#center)"
			d="M-5,5 h1 a1.8,1.5 0 0,1 6,0 v-7 h-7 a1.5,1.8 0 0,1 0,6 " />
		<g id="add" transform="translate(4.5,4.5)">
			<defs>
				<linearGradient id="backing_add" x1="0%" y1="0%" x2="100%"
					y2="100%">
					<stop offset="0%" stop-color="#6e9458" />
					<stop offset="100%" stop-color="#376b19" />
				</linearGradient>
				<linearGradient id="center_add" x1="0%" y1="0%" x2="100%" y2="100%">
					<stop offset="0%" stop-color="#b1d390" />
					<stop offset="100%" stop-color="#8fbc67" />
				</linearGradient>
			</defs>
			<circle id="back" r="3.5" fill="url(#backing_add)" />
			<circle id="center-dot" r="2.5" fill="url(#center_add)" />
			<path fill="#fff"
				d="M-0.5,-0.5 v-1 h1 v1 h1 v1 h-1 v1 h-1 v-1 h-1 v-1 h1 z " />
		</g>
	</g>
</svg>
