<?xml version="1.0" encoding="utf-8" standalone="yes"?>
<!DOCTYPE svg PUBLIC "-//W3C//DTD SVG 1.1//EN" "http://www.w3.org/Graphics/SVG/1.1/DTD/svg11.dtd">
<svg xmlns="http://www.w3.org/2000/svg" xmlns:xlink="http://www.w3.org/1999/xlink"
	width="16" height="16" version="1.1">
	<title>Plugin Small</title>
	<desc>Plugin Add-on Small</desc>
	<g id="plugin-icon" transform="translate(8,8)">
		<defs>
			<linearGradient id="plugin-backing" x1="0%" y1="0%" x2="100%"
				y2="100%">
				<stop offset="0%" stop-color="#83d079" />
				<stop offset="100%" stop-color="#3a8a36" />
			</linearGradient>
			<linearGradient id="plugin-in-border" x1="0%" y1="0%" x2="100%"
				y2="100%">
				<stop offset="0%" stop-color="#a6d99b" />
				<stop offset="100%" stop-color="#7cc376" />
			</linearGradient>
			<linearGradient id="plugin-center" x1="0%" y1="0%" x2="100%"
				y2="100%">
				<stop offset="0%" stop-color="#77c369" />
				<stop offset="100%" stop-color="#59b54f" />
			</linearGradient>
		</defs>
		<path fill="url(#plugin-backing)"
			d="M-5,5 h3 v-1 a1,1 0 1,1 2,0 v1 h3 v-3 h1 a1.5,1.5 0 1,0 0,-3 h-1 v-3 h-2 v-1 a1.5,1.5 0 1,0 -3,0 v1 h-3 v3 h1 a1,1 0 1,1 0,2 h-1" />
		<path fill="url(#plugin-in-border)"
			d="M-4,4 h1 a2,2 0 1,1 4,0 h1 v-3 h2 a0.5,0.5 0 1,0 0,-1 h-2 v-3 h-2 v-2 a0.5,0.5 0 1,0 -1,0 v2 h-3 v1 a2,2 0 1,1 0,4" />
		<path fill="url(#plugin-center)" opacity="0.25"
			d="M-4,4 h1 a2,2 0 1,1 4,0 h1 v-3 h2 a0.5,0.5 0 1,0 0,-1 h-2 v-3 h-2 v-2 a0.5,0.5 0 1,0 -1,0 v2 h-3 v1 a2,2 0 1,1 0,4" />
	</g>
</svg>
