<?xml version="1.0" encoding="utf-8" standalone="yes"?>
<!DOCTYPE svg PUBLIC "-//W3C//DTD SVG 1.1//EN" "http://www.w3.org/Graphics/SVG/1.1/DTD/svg11.dtd">
<svg xmlns="http://www.w3.org/2000/svg" xmlns:xlink="http://www.w3.org/1999/xlink"
	width="16" height="16" version="1.1">
	<title>Printer Network</title>
	<desc>Printer Print Network</desc>
	<g id="icon" transform="translate(8,5)">
		<g id="network">
			<defs>
				<linearGradient id="network-center" x1="0%" y1="25%" x2="0%"
					y2="75%">
					<stop offset="0%" stop-color="#8ab8ff" />
					<stop offset="100%" stop-color="#7bafff" />
				</linearGradient>
			</defs>
			<path fill="#6a6a6a" d="M-2,6 h4 v1 h6 v3 h-16 v-3 h6 v-1" />
			<path fill="#8d8d8d"
				d="M-1,6 h2 v1 h-2 v-1 m-1,2 h-5 v1 h5 m9,0 h-5 v-1 h5" />
			<rect width="2" height="2" x="-1" y="7.8" fill="url(#network-center)" />
			<path fill="#0054f8" d="M-2,9.8 a1,1 0 0,0 1,1 h2 a1,1 0 0,0 1,-1 h-4" />
		</g>
		<defs>
			<linearGradient id="page-border" x1="100%" y1="0%" x2="0%" y2="100%">
				<stop offset="0%" stop-color="#457ec2" />
				<stop offset="100%" stop-color="#6195c8" />
			</linearGradient>
			<linearGradient id="page-inner" x1="0%" y1="0%" x2="0%" y2="100%">
				<stop offset="0%" stop-color="#ecf1f9" />
				<stop offset="100%" stop-color="#f6f7f9" />
			</linearGradient>
			<linearGradient id="page-flap" x1="100%" y1="0%" x2="0%" y2="100%">
				<stop offset="0%" stop-color="#457ec2" />
				<stop offset="30%" stop-color="#457ec2" />
				<stop offset="100%" stop-color="#cde6fc" />
			</linearGradient>
			<linearGradient id="page-center" x1="100%" y1="0%" x2="0%" y2="100%">
				<stop offset="0%" stop-color="#b5d4f3" />
				<stop offset="30%" stop-color="#bbd6f5" />
				<stop offset="100%" stop-color="#d8e8fe" />
			</linearGradient>
			<linearGradient id="page-base" x1="0%" y1="0%" x2="100%" y2="0%">
				<stop offset="0%" stop-color="#ecf1f9" />
				<stop offset="100%" stop-color="#d8e8fe" />
			</linearGradient>
			<linearGradient id="printer-back" x1="0%" y1="0%" x2="100%"
				y2="100%">
				<stop offset="0%" stop-color="#9a9a9a" />
				<stop offset="100%" stop-color="#232323" />
			</linearGradient>
			<linearGradient id="printer-case" x1="0%" y1="0%" x2="0%" y2="100%">
				<stop offset="0%" stop-color="#cbcbcb" />
				<stop offset="25%" stop-color="#ffffff" />
				<stop offset="100%" stop-color="#d7d7d7" />
			</linearGradient>
			<linearGradient id="printer-front" x1="0%" y1="0%" x2="0%" y2="100%">
				<stop offset="0%" stop-color="#000" stop-opacity="0.05" />
				<stop offset="20%" stop-color="#000" stop-opacity="0.10" />
				<stop offset="100%" stop-color="#000" stop-opacity="0.30" />
			</linearGradient>
			<linearGradient id="printer-lid" x1="0%" y1="0%" x2="0%" y2="100%">
				<stop offset="0%" stop-color="#7d7d7d" />
				<stop offset="25%" stop-color="#d8d8d8" />
				<stop offset="100%" stop-color="#616161" />
			</linearGradient>
			<linearGradient id="printer-lid-inner" x1="0%" y1="0%" x2="0%"
				y2="100%">
				<stop offset="0%" stop-color="#f2f2f2" />
				<stop offset="100%" stop-color="#d7d7d7" />
			</linearGradient>
			<linearGradient id="printer-lid-center" x1="0%" y1="0%" x2="0%"
				y2="100%">
				<stop offset="0%" stop-color="#cbcbcb" />
				<stop offset="100%" stop-color="#b9b9b9" />
			</linearGradient>
		</defs>
		<path fill="url(#printer-back)"
			d="M-8,0 l2,-3 h12 l2,3 v5 a1,1 0 0,1 -1,1 h-14 a1,1 0 0,1 -1,-1 v-5" />
		<path fill="url(#printer-case)" d="M-7,0 l1.33,-2 l11.33,0 l1.33,2 v5 h-14 v-5" />
		<g transform="translate(0, 3)">
			<path fill="url(#page-border)"
				d="M-4,-8 h6 l3,3 v8 a1,1 0 0,1 -1,1 h-8 a1,1 0 0,1 -1,-1 v-10 a1,1 0 0,1 1,-1 Z" />
			<path fill="url(#page-inner)" d="M-4,-7 h6 l2,2 v8 h-8 v-10 Z" />
			<path fill="url(#page-flap)" d="M2,-7 l2,2 h-2 v-2 Z" />
			<path fill="url(#page-center)" d="M-3,-6 h4 v2 h2 v3 h-6" />
		</g>
		<rect x="-3" y="5" width="6" height="1" fill="url(#page-base)" />
		<rect x="-5" y="-1" width="10" height="6" fill="url(#printer-lid)" />
		<rect x="-4" y="0" width="8" height="4" fill="url(#printer-lid-inner)" />
		<rect x="-3" y="1" width="6" height="3" fill="url(#printer-lid-center)" />
		<rect x="-8" y="2" width="16" height="3" fill="url(#printer-front)" />
	</g>
</svg>
