<?xml version="1.0" encoding="utf-8" standalone="yes"?>
<!DOCTYPE svg PUBLIC "-//W3C//DTD SVG 1.1//EN" "http://www.w3.org/Graphics/SVG/1.1/DTD/svg11.dtd">
<svg xmlns="http://www.w3.org/2000/svg" xmlns:xlink="http://www.w3.org/1999/xlink"
	width="16" height="16" version="1.1">
	<title>Rainbow</title>
	<desc>Rainbow</desc>
	<g id="icon" transform="translate(8,8)">
		<defs>
			<mask id="center">
				<rect width="16" height="16" x="-8" y="-8" fill="#fff" />
				<path fill="#a0a0a0"
					d="M-6,6 h7 a5.5,5.5 0 0,1 5,-5 v-7 a12.8,12.8 0 0,0 -12,12 " />
			</mask>
		</defs>
		<path fill="#4b75af"
			d="M0,8 h3 v-1 a4,4 0 0,1 4,-4 h1 v-3 h-1 a7,7 0 0,0 -7,7 v1 " />
		<path fill="#139b00"
			d="M-2,8 h2 v-1 a7,7 0 0,1 7,-7 h1 v-2 h-1 a9,9 0 0,0 -9,9 v1 " />
		<path fill="#f3cb33"
			d="M-4,8 h2 v-1 a9,9 0 0,1 9,-9 h1 v-2 h-1 a11,11 0 0,0 -11,11 v1 " />
		<path fill="#f97b00"
			d="M-6,8 h2 v-1 a11,11 0 0,1 11,-11 h1 v-2 h-1 a13,13 0 0,0 -13,13 v1 " />
		<path fill="#db0500"
			d="M-8,8 h2 v-1 a13,13 0 0,1 13,-13 h1 v-2 h-1 a15,15 0 0,0 -15,15 v1 " />
		<path fill="#fff" opacity="0.48" mask="url(#center)"
			d="M-7,7 h9 a5,5 0 0,1 5,-5 v-9 a14,14 0 0,0 -14,14 " />
	</g>
</svg>
