<?xml version="1.0" encoding="utf-8" standalone="yes"?>
<!DOCTYPE svg PUBLIC "-//W3C//DTD SVG 1.1//EN" "http://www.w3.org/Graphics/SVG/1.1/DTD/svg11.dtd">
<svg xmlns="http://www.w3.org/2000/svg" xmlns:xlink="http://www.w3.org/1999/xlink"
	width="16" height="16" version="1.1">
	<title>Receipt Note</title>
	<desc>Receipt Note</desc>
	<g id="icon" transform="translate(8,8)">
		<defs>
			<linearGradient id="center" x1="100%" y1="0%" x2="0%" y2="100%">
				<stop offset="10%" stop-color="#e9e9e9" />
				<stop offset="50%" stop-color="#fff" />
			</linearGradient>
			<linearGradient id="text" x1="100%" y1="0%" x2="0%" y2="100%">
				<stop offset="0%" stop-color="#a5a5a5" />
				<stop offset="100%" stop-color="#dddddd" />
			</linearGradient>
		</defs>
		<path fill="#000" opacity="0.21" d="M-6,-7 a1,1 0 0,1 1,-1 h1 v1 h1 v-1 h1 v1 h1 v-1 h1 v1 h1 v-1 h1 v1 h1 v-1 h1 v1 h1 v-1 h1 a1,1 0 0,1 1,1 v14 a1,1 0 0,1 -1,1 h-1 v-1 h-1 v1 h-1 v-1 h-1 v1 h-1 v-1 h-1 v1 h-1 v-1 h-1 v1 h-1 v-1 h-1 v1 h-1 a1,1 0 0,1 -1,-1" />
		<path fill="#fff" d="M-5,-7 h1 v1 h1 v-1 h1 v1 h1 v-1 h1 v1 h1 v-1 h1 v1 h1 v-1 h1 v1 h1 v-1 h1 v14 h-1 v-1 h-1 v1 h-1 v-1 h-1 v1 h-1 v-1 h-1 v1 h-1 v-1 h-1 v1 h-1 v-1 h-1 v1 h-1" />
		<rect fill="url(#center)" width="9" height="10" x="-4" y="-5" />
		<path fill="url(#text)" d="M-3,-4 h6 v1 h-6 m0,1 h7 v1 h-7 m0,1 h5 v1 h-5 m0,1 h6 v1 h-6 m2,1 h4 v1 h-4" />
	</g>
	<g id="receipt" transform="translate(6,9)">
		<defs>
			<linearGradient id="receipt-backing" x1="0%" y1="0%" x2="100%" y2="100%">
				<stop offset="0%" stop-color="#fedfb6" />
				<stop offset="30%" stop-color="#f0ad5d" />
				<stop offset="100%" stop-color="#df7900" />
			</linearGradient>
			<linearGradient id="receipt-inner" x1="0%" y1="0%" x2="0%" y2="100%">
				<stop offset="0%" stop-color="#fffdfa" />
				<stop offset="100%" stop-color="#fcf6db" />
			</linearGradient>
			<linearGradient id="receipt-center" x1="0%" y1="0%" x2="100%" y2="100%">
				<stop offset="0%" stop-color="#f9eaaa" />
				<stop offset="50%" stop-color="#f5dd77" />
				<stop offset="100%" stop-color="#f2d142" />
			</linearGradient>
			<linearGradient id="receipt-flap" x1="0%" y1="0%" x2="0%" y2="100%">
				<stop offset="0%" stop-color="#ebad5e" />
				<stop offset="100%" stop-color="#e69f32" />
			</linearGradient>
			<linearGradient id="receipt-flap-center" x1="0%" y1="0%" x2="0%" y2="100%">
				<stop offset="0%" stop-color="#fcf3d3" />
				<stop offset="100%" stop-color="#f8e9a8" />
			</linearGradient>
		</defs>
		<rect width="9" height="9" x="-6" y="-6" fill="url(#receipt-backing)" />
		<rect width="7" height="7" x="-5" y="-5" fill="url(#receipt-inner)" />
		<rect width="5.2" height="4.1" x="-4.1" y="-3" fill="url(#receipt-center)" />
		<path fill="url(#receipt-flap)" d="M-5,-1 h3 v3 l-1.5,0 l-1.5,-1.5 v-1.5" />
		<path fill="url(#receipt-flap-center)" d="M-4.5,0 l1.5,0 v1.5" />
	</g>
</svg>
