<?xml version="1.0" encoding="utf-8" standalone="yes"?>
<!DOCTYPE svg PUBLIC "-//W3C//DTD SVG 1.1//EN" "http://www.w3.org/Graphics/SVG/1.1/DTD/svg11.dtd">
<svg xmlns="http://www.w3.org/2000/svg" xmlns:xlink="http://www.w3.org/1999/xlink"
	width="16" height="16" version="1.1">
	<title>Receipt</title>
	<desc>Receipt</desc>
	<g id="icon" transform="translate(7,8)">
		<defs>
			<linearGradient id="center" x1="100%" y1="0%" x2="0%" y2="100%">
				<stop offset="10%" stop-color="#e9e9e9" />
				<stop offset="50%" stop-color="#fff" />
			</linearGradient>
			<linearGradient id="text" x1="100%" y1="0%" x2="0%" y2="100%">
				<stop offset="0%" stop-color="#a5a5a5" />
				<stop offset="100%" stop-color="#dddddd" />
			</linearGradient>
		</defs>
		<path fill="#000" opacity="0.21" d="M-6,-7 a1,1 0 0,1 1,-1 h1 v1 h1 v-1 h1 v1 h1 v-1 h1 v1 h1 v-1 h1 v1 h1 v-1 h1 v1 h1 v-1 h1 a1,1 0 0,1 1,1 v14 a1,1 0 0,1 -1,1 h-1 v-1 h-1 v1 h-1 v-1 h-1 v1 h-1 v-1 h-1 v1 h-1 v-1 h-1 v1 h-1 v-1 h-1 v1 h-1 a1,1 0 0,1 -1,-1" />
		<path fill="#fff" d="M-5,-7 h1 v1 h1 v-1 h1 v1 h1 v-1 h1 v1 h1 v-1 h1 v1 h1 v-1 h1 v1 h1 v-1 h1 v14 h-1 v-1 h-1 v1 h-1 v-1 h-1 v1 h-1 v-1 h-1 v1 h-1 v-1 h-1 v1 h-1 v-1 h-1 v1 h-1" />
		<rect fill="url(#center)" width="9" height="10" x="-4" y="-5" />
		<path fill="url(#text)" d="M-3,-4 h6 v1 h-6 m0,1 h7 v1 h-7 m0,1 h5 v1 h-5 m0,1 h6 v1 h-6 m2,1 h4 v1 h-4" />
	</g>
</svg>
