<?xml version="1.0" encoding="utf-8" standalone="yes"?>
<!DOCTYPE svg PUBLIC "-//W3C//DTD SVG 1.1//EN" "http://www.w3.org/Graphics/SVG/1.1/DTD/svg11.dtd">
<svg xmlns="http://www.w3.org/2000/svg" xmlns:xlink="http://www.w3.org/1999/xlink"
	width="16" height="16" version="1.1">
	<title>Receipt Error</title>
	<desc>Receipt Error</desc>
	<g id="icon" transform="translate(7,8)">
		<defs>
			<linearGradient id="center" x1="100%" y1="0%" x2="0%" y2="100%">
				<stop offset="10%" stop-color="#e9e9e9" />
				<stop offset="50%" stop-color="#fff" />
			</linearGradient>
			<linearGradient id="text" x1="100%" y1="0%" x2="0%" y2="100%">
				<stop offset="0%" stop-color="#a5a5a5" />
				<stop offset="100%" stop-color="#dddddd" />
			</linearGradient>
		</defs>
		<path fill="#000" opacity="0.21" d="M-6,-7 a1,1 0 0,1 1,-1 h1 v1 h1 v-1 h1 v1 h1 v-1 h1 v1 h1 v-1 h1 v1 h1 v-1 h1 v1 h1 v-1 h1 a1,1 0 0,1 1,1 v14 a1,1 0 0,1 -1,1 h-1 v-1 h-1 v1 h-1 v-1 h-1 v1 h-1 v-1 h-1 v1 h-1 v-1 h-1 v1 h-1 v-1 h-1 v1 h-1 a1,1 0 0,1 -1,-1" />
		<path fill="#fff" d="M-5,-7 h1 v1 h1 v-1 h1 v1 h1 v-1 h1 v1 h1 v-1 h1 v1 h1 v-1 h1 v1 h1 v-1 h1 v14 h-1 v-1 h-1 v1 h-1 v-1 h-1 v1 h-1 v-1 h-1 v1 h-1 v-1 h-1 v1 h-1 v-1 h-1 v1 h-1" />
		<rect fill="url(#center)" width="9" height="10" x="-4" y="-5" />
		<path fill="url(#text)" d="M-3,-4 h6 v1 h-6 m0,1 h7 v1 h-7 m0,1 h5 v1 h-5 m0,1 h6 v1 h-6 m2,1 h4 v1 h-4" />
	</g>
	<g id="error" transform="translate(10,11)">
		<defs>
			<linearGradient id="error-backing" x1="0%" y1="0%" x2="100%"
				y2="0%">
				<stop offset="0%" stop-color="#debd5c" />
				<stop offset="100%" stop-color="#bd7723" />
			</linearGradient>
			<linearGradient id="error-center" x1="0%" y1="0%" x2="100%"
				y2="0%">
				<stop offset="0%" stop-color="#fbf4dc" />
				<stop offset="100%" stop-color="#f8eaab" />
			</linearGradient>
			<linearGradient id="error-in-border" x1="0%" y1="0%" x2="100%"
				y2="0%">
				<stop offset="0%" stop-color="#f5da58" />
				<stop offset="100%" stop-color="#f6de6a" />
			</linearGradient>
		</defs>
		<path fill="url(#error-backing)" d="M0.5,-5 l5.5,10 h-11 l5.5,-10 Z" />
		<path fill="url(#error-center)" d="M0.5,-3.5 l4,7.5 h-8 l4,-7.5 Z" />
		<path fill="url(#error-in-border)" d="M0.5,-2 l2.5,5 h-5 l2.5,-5 Z" />
		<rect width="1" height="2" y="-1" fill="#c28832" />
		<rect width="1" height="1" y="2" fill="#c28832" />
	</g>
</svg>
