<?xml version="1.0" encoding="utf-8" standalone="yes"?>
<!DOCTYPE svg PUBLIC "-//W3C//DTD SVG 1.1//EN" "http://www.w3.org/Graphics/SVG/1.1/DTD/svg11.dtd">
<svg xmlns="http://www.w3.org/2000/svg" xmlns:xlink="http://www.w3.org/1999/xlink"
	width="16" height="16" version="1.1">
	<title>Report Go</title>
	<desc>Report Go</desc>
	<g id="icon" transform="translate(8,8)">
		<defs>
			<linearGradient id="spine" x1="0%" y1="0%" x2="100%" y2="100%">
				<stop offset="0%" stop-color="#b84c00" />
				<stop offset="100%" stop-color="#a52700" />
			</linearGradient>
			<linearGradient id="spine-center" x1="0%" y1="0%" x2="100%"
				y2="100%">
				<stop offset="0%" stop-color="#be6700" />
				<stop offset="100%" stop-color="#b35800" />
			</linearGradient>
			<linearGradient id="label" x1="0%" y1="0%" x2="100%" y2="100%">
				<stop offset="0%" stop-color="#7aa5e1" />
				<stop offset="100%" stop-color="#6a93d4" />
			</linearGradient>
			<linearGradient id="base" x1="0%" y1="0%" x2="100%" y2="100%">
				<stop offset="0%" stop-color="#dcdcdc" />
				<stop offset="100%" stop-color="#c7c7c7" />
			</linearGradient>
			<linearGradient id="center" x1="0%" y1="0%" x2="100%" y2="100%">
				<stop offset="0%" stop-color="#fafafa" />
				<stop offset="30%" stop-color="#f2f2f2" />
				<stop offset="100%" stop-color="#f8f8f8" />
			</linearGradient>
			<linearGradient id="corner" x1="0%" y1="0%" x2="100%" y2="100%">
				<stop offset="0%" stop-color="#ffffff" />
				<stop offset="100%" stop-color="#c8c8c8" />
			</linearGradient>
			<filter id="gaussian-blur">
				<feGaussianBlur in="SourceGraphic" stdDeviation="1" />
			</filter>
		</defs>
		<rect width="14" height="16" rx="1" ry="1" x="-6" y="-8" fill="#000"
			opacity="0.21" />
		<rect width="3" height="15.5" x="-6" y="-8" fill="url(#spine)" />
		<rect width="1" height="13" x="-5" y="-7" fill="url(#spine-center)" />
		<rect width="10" height="1" x="-3" y="6" fill="url(#base)" />
		<rect width="10" height="13" x="-3" y="-7" fill="#fff" />
		<rect width="9" height="12" x="-3" y="-6" fill="url(#center)" />
		<rect width="5" height="5" x="2" y="1" filter="url(#gaussian-blur)" fill="#c7c7c7" />
		<rect width="5" height="5" x="2" y="1" fill="#fff" />
		<path fill="url(#corner)" d="M2,5.5 h0.5 h1 l4,-4 v-1 l-0.5,0" />
		<path fill="#ccc"
			d="M-7.2,-7 l3.2,0 v1.3 l-3.2,0 m0,0.7 l3.2,0 v1.3 l-3.2,0 m0,0.7 l3.2,0 v1.3 l-3.2,0 m0,0.7 l3.2,0 v1.3 l-3.2,0 m0,0.7 l3.2,0 v1.3 l-3.2,0 m0,0.7 l3.2,0 v1.3 l-3.2,0 m0,0.7 l3.2,0 v1.3 l-3.2,0" />
		<path fill="url(#label)" d="M-1,-4 h6 v3 h-6 m0,1 h6 v1 h-6" />
		<rect width="4" height="1" x="0" y="-3" fill="#a2c0ea" />
	</g>
	<g id="go" transform="translate(11,11)">
		<defs>
			<linearGradient id="border_go" x1="0%" y1="0%" x2="100%" y2="100%">
				<stop offset="0%" stop-color="#6fa53d" />
				<stop offset="100%" stop-color="#1e7b03" />
			</linearGradient>
			<linearGradient id="inner_go" x1="0%" y1="0%" x2="100%" y2="100%">
				<stop offset="0%" stop-color="#b0ce96" />
				<stop offset="100%" stop-color="#96c180" />
			</linearGradient>
		</defs>
		<path fill="url(#border_go)"
			d="M-1,-2 v-2 h1 l4.5,4.5 l-4.5,4.5 h-1 v-2 h-4 v-5 Z" />
		<path fill="url(#inner_go)" d="M0,-1 v-1.5 l3,3 l-3,3 v-1.5 h-4 v-3 Z" />
		<path fill="#8eba6f" d="M0.5,0 v-0.5 l1,1 l-1,1 v-0.5 l-3.5,0 v-1 Z" />
	</g>
</svg>
