<?xml version="1.0" encoding="utf-8" standalone="yes"?>
<!DOCTYPE svg PUBLIC "-//W3C//DTD SVG 1.1//EN" "http://www.w3.org/Graphics/SVG/1.1/DTD/svg11.dtd">
<svg xmlns="http://www.w3.org/2000/svg" xmlns:xlink="http://www.w3.org/1999/xlink"
	width="16" height="16" version="1.1">
	<title>Report Edit</title>
	<desc>Report Edit</desc>
	<g id="icon" transform="translate(8,8)">
		<defs>
			<linearGradient id="spine" x1="0%" y1="0%" x2="100%" y2="100%">
				<stop offset="0%" stop-color="#b84c00" />
				<stop offset="100%" stop-color="#a52700" />
			</linearGradient>
			<linearGradient id="spine-center" x1="0%" y1="0%" x2="100%"
				y2="100%">
				<stop offset="0%" stop-color="#be6700" />
				<stop offset="100%" stop-color="#b35800" />
			</linearGradient>
			<linearGradient id="label" x1="0%" y1="0%" x2="100%" y2="100%">
				<stop offset="0%" stop-color="#7aa5e1" />
				<stop offset="100%" stop-color="#6a93d4" />
			</linearGradient>
			<linearGradient id="base" x1="0%" y1="0%" x2="100%" y2="100%">
				<stop offset="0%" stop-color="#dcdcdc" />
				<stop offset="100%" stop-color="#c7c7c7" />
			</linearGradient>
			<linearGradient id="center" x1="0%" y1="0%" x2="100%" y2="100%">
				<stop offset="0%" stop-color="#fafafa" />
				<stop offset="30%" stop-color="#f2f2f2" />
				<stop offset="100%" stop-color="#f8f8f8" />
			</linearGradient>
			<linearGradient id="corner" x1="0%" y1="0%" x2="100%" y2="100%">
				<stop offset="0%" stop-color="#ffffff" />
				<stop offset="100%" stop-color="#c8c8c8" />
			</linearGradient>
			<filter id="gaussian-blur">
				<feGaussianBlur in="SourceGraphic" stdDeviation="1" />
			</filter>
		</defs>
		<rect width="14" height="16" rx="1" ry="1" x="-6" y="-8" fill="#000"
			opacity="0.21" />
		<rect width="3" height="15.5" x="-6" y="-8" fill="url(#spine)" />
		<rect width="1" height="13" x="-5" y="-7" fill="url(#spine-center)" />
		<rect width="10" height="1" x="-3" y="6" fill="url(#base)" />
		<rect width="10" height="13" x="-3" y="-7" fill="#fff" />
		<rect width="9" height="12" x="-3" y="-6" fill="url(#center)" />
		<rect width="5" height="5" x="2" y="1" filter="url(#gaussian-blur)" fill="#c7c7c7" />
		<rect width="5" height="5" x="2" y="1" fill="#fff" />
		<path fill="url(#corner)" d="M2,5.5 h0.5 h1 l4,-4 v-1 l-0.5,0" />
		<path fill="#ccc"
			d="M-7.2,-7 l3.2,0 v1.3 l-3.2,0 m0,0.7 l3.2,0 v1.3 l-3.2,0 m0,0.7 l3.2,0 v1.3 l-3.2,0 m0,0.7 l3.2,0 v1.3 l-3.2,0 m0,0.7 l3.2,0 v1.3 l-3.2,0 m0,0.7 l3.2,0 v1.3 l-3.2,0 m0,0.7 l3.2,0 v1.3 l-3.2,0" />
		<path fill="url(#label)" d="M-1,-4 h6 v3 h-6 m0,1 h6 v1 h-6" />
		<rect width="4" height="1" x="0" y="-3" fill="#a2c0ea" />
	</g>
	<g id="pencil" transform="translate(10,10)">
		<defs>
			<linearGradient id="top_center" x1="0%" y1="0%" x2="100%" y2="0%">
				<stop offset="0%" stop-color="#f7e1c9" />
				<stop offset="100%" stop-color="#f4cfa5" />
			</linearGradient>
			<linearGradient id="pencil-back" x1="100%" y1="0%" x2="0%"
				y2="100%">
				<stop offset="0%" stop-color="#ca9350" stop-opacity="1.0" />
				<stop offset="20%" stop-color="#ca9350" stop-opacity="0.5" />
				<stop offset="30%" stop-color="#ca9350" stop-opacity="0.0" />
				<stop offset="55%" stop-color="#936d1e" stop-opacity="0.0" />
				<stop offset="65%" stop-color="#936d1e" stop-opacity="0.3" />
				<stop offset="80%" stop-color="#936d1e" stop-opacity="0.9" />
				<stop offset="92%" stop-color="#936d1e" stop-opacity="1.0" />
				<stop offset="94%" stop-color="#594212" stop-opacity="1.0" />
			</linearGradient>
			<linearGradient id="pencil-cross" x1="37%" y1="37%" x2="63%"
				y2="63%">
				<stop offset="0%" stop-color="#e4ba2f" />
				<stop offset="100%" stop-color="#d98f3b" />
			</linearGradient>
			<linearGradient id="pencil-nib" x1="100%" y1="0%" x2="0%" y2="100%">
				<stop offset="0%" stop-color="#fae7d1" stop-opacity="1.0" />
				<stop offset="75%" stop-color="#fae7d1" stop-opacity="0.9" />
				<stop offset="100%" stop-color="#fae7d1" stop-opacity="0.0" />
			</linearGradient>
			<linearGradient id="pencil-outer" x1="37%" y1="37%" x2="63%"
				y2="63%">
				<stop offset="0%" stop-color="#f8edc3" />
				<stop offset="10%" stop-color="#fcf4b3" />
				<stop offset="45%" stop-color="#f4d644" />
				<stop offset="55%" stop-color="#f4d644" />
				<stop offset="90%" stop-color="#fcf4b3" />
				<stop offset="100%" stop-color="#faee8e" />
			</linearGradient>
			<linearGradient id="pencil-nib-shadow" x1="0%" y1="0%" x2="100%"
				y2="100%">
				<stop offset="0%" stop-color="#e07500" stop-opacity="0.0" />
				<stop offset="40%" stop-color="#e07500" stop-opacity="0.2" />
				<stop offset="50%" stop-color="#e07500" stop-opacity="0.45" />
				<stop offset="60%" stop-color="#e07500" stop-opacity="0.4" />
				<stop offset="100%" stop-color="#e07500" stop-opacity="0.0" />
			</linearGradient>
		</defs>
		<path fill="url(#pencil-cross)" d="M2,-5 l-8,8 v3 h3 l8,-8 a2,1.25 45 0,0 -3,-3" />
		<path fill="url(#pencil-back)" d="M2,-5 l-8,8 v3 h3 l8,-8 a2,1.25 45 0,0 -3,-3" />
		<ellipse transform="translate(3.5,-3.5) rotate(45)" cx="0" cy="0" rx="1.25"
			ry="0.75" fill="url(#top_center)" />
		<path fill="url(#pencil-nib)" d="M-5,5 h2 l1,-1 a1.41,0.75 45 0,1 -2,-2 l-1,1 v2" />
		<path fill="url(#pencil-nib-shadow)" d="M-5,5 h2 l1,-1 a1.41,0.75 45 0,1 -2,-2 l-1,1 v2" />
		<path fill="url(#pencil-outer)"
			d="M2,-4 l-5.5,5.5 a1.41,0.75 45 0,0 2,2 l5.5,-5.5 a1.41,0.75 45 0,1 -2,-2" />
	</g>
</svg>
