<?xml version="1.0" encoding="utf-8" standalone="yes"?>
<!DOCTYPE svg PUBLIC "-//W3C//DTD SVG 1.1//EN" "http://www.w3.org/Graphics/SVG/1.1/DTD/svg11.dtd">
<svg xmlns="http://www.w3.org/2000/svg" xmlns:xlink="http://www.w3.org/1999/xlink"
	width="16" height="16" version="1.1">
	<title>RSS</title>
	<desc>RSS</desc>
	<g id="icon" transform="translate(8,8)">
		<defs>
			<linearGradient id="backing" x1="0%" y1="0%" x2="100%" y2="100%">
				<stop offset="0%" stop-color="#ffab30" />
				<stop offset="40%" stop-color="#ff7718" />
				<stop offset="100%" stop-color="#ff4712" />
			</linearGradient>
			<linearGradient id="inner" x1="0%" y1="0%" x2="100%" y2="100%">
				<stop offset="0%" stop-color="#ffd08a" />
				<stop offset="40%" stop-color="#ffb471" />
				<stop offset="100%" stop-color="#ff9755" />
			</linearGradient>
			<linearGradient id="center" x1="0%" y1="0%" x2="100%" y2="100%">
				<stop offset="0%" stop-color="#ffc370" />
				<stop offset="40%" stop-color="#fcab57" />
				<stop offset="100%" stop-color="#f88e39" />
			</linearGradient>
		</defs>
		<rect width="16" height="11" x="-8" y="-5" fill="url(#backing)" />
		<rect width="14" height="9" x="-7" y="-4" fill="url(#inner)" />
		<rect width="12" height="7" x="-6" y="-3" fill="url(#center)" />
		<path fill="#fff" transform="translate(-5.25,3.15) scale(0.0025,-0.0035)"
			d="M150 0V1466H773Q1008 1466 1114 1427T1285 1286T1349 1055Q1349 890 1252 783T962 647Q1058 591 1120 524T1289 286L1468 0H1114L900 319Q786 490 744 534T655 595T506 612H446V0H150ZM446 846H665Q878
846 931 864T1014 926T1044 1036Q1044 1110 1005 1155T893 1213Q857 1218 677 1218H446V846Z" />
		<path fill="#fff" transform="translate(-1.5,3.15) scale(0.0025,-0.0035)"
			d="M74 477L362 505Q388 360 467 292T682 224Q825 224 897 284T970 426Q970 478 940 514T833 578Q781 596 596 642Q358 701 262 787Q127 908 127 1082Q127 1194 190 1291T373 1440T662 1491Q938 1491 1077
1370T1224 1047L928 1034Q909 1147 847 1196T659 1246Q530 1246 457 1193Q410 1159 410 1102Q410 1050 454 1013Q510 966 726 915T1045 810T1207 661T1266 427Q1266 301 1196 191T998 28T679 -26Q401 -26 252 102T74 477Z" />
		<path fill="#fff" transform="translate(1.75,3.15) scale(0.0025,-0.0035)"
			d="M74 477L362 505Q388 360 467 292T682 224Q825 224 897 284T970 426Q970 478 940 514T833 578Q781 596 596 642Q358 701 262 787Q127 908 127 1082Q127 1194 190 1291T373 1440T662 1491Q938 1491 1077
1370T1224 1047L928 1034Q909 1147 847 1196T659 1246Q530 1246 457 1193Q410 1159 410 1102Q410 1050 454 1013Q510 966 726 915T1045 810T1207 661T1266 427Q1266 301 1196 191T998 28T679 -26Q401 -26 252 102T74 477Z" />
	</g>
</svg>
