<?xml version="1.0" encoding="utf-8" standalone="yes"?>
<!DOCTYPE svg PUBLIC "-//W3C//DTD SVG 1.1//EN" "http://www.w3.org/Graphics/SVG/1.1/DTD/svg11.dtd">
<svg xmlns="http://www.w3.org/2000/svg" xmlns:xlink="http://www.w3.org/1999/xlink"
	width="16" height="16" version="1.1">
	<title>Script Save</title>
	<desc>Script Save</desc>
	<g id="icon" transform="translate(8,8)">
		<defs>
			<linearGradient id="backing" x1="0%" y1="0%" x2="100%" y2="100%">
				<stop offset="0%" stop-color="#5face2" />
				<stop offset="50%" stop-color="#598fd4" />
				<stop offset="100%" stop-color="#335f94" />
			</linearGradient>
			<linearGradient id="center" x1="100%" y1="0%" x2="0%" y2="100%">
				<stop offset="0%" stop-color="#dfedfd" />
				<stop offset="100%" stop-color="#bddaf8" />
			</linearGradient>
		</defs>
		<path fill="url(#backing)"
			d="M-3,-8 c9,0 11,0 11,3 a2,2 0 0,1 -2,2 c0,9 -1,11 -3,11 c-9,0 -11,0 -11,-3 a2,2 0 0,1 2,-2 c0,-9 0,-11 3,-11" />
		<path fill="#fff"
			d="M-4,-7 c9,0 11,0 11,2 a1,1 0 0,1 -1,1 c0,-1.5 0,-1.5 -1,-1.5 c0,10.5 -1,12.5 -2,12.5 c-8,0 -10,0 -10,-2 h9.25 v0.25 a0.5,0.5 0 0,0 1,0 v-1.25 l-8,-0.25 c0,-9 0,-11 2,-11" />
		<path fill="url(#center)"
			d="M-3,-6 c7,0 7,0 7,2 c0,8 -1,8 -1,8.25 l-7,-0.25 c0,-10 0,-10 2,-10" />
		<g id="save" transform="translate(4,3)">
			<defs>
				<linearGradient id="backing_disk" x1="0%" y1="0%" x2="0%" y2="100%">
					<stop offset="0%" stop-color="#6e97d4" />
					<stop offset="100%" stop-color="#5884c3" />
				</linearGradient>
				<linearGradient id="center_disk" x1="0%" y1="0%" x2="100%"
					y2="100%">
					<stop offset="0%" stop-color="#b0cdf3" />
					<stop offset="100%" stop-color="#85a2dd" />
				</linearGradient>
				<linearGradient id="label_disk" x1="0%" y1="0%" x2="100%" y2="0%">
					<stop offset="0%" stop-color="#a8d782" />
					<stop offset="100%" stop-color="#d7f4a2" />
				</linearGradient>
			</defs>
			<path fill="url(#backing_disk)"
				d="M0,-5 h-5 a1,1 0 0,0 -1,1 v8 a1,1 0 0,0 1,1 h8 a1,1 0 0,0 1,-1 v-7 l-2,-2  z" />
			<rect x="-5" y="-4" width="8" height="8" fill="url(#center_disk)" />
			<rect x="-4" y="-4" width="6" height="3" fill="#fff" />
			<rect x="-3" y="-4" width="1" height="2" fill="url(#center_disk)" />
			<rect x="-4" y="1" width="6" height="3" fill="#fff" />
			<rect id="label_disk_part" x="-3" y="2" width="2" height="2"
				fill="url(#label_disk)" />
			<use xlink:href="#label_disk_part" transform="rotate(180) translate(2,-6)" />
			<rect x="-6" y="-3" width="10" height="6" fill="#000"
				opacity="0.05" />
		</g>
	</g>
</svg>
