<?xml version="1.0" encoding="utf-8" standalone="yes"?>
<!DOCTYPE svg PUBLIC "-//W3C//DTD SVG 1.1//EN" "http://www.w3.org/Graphics/SVG/1.1/DTD/svg11.dtd">
<svg xmlns="http://www.w3.org/2000/svg" xmlns:xlink="http://www.w3.org/1999/xlink"
	width="16" height="16" version="1.1">
	<title>Script Lightning</title>
	<desc>Script Lightning</desc>
	<g id="icon" transform="translate(8,8)">
		<defs>
			<linearGradient id="backing" x1="0%" y1="0%" x2="100%" y2="100%">
				<stop offset="0%" stop-color="#5face2" />
				<stop offset="50%" stop-color="#598fd4" />
				<stop offset="100%" stop-color="#335f94" />
			</linearGradient>
			<linearGradient id="center" x1="100%" y1="0%" x2="0%" y2="100%">
				<stop offset="0%" stop-color="#dfedfd" />
				<stop offset="100%" stop-color="#bddaf8" />
			</linearGradient>
		</defs>
		<path fill="url(#backing)"
			d="M-3,-8 c9,0 11,0 11,3 a2,2 0 0,1 -2,2 c0,9 -1,11 -3,11 c-9,0 -11,0 -11,-3 a2,2 0 0,1 2,-2 c0,-9 0,-11 3,-11" />
		<path fill="#fff"
			d="M-4,-7 c9,0 11,0 11,2 a1,1 0 0,1 -1,1 c0,-1.5 0,-1.5 -1,-1.5 c0,10.5 -1,12.5 -2,12.5 c-8,0 -10,0 -10,-2 h9.25 v0.25 a0.5,0.5 0 0,0 1,0 v-1.25 l-8,-0.25 c0,-9 0,-11 2,-11" />
		<path fill="url(#center)"
			d="M-3,-6 c7,0 7,0 7,2 c0,8 -1,8 -1,8.25 l-7,-0.25 c0,-10 0,-10 2,-10" />
		<g id="lightning-icon" transform="translate(-2,3)">
			<defs>
				<linearGradient id="lightning-backing" x1="0%" y1="0%" x2="100%"
					y2="100%">
					<stop offset="0%" stop-color="#ecce40" />
					<stop offset="100%" stop-color="#daa323" />
				</linearGradient>
				<linearGradient id="lightning-center" x1="0%" y1="0%" x2="100%"
					y2="100%">
					<stop offset="0%" stop-color="#faed9a" />
					<stop offset="100%" stop-color="#f2d384" />
				</linearGradient>
				<linearGradient id="lightning-inner" x1="0%" y1="0%" x2="100%"
					y2="100%">
					<stop offset="0%" stop-color="#f4d848" />
					<stop offset="100%" stop-color="#ebb62f" />
				</linearGradient>
			</defs>
			<path fill="url(#lightning-backing)" d="M-5,-7 h8 l-3,4 h5 l-10,7 l3,-4 h-5 l3,-7 z" />
			<path fill="url(#lightning-center)" d="M-4,-6 h5 l-3,4 h4 l-4,3 l2,-2 l-5.5,0 l2.5,-5 z" />
			<path fill="url(#lightning-inner)" d="M-2.5,-5 h2 l-2,3 h-2 l1.75,-3 z" />
		</g>
	</g>
</svg>
