<?xml version="1.0" encoding="utf-8" standalone="yes"?>
<!DOCTYPE svg PUBLIC "-//W3C//DTD SVG 1.1//EN" "http://www.w3.org/Graphics/SVG/1.1/DTD/svg11.dtd">
<svg xmlns="http://www.w3.org/2000/svg" xmlns:xlink="http://www.w3.org/1999/xlink"
	width="16" height="16" version="1.1">
	<title>Script Code</title>
	<desc>Script Code</desc>
	<g id="icon" transform="translate(8,8)">
		<defs>
			<linearGradient id="backing" x1="0%" y1="0%" x2="100%" y2="100%">
				<stop offset="0%" stop-color="#5face2" />
				<stop offset="50%" stop-color="#598fd4" />
				<stop offset="100%" stop-color="#335f94" />
			</linearGradient>
			<linearGradient id="center" x1="100%" y1="0%" x2="0%" y2="100%">
				<stop offset="0%" stop-color="#dfedfd" />
				<stop offset="100%" stop-color="#bddaf8" />
			</linearGradient>
		</defs>
		<path fill="url(#backing)"
			d="M-3,-8 c9,0 11,0 11,3 a2,2 0 0,1 -2,2 c0,9 -1,11 -3,11 c-9,0 -11,0 -11,-3 a2,2 0 0,1 2,-2 c0,-9 0,-11 3,-11" />
		<path fill="#fff"
			d="M-4,-7 c9,0 11,0 11,2 a1,1 0 0,1 -1,1 c0,-1.5 0,-1.5 -1,-1.5 c0,10.5 -1,12.5 -2,12.5 c-8,0 -10,0 -10,-2 h9.25 v0.25 a0.5,0.5 0 0,0 1,0 v-1.25 l-8,-0.25 c0,-9 0,-11 2,-11" />
		<path fill="url(#center)"
			d="M-3,-6 c7,0 7,0 7,2 c0,8 -1,8 -1,8.25 l-7,-0.25 c0,-10 0,-10 2,-10" />
		<g id="tag-icon" transform="translate(-2,-1)">
			<defs>
				<linearGradient id="tag-backing" x1="0%" y1="0%" x2="100%"
					y2="100%">
					<stop offset="0%" stop-color="#489be5" />
					<stop offset="100%" stop-color="#3d80dc" />
				</linearGradient>
				<linearGradient id="tag-center" x1="0%" y1="0%" x2="100%" y2="100%">
					<stop offset="0%" stop-color="#8ec9f6" />
					<stop offset="100%" stop-color="#7ebcec" />
				</linearGradient>
			</defs>
			<path fill="url(#tag-backing)"
				d="M-1,-3 l-1.5,0 l-3,3 v1 l3,3 l1.5,0 v-1.5 l-2,-2 l2,-2 v-1.5 M0,-3 l1.5,0 l3,3 v1 l-3,3 l-1.5,0 v-1.5 l2,-2 l-2,-2 v-1.5" />
			<path fill="url(#tag-center)"
				d="M-2,-2 l-0.5,0 l-2.5,2.5 l2.5,2.5 l0.5,0 v-0.5 l-2,-2 l2,-2 v-1.5 M1,-2 l0.5,0 l2.5,2.5 l-2.5,2.5 l-0.5,0 v-0.5 l2,-2 l-2,-2 v-1.5 " />
		</g>
	</g>
</svg>
