<?xml version="1.0" encoding="utf-8" standalone="yes"?>
<!DOCTYPE svg PUBLIC "-//W3C//DTD SVG 1.1//EN" "http://www.w3.org/Graphics/SVG/1.1/DTD/svg11.dtd">
<svg xmlns="http://www.w3.org/2000/svg" xmlns:xlink="http://www.w3.org/1999/xlink"
	width="16" height="16" version="1.1">
	<title>Server Uncompressed</title>
	<desc>Server Uncompressed</desc>
	<g id="icon" transform="translate(6,8)">
		<defs>
			<linearGradient id="server-backing" x1="0%" y1="0%" x2="100%"
				y2="100%">
				<stop offset="0%" stop-color="#cbcbcb" />
				<stop offset="50%" stop-color="#b0b0b0" />
				<stop offset="100%" stop-color="#636363" />
			</linearGradient>
			<linearGradient id="server-inner" x1="0%" y1="0%" x2="100%"
				y2="100%">
				<stop offset="0%" stop-color="#e9e9e9" />
				<stop offset="50%" stop-color="#f0f0f0" />
				<stop offset="100%" stop-color="#cdced3" />
			</linearGradient>
			<linearGradient id="server-side" x1="0%" y1="0%" x2="100%" y2="0%">
				<stop offset="0%" stop-color="#dfdfdf" />
				<stop offset="40%" stop-color="#d8d8d9" />
				<stop offset="100%" stop-color="#b8b9c0" />
			</linearGradient>
			<linearGradient id="server-front" x1="0%" y1="0%" x2="100%"
				y2="100%">
				<stop offset="0%" stop-color="#c9cacf" />
				<stop offset="100%" stop-color="#aeafb7" />
			</linearGradient>
			<linearGradient id="server-grid" x1="0%" y1="0%" x2="100%" y2="100%">
				<stop offset="0%" stop-color="#979798" />
				<stop offset="100%" stop-color="#8a8a8a" />
			</linearGradient>
			<linearGradient id="server-button" x1="0%" y1="0%" x2="100%"
				y2="100%">
				<stop offset="0%" stop-color="#a4c8a0" />
				<stop offset="60%" stop-color="#56a950" />
				<stop offset="100%" stop-color="#379437" />
			</linearGradient>
		</defs>
		<path fill="url(#server-backing)"
			d="M5,0 v6 a1,1 0 0,1 -1,1 h-5 c-1,0 -1,0 -2,-0.5 l-2,-2 c-1,-1 -1,-1 -1,-1.5 v-5 c0,-1 1,-2 2,-3 c0.5,-0.5 2,-2 2,-2 h6 a1,1 0 0,1 1,1" />
		<path fill="url(#server-inner)" d="M4,0 v6 h-6 l-3,-3 v-5.5 l3,-3.5 h6" />
		<path fill="url(#server-side)" d="M3,0 v5 h-5 l-2,-2.5 v-5 l2,-2.5 h5" />
		<rect width="5" height="10" x="-2" y="-5" fill="url(#server-front)" />
		<path fill="url(#server-grid)" d="M-1,-4 h4 v1 h-4 m0,1 h4 v1 h-4" />
		<rect width="2" height="2" x="1" y="0" fill="url(#server-button)" />
		<g id="compress" transform="translate(8,4)">
			<defs>
				<linearGradient id="compress-backing" x1="0%" y1="0%" x2="100%"
					y2="100%">
					<stop offset="0%" stop-color="#6e6e6f" />
					<stop offset="100%" stop-color="#6a6a6a" />
				</linearGradient>
				<linearGradient id="compress-center" x1="0%" y1="0%" x2="100%"
					y2="100%">
					<stop offset="0%" stop-color="#9e9e9e" />
					<stop offset="100%" stop-color="#919191" />
				</linearGradient>
				<linearGradient id="compress-top" x1="0%" y1="0%" x2="100%"
					y2="100%">
					<stop offset="0%" stop-color="#919191" />
					<stop offset="100%" stop-color="#989898" />
				</linearGradient>
				<linearGradient id="compress-handel" x1="0%" y1="0%" x2="100%"
					y2="100%">
					<stop offset="0%" stop-color="#aaaaaa" />
					<stop offset="100%" stop-color="#a5a5a5" />
				</linearGradient>
				<linearGradient id="compress-grip" x1="0%" y1="0%" x2="100%"
					y2="100%">
					<stop offset="0%" stop-color="#6091d5" />
					<stop offset="100%" stop-color="#296cd2" />
				</linearGradient>
				<linearGradient id="compress-clamp" x1="0%" y1="0%" x2="100%"
					y2="100%">
					<stop offset="0%" stop-color="#989a93" />
					<stop offset="50%" stop-color="#93968f" />
					<stop offset="100%" stop-color="#6d6e62" />
				</linearGradient>
			</defs>
			<path fill="url(#compress-backing)"
				d="M-2,0 v1 a1,1 0 0,1 -1,1 h-4 a1,1 0 0,1 -1,-1 v-5.5 l1.5,-1.5 h3 l1.5,1.5 v3 z" />
			<rect width="4" height="5" x="-7" y="-4" fill="url(#compress-center)" />
			<path fill="url(#compress-top)" d="M-7,-4 l1,-1 h2 l1,1 z" />
			<path fill="url(#compress-handel)"
				d="M-6,-3 h2 v0.5 a0.5,0.5 0 0,1 -0.5,0.5 h-1 a0.5,0.5 0 0,1 -0.5,-0.5" />
			<path fill="url(#compress-handel)"
				d="M-6,-1 h2 v0.5 a0.5,0.5 0 0,1 -0.5,0.5 h-1 a0.5,0.5 0 0,1 -0.5,-0.5" />
			<path fill="url(#compress-clamp)"
				d="M0.2,0 v2.5 h1 h0.5 l-5.2,0 v-1 h1 a1,1 0 0,0 1,-1 l0.8,0 v-6 l-5.8,0 l2,-1 l4.2,0 a1,1 0 0,1 1,1" />
			<circle r="1" cx="-4" cy="3" fill="url(#compress-grip)" />
			<circle r="1" cx="1" cy="3" fill="url(#compress-grip)" />
			<circle r="0.25" cx="-4" cy="3" fill="#88afeb" />
			<circle r="0.25" cx="1" cy="3" fill="#88afeb" />
		</g>
	</g>
</svg>
