<?xml version="1.0" encoding="utf-8" standalone="yes"?>
<!DOCTYPE svg PUBLIC "-//W3C//DTD SVG 1.1//EN" "http://www.w3.org/Graphics/SVG/1.1/DTD/svg11.dtd">
<svg xmlns="http://www.w3.org/2000/svg" xmlns:xlink="http://www.w3.org/1999/xlink"
	width="16" height="16" version="1.1">
	<title>Shading Delete</title>
	<desc>Shading Delete</desc>
	<g id="icon" transform="translate(8,8)">
		<path fill="#6c9ac7"
			d="M-22,8 h2 v-1 h1 v-1 h1 v-1 h1 v-1 h1 v-1 h1 v-1 h1 v-1 h1 v-1 h1 v-1 h1 v-1 h1 v-1 h1 v-1 h1 v-1 h1 v-1 h1 v-1 h1 v-1 h1 h-2 l-16,16 M-19,8 h2 v-1 h1 v-1 h1 v-1 h1 v-1 h1 v-1 h1 v-1 h1 v-1 h1 v-1 h1 v-1 h1 v-1 h1 v-1 h1 v-1 h1 v-1 h1 v-1 h1 v-1 h1 v-1 h1 h-2 l-16,16  M-16,8 h2 v-1 h1 v-1 h1 v-1 h1 v-1 h1 v-1 h1 v-1 h1 v-1 h1 v-1 h1 v-1 h1 v-1 h1 v-1 h1 v-1 h1 v-1 h1 v-1 h1 v-1 h1 v-1 h1 h-2 l-16,16  M-13,8 h2 v-1 h1 v-1 h1 v-1 h1 v-1 h1 v-1 h1 v-1 h1 v-1 h1 v-1 h1 v-1 h1 v-1 h1 v-1 h1 v-1 h1 v-1 h1 v-1 h1 v-1 h1 v-1 h1 h-2 l-16,16 M-10,8 h2 v-1 h1 v-1 h1 v-1 h1 v-1 h1 v-1 h1 v-1 h1 v-1 h1 v-1 h1 v-1 h1 v-1 h1 v-1 h1 v-1 h1 v-1 h1 v-1 h1 v-1 h1 v-1 h1 h-2 l-16,16 M-7,8 h2 v-1 h1 v-1 h1 v-1 h1 v-1 h1 v-1 h1 v-1 h1 v-1 h1 v-1 h1 v-1 h1 v-1 h1 v-1 h1 v-1 h1 v-1 h1 v-1 h1 v-1 h1 v-1 h1 h-2 l-16,16 M-4,8 h2 v-1 h1 v-1 h1 v-1 h1 v-1 h1 v-1 h1 v-1 h1 v-1 h1 v-1 h1 v-1 h1 v-1 h1 v-1 h1 v-1 h1 v-1 h1 v-1 h1 v-1 h1 v-1 h1 h-2 l-16,16 M-1,8 h2 v-1 h1 v-1 h1 v-1 h1 v-1 h1 v-1 h1 v-1 h1 v-1 h1 v-1 h1 v-1 h1 v-1 h1 v-1 h1 v-1 h1 v-1 h1 v-1 h1 v-1 h1 v-1 h1 h-2 l-16,16  M2,8 h2 v-1 h1 v-1 h1 v-1 h1 v-1 h1 v-1 h1 v-1 h1 v-1 h1 v-1 h1 v-1 h1 v-1 h1 v-1 h1 v-1 h1 v-1 h1 v-1 h1 v-1 h1 v-1 h1 h-2 l-16,16 M5,8 h2 v-1 h1 v-1 h1 v-1 h1 v-1 h1 v-1 h1 v-1 h1 v-1 h1 v-1 h1 v-1 h1 v-1 h1 v-1 h1 v-1 h1 v-1 h1 v-1 h1 v-1 h1 v-1 h1 h-2 l-16,16 M-22,8 h2 v-1 h1 v-1 h1 v-1 h1 v-1 h1 v-1 h1 v-1 h1 v-1 h1 v-1 h1 v-1 h1 v-1 h1 v-1 h1 v-1 h1 v-1 h1 v-1 h1 v-1 h1 v-1 h1 h-2 l-16,16 Z" />
		<g id="delete" transform="translate(4.5,4.5)">
			<defs>
				<linearGradient id="backing_delete" x1="0%" y1="0%" x2="100%"
					y2="100%">
					<stop offset="0%" stop-color="#c4581e" />
					<stop offset="100%" stop-color="#b84503" />
				</linearGradient>
				<linearGradient id="center_delete" x1="0%" y1="0%" x2="100%"
					y2="100%">
					<stop offset="0%" stop-color="#fed6b8" />
					<stop offset="100%" stop-color="#dd6401" />
				</linearGradient>
			</defs>
			<circle id="back" r="3.5" fill="url(#backing_delete)" />
			<circle id="center-dot" r="2.5" fill="url(#center_delete)" />
			<path fill="#fff" d="M-1.5,-0.5 h3 v1 h-3 v-1 z " />
		</g>
	</g>
</svg>
