<?xml version="1.0" encoding="utf-8" standalone="yes"?>
<!DOCTYPE svg PUBLIC "-//W3C//DTD SVG 1.1//EN" "http://www.w3.org/Graphics/SVG/1.1/DTD/svg11.dtd">
<svg xmlns="http://www.w3.org/2000/svg" xmlns:xlink="http://www.w3.org/1999/xlink"
	width="16" height="16" version="1.1">
	<title>Shape Handles</title>
	<desc>Shape Handles</desc>
	<g id="icon" transform="translate(8,8)">
		<defs>
			<linearGradient id="shape2" x1="0%" y1="0%" x2="100%" y2="100%">
				<stop offset="0%" stop-color="#8cb3e6" />
				<stop offset="100%" stop-color="#5883d2" />
			</linearGradient>
			<linearGradient id="shape2inner" x1="0%" y1="0%" x2="100%" y2="100%">
				<stop offset="0%" stop-color="#a7c5ec" />
				<stop offset="100%" stop-color="#81a1de" />
			</linearGradient>
			<linearGradient id="grip" x1="0%" y1="0%" x2="100%" y2="100%">
				<stop offset="0%" stop-color="#888" />
				<stop offset="100%" stop-color="#080808" />
			</linearGradient>
			<linearGradient id="grip-center" x1="0%" y1="0%" x2="100%" y2="100%">
				<stop offset="0%" stop-color="#d3d3d3" />
				<stop offset="100%" stop-color="#a9a9a9" />
			</linearGradient>
		</defs>
		<rect width="12" height="12" x="-6" y="-6" fill="url(#shape2)" />
		<rect width="10" height="10" x="-5" y="-5" fill="url(#shape2inner)" />
		<path fill="url(#grip)"
			d="M-7,-5 v-1 a1,1 0 0,1 1,-1 h1 a1,1 0 0,1 1,1 v1 a1,1 0 0,1 -1,1 h-1 a1,1 0 0,1 -1,-1 m11,0 v-1 a1,1 0 0,1 1,-1 h1 a1,1 0 0,1 1,1 v1 a1,1 0 0,1 -1,1 h-1 a1,1 0 0,1 -1,-1 m0,11 v-1 a1,1 0 0,1 1,-1 h1 a1,1 0 0,1 1,1 v1 a1,1 0 0,1 -1,1 h-1 a1,1 0 0,1 -1,-1 m-11,0 v-1 a1,1 0 0,1 1,-1 h1 a1,1 0 0,1 1,1 v1 a1,1 0 0,1 -1,1 h-1 a1,1 0 0,1 -1,-1" />
		<path fill="url(#grip-center)"
			d="M-6,-6 h1 v1 h-1 v-1 m11,0 h1 v1 h-1 v-1 m0,11 h1 v1 h-1 v-1 m-11,0 h1 v1 h-1 v-1" />
	</g>
</svg>
