<?xml version="1.0" encoding="utf-8" standalone="yes"?>
<!DOCTYPE svg PUBLIC "-//W3C//DTD SVG 1.1//EN" "http://www.w3.org/Graphics/SVG/1.1/DTD/svg11.dtd">
<svg xmlns="http://www.w3.org/2000/svg" xmlns:xlink="http://www.w3.org/1999/xlink"
	width="16" height="16" version="1.1">
	<title>Shape Rotate Clockwise</title>
	<desc>Shape Rotate Clockwise</desc>
	<g id="icon" transform="translate(8,8)">
		<defs>
			<linearGradient id="shape1" x1="0%" y1="0%" x2="100%" y2="100%">
				<stop offset="0%" stop-color="#afcbf5" />
				<stop offset="100%" stop-color="#90b6f3" />
			</linearGradient>
			<linearGradient id="shape1inner" x1="0%" y1="0%" x2="100%" y2="100%">
				<stop offset="0%" stop-color="#c0d5f7" />
				<stop offset="100%" stop-color="#adc9f6" />
			</linearGradient>
			<linearGradient id="shape2" x1="0%" y1="0%" x2="100%" y2="100%">
				<stop offset="0%" stop-color="#8cb3e6" />
				<stop offset="100%" stop-color="#5883d2" />
			</linearGradient>
			<linearGradient id="shape2inner" x1="0%" y1="0%" x2="100%" y2="100%">
				<stop offset="0%" stop-color="#a7c5ec" />
				<stop offset="100%" stop-color="#81a1de" />
			</linearGradient>
			<linearGradient id="arrow-backing" x1="0%" y1="0%" x2="100%"
				y2="100%">
				<stop offset="0%" stop-color="#72c466" />
				<stop offset="100%" stop-color="#22601e" />
			</linearGradient>
			<linearGradient id="arrow-center" x1="0%" y1="0%" x2="100%"
				y2="100%">
				<stop offset="0%" stop-color="#a7d69e" />
				<stop offset="100%" stop-color="#78bd72" />
			</linearGradient>
		</defs>
		<path fill="url(#shape1)" d="M-8,7 h9 v-6 z" />
		<path fill="url(#shape1inner)" d="M-5,6 h5 v-3.333 z" />
		<path fill="url(#shape2)" d="M2,-2 v9 h6 z" />
		<path fill="url(#shape2inner)" d="M3,1  v5 l3.333,0 z" />
		<path fill="url(#arrow-backing)"
			d="M-8,1 a6,6 0 0,1 6,-6 v-2 l4,4 l-4,4 v-2 a2,2 0 0,0 -2,2 " />
		<path fill="url(#arrow-center)"
			d="M-7,0 a5,5 0 0,1 4,-4 l1.5,0 v-1.5 l2.5,2.5 l-2.5,2.5 v-1.5 l-0.5,0 a3,3 0 0,0 -3,2 " />
	</g>
</svg>
