<?xml version="1.0" encoding="utf-8" standalone="yes"?>
<!DOCTYPE svg PUBLIC "-//W3C//DTD SVG 1.1//EN" "http://www.w3.org/Graphics/SVG/1.1/DTD/svg11.dtd">
<svg xmlns="http://www.w3.org/2000/svg" xmlns:xlink="http://www.w3.org/1999/xlink"
	width="16" height="16" version="1.1">
	<title>Tab Undo</title>
	<desc>Tab Undo</desc>
	<g id="icon" transform="translate(8,8)">
		<defs>
			<linearGradient id="backing" x1="0%" y1="0%" x2="100%" y2="100%">
				<stop offset="0%" stop-color="#aaa" />
				<stop offset="100%" stop-color="#999" />
			</linearGradient>
			<linearGradient id="shade" x1="0%" y1="0%" x2="100%" y2="100%">
				<stop offset="0%" stop-color="#e4e4db" />
				<stop offset="100%" stop-color="#f1f1ec" />
			</linearGradient>
			<linearGradient id="center" x1="0%" y1="0%" x2="100%" y2="100%">
				<stop offset="0%" stop-color="#c1c1c1" />
				<stop offset="100%" stop-color="#d8d8d7" />
			</linearGradient>
		</defs>
		<path fill="url(#backing)"
			d="M-8,4 h16 v-1 a1,1 0 0,0 -1,-1 v-4 a2,2 0 0,0 -2,-2 h-10 a2,2 0 0,0 -2,2 v4 a1,1 0 0,0 -1,1 z" />
		<path fill="url(#shade)"
			d="M-7,3 h14 a1,1 0 0,0 -1,-1 v-4 a1,1 0 0,0 -1,-1 h-10 a1,1 0 0,0 -1,1 v4 a1,1 0 0,0 -1,1 z" />
		<rect width="10" height="4" x="-5" y="-2" fill="url(#center)" opacity="0.9" />
		<g id="icon" transform="translate(1,2)">
			<defs>
				<linearGradient id="backing" x1="0%" y1="0%" x2="100%" y2="100%">
					<stop offset="0%" stop-color="#eba39e" />
					<stop offset="100%" stop-color="#d12e25" />
				</linearGradient>
				<linearGradient id="inner" x1="0%" y1="0%" x2="100%" y2="100%">
					<stop offset="0%" stop-color="#fcd4c4" />
					<stop offset="100%" stop-color="#f49486" />
				</linearGradient>
				<linearGradient id="center" x1="0%" y1="0%" x2="100%" y2="100%">
					<stop offset="0%" stop-color="#ffaf8b" />
					<stop offset="100%" stop-color="#fa4225" />
				</linearGradient>
			</defs>
			<path fill="url(#backing)"
				d="M7,2 v-2 l-2,-2 h-4 v-3 l-5.5,5.5 l5.5,5.5 v-3 h2 v2 h4 " />
			<rect width="2" height="1" x="4" y="3" fill="url(#inner)" />
			<path fill="url(#inner)"
				d="M6,2 v-1.5 l-1.5,-1.5 l-4.5,0 v-2 l-3.5,3.5 l3.5,3.5 v-2 " />
			<path fill="url(#center)" d="M5,1 l-1,-1 h-4 l-0.5,0.5 l0.5,0.5" />
		</g>
	</g>
</svg>
