<?xml version="1.0" encoding="utf-8" standalone="yes"?>
<!DOCTYPE svg PUBLIC "-//W3C//DTD SVG 1.1//EN" "http://www.w3.org/Graphics/SVG/1.1/DTD/svg11.dtd">
<svg xmlns="http://www.w3.org/2000/svg" xmlns:xlink="http://www.w3.org/1999/xlink"
	width="16" height="16" version="1.1">
	<title>Tab Label</title>
	<desc>Tab Label Title</desc>
	<g id="icon" transform="translate(8,8)">
		<defs>
			<linearGradient id="backing" x1="0%" y1="0%" x2="100%" y2="100%">
				<stop offset="0%" stop-color="#aaa" />
				<stop offset="100%" stop-color="#999" />
			</linearGradient>
			<linearGradient id="shade" x1="0%" y1="0%" x2="100%" y2="100%">
				<stop offset="0%" stop-color="#e4e4db" />
				<stop offset="100%" stop-color="#f1f1ec" />
			</linearGradient>
			<linearGradient id="center" x1="0%" y1="0%" x2="100%" y2="100%">
				<stop offset="0%" stop-color="#c1c1c1" />
				<stop offset="100%" stop-color="#d8d8d7" />
			</linearGradient>
			<linearGradient id="crusor" x1="0%" y1="0%" x2="100%" y2="100%">
				<stop offset="0%" stop-color="#5b5b5b" />
				<stop offset="100%" stop-color="#373737" />
			</linearGradient>
		</defs>
		<path fill="url(#backing)"
			d="M-8,4 h16 v-1 a1,1 0 0,0 -1,-1 v-4 a2,2 0 0,0 -2,-2 h-10 a2,2 0 0,0 -2,2 v4 a1,1 0 0,0 -1,1 z" />
		<path fill="url(#shade)"
			d="M-7,3 h14 a1,1 0 0,0 -1,-1 v-4 a1,1 0 0,0 -1,-1 h-10 a1,1 0 0,0 -1,1 v4 a1,1 0 0,0 -1,1 z" />
		<rect width="10" height="4" x="-5" y="-2" fill="url(#center)" opacity="0.9" />
		<rect width="6" height="2" x="-4" y="-1" fill="#fff" />
		<path fill="url(#crusor)"
			d="M-3,-2 h3 v1 h-1 v2 h1 v1 h-3 v-1 h1 v-2 h-1 v-1 z" />
	</g>
</svg>
