<?xml version="1.0" encoding="utf-8" standalone="yes"?>
<!DOCTYPE svg PUBLIC "-//W3C//DTD SVG 1.1//EN" "http://www.w3.org/Graphics/SVG/1.1/DTD/svg11.dtd">
<svg xmlns="http://www.w3.org/2000/svg" xmlns:xlink="http://www.w3.org/1999/xlink"
	width="16" height="16" version="1.1">
	<title>Tab Previous</title>
	<desc>Tab Previous</desc>
	<g id="icon" transform="translate(8,8)">
		<defs>
			<linearGradient id="backing" x1="0%" y1="0%" x2="100%" y2="100%">
				<stop offset="0%" stop-color="#aaa" />
				<stop offset="100%" stop-color="#999" />
			</linearGradient>
			<linearGradient id="shade" x1="0%" y1="0%" x2="100%" y2="100%">
				<stop offset="0%" stop-color="#e4e4db" />
				<stop offset="100%" stop-color="#f1f1ec" />
			</linearGradient>
			<linearGradient id="center" x1="0%" y1="0%" x2="100%" y2="100%">
				<stop offset="0%" stop-color="#c1c1c1" />
				<stop offset="100%" stop-color="#d8d8d7" />
			</linearGradient>
		</defs>
		<path fill="url(#backing)"
			d="M-8,4 h16 v-1 a1,1 0 0,0 -1,-1 v-4 a2,2 0 0,0 -2,-2 h-10 a2,2 0 0,0 -2,2 v4 a1,1 0 0,0 -1,1 z" />
		<path fill="url(#shade)"
			d="M-7,3 h14 a1,1 0 0,0 -1,-1 v-4 a1,1 0 0,0 -1,-1 h-10 a1,1 0 0,0 -1,1 v4 a1,1 0 0,0 -1,1 z" />
		<rect width="10" height="4" x="-5" y="-2" fill="url(#center)" opacity="0.9" />
	</g>
	<g id="left" transform="translate(7,11)">
		<g transform="rotate(-90)">
			<defs>
				<linearGradient id="arrow-backing" x1="100%" y1="0%" x2="0%"
					y2="100%">
					<stop offset="0%" stop-color="#72c466" />
					<stop offset="100%" stop-color="#22601e" />
				</linearGradient>
				<linearGradient id="arrow-center" x1="100%" y1="0%" x2="0%"
					y2="100%">
					<stop offset="0%" stop-color="#a7d69e" />
					<stop offset="100%" stop-color="#78bd72" />
				</linearGradient>
			</defs>
			<path fill="url(#arrow-backing)" d="M-2,-3 h-2 l4,-4 l4,4 h-2 v5 h-4 v-5 z" />
			<path fill="url(#arrow-center)"
				d="M-1,-3.5 l-1.5,0 l2.5,-2.5 l2.5,2.5 l-1.5,0 v4.5 h-2 v-4.5 z" />
		</g>
	</g>
</svg>
