<?xml version="1.0" encoding="utf-8" standalone="yes"?>
<!DOCTYPE svg PUBLIC "-//W3C//DTD SVG 1.1//EN" "http://www.w3.org/Graphics/SVG/1.1/DTD/svg11.dtd">
<svg xmlns="http://www.w3.org/2000/svg" xmlns:xlink="http://www.w3.org/1999/xlink"
	width="16" height="16" version="1.1">
	<title>Table Add</title>
	<desc>Table Add</desc>
	<g id="table" transform="translate(8,8)">
		<defs>
			<linearGradient id="table-backing" x1="0%" y1="0%" x2="100%"
				y2="100%">
				<stop offset="0%" stop-color="#a3c2ef" />
				<stop offset="100%" stop-color="#4277bb" />
			</linearGradient>
			<linearGradient id="table-inner" x1="0%" y1="0%" x2="100%" y2="100%">
				<stop offset="0%" stop-color="#f4f7fb" />
				<stop offset="100%" stop-color="#d8e2f0" />
			</linearGradient>
			<linearGradient id="table-lines" x1="0%" y1="0%" x2="100%" y2="100%">
				<stop offset="0%" stop-color="#a6c3e9" />
				<stop offset="100%" stop-color="#b5cdea" />
			</linearGradient>
			<linearGradient id="table-title" x1="0%" y1="0%" x2="100%" y2="100%">
				<stop offset="0%" stop-color="#a5d59c" />
				<stop offset="100%" stop-color="#7cbe76" />
			</linearGradient>
		</defs>
		<rect width="14" height="14" rx="1" ry="1" x="-7" y="-7" fill="url(#table-backing)" />
		<rect width="12" height="12" x="-6" y="-6" fill="url(#table-inner)" />
		<rect width="10" height="10" x="-5" y="-5" fill="#fff" />
		<rect width="10" height="8" x="-5" y="-3" fill="url(#table-lines)" />
		<path fill="#fff"
			d="M-4,-2 h1 v1 h-1 m0,1 h1 v1 h-1 m0,1 h1 v1 h-1 m0,1 h1 v1 h-1 m2,-7 h3 v1 h-3 m0,1 h3 v1 h-3 m0,1 h3 v1 h-3 m0,1 h3 v1 h-3 m4,-7 h3 v1 h-3 m0,1 h3 v1 h-3 m0,1 h3 v1 h-3 m0,1 h3 v1 h-3 " />
		<rect width="10" height="1" x="-5" y="-5" fill="url(#table-title)" />
		<g id="add" transform="translate(4.5,4.5)">
			<defs>
				<linearGradient id="backing_add" x1="0%" y1="0%" x2="100%"
					y2="100%">
					<stop offset="0%" stop-color="#6e9458" />
					<stop offset="100%" stop-color="#376b19" />
				</linearGradient>
				<linearGradient id="center_add" x1="0%" y1="0%" x2="100%" y2="100%">
					<stop offset="0%" stop-color="#b1d390" />
					<stop offset="100%" stop-color="#8fbc67" />
				</linearGradient>
			</defs>
			<circle id="back" r="3.5" fill="url(#backing_add)" />
			<circle id="center-dot" r="2.5" fill="url(#center_add)" />
			<path fill="#fff"
				d="M-0.5,-0.5 v-1 h1 v1 h1 v1 h-1 v1 h-1 v-1 h-1 v-1 h1 z " />
		</g>
	</g>
</svg>
