<?xml version="1.0" encoding="utf-8" standalone="yes"?>
<!DOCTYPE svg PUBLIC "-//W3C//DTD SVG 1.1//EN" "http://www.w3.org/Graphics/SVG/1.1/DTD/svg11.dtd">
<svg xmlns="http://www.w3.org/2000/svg" xmlns:xlink="http://www.w3.org/1999/xlink"
	width="16" height="16" version="1.1">
	<title>Table Relationship</title>
	<desc>Table Relationship</desc>
	<g id="table" transform="translate(8,8)">
		<defs>
			<linearGradient id="table-backing" x1="0%" y1="0%" x2="100%"
				y2="100%">
				<stop offset="0%" stop-color="#a3c2ef" />
				<stop offset="100%" stop-color="#4277bb" />
			</linearGradient>
			<linearGradient id="table-inner" x1="0%" y1="0%" x2="100%" y2="100%">
				<stop offset="0%" stop-color="#f4f7fb" />
				<stop offset="100%" stop-color="#d8e2f0" />
			</linearGradient>
			<linearGradient id="table-lines" x1="0%" y1="0%" x2="100%" y2="100%">
				<stop offset="0%" stop-color="#a6c3e9" />
				<stop offset="100%" stop-color="#b5cdea" />
			</linearGradient>
			<linearGradient id="table-title" x1="0%" y1="0%" x2="100%" y2="100%">
				<stop offset="0%" stop-color="#a5d59c" />
				<stop offset="100%" stop-color="#7cbe76" />
			</linearGradient>
			<linearGradient id="relation" x1="0%" y1="0%" x2="100%" y2="100%">
				<stop offset="0%" stop-color="#7bbd74" />
				<stop offset="100%" stop-color="#3e8337" />
			</linearGradient>
			<linearGradient id="relation-center" x1="0%" y1="0%" x2="100%"
				y2="100%">
				<stop offset="0%" stop-color="#a5d59c" />
				<stop offset="100%" stop-color="#7cbe76" />
			</linearGradient>
		</defs>
		<g id="table-part" transform="translate(-8,0)">
			<rect width="14" height="14" rx="1" ry="1" x="-7" y="-7"
				fill="url(#table-backing)" />
			<rect width="12" height="12" x="-6" y="-6" fill="url(#table-inner)" />
			<rect width="10" height="10" x="-5" y="-5" fill="#fff" />
			<rect width="10" height="8" x="-5" y="-3" fill="url(#table-lines)" />
			<path fill="#fff"
				d="M-4,-2 h1 v1 h-1 m0,1 h1 v1 h-1 m0,1 h1 v1 h-1 m0,1 h1 v1 h-1 m2,-7 h3 v1 h-3 m0,1 h3 v1 h-3 m0,1 h3 v1 h-3 m0,1 h3 v1 h-3 m4,-7 h3 v1 h-3 m0,1 h3 v1 h-3 m0,1 h3 v1 h-3 m0,1 h3 v1 h-3 " />
			<rect width="10" height="1" x="-5" y="-5" fill="url(#table-title)" />
		</g>
		<use xlink:href="#table-part" transform="translate(18,0)" />
		<path fill="url(#relation)" d="M-4,1 v3 h3 l4,-4 h3 v-3 h-3 l-4,4 h-3" />
		<path fill="url(#relation-center)" d="M-3,2 v1 h2 l4,-4 h2 v-1 h-2 l-4,4 h-2" />
	</g>
</svg>