<?xml version="1.0" encoding="utf-8" standalone="yes"?>
<!DOCTYPE svg PUBLIC "-//W3C//DTD SVG 1.1//EN" "http://www.w3.org/Graphics/SVG/1.1/DTD/svg11.dtd">
<svg xmlns="http://www.w3.org/2000/svg" xmlns:xlink="http://www.w3.org/1999/xlink"
	width="16" height="16" version="1.1">
	<title>Table Multiple</title>
	<desc>Table Multiple</desc>
	<use xlink:href="#table" transform="translate(-4,-4)" opacity="0.8" />
	<use xlink:href="#table" transform="translate(-2,-2)" opacity="0.9" />
	<g id="table">
		<g transform="translate(4,4)">
			<defs>
				<linearGradient id="table-backing" x1="0%" y1="0%" x2="100%"
					y2="100%">
					<stop offset="0%" stop-color="#a3c2ef" />
					<stop offset="100%" stop-color="#4277bb" />
				</linearGradient>
				<linearGradient id="table-inner" x1="0%" y1="0%" x2="100%"
					y2="100%">
					<stop offset="0%" stop-color="#f4f7fb" />
					<stop offset="100%" stop-color="#d8e2f0" />
				</linearGradient>
				<linearGradient id="table-lines" x1="0%" y1="0%" x2="100%"
					y2="100%">
					<stop offset="0%" stop-color="#a6c3e9" />
					<stop offset="100%" stop-color="#b5cce8" />
				</linearGradient>
				<linearGradient id="table-title" x1="0%" y1="0%" x2="100%"
					y2="100%">
					<stop offset="0%" stop-color="#a5d59c" />
					<stop offset="100%" stop-color="#7cbe76" />
				</linearGradient>
			</defs>
			<rect width="11" height="11" rx="1" ry="1" fill="url(#table-backing)" />
			<rect width="9" height="9" x="1" y="1" fill="url(#table-inner)" />
			<rect width="7" height="7" x="2" y="2" fill="#fff" />
			<path fill="url(#table-lines)"
				d="M2,4 h7 v1 h-4 v1 h4 v1 h-4 v1 h4 v1 h-7" />
			<rect fill="#fff" width="1" height="1" x="3" y="5" />
			<rect fill="#fff" width="1" height="1" x="3" y="7" />
			<rect width="7" height="1" x="2" y="2" fill="url(#table-title)" />
		</g>
	</g>
</svg>