<?xml version="1.0" encoding="utf-8" standalone="yes"?>
<!DOCTYPE svg PUBLIC "-//W3C//DTD SVG 1.1//EN" "http://www.w3.org/Graphics/SVG/1.1/DTD/svg11.dtd">
<svg xmlns="http://www.w3.org/2000/svg" xmlns:xlink="http://www.w3.org/1999/xlink"
	width="16" height="16" version="1.1">
	<title>Tabs Refresh</title>
	<desc>Tabs Refresh</desc>
	<g id="icon" transform="translate(8,6)">
		<defs>
			<linearGradient id="backing" x1="0%" y1="0%" x2="100%" y2="100%">
				<stop offset="0%" stop-color="#aaa" />
				<stop offset="100%" stop-color="#999" />
			</linearGradient>
			<linearGradient id="shade" x1="0%" y1="0%" x2="100%" y2="100%">
				<stop offset="0%" stop-color="#e4e4db" />
				<stop offset="100%" stop-color="#f1f1ec" />
			</linearGradient>
			<linearGradient id="center" x1="0%" y1="0%" x2="100%" y2="100%">
				<stop offset="0%" stop-color="#c1c1c1" />
				<stop offset="100%" stop-color="#d8d8d7" />
			</linearGradient>
		</defs>
		<path fill="url(#backing)"
			d="M-8,4 h16 v-1 a1,1 0 0,0 -1,-1 v-4 a2,2 0 0,0 -2,-2 h-3 a2,2 0 0,0 -2,2 h1 a2,2 0 0,0 -2,-2 h-4 a2,2 0 0,0 -2,2 v4 a1,1 0 0,0 -1,1 z" />
		<path fill="url(#shade)"
			d="M-7,3 h14 a1,1 0 0,0 -1,-1 v-4 a1,1 0 0,0 -1,-1 h-3 a1,1 0 0,0 -1,1 v4 h-1 v-4 a1,1 0 0,0 -1,-1 h-4 a1,1 0 0,0 -1,1 v4 a1,1 0 0,0 -1,1 z" />
		<rect width="4" height="4" x="-5" y="-2" fill="url(#center)" opacity="0.9" />
		<rect width="3" height="4" x="2" y="-2" fill="url(#center)" opacity="0.9" />
		<g id="icon" transform="translate(4,4)">
			<defs>
				<linearGradient id="arrow-backing" x1="0%" y1="0%" x2="100%"
					y2="100%">
					<stop offset="0%" stop-color="#7ccb72" />
					<stop offset="100%" stop-color="#22601e" />
				</linearGradient>
				<linearGradient id="arrow-center" x1="0%" y1="0%" x2="100%"
					y2="100%">
					<stop offset="0%" stop-color="#a7d69e" />
					<stop offset="100%" stop-color="#78bd72" />
				</linearGradient>
			</defs>
			<path fill="url(#arrow-backing)"
				d="M-6,-1 a4,4 0 0,1 4,-4 h2 v-2 l3.5,3.5 l-3.5,3.5 v-2 h-2 a1,1 0 0,0 -1,1 h-4 m7,1 h4 a4,4 0 0,1 -4,4 h-2 v2 l-3.5,-3.5 l3.5,-3.5 v2 h2 a1,1 0 0,0 1,-1 z" />
			<path fill="url(#arrow-center)"
				d="M-5,-2 a3,3 0 0,1 3,-2 l2.5,0 v-1.5 l2,2 l-2,2 v-1.5 l-2.5,0 a1.5,1.5 0 0,0 -1.5,1 h-2 m6.5,3 h2 a3,3 0 0,1 -3,2 l-2.5,0 v1.5 l-2,-2 l2,-2 v1.5 l2.5,0 a1.5,1.5 0 0,0 1.5,-1 h2  z" />
		</g>
	</g>
</svg>
