<?xml version="1.0" encoding="utf-8" standalone="yes"?>
<!DOCTYPE svg PUBLIC "-//W3C//DTD SVG 1.1//EN" "http://www.w3.org/Graphics/SVG/1.1/DTD/svg11.dtd">
<svg xmlns="http://www.w3.org/2000/svg" xmlns:xlink="http://www.w3.org/1999/xlink"
	width="16" height="16" version="1.1">
	<title>Tabs Bookmark</title>
	<desc>Tabs Bookmark</desc>
	<g id="icon" transform="translate(8,8)">
		<defs>
			<linearGradient id="backing" x1="0%" y1="0%" x2="100%" y2="100%">
				<stop offset="0%" stop-color="#aaa" />
				<stop offset="100%" stop-color="#999" />
			</linearGradient>
			<linearGradient id="shade" x1="0%" y1="0%" x2="100%" y2="100%">
				<stop offset="0%" stop-color="#e4e4db" />
				<stop offset="100%" stop-color="#f1f1ec" />
			</linearGradient>
			<linearGradient id="center" x1="0%" y1="0%" x2="100%" y2="100%">
				<stop offset="0%" stop-color="#c1c1c1" />
				<stop offset="100%" stop-color="#d8d8d7" />
			</linearGradient>
			<linearGradient id="marker" x1="0%" y1="0%" x2="100%" y2="100%">
				<stop offset="0%" stop-color="#fe7874" />
				<stop offset="100%" stop-color="#ea111c" />
			</linearGradient>
			<linearGradient id="marker-center" x1="0%" y1="0%" x2="100%"
				y2="100%">
				<stop offset="0%" stop-color="#fdcec4" />
				<stop offset="100%" stop-color="#f99993" />
			</linearGradient>
		</defs>
		<path fill="url(#backing)"
			d="M-8,4 h16 v-1 a1,1 0 0,0 -1,-1 v-4 a2,2 0 0,0 -2,-2 h-3 a2,2 0 0,0 -2,2 h1 a2,2 0 0,0 -2,-2 h-4 a2,2 0 0,0 -2,2 v4 a1,1 0 0,0 -1,1 z" />
		<path fill="url(#shade)"
			d="M-7,3 h14 a1,1 0 0,0 -1,-1 v-4 a1,1 0 0,0 -1,-1 h-3 a1,1 0 0,0 -1,1 v4 h-1 v-4 a1,1 0 0,0 -1,-1 h-4 a1,1 0 0,0 -1,1 v4 a1,1 0 0,0 -1,1 z" />
		<rect width="4" height="4" x="-5" y="-2" fill="url(#center)" opacity="0.9" />
		<rect width="3" height="4" x="2" y="-2" fill="url(#center)" opacity="0.9" />
		<g transform="translate(-1,1)">
			<path fill="url(#marker)" d="M-4,-6 h3 v12 l-1.5,-1.5 l-1.5,1.5 v-12" />
			<path fill="url(#marker-center)" d="M-3,-5 h1 v8.5 h-1 v-8.5 z" />
		</g>
	</g>
</svg>
