<?xml version="1.0" encoding="utf-8" standalone="yes"?>
<!DOCTYPE svg PUBLIC "-//W3C//DTD SVG 1.1//EN" "http://www.w3.org/Graphics/SVG/1.1/DTD/svg11.dtd">
<svg xmlns="http://www.w3.org/2000/svg" xmlns:xlink="http://www.w3.org/1999/xlink"
	width="16" height="16" version="1.1">
	<title>Tag Blue Add</title>
	<desc>Tag Label Blue Add</desc>
	<g id="icon" transform="translate(8,8)">
		<defs>
			<linearGradient id="backing" x1="0%" y1="0%" x2="100%" y2="100%">
				<stop offset="0%" stop-color="#d5d5d5" />
				<stop offset="80%" stop-color="#aaaaaa" />
			</linearGradient>
			<linearGradient id="center" x1="0%" y1="0%" x2="100%" y2="100%">
				<stop offset="0%" stop-color="#83ccff" />
				<stop offset="100%" stop-color="#8dccf7" />
			</linearGradient>
			<linearGradient id="in-center" x1="0%" y1="0%" x2="100%" y2="100%">
				<stop offset="0%" stop-color="#acddff" />
				<stop offset="100%" stop-color="#9cd6ff" />
			</linearGradient>
		</defs>
		<path fill="url(#backing)"
			d="M-5,-5 h1 v1 h-1 v-1 l-3,-3 v7 l9,9 l7,-7 l-9,-9 h-7 Z" />
		<path fill="#fff"
			d="M-6,-4.5 a1.5,1.5 0 0,1 3,0 a1.5,1.5 0 0,1 -3,0 l-1,-2.5 v6 l8,8 l6,-6 l-8,-8 h-6 Z" />
		<path fill="url(#center)" d="M-2.5,-2.5 l1.5,-1.5 l5.5,5.5 l-3,3 l-5.5,-5.5 " />
		<path fill="url(#in-center)" d="M-2,-2 l1,-1 l4,4 l-2,2 l-4,-4 " />
		<g id="add" transform="translate(4.5,4.5)">
			<defs>
				<linearGradient id="backing_add" x1="0%" y1="0%" x2="100%"
					y2="100%">
					<stop offset="0%" stop-color="#6e9458" />
					<stop offset="100%" stop-color="#376b19" />
				</linearGradient>
				<linearGradient id="center_add" x1="0%" y1="0%" x2="100%" y2="100%">
					<stop offset="0%" stop-color="#b1d390" />
					<stop offset="100%" stop-color="#8fbc67" />
				</linearGradient>
			</defs>
			<circle id="back" r="3.5" fill="url(#backing_add)" />
			<circle id="center-dot" r="2.5" fill="url(#center_add)" />
			<path fill="#fff"
				d="M-0.5,-0.5 v-1 h1 v1 h1 v1 h-1 v1 h-1 v-1 h-1 v-1 h1 z " />
		</g>
	</g>
</svg>