<?xml version="1.0" encoding="utf-8" standalone="yes"?>
<!DOCTYPE svg PUBLIC "-//W3C//DTD SVG 1.1//EN" "http://www.w3.org/Graphics/SVG/1.1/DTD/svg11.dtd">
<svg xmlns="http://www.w3.org/2000/svg" xmlns:xlink="http://www.w3.org/1999/xlink"
	width="16" height="16" version="1.1">
	<title>Tag</title>
	<desc>Tag</desc>
	<g id="tag-icon" transform="translate(8,8)">
		<defs>
			<linearGradient id="tag-backing" x1="0%" y1="0%" x2="100%" y2="100%">
				<stop offset="0%" stop-color="#489be5" />
				<stop offset="100%" stop-color="#3d80dc" />
			</linearGradient>
			<linearGradient id="tag-center" x1="0%" y1="0%" x2="100%" y2="100%">
				<stop offset="0%" stop-color="#8ec9f6" />
				<stop offset="100%" stop-color="#7ebcec" />
			</linearGradient>
		</defs>
		<path fill="url(#tag-backing)"
			d="M-1,-3 l-1.5,0 l-3,3 v1 l3,3 l1.5,0 v-1.5 l-2,-2 l2,-2 v-1.5 M1,-3 l1.5,0 l3,3 v1 l-3,3 l-1.5,0 v-1.5 l2,-2 l-2,-2 v-1.5" />
		<path fill="url(#tag-center)"
			d="M-2,-2 l-0.5,0 l-2.5,2.5 l2.5,2.5 l0.5,0 v-0.5 l-2,-2 l2,-2 v-1.5 M2,-2 l0.5,0 l2.5,2.5 l-2.5,2.5 l-0.5,0 v-0.5 l2,-2 l-2,-2 v-1.5 " />
	</g>
</svg>