<?xml version="1.0" encoding="utf-8" standalone="yes"?>
<!DOCTYPE svg PUBLIC "-//W3C//DTD SVG 1.1//EN" "http://www.w3.org/Graphics/SVG/1.1/DTD/svg11.dtd">
<svg xmlns="http://www.w3.org/2000/svg" xmlns:xlink="http://www.w3.org/1999/xlink"
	width="16" height="16" version="1.1">
	<title>Task Link</title>
	<desc>Task Link</desc>
	<g id="icon" transform="translate(8,8)">
		<defs>
			<linearGradient id="backing" x1="0%" y1="0%" x2="100%" y2="100%">
				<stop offset="0%" stop-color="#a3c2ef" />
				<stop offset="50%" stop-color="#729ed6" />
				<stop offset="100%" stop-color="#5284c3" />
			</linearGradient>
			<linearGradient id="inner" x1="0%" y1="0%" x2="100%" y2="100%">
				<stop offset="0%" stop-color="#f4f7fb" />
				<stop offset="50%" stop-color="#edf2f8" />
				<stip offset="80%" stop-color="#c8d6ea" />
				<stop offset="90%" stop-color="#d8e2f0" />
			</linearGradient>
			<linearGradient id="label" x1="0%" y1="0%" x2="100%" y2="100%">
				<stop offset="0%" stop-color="#ffa465" />
				<stop offset="90%" stop-color="#ff7d3b" />
			</linearGradient>
			<linearGradient id="label-center" x1="0%" y1="0%" x2="100%"
				y2="100%">
				<stop offset="0%" stop-color="#ffbd79" />
				<stop offset="100%" stop-color="#ffa754" />
			</linearGradient>
			<linearGradient id="center" x1="0%" y1="0%" x2="0%" y2="100%">
				<stop offset="0%" stop-color="#a6c3e9" />
				<stop offset="100%" stop-color="#bed2eb" />
			</linearGradient>
			<linearGradient id="wrap" x1="0%" y1="0%" x2="100%" y2="100%">
				<stop offset="0%" stop-color="#f2f6fb" />
				<stop offset="100%" stop-color="#75a1d7" />
			</linearGradient>
			<linearGradient id="date-backing" x1="0%" y1="0%" x2="100%"
				y2="100%">
				<stop offset="0%" stop-color="#71b06c" />
				<stop offset="100%" stop-color="#72b16e" />
			</linearGradient>
			<g id="date">
				<rect width="3" height="3" x="0" y="0" fill="url(#date-backing)" />
				<rect width="1" height="1" x="1" y="1" fill="#9bd494" />
			</g>
			<linearGradient id="tick" x1="0%" y1="0%" x2="100%" y2="100%">
				<stop offset="0%" stop-color="#eba39e" />
				<stop offset="100%" stop-color="#d12e25" />
			</linearGradient>
		</defs>
		<rect width="14" height="14" rx="1" ry="1" x="-7" y="-7" fill="url(#backing)" />
		<rect width="12" height="12" x="-6" y="-6" fill="#fff" />
		<rect width="10" height="10" x="-5" y="-5" fill="url(#inner)" />
		<path fill="url(#center)"
			d="M-1,-4 h6 v1 h-6 m0,3 h6 v1 h-6 m0,2 h6 v1 h-6" />
		<use xlink:href="#date" transform="translate(-5,-5)" />
		<use xlink:href="#date" transform="translate(-5,2)" />
		<path fill="url(#tick)" d="M-5,-1.5 l1.5,1.5 l3,-3 v1.5 l-3,3 l-1.5,-1.5" />
		<g id="link-icon" transform="translate(1.5,4)">
			<defs>
				<linearGradient id="link-border" x1="0%" y1="0%" x2="100%"
					y2="0%">
					<stop offset="0%" stop-color="#858585" />
					<stop offset="100%" stop-color="#4a4a4a" />
				</linearGradient>
				<linearGradient id="link-inner" x1="0%" y1="0%" x2="100%" y2="0%">
					<stop offset="0%" stop-color="#dddddd" />
					<stop offset="100%" stop-color="#aeaeae" />
				</linearGradient>
				<radialGradient id="link-center-link" cx="50%" cy="0%" r="70%">
					<stop offset="0%" stop-color="#929292" />
					<stop offset="100%" stop-color="#414141" />
				</radialGradient>
				<radialGradient id="link-center-link-center" cx="50%" cy="50%"
					r="70%">
					<stop offset="0%" stop-color="#cecece" />
					<stop offset="100%" stop-color="#bdbdbd" />
				</radialGradient>
			</defs>
			<g id="link">
				<path fill="url(#link-border)"
					d="M-1.5,-3 l-1.5,0 a3.5,3.5 0 0,0 0,7 l1.5,0 a1.5,1.5 0 0,0 0,-3 h-2 a0.5,0.5 0 0,1 0,-1 h2 a1.5,1.5 0 0,0 0,-3   Z" />
				<path fill="url(#link-inner)"
					d="M-1.5,-2 l-1.5,0 a2.5,2.5 0 0,0 0,5 l1.5,0 a0.5,0.5 0 0,0 0,-1 l-1.5,0 a1.5,1.5 0 0,1 0,-3 l1.5,0 a0.5,0.5 0 0,0 0,-1 Z" />
			</g>
			<use xlink:href="#link" transform="rotate(180) translate(0,-1)" />
			<rect width="6" height="3" x="-3.25" y="-1" fill="url(#link-center-link)" />
			<rect width="4" height="1" x="-2.25" y="-0" fill="url(#link-center-link-center)" />
		</g>
	</g>
</svg>
