<?xml version="1.0" encoding="utf-8" standalone="yes"?>
<!DOCTYPE svg PUBLIC "-//W3C//DTD SVG 1.1//EN" "http://www.w3.org/Graphics/SVG/1.1/DTD/svg11.dtd">
<svg xmlns="http://www.w3.org/2000/svg" xmlns:xlink="http://www.w3.org/1999/xlink"
	width="16" height="16" version="1.1">
	<title>Text ABC</title>
	<desc>Text ABC Spelling Dictionary</desc>
	<g id="icon" transform="translate(8,8)">
		<defs>
			<linearGradient id="backing" x1="0%" y1="0%" x2="100%" y2="100%">
				<stop offset="0%" stop-color="#999999" />
				<stop offset="100%" stop-color="#000000" />
			</linearGradient>
		</defs>
		<g fill="url(#backing)">
			<path transform="translate(-8,4) scale(0.0070,-0.0070)"
				d="M412 1321H485L821 33H905V0H485V35H565L479 365H233L182 137Q178 121 178 109Q178 33 252 33H287V0H20V35H53Q121 35 141 125L412 1321ZM346 868L240 399H471L350 868H346Z" />
			<path transform="translate(-2.8,4) scale(0.0070,-0.0070)"
				d="M37 1303H356V831Q419 897 500 897Q634 897 707 775T780 449Q780 230 707 109T504 -12Q410 -12 358 63H354V0H33V35H119V1268H37V1303ZM356 748V217Q356 141 380 97T444 53Q484 53 499 102T514 266V672Q514 840 449 840Q417 840 387 806T356 748Z" />
			<path transform="translate(2.5,4) scale(0.0070,-0.0070)"
				d="M686 281H719Q663 -14 434 -14Q274 -14 174 112T74 444Q74 641 178 771T438 901Q555 901 624 840T694 676Q694 617 658 577T567 537Q521 537 488 569T455 645Q455 749 553 768Q596 776 596 799Q596 824 548 845T469 866Q418 866 390 841T352 767T342 598V195Q342 27 463 27Q537 27 595 92T686 281Z" />
		</g>
	</g>
</svg>
