<?xml version="1.0" encoding="utf-8" standalone="yes"?>
<!DOCTYPE svg PUBLIC "-//W3C//DTD SVG 1.1//EN" "http://www.w3.org/Graphics/SVG/1.1/DTD/svg11.dtd">
<svg xmlns="http://www.w3.org/2000/svg" xmlns:xlink="http://www.w3.org/1999/xlink"
	width="16" height="16" version="1.1">
	<title>Textfield Resize</title>
	<desc>Tectfield Text Field Resize</desc>
	<g id="icon" transform="translate(8,8)">
		<defs>
			<linearGradient id="arrow" x1="0%" y1="0%" x2="100%" y2="100%">
				<stop offset="0%" stop-color="#6e9458" />
				<stop offset="100%" stop-color="#376b19" />
			</linearGradient>
		</defs>
		<rect width="16" height="8" x="-8" y="-4" fill="#c9c9c9" />
		<path fill="#e8e8e8" d="M-7,-3 h15 v7 h-16 v-1 h1 z" />
		<rect width="14" height="6" x="-7" y="-3" fill="#ffffff" />
		<rect width="1" height="4" x="-6" y="-2" fill="#c9c9c9" />
	</g>
	<g id="add-icon" transform="translate(9,12)">
		<defs>
			<linearGradient id="add-backing" x1="0%" y1="0%" x2="100%"
				y2="100%">
				<stop offset="0%" stop-color="#70bd69" />
				<stop offset="100%" stop-color="#2f702a" />
			</linearGradient>
			<linearGradient id="add-center" x1="0%" y1="0%" x2="100%" y2="100%">
				<stop offset="0%" stop-color="#a7ca82" />
				<stop offset="100%" stop-color="#7bb05e" />
			</linearGradient>
		</defs>
		<path fill="url(#add-backing)"
			d="M-1,-3 h2 v-2 h3 v2 h2 v3 h-2 v2 h-3 v-2 h-2 v-3" />
		<path fill="url(#add-center)"
			d="M0,-2 h2 v-2 h1 v2 h2 v1 h-2 v2 h-1 v-2 h-2 v-1" />
	</g>
</svg>
