<?xml version="1.0" encoding="utf-8" standalone="yes"?>
<!DOCTYPE svg PUBLIC "-//W3C//DTD SVG 1.1//EN" "http://www.w3.org/Graphics/SVG/1.1/DTD/svg11.dtd">
<svg xmlns="http://www.w3.org/2000/svg" xmlns:xlink="http://www.w3.org/1999/xlink"
	width="16" height="16" version="1.1">
	<title>Text Strikethrough</title>
	<desc>Text Strikethrough</desc>
	<g id="icon" transform="translate(8,8)">
		<defs>
			<linearGradient id="backing" x1="0%" y1="0%" x2="100%" y2="100%">
				<stop offset="0%" stop-color="#999999" />
				<stop offset="100%" stop-color="#000000" />
			</linearGradient>
			<linearGradient id="line" x1="0%" y1="0%" x2="100%" y2="0%">
				<stop offset="0%" stop-color="#777" />
				<stop offset="100%" stop-color="#000000" />
			</linearGradient>
		</defs>
		<path fill="url(#backing)"
			d="M1,-5 h-2 c-4.5,0 -4.25,5 0,6 c3.5,1.25 2.5,3 0,3 c-1.75,0 -1.75,0 -1.75,-1.5 h-1 v1.5 a1,1 0 0,0 1,1 h2 c5,0 5,-4.5 0,-6 c-2.5,-0.75 -2.5,-3 0,-3 c1.75,0 1.75,0 1.75,2 h1 v-2 a1,1 0 0,0 -1,-1 " />
		<rect fill="url(#line)" width="13" height="1" x="-6.5" />
	</g>
</svg>