<?xml version="1.0" encoding="utf-8" standalone="yes"?>
<!DOCTYPE svg PUBLIC "-//W3C//DTD SVG 1.1//EN" "http://www.w3.org/Graphics/SVG/1.1/DTD/svg11.dtd">
<svg xmlns="http://www.w3.org/2000/svg" xmlns:xlink="http://www.w3.org/1999/xlink"
	width="16" height="16" version="1.1">
	<title>Text Superscript</title>
	<desc>Text Superscript</desc>
	<g id="icon" transform="translate(8,6)">
		<defs>
			<linearGradient id="backing" x1="0%" y1="0%" x2="100%" y2="100%">
				<stop offset="0%" stop-color="#999999" />
				<stop offset="100%" stop-color="#000000" />
			</linearGradient>
			<linearGradient id="script" x1="0%" y1="0%" x2="100%" y2="100%">
				<stop offset="0%" stop-color="#639ee3" />
				<stop offset="100%" stop-color="#5691dd" />
			</linearGradient>
		</defs>
		<path fill="url(#backing)"
			d="M-6,-2 l4.25,0 v1 h-1 l4,6 h1 v1 l-4.25,0 v-1 h1 l-4,-6 h-1 v-1" />
		<path fill="url(#backing)"
			d="M-1,-2 h3 v1 h-1 l-5,6 h1 v1 h-3 v-1 h1 l5,-6 h-1 v-1" />
		<!--
			<path fill="#f00" d="M2,1 c2,-4 8,-1 3,3 c-1,1 -1,1 0,1 l1.25,0 v-0.5
			l0.5,0 v1.5 l-4.25,0 v-0.4 c0,-1 0,-1 1,-2 l1,-1 c2,-1.5 0.5,-4 -1.7,-1
			l-0.7,-0.7" />
		-->
		<path fill="url(#script)"
			d="M2,-3 a2,2 0 1,1 4,0 c0,1.5 -3,3 -2,3 l1.5,0 v-0.5 l0.5,0 v1.5 h-4 v-1 c0,0 2.5,-2 2.5,-3 a0.75,0.75 0 0,0 -1.5,0 l-0.5,0 " />
	</g>
</svg>