<?xml version="1.0" encoding="utf-8" standalone="yes"?>
<!DOCTYPE svg PUBLIC "-//W3C//DTD SVG 1.1//EN" "http://www.w3.org/Graphics/SVG/1.1/DTD/svg11.dtd">
<svg xmlns="http://www.w3.org/2000/svg" xmlns:xlink="http://www.w3.org/1999/xlink"
	width="16" height="16" version="1.1">
	<title>Text List Bullets</title>
	<desc>Text List Bullets</desc>
	<g id="icon" transform="translate(8,8)">
		<defs>
			<linearGradient id="bullets" x1="0%" y1="0%" x2="100%" y2="100%">
				<stop offset="0%" stop-color="#95baeb" stop-opacity="0.87" />
				<stop offset="100%" stop-color="#3b6ed2" stop-opacity="0.87" />
			</linearGradient>
			<linearGradient id="lines" x1="0%" y1="0%" x2="100%" y2="100%">
				<stop offset="0%" stop-color="#777777" />
				<stop offset="100%" stop-color="#030303" />
			</linearGradient>
		</defs>
		<path fill="url(#bullets)"
			d="M-7,-5 a1,1 0 0,1 1,-1 h1 a1,1 0 0,1 1,1 v1 a1,1 0 0,1 -1,1 h-1 a1,1 0 0,1 -1,-1 m0,4 a1,1 0 0,1 1,-1 h1 a1,1 0 0,1 1,1 v1 a1,1 0 0,1 -1,1 h-1 a1,1 0 0,1 -1,-1 m0,4 a1,1 0 0,1 1,-1 h1 a1,1 0 0,1 1,1 v1 a1,1 0 0,1 -1,1 h-1 a1,1 0 0,1 -1,-1  " />
		<path fill="#b5cff1"
			d="M-6,-5 h1 v1 h-1 m0,4 h1 v1 h-1 m0,4 h1 v1 h-1" />
		<path fill="url(#lines)"
			d="M-2.5,-5 l8.5,0 v1 l-8.5,0 m0,4 l8.5,0 v1 l-8.5,0 m0,4 l8.5,0 v1 l-8.5,0" />
	</g>
</svg>