<?xml version="1.0" encoding="utf-8" standalone="yes"?>
<!DOCTYPE svg PUBLIC "-//W3C//DTD SVG 1.1//EN" "http://www.w3.org/Graphics/SVG/1.1/DTD/svg11.dtd">
<svg xmlns="http://www.w3.org/2000/svg" xmlns:xlink="http://www.w3.org/1999/xlink"
	width="16" height="16" version="1.1">
	<title>Text Heading 1</title>
	<desc>Text Heading 1 Level One</desc>
	<g id="icon" transform="translate(8,8)">
		<defs>
			<linearGradient id="backing" x1="0%" y1="0%" x2="100%" y2="100%">
				<stop offset="0%" stop-color="#767676" />
				<stop offset="100%" stop-color="#070707" />
			</linearGradient>
		</defs>
		<path fill="url(#backing)"
			d="M-7,-3 a0.33,0.33 0 0,1 0,-0.66 h2 a0.33,0.33 0 0,1 0,0.66 l-0.33,0 v2.275 l3.66,0 v-2.275 l-0.33,0 a0.33,0.33 0 0,1 0,-0.66 h2 a0.33,0.33 0 0,1 0,0.66 v6 a0.33,0.33 0 0,1 0,0.66 h-2 a0.33,0.33 0 0,1 0,-0.66 l0.33,0 v-3.275 l-3.66,0 v3.275 l0.33,0 a0.33,0.33 0 0,1 0,0.66  h-2 a0.33,0.33 0 0,1 0,-0.66" />
		<path fill="url(#backing)"
			d="M4,-3.66 v6.66 h1 a0.33,0.33 0 0,1 0,0.66 l-3.33,0 a0.33,0.33 0 0,1 0,-0.66 l0.88,0 v-5 l-1.25,0  " />
	</g>
</svg>