<?xml version="1.0" encoding="utf-8" standalone="yes"?>
<!DOCTYPE svg PUBLIC "-//W3C//DTD SVG 1.1//EN" "http://www.w3.org/Graphics/SVG/1.1/DTD/svg11.dtd">
<svg xmlns="http://www.w3.org/2000/svg" xmlns:xlink="http://www.w3.org/1999/xlink"
	width="16" height="16" version="1.1">
	<title>Thunderbird Theme</title>
	<desc>Thunderbird Theme</desc>
	<image xlink:href="./thunderbird-16.png" width="16" height="16" />
	<g id="icon" transform="translate(8,8)">
		<defs>
			<linearGradient id="backing" x1="0%" y1="0%" x2="100%" y2="100%">
				<stop offset="0%" stop-color="#5a90db" />
				<stop offset="100%" stop-color="#1233b4" />
			</linearGradient>
			<linearGradient id="center" x1="0%" y1="0%" x2="100%" y2="100%">
				<stop offset="0%" stop-color="#b4cef2" />
				<stop offset="100%" stop-color="#699bdc" />
			</linearGradient>
			<linearGradient id="inner" x1="0%" y1="0%" x2="100%" y2="100%">
				<stop offset="0%" stop-color="#72a1df" />
				<stop offset="100%" stop-color="#528fdb" />
			</linearGradient>
			<linearGradient id="eye" x1="0%" y1="0%" x2="100%" y2="100%">
				<stop offset="0%" stop-color="#c4581e" />
				<stop offset="100%" stop-color="#b84503" />
			</linearGradient>
			<linearGradient id="letter-center" x1="100%" y1="0%" x2="0%"
				y2="100%">
				<stop offset="30%" stop-color="#e4e4e4" />
				<stop offset="80%" stop-color="#fff" />
			</linearGradient>
		</defs>
		<path fill="#000" opacity="0.21" d="M3,7 l-9,-3 v-9 l9,2.5" />
		<path fill="#fff" d="M3,6 l-8,-2.5 v-7 l8,2.5" />
		<path fill="url(#letter-center)" d="M4,5.5 l-8,-2.5 v-6 l8,2.5" />
		<path fill="#000" opacity="0.21" d="M-5,-2.25 l4,5 l4,-2.5 v-1.5 " />
		<path fill="#fff" d="M-5,-3.5 l4,5 l4,-2.5" />

		<path fill="url(#backing)"
			d="M0,-7 a7,7 0 0,1 -0.5,15 a6,6 0 0,0 3.5,-6 h-1 a3.5,3.5 0 0,0 -3.5,-5 l-3.5,3 v-1.5 a5,5 0 0,0 0,7 a7,7 0 0,1 1,-12 l1.5,-1.5 " />
		<path fill="url(#inner)" id="bird-inner"
			d="M0,-6 a6.5,6.5 0 0,1 5.5,9 a0.75,0.75 0 0,1 -1.5,0 a7,7 0 0,0 0,-2 l-0.5,0 a5,5 0 0,0 -5,-5 l-3,3 v-4 l1.5,-1 l1,-1" />
		<use xlink:href="#bird-inner" fill="url(#center)" opacity="0.1" />
		<circle r="0.5" cx="-3.5" cy="-3.5" fill="url(#eye)" />
		<path d="M-3.25,-1.5 l-1.75,1.5 v-1.5" fill="#aaaaaa" />
		<g id="palette" transform="translate(2,3) scale(0.65)">
			<defs>
				<linearGradient id="palette-backing" x1="0%" y1="0%" x2="100%"
					y2="100%">
					<stop offset="0%" stop-color="#d79662" />
					<stop offset="100%" stop-color="#9a6016" />
				</linearGradient>
				<linearGradient id="palette-in-border" x1="0%" y1="0%" x2="100%"
					y2="100%">
					<stop offset="0%" stop-color="#fdf2e7" />
					<stop offset="100%" stop-color="#f3d7ba" />
				</linearGradient>
				<linearGradient id="palette-center" x1="0%" y1="0%" x2="100%"
					y2="100%">
					<stop offset="0%" stop-color="#ebbc91" />
					<stop offset="100%" stop-color="#e09560" />
				</linearGradient>
			</defs>
			<path fill="url(#palette-backing)"
				d="M-1.25,1.25 a0.75,0.75 0 0,0 1.5,-1.5 a0.75,0.75 0 0,0 -1.5,1.5 l-2,2 c-2,-2 -4.75,-1 -4.75,-3.25 c0,-3 4,-8 9,-8 c5,0 7,2 7,7 c0,3 -4,8 -9,8 c-2.25,0 -1.25,-2.75 -3.25,-4.75 Z" />
			<path fill="url(#palette-in-border)"
				d="M-2,2 a1.5,1.5 0 0,0 3,-3 a1.5,1.5 0 0,0 -3,3 l-0.5,0.5 c-2,-2 -4.5,-1 -4.5,-3 c0,-3 4,-6.5 7.5,-6.5 c4.75,0 6.5,2.25 6.5,6.5 c0,3 -4,6.5 -7.5,6.5 c-2.25,0 -1.25,-2.75 -3.25,-4.75 Z" />
			<path
				d="M-2.75,2.75 a2.25,2.25 0 0,0 4.5,-4.5 a2.25,2.25 0 0,0 -4.5,4.5 c-2,-3.5 -4.5,-1 -3,-4.5 c1.25,-3 4,-4.5 6.5,-4.5 c4,0 5.5,3 5.5,5.5 c0,3 -4,6 -6.5,6.25 c-2.25,0 -1.25,-2.75 -3,-3.5
 Z"
				fill="url(#palette-center)" />
			<g fill="#f04141">
				<path id="blob"
					d="M-5.5,-2 c-0.5,1 0.5,1 1.25,1.25 c1,0.5 2,-0.5 1.25,-1 c-1,-1 0,-1.25 0.25,-1.5 c0.5,-0.5 -0.75,-1 -1.75,-0.5 c-0.75,0.25 -0.5,1 -1,1.75 " />
				<use xlink:href="#blob" id="splot" transform="scale(0.5) rotate(30) translate(-6,2)"
					fill="#fff" opacity="0.5" />
			</g>
			<g fill="#fbaa41" transform="rotate(40)">
				<use xlink:href="#blob" />
				<use xlink:href="#splot" />
			</g>
			<g fill="#fbd142" transform="rotate(90)">
				<use xlink:href="#blob" />
				<use xlink:href="#splot" />
			</g>
			<g fill="#7ab83c" transform="rotate(130)">
				<use xlink:href="#blob" />
				<use xlink:href="#splot" />
			</g>
			<g fill="#2798ae" transform="rotate(220) translate(0,3)">
				<use xlink:href="#blob" />
				<use xlink:href="#splot" />
			</g>
		</g>
	</g>
</svg>
