<?xml version="1.0" encoding="utf-8" standalone="yes"?>
<!DOCTYPE svg PUBLIC "-//W3C//DTD SVG 1.1//EN" "http://www.w3.org/Graphics/SVG/1.1/DTD/svg11.dtd">
<svg xmlns="http://www.w3.org/2000/svg" xmlns:xlink="http://www.w3.org/1999/xlink"
	width="16" height="16" version="1.1">
	<title>Toolbar Bookmark Add</title>
	<desc>Toolbar Bookmark Add</desc>
	<g id="icon" transform="translate(8,8)">
		<defs>
			<linearGradient id="center" x1="0%" y1="0%" x2="100%" y2="100%">
				<stop offset="0%" stop-color="#ffffff" />
				<stop offset="100%" stop-color="#e9e9e9" />
			</linearGradient>
			<linearGradient id="grippy" x1="0%" y1="0%" x2="100%" y2="100%">
				<stop offset="0%" stop-color="#d1d1d1" />
				<stop offset="100%" stop-color="#b9b9b9" />
			</linearGradient>
			<linearGradient id="marker" x1="0%" y1="0%" x2="100%" y2="100%">
				<stop offset="0%" stop-color="#fe7874" />
				<stop offset="100%" stop-color="#ea111c" />
			</linearGradient>
			<linearGradient id="marker-center" x1="0%" y1="0%" x2="100%"
				y2="100%">
				<stop offset="0%" stop-color="#fdcec4" />
				<stop offset="100%" stop-color="#f99993" />
			</linearGradient>
		</defs>
		<rect width="16" height="9" rx="1" ry="1" x="-8" y="-5" fill="#000"
			opacity="0.21" />
		<rect width="14" height="7" x="-7" y="-4" fill="#ffffff" />
		<rect width="12" height="5" x="-6" y="-3" fill="url(#center)" />
		<path fill="url(#grippy)"
			d="M-5,-3 h2 v1 h-2 v-1 m0,2 h2 v1 h-2 v-1 m0,2 h2 v1 h-2 v-1" />
		<path fill="url(#marker)" d="M-4,-6 h3 v12 l-1.5,-1.5 l-1.5,1.5 v-12" />
		<path fill="url(#marker-center)" d="M-3,-5 h1 v8.5 h-1 v-8.5 z" />
		<g id="add" transform="translate(4.5,4.5)">
			<defs>
				<linearGradient id="backing_add" x1="0%" y1="0%" x2="100%"
					y2="100%">
					<stop offset="0%" stop-color="#6e9458" />
					<stop offset="100%" stop-color="#376b19" />
				</linearGradient>
				<linearGradient id="center_add" x1="0%" y1="0%" x2="100%" y2="100%">
					<stop offset="0%" stop-color="#b1d390" />
					<stop offset="100%" stop-color="#8fbc67" />
				</linearGradient>
			</defs>
			<circle id="back" r="3.5" fill="url(#backing_add)" />
			<circle id="center-dot" r="2.5" fill="url(#center_add)" />
			<path fill="#fff"
				d="M-0.5,-0.5 v-1 h1 v1 h1 v1 h-1 v1 h-1 v-1 h-1 v-1 h1 z " />
		</g>
	</g>
</svg>
