<?xml version="1.0" encoding="utf-8" standalone="yes"?>
<!DOCTYPE svg PUBLIC "-//W3C//DTD SVG 1.1//EN" "http://www.w3.org/Graphics/SVG/1.1/DTD/svg11.dtd">
<svg xmlns="http://www.w3.org/2000/svg" xmlns:xlink="http://www.w3.org/1999/xlink"
	width="16" height="16" version="1.1">
	<title>Toolbar Button</title>
	<desc>Toolbar Button</desc>
	<g id="icon" transform="translate(8,8)">
		<defs>
			<linearGradient id="center" x1="0%" y1="0%" x2="100%" y2="100%">
				<stop offset="0%" stop-color="#ffffff" />
				<stop offset="100%" stop-color="#e9e9e9" />
			</linearGradient>
			<linearGradient id="grippy" x1="0%" y1="0%" x2="100%" y2="100%">
				<stop offset="0%" stop-color="#d1d1d1" />
				<stop offset="100%" stop-color="#b9b9b9" />
			</linearGradient>
			<linearGradient id="green-center" x1="0%" y1="0%" x2="100%"
				y2="100%">
				<stop offset="0%" stop-color="#89ae67" />
				<stop offset="100%" stop-color="#9cba7f" />
			</linearGradient>
			<linearGradient id="green-in-center" x1="0%" y1="0%" x2="100%"
				y2="100%">
				<stop offset="0%" stop-color="#9fbe83" />
				<stop offset="100%" stop-color="#a1bf86" />
			</linearGradient>
			<linearGradient id="red-center" x1="0%" y1="0%" x2="100%" y2="100%">
				<stop offset="0%" stop-color="#fa8987" />
				<stop offset="100%" stop-color="#f99c9a" />
			</linearGradient>
			<linearGradient id="red-in-center" x1="0%" y1="0%" x2="100%"
				y2="100%">
				<stop offset="0%" stop-color="#fb9d9b" />
				<stop offset="100%" stop-color="#fba19f" />
			</linearGradient>
		</defs>
		<rect width="16" height="9" rx="1" ry="1" x="-8" y="-5" fill="#000"
			opacity="0.21" />
		<rect width="14" height="7" x="-7" y="-4" fill="#ffffff" />
		<rect width="12" height="5" x="-6" y="-3" fill="url(#center)" />
		<rect width="3" height="3" x="-2" y="-2" fill="url(#green-center)" />
		<rect width="1" height="1" x="-1" y="-1" fill="url(#green-in-center)" />
		<rect width="3" height="3" x="2" y="-2" fill="url(#red-center)" />
		<rect width="1" height="1" x="3" y="-1" fill="url(#red-in-center)" />
		<path fill="url(#grippy)"
			d="M-5,-3 h2 v1 h-2 v-1 m0,2 h2 v1 h-2 v-1 m0,2 h2 v1 h-2 v-1" />
	</g>
</svg>
