<?xml version="1.0" encoding="utf-8" standalone="yes"?>
<!DOCTYPE svg PUBLIC "-//W3C//DTD SVG 1.1//EN" "http://www.w3.org/Graphics/SVG/1.1/DTD/svg11.dtd">
<svg xmlns="http://www.w3.org/2000/svg" xmlns:xlink="http://www.w3.org/1999/xlink"
	width="16" height="16" version="1.1">
	<title>Twitter</title>
	<desc>Twitter</desc>
	<g id="icon" transform="translate(8,8)">
		<defs>
			<linearGradient id="backing" x1="0%" y1="0%" x2="100%" y2="100%">
				<stop offset="0%" stop-color="#4db5f9" />
				<stop offset="100%" stop-color="#0785f5" />
			</linearGradient>
			<linearGradient id="center" x1="0%" y1="0%" x2="100%" y2="100%">
				<stop offset="0%" stop-color="#50baff" />
				<stop offset="100%" stop-color="#70c0f0" />
			</linearGradient>
			<linearGradient id="inner" x1="0%" y1="0%" x2="100%" y2="0%">
				<stop offset="0%" stop-color="#9bd7ff" />
				<stop offset="100%" stop-color="#c7e9ff" />
			</linearGradient>
		</defs>
		<rect width="14" height="14" x="-7" y="-7" rx="1" ry="1" fill="url(#backing)" />
		<rect width="12" height="12" x="-6" y="-6" fill="url(#inner)" />
		<rect width="10" height="10" x="-5" y="-5" fill="url(#center)" />
		<path fill="#fff" d="M-3,-2 a2,2 0 0,1 4,0 h1 a1.5,1.5 0 0,1 0,3 a1.5,1.5 0 0,1 0,3 h-2 a3,3 0 0,1 -3,-3" />
		<path fill="url(#center)" d="M-2,-2 a1,1 0 0,1 2,0 v1 h2 a0.5,0.5 0 0,1 0,1 h-2 v2 h2 a0.5,0.5 0 0,1 0,1 h-2 a2,2 0 0,1 -2,-2" />
	</g>
</svg>
