<?xml version="1.0" encoding="utf-8" standalone="yes"?>
<!DOCTYPE svg PUBLIC "-//W3C//DTD SVG 1.1//EN" "http://www.w3.org/Graphics/SVG/1.1/DTD/svg11.dtd">
<svg xmlns="http://www.w3.org/2000/svg" xmlns:xlink="http://www.w3.org/1999/xlink"
	width="16" height="16" version="1.1">
	<title>User</title>
	<desc>User</desc>
	<g id="icon" transform="translate(8,8)">
		<defs>
			<linearGradient id="backing" x1="0%" y1="0%" x2="100%" y2="100%">
				<stop offset="0%" stop-color="#ce6387" />
				<stop offset="100%" stop-color="#ce6387" />
			</linearGradient>
			<linearGradient id="in-border" x1="0%" y1="0%" x2="0%" y2="100%">
				<stop offset="0%" stop-color="#fff" />
				<stop offset="50%" stop-color="#fbbeda" />
				<stop offset="100%" stop-color="#fc95a0" />
			</linearGradient>
			<linearGradient id="center" x1="0%" y1="0%" x2="100%" y2="100%">
				<stop offset="20%" stop-color="#fc81b5" />
				<stop offset="100%" stop-color="#f26c88" />
			</linearGradient>
			<linearGradient id="head" x1="0%" y1="0%" x2="100%" y2="100%">
				<stop offset="0%" stop-color="#c99b6d" />
				<stop offset="100%" stop-color="#c59460" />
			</linearGradient>
			<linearGradient id="head-in" x1="0%" y1="0%" x2="100%" y2="100%">
				<stop offset="0%" stop-color="#eecfac" />
				<stop offset="50%" stop-color="#f7d4af" />
				<stop offset="100%" stop-color="#f6cfa5" />
			</linearGradient>
			<linearGradient id="hair" x1="0%" y1="0%" x2="100%" y2="100%">
				<stop offset="0%" stop-color="#873e0c" />
				<stop offset="100%" stop-color="#754112" />
			</linearGradient>
			<linearGradient id="hand-fill" x1="0%" y1="0%" x2="100%" y2="100%">
				<stop offset="0%" stop-color="#c2986c" />
				<stop offset="100%" stop-color="#c2986c" />
			</linearGradient>
			<linearGradient id="hand-in-fill" x1="0%" y1="0%" x2="100%" y2="100%">
				<stop offset="0%" stop-color="#f7d4af" />
				<stop offset="100%" stop-color="#f7d4af" />
			</linearGradient>
		</defs>
		<path fill="url(#backing)" d="M-7,3 a7,4 0 0,0 14,0 l-7,-7 l-7,7 " />
		<path fill="url(#in-border)" d="M-5.5,3 a5.5,3 0 0,0 11,0 l-5.5,-5.5 l-5.5,5.5 " />
		<path fill="url(#center)" d="M-4,3 a4,2 0 0,0 8,0 l-4,-4 l-4,4 " />
		<circle r="4" cy="-3" fill="url(#head)" />
		<circle r="3" cy="-3" fill="url(#head-in)" />
		<path fill="url(#hair)" d="M-4,-3 a4,4 0 0,1 8,0 v5 a0.5,0.5 0 0,1 -1,0 v-5 a4,4 0 0,0 -6,0 v5 a0.5,0.5 0 0,1 -1,0 v-6 " />
		<g id="hand">
			<path fill="url(#hand-fill)"
				d="M5.5,3 l1.5,0 v1.25 a2,2 0 0,1 -2,2 v-2.25 a0.5,0.5 0 0,1 0.5,-0.5" />
			<rect fill="url(#hand-in-fill)" width="1" height="2" rx="0.25" ry="0.25"
				x="5" y="3" />
		</g>
		<use xlink:href="#hand" transform="scale(-1,1)" />
		<path d="M-4,2.5 a2,2 0 0,0 4,0 a2,2 0 0,0 4,0" fill="none" stroke="#d67191" stroke-width="1" />
	</g>
</svg>
