<?xml version="1.0" encoding="utf-8" standalone="yes"?>
<!DOCTYPE svg PUBLIC "-//W3C//DTD SVG 1.1//EN" "http://www.w3.org/Graphics/SVG/1.1/DTD/svg11.dtd">
<svg xmlns="http://www.w3.org/2000/svg" xmlns:xlink="http://www.w3.org/1999/xlink"
	width="16" height="16" version="1.1">
	<title>User Edit</title>
	<desc>User Edit</desc>
	<g id="icon" transform="translate(7,7)">
		<defs>
			<linearGradient id="backing" x1="0%" y1="0%" x2="100%" y2="100%">
				<stop offset="0%" stop-color="#1c48bc" />
				<stop offset="100%" stop-color="#1f3d9f" />
			</linearGradient>
			<linearGradient id="in-border" x1="0%" y1="0%" x2="0%" y2="100%">
				<stop offset="0%" stop-color="#fff" />
				<stop offset="50%" stop-color="#d6e4f6" />
				<stop offset="100%" stop-color="#61b9fe" />
			</linearGradient>
			<linearGradient id="center" x1="0%" y1="0%" x2="100%" y2="100%">
				<stop offset="20%" stop-color="#72d4ff" />
				<stop offset="50%" stop-color="#64b9fe" />
				<stop offset="100%" stop-color="#438dff" />
			</linearGradient>
			<linearGradient id="head" x1="0%" y1="0%" x2="100%" y2="100%">
				<stop offset="0%" stop-color="#9b5e1f" />
				<stop offset="50%" stop-color="#94591c" />
				<stop offset="100%" stop-color="#ae7434" />
			</linearGradient>
			<linearGradient id="head-in" x1="0%" y1="0%" x2="100%" y2="100%">
				<stop offset="0%" stop-color="#e4b78a" />
				<stop offset="50%" stop-color="#e5bb8e" />
				<stop offset="100%" stop-color="#f6cfa5" />
			</linearGradient>
			<linearGradient id="hair" x1="0%" y1="0%" x2="100%" y2="100%">
				<stop offset="0%" stop-color="#9b5812" />
				<stop offset="100%" stop-color="#5c330f" />
			</linearGradient>
			<linearGradient id="hand-fill" x1="0%" y1="0%" x2="100%" y2="100%">
				<stop offset="0%" stop-color="#c77429" />
				<stop offset="100%" stop-color="#ce7e2e" />
			</linearGradient>
		</defs>
		<linearGradient id="hand-in-fill" x1="0%" y1="0%" x2="100%" y2="100%">
			<stop offset="0%" stop-color="#edb87e" />
			<stop offset="100%" stop-color="#efbc83" />
		</linearGradient>
		<path fill="url(#backing)" d="M-7,3 a7,4 0 0,0 14,0 l-7,-7 l-7,7 " />
		<path fill="url(#in-border)" d="M-5.5,3 a5.5,3 0 0,0 11,0 l-5.5,-5.5 l-5.5,5.5 " />
		<path fill="url(#center)" d="M-4,3 a4,2 0 0,0 8,0 l-4,-4 l-4,4 " />
		<circle r="4" cy="-3" fill="url(#head)" />
		<circle r="3" cy="-3" fill="url(#head-in)" />
		<path fill="url(#hair)" d="M-4,-3 a4,4 0 0,1 8,0 c-2,0 -4,0 -4,-1 c0,-1 -4,0 -4,1 " />
		<g id="hand">
			<path fill="url(#hand-fill)"
				d="M5.5,3 l1.5,0 v1.25 a2,2 0 0,1 -2,2 v-2.25 a0.5,0.5 0 0,1 0.5,-0.5" />
			<rect fill="url(#hand-in-fill)" width="1" height="2" rx="0.25" ry="0.25"
				x="5" y="3" />
		</g>
		<use xlink:href="#hand" transform="scale(-1,1)" />
	</g>
	<g id="pencil" transform="translate(11,10)">
		<defs>
			<linearGradient id="top_center" x1="0%" y1="0%" x2="100%" y2="0%">
				<stop offset="0%" stop-color="#f7e1c9" />
				<stop offset="100%" stop-color="#f4cfa5" />
			</linearGradient>
			<linearGradient id="pencil-back" x1="100%" y1="0%" x2="0%"
				y2="100%">
				<stop offset="0%" stop-color="#ca9350" stop-opacity="1.0" />
				<stop offset="20%" stop-color="#ca9350" stop-opacity="0.5" />
				<stop offset="30%" stop-color="#ca9350" stop-opacity="0.0" />
				<stop offset="55%" stop-color="#936d1e" stop-opacity="0.0" />
				<stop offset="65%" stop-color="#936d1e" stop-opacity="0.3" />
				<stop offset="80%" stop-color="#936d1e" stop-opacity="0.9" />
				<stop offset="92%" stop-color="#936d1e" stop-opacity="1.0" />
				<stop offset="94%" stop-color="#594212" stop-opacity="1.0" />
			</linearGradient>
			<linearGradient id="pencil-cross" x1="37%" y1="37%" x2="63%"
				y2="63%">
				<stop offset="0%" stop-color="#e4ba2f" />
				<stop offset="100%" stop-color="#d98f3b" />
			</linearGradient>
			<linearGradient id="pencil-nib" x1="100%" y1="0%" x2="0%" y2="100%">
				<stop offset="0%" stop-color="#fae7d1" stop-opacity="1.0" />
				<stop offset="75%" stop-color="#fae7d1" stop-opacity="0.9" />
				<stop offset="100%" stop-color="#fae7d1" stop-opacity="0.0" />
			</linearGradient>
			<linearGradient id="pencil-outer" x1="37%" y1="37%" x2="63%"
				y2="63%">
				<stop offset="0%" stop-color="#f8edc3" />
				<stop offset="10%" stop-color="#fcf4b3" />
				<stop offset="45%" stop-color="#f4d644" />
				<stop offset="55%" stop-color="#f4d644" />
				<stop offset="90%" stop-color="#fcf4b3" />
				<stop offset="100%" stop-color="#faee8e" />
			</linearGradient>
			<linearGradient id="pencil-nib-shadow" x1="0%" y1="0%" x2="100%"
				y2="100%">
				<stop offset="0%" stop-color="#e07500" stop-opacity="0.0" />
				<stop offset="40%" stop-color="#e07500" stop-opacity="0.2" />
				<stop offset="50%" stop-color="#e07500" stop-opacity="0.45" />
				<stop offset="60%" stop-color="#e07500" stop-opacity="0.4" />
				<stop offset="100%" stop-color="#e07500" stop-opacity="0.0" />
			</linearGradient>
		</defs>
		<path fill="url(#pencil-cross)" d="M2,-5 l-8,8 v3 h3 l8,-8 a2,1.25 45 0,0 -3,-3" />
		<path fill="url(#pencil-back)" d="M2,-5 l-8,8 v3 h3 l8,-8 a2,1.25 45 0,0 -3,-3" />
		<ellipse transform="translate(3.5,-3.5) rotate(45)" cx="0" cy="0" rx="1.25"
			ry="0.75" fill="url(#top_center)" />
		<path fill="url(#pencil-nib)" d="M-5,5 h2 l1,-1 a1.41,0.75 45 0,1 -2,-2 l-1,1 v2" />
		<path fill="url(#pencil-nib-shadow)" d="M-5,5 h2 l1,-1 a1.41,0.75 45 0,1 -2,-2 l-1,1 v2" />
		<path fill="url(#pencil-outer)"
			d="M2,-4 l-5.5,5.5 a1.41,0.75 45 0,0 2,2 l5.5,-5.5 a1.41,0.75 45 0,1 -2,-2" />
	</g>
</svg>
