<?xml version="1.0" encoding="utf-8" standalone="yes"?>
<!DOCTYPE svg PUBLIC "-//W3C//DTD SVG 1.1//EN" "http://www.w3.org/Graphics/SVG/1.1/DTD/svg11.dtd">
<svg xmlns="http://www.w3.org/2000/svg" xmlns:xlink="http://www.w3.org/1999/xlink"
	width="16" height="16" version="1.1">
	<title>User Delete</title>
	<desc>User Delete</desc>
	<g id="icon" transform="translate(8,8)">
		<defs>
			<linearGradient id="backing" x1="0%" y1="0%" x2="100%" y2="100%">
				<stop offset="0%" stop-color="#1c48bc" />
				<stop offset="100%" stop-color="#1f3d9f" />
			</linearGradient>
			<linearGradient id="in-border" x1="0%" y1="0%" x2="0%" y2="100%">
				<stop offset="0%" stop-color="#fff" />
				<stop offset="50%" stop-color="#d6e4f6" />
				<stop offset="100%" stop-color="#61b9fe" />
			</linearGradient>
			<linearGradient id="center" x1="0%" y1="0%" x2="100%" y2="100%">
				<stop offset="20%" stop-color="#72d4ff" />
				<stop offset="50%" stop-color="#64b9fe" />
				<stop offset="100%" stop-color="#438dff" />
			</linearGradient>
			<linearGradient id="head" x1="0%" y1="0%" x2="100%" y2="100%">
				<stop offset="0%" stop-color="#9b5e1f" />
				<stop offset="50%" stop-color="#94591c" />
				<stop offset="100%" stop-color="#ae7434" />
			</linearGradient>
			<linearGradient id="head-in" x1="0%" y1="0%" x2="100%" y2="100%">
				<stop offset="0%" stop-color="#e4b78a" />
				<stop offset="50%" stop-color="#e5bb8e" />
				<stop offset="100%" stop-color="#f6cfa5" />
			</linearGradient>
			<linearGradient id="hair" x1="0%" y1="0%" x2="100%" y2="100%">
				<stop offset="0%" stop-color="#9b5812" />
				<stop offset="100%" stop-color="#5c330f" />
			</linearGradient>
			<linearGradient id="hand-fill" x1="0%" y1="0%" x2="100%" y2="100%">
				<stop offset="0%" stop-color="#c77429" />
				<stop offset="100%" stop-color="#ce7e2e" />
			</linearGradient>
		</defs>
		<linearGradient id="hand-in-fill" x1="0%" y1="0%" x2="100%" y2="100%">
			<stop offset="0%" stop-color="#edb87e" />
			<stop offset="100%" stop-color="#efbc83" />
		</linearGradient>
		<path fill="url(#backing)" d="M-7,3 a7,4 0 0,0 14,0 l-7,-7 l-7,7 " />
		<path fill="url(#in-border)" d="M-5.5,3 a5.5,3 0 0,0 11,0 l-5.5,-5.5 l-5.5,5.5 " />
		<path fill="url(#center)" d="M-4,3 a4,2 0 0,0 8,0 l-4,-4 l-4,4 " />
		<circle r="4" cy="-3" fill="url(#head)" />
		<circle r="3" cy="-3" fill="url(#head-in)" />
		<path fill="url(#hair)" d="M-4,-3 a4,4 0 0,1 8,0 c-2,0 -4,0 -4,-1 c0,-1 -4,0 -4,1 " />
		<g id="hand">
			<path fill="url(#hand-fill)"
				d="M5.5,3 l1.5,0 v1.25 a2,2 0 0,1 -2,2 v-2.25 a0.5,0.5 0 0,1 0.5,-0.5" />
			<rect fill="url(#hand-in-fill)" width="1" height="2" rx="0.25" ry="0.25"
				x="5" y="3" />
		</g>
		<use xlink:href="#hand" transform="scale(-1,1)" />
	</g>
	<g id="delete" transform="translate(12.5,12.5)">
		<defs>
			<linearGradient id="backing_delete" x1="0%" y1="0%" x2="100%"
				y2="100%">
				<stop offset="0%" stop-color="#c4581e" />
				<stop offset="100%" stop-color="#b84503" />
			</linearGradient>
			<linearGradient id="center_delete" x1="0%" y1="0%" x2="100%"
				y2="100%">
				<stop offset="0%" stop-color="#fed6b8" />
				<stop offset="100%" stop-color="#dd6401" />
			</linearGradient>
		</defs>
		<circle id="back" r="3.5" fill="url(#backing_delete)" />
		<circle id="center-dot" r="2.5" fill="url(#center_delete)" />
		<path fill="#fff" d="M-1.5,-0.5 h3 v1 h-3 v-1 z " />
	</g>
</svg>
