<?xml version="1.0" encoding="utf-8" standalone="yes"?>
<!DOCTYPE svg PUBLIC "-//W3C//DTD SVG 1.1//EN" "http://www.w3.org/Graphics/SVG/1.1/DTD/svg11.dtd">
<svg xmlns="http://www.w3.org/2000/svg" xmlns:xlink="http://www.w3.org/1999/xlink"
	width="16" height="16" version="1.1">
	<title>User Comment</title>
	<desc>User Comment</desc>
	<g id="icon" transform="translate(6,11)">
		<defs>
			<linearGradient id="backing" x1="0%" y1="0%" x2="100%" y2="100%">
				<stop offset="0%" stop-color="#1c48bc" />
				<stop offset="100%" stop-color="#1f3d9f" />
			</linearGradient>
			<linearGradient id="in-border" x1="0%" y1="0%" x2="0%" y2="100%">
				<stop offset="0%" stop-color="#fff" />
				<stop offset="50%" stop-color="#d6e4f6" />
				<stop offset="100%" stop-color="#61b9fe" />
			</linearGradient>
			<linearGradient id="center" x1="0%" y1="0%" x2="100%" y2="100%">
				<stop offset="0%" stop-color="#6dc7fe" />
				<stop offset="50%" stop-color="#64b9fe" />
				<stop offset="100%" stop-color="#438dff" />
			</linearGradient>
			<linearGradient id="head" x1="0%" y1="0%" x2="100%" y2="100%">
				<stop offset="0%" stop-color="#9b5e1f" />
				<stop offset="50%" stop-color="#94591c" />
				<stop offset="100%" stop-color="#ae7434" />
			</linearGradient>
			<linearGradient id="head-in" x1="0%" y1="0%" x2="100%" y2="100%">
				<stop offset="0%" stop-color="#e4b78a" />
				<stop offset="50%" stop-color="#e5bb8e" />
				<stop offset="100%" stop-color="#f6cfa5" />
			</linearGradient>
			<linearGradient id="hair" x1="0%" y1="0%" x2="100%" y2="100%">
				<stop offset="0%" stop-color="#9b5812" />
				<stop offset="100%" stop-color="#5c330f" />
			</linearGradient>
			<linearGradient id="hand-fill" x1="0%" y1="0%" x2="100%" y2="100%">
				<stop offset="0%" stop-color="#c77429" />
				<stop offset="100%" stop-color="#ce7e2e" />
			</linearGradient>
		</defs>
		<linearGradient id="hand-in-fill" x1="0%" y1="0%" x2="100%" y2="100%">
			<stop offset="0%" stop-color="#edb87e" />
			<stop offset="100%" stop-color="#efbc83" />
		</linearGradient>
		<path fill="url(#backing)" d="M-5.75,2 a5.25,3 0 0,0 10.5,0 l-5.25,-5.25 l-5.25,5.25 " />
		<path fill="url(#in-border)" d="M-4.5,2 a4,2 0 0,0 8,0 l-4,-4 l-4,4 " />
		<path fill="url(#center)" d="M-3.25,2 a2.25,1 0 0,0 5.5,0 l-2.75,-2.75 l-2.75,2.75 " />
		<circle r="3.5" cy="-3" cx="-0.5" fill="url(#head)" />
		<circle r="2.5" cy="-3" cx="-0.5" fill="url(#head-in)" />
		<path transform="translate(-0.5,-0.25) scale(0.875)" fill="url(#hair)"
			d="M-4,-3 a4,4 0 0,1 8,0 c-2,0 -4,0 -4,-1 c0,-1 -4,0 -4,1 " />
		<g id="hand">
			<path fill="url(#hand-fill)"
				d="M3.5,2 l1.5,0 v1.25 a1,1 0 0,1 -1,1 l-0.5,0 a0.5,0.5 0 0,1 -0.5,-0.5 v-1.25 a0.5,0.5 0 0,1 0.5,-0.5" />
			<rect fill="url(#hand-in-fill)" width="1" height="1" rx="0.25" ry="0.25"
				x="3" y="2" />
		</g>
		<use xlink:href="#hand" transform="scale(-1,1) translate(1,0)" />
		<g id="comment" transform="translate(2,-3)">
			<defs>
				<linearGradient id="cen" x1="0%" y1="0%" x2="100%" y2="100%">
					<stop offset="0%" stop-color="#f0f6fe" />
					<stop offset="100%" stop-color="#d1e4fc" />
				</linearGradient>
			</defs>
			<path fill="#5887b8"
				d="M0,2 c4,-2 8,-3 8,-5 v-3 a2,2 0 0,0 -2,-2 h-7 a2,2 0 0,0 -2,2 v3 a2,2 0 0,0 2,2 l2.2,0" />
			<path fill="#fff"
				d="M2,-0.2 c3,-1 5,-1.80 5,-2.8 v-3 a1,1 0 0,0 -1,-1 h-7 a1,1 0 0,0 -1,1 v3 a1,1 0 0,0 1,1 l3.2,0" />
			<path fill="url(#cen)"
				d="M0,-3 h2 a2.5,2.5 0 0,0 3,0 a1,1 0 0,0 1,-1 v-1 a1,1 0 0,0 -1,-1 h-5 a1,1 0 0,0 -1,1 v1 a1,1 0 0,0 1,1 " />
		</g>
	</g>
</svg>
