<?xml version="1.0" encoding="utf-8" standalone="yes"?>
<!DOCTYPE svg PUBLIC "-//W3C//DTD SVG 1.1//EN" "http://www.w3.org/Graphics/SVG/1.1/DTD/svg11.dtd">
<svg xmlns="http://www.w3.org/2000/svg" xmlns:xlink="http://www.w3.org/1999/xlink"
	width="16" height="16" version="1.1">
	<title>Wiki</title>
	<desc>Wiki</desc>
	<g id="icon" transform="translate(8,8)">
		<defs>
			<linearGradient id="backing" x1="0%" y1="0%" x2="100%" y2="100%">
				<stop offset="0%" stop-color="#489be5" />
				<stop offset="100%" stop-color="#3d80dc" />
			</linearGradient>
			<linearGradient id="center" x1="0%" y1="0%" x2="100%" y2="100%">
				<stop offset="0%" stop-color="#8ec9f6" />
				<stop offset="100%" stop-color="#7ebcec" />
			</linearGradient>
		</defs>
		<path fill="url(#backing)"
			d="M-3,-4 h-4 v8 h4 v-3 h-1 v-2 h1 v-3 M2,-4 h-4 v8 h4 v-3 h-1 v-2 h1 v-3 " />
		<path fill="url(#center)"
			d="M-4,-3 h-2 v6 h2 v-1 h-1 v-4 h1 v-1 M1,-3 h-2 v6 h2 v-1 h-1 v-4 h1 v-1 " />
		<rect width="3" height="10" x="3" y="-5" fill="url(#backing)" />
		<rect width="1" height="8" x="4" y="-4" fill="url(#center)" />
	</g>
</svg>