<?xml version="1.0" encoding="utf-8" standalone="yes"?>
<!DOCTYPE svg PUBLIC "-//W3C//DTD SVG 1.1//EN" "http://www.w3.org/Graphics/SVG/1.1/DTD/svg11.dtd">
<svg xmlns="http://www.w3.org/2000/svg" xmlns:xlink="http://www.w3.org/1999/xlink"
	width="16" height="16" version="1.1">
	<title>World Network Gear</title>
	<desc>World Globe Network Gear</desc>
	<g id="icon" transform="translate(8,6) scale(0.75)">
		<defs>
			<linearGradient id="backing" x1="0%" y1="0%" x2="100%" y2="100%">
				<stop offset="0%" stop-color="#6ec461" />
				<stop offset="100%" stop-color="#327a2f" />
			</linearGradient>
			<linearGradient id="in-border" x1="0%" y1="0%" x2="100%" y2="100%">
				<stop offset="0%" stop-color="#e2f3c0" />
				<stop offset="100%" stop-color="#bcdaa0" />
			</linearGradient>
			<radialGradient id="gloss" cx="50%" cy="30%" r="50%">
				<stop offset="0%" stop-color="#fff" stop-opacity="0.6" />
				<stop offset="100%" stop-color="#fff" stop-opacity="0.0" />
			</radialGradient>
			<linearGradient id="amer-fill" x1="0%" y1="0%" x2="100%" y2="100%">
				<stop offset="0%" stop-color="#6ddb77" />
				<stop offset="100%" stop-color="#80c079" />
			</linearGradient>
			<linearGradient id="sand" x1="0%" y1="0%" x2="100%" y2="100%">
				<stop offset="0%" stop-color="#f5db82" />
				<stop offset="100%" stop-color="#f4df90" />
			</linearGradient>
			<mask id="Mask">
				<rect width="16" height="16" x="-8" y="-8" fill="#000" />
				<circle r="6.4" fill="#fff" />
			</mask>
			<mask id="Masksand">
				<rect width="16" height="16" x="-8" y="-8" fill="#000" />
				<circle r="3" cx="-7" cy="1.5" fill="#fff" filter="url(#Gaussian_Blur05)" />
			</mask>
			<filter id="Gaussian_Blur">
				<feGaussianBlur in="SourceGraphic" stdDeviation="1" />
			</filter>
			<filter id="Gaussian_Blur025">
				<feGaussianBlur in="SourceGraphic" stdDeviation="0.25" />
			</filter>
			<filter id="Gaussian_Blur05">
				<feGaussianBlur in="SourceGraphic" stdDeviation="0.5" />
			</filter>
			<path id="amer"
				d="M-2,6 c1,-2 0,-3 -1,-3 c-3,0 0,-3 0,-3 c2,-2 2,-3 1,-4 c-1,-1 -1,0 -2,-1 h-3 v14 M0,10 v1 h1" />
			<path id="afra"
				d="M4.5,5 c-0.5,-1 -0.5,-2 -1,-2.5 c-3,0 -4,-4 1.5,-4 c2,0 2,-1.5 0,-1.5 c-0.5,0 -3.5,0 -3.5,2 c0,0.5 -1,-0.5 0,-1.75 c1,-0.5 3,-3 2,-3 h4 v10 M-12,0 h-1 v1 " />
		</defs>
		<circle r="8" fill="url(#backing)" />
		<circle r="7" fill="url(#in-border)" />
		<g id="map" mask="url(#Mask)">
			<circle r="7" fill="#5eb0d3" />
			<use xlink:href="#amer" fill="#206aa2" filter="url(#Gaussian_Blur)" />
			<use xlink:href="#amer" fill="#8adcbf" filter="url(#Gaussian_Blur025)" />
			<use xlink:href="#amer" fill="url(#amer-fill)" />
			<use xlink:href="#afra" fill="#206aa2" filter="url(#Gaussian_Blur)" />
			<use xlink:href="#afra" fill="#8adcbf" filter="url(#Gaussian_Blur025)" />
			<use xlink:href="#afra" fill="url(#amer-fill)" />
			<rect width="16" height="16" x="-8" y="-8" fill="url(#gloss)" />
		</g>
	</g>
	<g id="network" transform="translate(8,5)">
		<defs>
			<linearGradient id="network-center" x1="0%" y1="25%" x2="0%"
				y2="75%">
				<stop offset="0%" stop-color="#8ab8ff" />
				<stop offset="100%" stop-color="#7bafff" />
			</linearGradient>
		</defs>
		<path fill="#6a6a6a" d="M-2,6 h4 v1 h6 v3 h-16 v-3 h6 v-1" />
		<path fill="#8d8d8d"
			d="M-1,6 h2 v1 h-2 v-1 m-1,2 h-5 v1 h5 m9,0 h-5 v-1 h5" />
		<rect width="2" height="2" x="-1" y="7.8" fill="url(#network-center)" />
		<path fill="#0054f8" d="M-2,9.8 a1,1 0 0,0 1,1 h2 a1,1 0 0,0 1,-1 h-4" />
	</g>
	<g id="gear" transform="translate(8,8)">
		<defs>
				<linearGradient id="gear-backing" x1="0%" y1="0%" x2="100%"
				y2="100%">
				<stop offset="0%" stop-color="#ccc" />
				<stop offset="100%" stop-color="#222" />
			</linearGradient>
			<radialGradient id="gear-inner" cx="55%" cy="55%" r="50%">
				<stop offset="0%" stop-color="#aaa" />
				<stop offset="100%" stop-color="#eee" />
			</radialGradient>
		</defs>
		<path transform="scale(0.8)" id="branch"
			d="M4,4 a1,1 0 0,0 -2,0 a1,1 0 0,0 2,0 m2.75,-1.5 h2 l1.83691e-16,3 h-2 v0 l1.41421,1.41421 l-2.12132,2.12132 l-1.41421,-1.41421 h0 l1.22461e-16,2 l-3,3.67382e-16 l-1.22461e-16,-2 h0 l-1.41421,1.41421 l-2.12132,-2.12132 l1.41421,-1.41421 h0 l-2,2.44921e-16 l-5.51073e-16,-3 l2,-2.44921e-16 h0 l-1.41421,-1.41421 l2.12132,-2.12132 l1.41421,1.41421 h0 l-3.67382e-16,-2 l3,-7.34764e-16 l3.67382e-16,2 h0 l1.41421,-1.41421 l2.12132,2.12132 l-1.41421,1.41421 h0 z z"
			fill="url(#gear-backing)" />
		<path transform="scale(0.8)" id="inner-branch"
			d="M5,4 a2,2 0 0,0 -4,0 a2,2 0 0,0 4,0 m1.75,-0.5 h1 l6.12303e-17,1 h-1 l-0.727099,1.75537 l0.707107,0.707107 l-0.707107,0.707107 l-0.707107,-0.707107 l-1.75537,0.727099 l6.12303e-17,1 l-1,1.22461e-16 l-6.12303e-17,-1 l-1.75537,-0.727099 l-0.707107,0.707107 l-0.707107,-0.707107 l0.707107,-0.707107 l-0.727099,-1.75537 l-1,1.22461e-16 l-1.83691e-16,-1 l1,-1.22461e-16 l0.727099,-1.75537 l-0.707107,-0.707107 l0.707107,-0.707107 l0.707107,0.707107 l1.75537,-0.727099 l-1.83691e-16,-1 l1,-2.44921e-16 l1.83691e-16,1 l1.75537,0.727099 l0.707107,-0.707107 l0.707107,0.707107 l-0.707107,0.707107 l0.727099,1.75537 z"
			fill="url(#gear-inner)" />
	</g>
</svg>
