<?xml version="1.0" encoding="utf-8" standalone="yes"?>
<!DOCTYPE svg PUBLIC "-//W3C//DTD SVG 1.1//EN" "http://www.w3.org/Graphics/SVG/1.1/DTD/svg11.dtd">
<svg xmlns="http://www.w3.org/2000/svg" xmlns:xlink="http://www.w3.org/1999/xlink"
	width="16" height="16" version="1.1">
	<title>Wrench</title>
	<desc>Wrench Options Configure Controls</desc>
	<g id="wrench" transform="translate(8,8)">
		<defs>
			<linearGradient id="wrench-backing" x1="0%" y1="0%" x2="100%"
				y2="100%">
				<stop offset="0%" stop-color="#9d9d9d" />
				<stop offset="100%" stop-color="#848484" />
			</linearGradient>
			<linearGradient id="wrench-center" x1="0%" y1="0%" x2="100%"
				y2="100%">
				<stop offset="0%" stop-color="#e1e1e1" />
				<stop offset="100%" stop-color="#c3c3c3" />
			</linearGradient>
			<linearGradient id="wrench-handel" x1="0%" y1="0%" x2="100%"
				y2="100%">
				<stop offset="0%" stop-color="#85a7e1" />
				<stop offset="100%" stop-color="#497dd1" />
			</linearGradient>
			<linearGradient id="wrench-handel-inner" x1="0%" y1="0%" x2="100%"
				y2="100%">
				<stop offset="0%" stop-color="#bacdee" />
				<stop offset="100%" stop-color="#abc3ea" />
			</linearGradient>
			<linearGradient id="wrench-handel-center" x1="0%" y1="0%" x2="100%"
				y2="100%">
				<stop offset="0%" stop-color="#96b4e5" />
				<stop offset="100%" stop-color="#a5bfe9" />
			</linearGradient>
		</defs>
		<path fill="url(#wrench-handel)" d="M0,0 l2,2 l-5.1,5.1 a2.828,2.828 0 0,1 -4,-4 l5.1,-5.1 l2,2 " />
		<path fill="url(#wrench-handel-inner)"
			d="M-0.7,0.7 l1.4,1.4 l-4.4,4.4 a1.98,1.98 0 0,1 -2.8,-2.8 l4.4,-4.4 l2,2 " />
		<path fill="url(#wrench-handel-center)"
			d="M-1.4,1.4 l.7,0.7 l-3.7,3.7 a1,1 0 0,1 -1.4,-1.4 l3.7,-3.7 l2,2 " />
		<path fill="url(#wrench-backing)"
			d="M0,0 l-1.4,-1.4 l1,-1 c0.4,-0.4 0.4,-0.4 0.4,-0.8 v-1.8 a3,3 0 0,1 3,-3 h2 v2.5 l-0.25,0 a0.75,0.75 0 1,0 0.75,0.75 v-0.25 l2.5,0 v2 a3,3 0 0,1 -3,3 l-1.8,0 c-0.4,0 -0.4,0 -0.8,0.4 l-1,1" />
		<path fill="url(#wrench-center)"
			d="M0,0 l-0.7,-0.7 l1,-1 c0.4,-0.4 0.4,-0.4 0.4,-0.8 v-2.8 a2,2 0 0,1 2,-2 l1.7,0 v1 a1.6,1.6 0 1,0 2,2 h1 v1.7 a2,2 0 0,1 -2,2  l-2.8,0 c-0.4,0 -0.4,0 -0.8,0.4 l-1,1 " />
	</g>
</svg>
