<?xml version="1.0" encoding="utf-8" standalone="yes"?>
<!DOCTYPE svg PUBLIC "-//W3C//DTD SVG 1.1//EN" "http://www.w3.org/Graphics/SVG/1.1/DTD/svg11.dtd">
<svg xmlns="http://www.w3.org/2000/svg" xmlns:xlink="http://www.w3.org/1999/xlink"
	width="16" height="16" version="1.1">
	<title>Zoom Out</title>
	<desc>Zoom Out</desc>
	<g id="icon" transform="translate(8,8)">
		<defs>
			<linearGradient id="backing" x1="0%" y1="0%" x2="0%" y2="100%">
				<stop offset="0%" stop-color="#cea75d" />
				<stop offset="60%" stop-color="#bb814c" />
				<stop offset="100%" stop-color="#9b5830" />
			</linearGradient>
			<linearGradient id="handel" x1="0%" y1="0%" x2="0%" y2="100%">
				<stop offset="0%" stop-color="#e3cc99" />
				<stop offset="100%" stop-color="#e0c793" />
			</linearGradient>
			<linearGradient id="center" x1="0%" y1="0%" x2="100%" y2="100%">
				<stop offset="0%" stop-color="#cfe2f3" stop-opacity="0.5" />
				<stop offset="100%" stop-color="#cfe2f3" stop-opacity="0.4" />
			</linearGradient>
		</defs>
		<path transform="rotate(-45)"
			d="M0,3 a6,6 0 0,0 0,-12 a6,6 0 0,0 0,12 v-1.2 a4.8,4.8 0 0,1 0,-9.6 a4.8,4.8 0 0,1 0,9.6 m-2,0 v5 a2,2 0 0,0 4,0 v-5"
			fill="url(#backing)" />
		<path transform="rotate(-45)" d="M1,3 v4 a1,1 0 0,1 -2,0 v-4" fill="url(#handel)" />
		<circle r="4" cx="-2" cy="-2" fill="url(#center)" />
		<g id="minus-icons" transform="translate(-2,2)">
			<defs>
				<linearGradient id="minus-backing" x1="0%" y1="0%" x2="100%"
					y2="100%">
					<stop offset="0%" stop-color="#fc6f6d" />
					<stop offset="100%" stop-color="#ea111c" />
				</linearGradient>
				<linearGradient id="minus-center" x1="0%" y1="0%" x2="100%"
					y2="0%">
					<stop offset="0%" stop-color="#f2b5a6" />
					<stop offset="100%" stop-color="#e88c82" />
				</linearGradient>
			</defs>
			<rect x="-1" y="-3" width="7" height="3" fill="url(#minus-backing)" />
			<rect x="0" y="-2" width="5" height="1" fill="url(#minus-center)" />
		</g>
	</g>
</svg>
