<?xml version="1.0" encoding="utf-8"?>
<!-- Generator: Adobe Illustrator 16.0.0, SVG Export Plug-In . SVG Version: 6.00 Build 0)  -->
<!DOCTYPE svg PUBLIC "-//W3C//DTD SVG 1.1//EN" "http://www.w3.org/Graphics/SVG/1.1/DTD/svg11.dtd">
<svg version="1.1" id="Layer_1" xmlns="http://www.w3.org/2000/svg" xmlns:xlink="http://www.w3.org/1999/xlink" x="0px" y="0px"
	 width="108px" height="108px" viewBox="0 0 108 108" enable-background="new 0 0 108 108" xml:space="preserve">
<path fill="#D4D4D4" d="M18.328,35.25l-0.101,27.621c-0.114,5.654-0.038,11.312-0.038,17.668l37.45,12.336
	c12.293-4.33,24.086-8.486,36.422-12.832c0-16.602,0-35.473,0-52.162L54.936,14.895c0,0,0.758,0.098,0,0L18.494,27.881L18.328,35.25
	l-3.5-9.667l40.199-14l40.342,14c0,19.503,0,38.476,0,57L55.41,96.416l-40.724-13.33l0.141-57.502"/>
<path fill="#999999" d="M20.056,30.034c11.572,4.014,33.683,11.684,33.683,11.684v48.31L20.056,78.411V30.034z"/>
<path fill="#999999" d="M89.95,77.881L56.335,89.604V41.88l33.614-11.813L89.95,77.881z"/>
<path fill="#999999" d="M55.04,17.28c10.685,3.748,21.117,7.407,32.524,11.408c-11.398,4.003-21.82,7.664-32.274,11.336
	c-10.62-3.664-21.218-7.32-32.8-11.315C33.885,24.709,44.308,21.049,55.04,17.28z"/>
</svg>
