<?xml version="1.0" encoding="utf-8"?>
<!-- Generator: Adobe Illustrator 16.0.0, SVG Export Plug-In . SVG Version: 6.00 Build 0)  -->
<!DOCTYPE svg PUBLIC "-//W3C//DTD SVG 1.1//EN" "http://www.w3.org/Graphics/SVG/1.1/DTD/svg11.dtd">
<svg version="1.1" id="Layer_1" xmlns="http://www.w3.org/2000/svg" xmlns:xlink="http://www.w3.org/1999/xlink" x="0px" y="0px"
	 width="108px" height="108px" viewBox="0 0 108 108" enable-background="new 0 0 108 108" xml:space="preserve">
<path fill-rule="evenodd" clip-rule="evenodd" fill="#D4D4D4" d="M18.328,35.25l-0.101,27.621
	c-0.114,5.654-0.038,11.312-0.038,17.668l37.45,12.336c12.293-4.33,24.085-8.486,36.422-12.832c0-16.602,0-35.473,0-52.162
	L54.936,14.895c0,0,0.757,0.098,0,0L18.494,27.881L18.328,35.25l-3.5-9.667l40.2-14l40.341,14c0,19.503,0,38.475,0,57L55.41,96.416
	l-40.724-13.33l0.141-57.502"/>
<path fill-rule="evenodd" clip-rule="evenodd" fill="#C799E2" d="M1.668,57.71c-0.042-2.269,2-3.667,4.833-3.71
	c2.5,0.376,2.3,0.349,4,2.876l9.533-0.08l0.022-26.762c11.572,4.014,33.683,11.684,33.683,11.684v48.31L20.056,78.411l0.112-18.535
	l-9.5-0.166c0,0-2.189,2.666-4.667,2.666C3.335,62.376,1.709,59.941,1.668,57.71z"/>
<path fill-rule="evenodd" clip-rule="evenodd" fill="#C799E2" d="M98.669,56.876c1.5-2,1.833-2,3.833-2.333
	c2.667,0.333,3.89,1.003,4,3.667c0.117,2.84-1.167,3.167-3.667,4c-3.167-0.666-2.833-1.334-3.833-2.667l-9-0.167L89.95,77.881
	L56.335,89.604V41.88l33.614-11.813L89.835,56.71C89.835,56.71,98.835,56.876,98.669,56.876z"/>
<path fill-rule="evenodd" clip-rule="evenodd" fill="#C799E2" d="M55.04,17.28c10.684,3.748,21.117,7.407,32.524,11.408
	c-11.398,4.003-21.82,7.664-32.274,11.336c-10.62-3.664-21.218-7.32-32.8-11.315C33.885,24.709,44.308,21.049,55.04,17.28z"/>
</svg>
