<?xml version="1.0" encoding="utf-8"?>
<!-- Generator: Adobe Illustrator 16.0.0, SVG Export Plug-In . SVG Version: 6.00 Build 0)  -->
<!DOCTYPE svg PUBLIC "-//W3C//DTD SVG 1.1//EN" "http://www.w3.org/Graphics/SVG/1.1/DTD/svg11.dtd">
<svg version="1.1" id="Layer_1" xmlns="http://www.w3.org/2000/svg" xmlns:xlink="http://www.w3.org/1999/xlink" x="0px" y="0px"
	 width="108px" height="108px" viewBox="0 0 108 108" enable-background="new 0 0 108 108" xml:space="preserve">
<path fill-rule="evenodd" clip-rule="evenodd" fill="#E1C732" d="M19.513,78.375c0-7.821,0-15.25,0-23.496
	c11.465,3.994,22.449,7.82,33.508,11.673c0,7.9,0,15.501,0,23.553C41.627,86.116,30.584,82.251,19.513,78.375z"/>
<path fill-rule="evenodd" clip-rule="evenodd" fill="#E1C732" d="M55.396,89.603c0-8.197,0-15.453,0-22.936
	c11.189-3.883,22.215-7.708,33.539-11.637c0,7.81,0,15.082,0,22.886C77.949,81.744,66.933,85.583,55.396,89.603z"/>
<path fill-rule="evenodd" clip-rule="evenodd" fill="#BFDC96" d="M34.942,57.779c-5.486-1.829-10.402-3.468-15.447-5.15
	c0-7.904,0-15.328,0-23.477c5.251,1.741,10.303,3.417,15.447,5.123C34.942,42.005,34.942,49.409,34.942,57.779z"/>
<path fill-rule="evenodd" clip-rule="evenodd" fill="#BFDC96" d="M70.983,34.622c0,8.01,0,15.442,0,23.27
	c-5.271-1.75-10.259-3.405-15.562-5.166c0-7.681,0-15.381,0-23.509C60.695,31.049,65.759,32.808,70.983,34.622z"/>
<path fill-rule="evenodd" clip-rule="evenodd" fill="#BFDC96" d="M73.39,34.627c5.394-1.831,10.359-3.517,15.631-5.307
	c0,7.962,0,15.419,0,23.274c-5.131,1.744-10.254,3.485-15.631,5.313C73.39,50.09,73.39,42.664,73.39,34.627z"/>
<polygon fill-rule="evenodd" clip-rule="evenodd" fill="#BFDC96" points="52.982,29.264 52.982,52.56 37.056,58.271 37.056,34.454 
	"/>
<path fill-rule="evenodd" clip-rule="evenodd" fill="#D4D4D4" d="M17.3,34.454L17.2,62.074c-0.114,5.654-0.038,11.312-0.038,17.669
	l37.45,12.336c12.293-4.331,24.085-8.486,36.422-12.833c0-16.602,0-35.473,0-52.161L53.908,14.099c0,0,0.757,0.098,0,0
	L17.467,27.085L17.3,34.454l-3.5-9.667l40.2-14l40.341,14c0,19.503,0,38.476,0,57L54.383,95.62L13.659,82.289L13.8,24.787"/>
<polygon fill-rule="evenodd" clip-rule="evenodd" fill="#E1C732" points="39.559,59.618 54.133,54.453 69.206,59.696 54.331,64.772 
	"/>
<polygon fill-rule="evenodd" clip-rule="evenodd" fill="#BFDC96" points="85.76,27.224 72.165,31.955 58.325,27.325 72.124,22.215 
	"/>
<polygon fill-rule="evenodd" clip-rule="evenodd" fill="#BFDC96" points="49.984,27.224 36.39,31.955 22.55,27.325 36.349,22.215 
	"/>
<polygon fill-rule="evenodd" clip-rule="evenodd" fill="#BFDC96" points="67.401,21.181 53.807,25.912 39.967,21.282 53.766,16.172 
	"/>
</svg>
