<?xml version="1.0" encoding="utf-8"?>
<!-- Generator: Adobe Illustrator 16.0.0, SVG Export Plug-In . SVG Version: 6.00 Build 0)  -->
<!DOCTYPE svg PUBLIC "-//W3C//DTD SVG 1.1//EN" "http://www.w3.org/Graphics/SVG/1.1/DTD/svg11.dtd">
<svg version="1.1" id="Layer_1" xmlns="http://www.w3.org/2000/svg" xmlns:xlink="http://www.w3.org/1999/xlink" x="0px" y="0px"
	 width="108px" height="108px" viewBox="0 0 108 108" enable-background="new 0 0 108 108" xml:space="preserve">
<path fill-rule="evenodd" clip-rule="evenodd" fill="#9AC9DC" d="M18.966,52.965c0-8.29,0-15.747,0-23.826
	c5.627,1.975,10.87,3.814,16.308,5.723c0,7.84,0,15.392,0,23.609C29.562,56.542,24.301,54.767,18.966,52.965z"/>
<path fill-rule="evenodd" clip-rule="evenodd" fill="#9AC9DC" d="M71.093,58.604c-5.771-2.032-10.994-3.871-16.135-5.681
	c0-8.047,0-15.637,0-23.714c5.506,1.946,10.621,3.755,16.135,5.704C71.093,42.432,71.093,49.985,71.093,58.604z"/>
<path fill-rule="evenodd" clip-rule="evenodd" fill="#9AC9DC" d="M89.377,29.079c0,8.339,0,15.78,0,23.81
	c-5.156,1.781-10.386,3.588-16.192,5.595c0-8.095,0-15.593,0-23.533C78.296,33.096,83.519,31.203,89.377,29.079z"/>
<path fill-rule="evenodd" clip-rule="evenodd" fill="#9AC9DC" d="M35.313,84.742c-5.792-1.907-10.886-3.584-16.218-5.34
	c0-7.774,0-15.293,0-23.788c5.667,1.918,10.875,3.681,16.218,5.489C35.313,68.86,35.313,76.233,35.313,84.742z"/>
<path fill-rule="evenodd" clip-rule="evenodd" fill="#9AC9DC" d="M89.243,79.342c-5.135,1.727-9.94,3.344-15.245,5.128
	c0-7.953,0-15.341,0-23.5c4.671-1.674,9.668-3.466,15.245-5.465C89.243,63.956,89.243,71.375,89.243,79.342z"/>
<path fill-rule="evenodd" clip-rule="evenodd" fill="#9AC9DC" d="M53.387,67.571c0,7.621,0,14.869,0,23.097
	c-5.421-1.691-10.346-3.228-15.507-4.838c0-7.847,0-15.547,0-23.772C43.204,63.951,48.152,65.709,53.387,67.571z"/>
<path fill-rule="evenodd" clip-rule="evenodd" fill="#9AC9DC" d="M55.782,90.801c0-8.4,0-15.528,0-23.183
	c4.927-1.783,9.994-3.618,15.532-5.624c0,7.767,0,15.004,0,23.02L55.782,90.801z"/>
<path fill-rule="evenodd" clip-rule="evenodd" fill="#9AC9DC" d="M52.326,53.316c-4.647,1.587-9.29,3.173-14.391,4.915
	c0-7.959,0-15.467,0-23.33c4.645-1.677,9.239-3.336,14.391-5.196C52.326,37.92,52.326,45.435,52.326,53.316z"/>
<path fill-rule="evenodd" clip-rule="evenodd" fill="#9AC9DC" d="M21.523,27.81c5.384-1.884,9.986-3.493,14.927-5.222
	c4.367,1.547,9.012,3.193,14.943,5.295c-5.798,2.032-10.497,3.679-15.254,5.346C31.479,31.501,26.867,29.792,21.523,27.81z"/>
<path fill-rule="evenodd" clip-rule="evenodd" fill="none" d="M16.625,25.138c0.345,0.345,0.689,0.689,1.034,1.034
	C17.314,25.828,16.97,25.483,16.625,25.138z"/>
<path fill-rule="evenodd" clip-rule="evenodd" fill="#9AC9DC" d="M39.064,21.644c5.384-1.884,9.986-3.493,14.927-5.222
	c4.367,1.547,9.013,3.193,14.943,5.295c-5.797,2.032-10.496,3.679-15.254,5.346C49.02,25.335,44.408,23.625,39.064,21.644z"/>
<path fill-rule="evenodd" clip-rule="evenodd" fill="#9AC9DC" d="M57.356,27.81c5.385-1.884,9.986-3.493,14.928-5.222
	c4.367,1.547,9.012,3.193,14.943,5.295c-5.797,2.032-10.496,3.679-15.254,5.346C67.312,31.501,62.7,29.792,57.356,27.81z"/>
<path fill-rule="evenodd" clip-rule="evenodd" fill="#9AC9DC" d="M39.064,59.977c5.384-1.885,9.986-3.494,14.927-5.223
	c4.367,1.547,9.013,3.193,14.943,5.295c-5.797,2.033-10.496,3.68-15.254,5.346C49.02,63.668,44.408,61.958,39.064,59.977z"/>
<path fill-rule="evenodd" clip-rule="evenodd" fill="#D4D4D4" d="M17.3,35.25L17.2,62.872c-0.114,5.654-0.038,11.312-0.038,17.668
	l37.45,12.336c12.293-4.33,24.085-8.486,36.422-12.832c0-16.602,0-35.473,0-52.162L53.908,14.896c0,0,0.757,0.098,0,0L17.467,27.882
	L17.3,35.25l-3.5-9.667l40.2-14l40.341,14c0,19.503,0,38.475,0,57L54.383,96.417l-40.724-13.33L13.8,25.584"/>
</svg>
